<svg width="121" height="115" viewBox="0 0 121 115" fill="none" xmlns="http://www.w3.org/2000/svg">
<path d="M120.352 89.4525C122.373 97.3138 118.381 102.02 114.621 106.017C103.031 118.317 81.5905 117.796 69.7432 105.616C68.2623 104.092 65.8928 102.956 63.8067 102.675C56.6854 101.712 49.5255 101.017 42.3528 100.603C35.3732 100.202 30.6214 96.7255 28.3807 90.0809C21.9677 71.056 15.9282 51.8974 9.45083 32.8992C8.35624 29.6771 6.3216 26.3748 3.84913 24.1689C-1.25036 19.6098 -1.58517 12.2833 4.67328 9.83669C14.4859 5.98625 24.7106 2.14918 35.0255 1.09299C49.371 -0.377667 64.0642 -0.350928 78.4226 1.09299C88.5185 2.10907 98.5501 5.82581 108.118 9.67625C115.033 12.4438 114.879 18.2863 109.47 23.6073C106.869 26.1743 104.499 29.5702 103.366 33.0596C100.804 40.9076 99.0652 49.0496 97.0177 57.0714C96.0004 61.0421 98.6789 61.6304 101.435 62.8337C105.839 64.7589 110.719 66.644 113.952 70.0399C116.527 72.7405 119.141 79.4253 117.815 81.2569C115.098 84.9871 109.869 86.9925 105.388 88.9578C103.843 89.6397 101.345 88.276 99.3614 87.5674C95.5497 86.2171 91.8409 84.5058 88.0034 83.2356C79.8906 80.5617 72.0998 81.4976 64.9141 87.1797L63.3302 85.7759C64.1286 82.6875 64.0513 78.7435 65.9057 76.6846C70.2712 71.8448 74.9714 65.8552 80.6247 64.0904C88.7375 61.5636 94.3521 58.6757 95.7171 49.3438C96.6314 43.02 98.4342 36.8299 100.34 28.4204C70.6317 36.8432 42.7649 35.5865 13.5072 29.0755C15.0268 36.4288 15.7093 42.7258 17.6538 48.5817C22.1867 62.2454 27.3505 75.6818 32.2182 89.2119C34.2786 94.934 38.9145 96.8459 44.0784 97.3272C49.796 97.8486 55.578 97.8219 61.3213 97.7416C62.828 97.7149 64.6952 96.9796 65.7383 95.8966C72.1255 89.2787 80.7019 86.939 88.8019 90.4151C99.2712 94.9073 109.625 98.4369 120.365 89.4659L120.352 89.4525ZM57.252 29.6638C72.0482 30.2788 87.5399 29.5568 102.156 23.1127C104.809 21.9362 106.766 19.0483 109.058 16.9493C106.985 15.0107 105.066 12.8716 102.8 11.2138C101.28 10.1041 99.3485 9.48908 97.507 8.96766C78.59 3.64657 59.2995 2.33636 39.9061 4.3819C30.6729 5.35788 21.4913 7.61734 12.5157 10.1308C9.1804 11.0667 6.47613 14.3957 3.47568 16.6284C6.27009 18.9681 8.74257 22.11 11.9104 23.5271C26.14 29.8643 41.284 29.9713 57.2392 29.6504L57.252 29.6638Z" fill="#C3B099"/>
<path d="M52.7054 7.17597C65.3382 8.5664 79.233 9.83651 93.0377 11.8286C95.4458 12.1762 97.4546 15.5186 99.6567 17.4705C97.0554 19.4225 94.6731 22.5643 91.8272 23.0991C83.5083 24.65 75.0092 26.0137 66.5873 25.88C51.7782 25.6527 36.982 24.3024 22.1729 23.3532C20.9367 23.2729 19.4429 23.1125 18.5415 22.3638C16.5583 20.706 14.8714 18.6471 13.0557 16.7486C15.1161 15.1442 17.0219 12.5372 19.2884 12.1227C29.8736 10.2109 40.5748 8.90064 52.6925 7.1626L52.7054 7.17597ZM95.6904 15.6122C69.5105 10.8927 44.0775 10.3446 18.0521 15.5854C25.3279 24.1687 86.071 24.1687 95.6904 15.6122Z" fill="#C3B099"/>
</svg>
