<svg width="122" height="115" viewBox="0 0 122 115" fill="none" xmlns="http://www.w3.org/2000/svg">
<path d="M10.667 51.8147C11.3119 50.1845 11.7989 48.4727 12.6413 46.9648C17.1031 38.8679 21.6176 30.7983 26.1584 22.7422C37.438 2.70392 52.9952 -3.66758 76.8048 1.95673C77.8709 2.20126 78.8843 2.63599 79.9504 2.88052C91.0721 5.38022 90.9668 5.32588 85.4125 15.5828C74.9226 34.969 57.5754 47.8206 32.884 41.3948C25.6451 39.5064 19.6565 40.5933 16.4187 48.6901C15.7606 50.3475 13.9706 51.5158 12.7071 52.9015C12.0358 52.5347 11.3514 52.1679 10.6802 51.8011L10.667 51.8147ZM28.2379 35.689C56.1013 43.5141 74.2382 32.347 82.8723 8.79012C56.7463 -1.39884 36.5561 7.21423 29.4883 28.2442C42.242 20.5414 55.0879 13.8574 70.4608 15.0801C56.0092 20.8403 40.3336 23.8562 28.2379 35.689Z" fill="#C6B498"/>
<path d="M97.6664 114.986C82.583 97.665 74.9755 72.4372 91.7962 50.0894C92.7307 48.8531 93.3888 47.3044 94.5339 46.3399C101.799 40.1993 101.365 33.461 96.5344 26.0299C95.8106 24.9159 96.2449 22.9868 96.1133 20.9082C97.7058 21.506 98.285 21.5331 98.4297 21.8048C105.248 34.412 112.947 46.6251 118.58 59.7757C124.424 73.4425 120.607 86.7017 111.999 98.2628C107.696 104.037 102.655 109.226 97.6795 115L97.6664 114.986ZM97.798 107.691C118.501 85.2345 123.042 60.6587 108.301 50.8502C108.617 71.296 104.01 90.1796 96.6397 93.5895C101.036 77.1784 106.221 61.6097 102.352 44.8862C81.8723 64.5577 82.0697 87.1772 97.798 107.691Z" fill="#C6B498"/>
<path d="M78.4102 112.283C76.3702 112.405 74.3433 112.65 72.3032 112.65C64.3272 112.65 56.3643 112.46 48.3883 112.568C24.4339 112.921 9.19263 100.953 3.19088 76.9068C2.75654 75.1679 2.41433 73.3882 1.75625 71.7444C-1.17882 64.4763 -0.955074 63.9736 6.46815 63.5797C20.4459 62.8461 34.608 63.797 44.7162 74.6789C51.3629 81.8383 55.93 91.4159 60.0496 100.572C62.6161 106.265 65.6433 108.493 71.3029 108.411C73.7773 108.37 76.2517 109.131 78.7393 109.525C78.634 110.449 78.5155 111.373 78.4102 112.297V112.283ZM17.8004 76.9612C29.7644 87.0822 40.1491 99.2818 56.1801 104.172C49.5992 74.5022 26.803 64.2182 5.95484 69.5164C11.6802 99.1459 28.7773 110.503 49.3228 107.134C36.5691 99.2139 24.3944 91.1986 17.8004 76.9612Z" fill="#C6B498"/>
</svg>
