<svg width="138" height="23" viewBox="0 0 138 23" fill="none" xmlns="http://www.w3.org/2000/svg">
<path d="M11.2374 0L13.7604 7.76488H21.9249L15.3197 12.5638L17.8426 20.3287L11.2374 15.5298L4.63224 20.3287L7.1552 12.5638L0.549999 7.76488H8.71448L11.2374 0Z" fill="#F6D24F"/>
<path d="M39.9551 0L42.4781 7.76488H50.6426L44.0374 12.5638L46.5603 20.3287L39.9551 15.5298L33.3499 20.3287L35.8729 12.5638L29.2677 7.76488H37.4321L39.9551 0Z" fill="#F6D24F"/>
<path d="M68.6732 0L71.1961 7.76488H79.3606L72.7554 12.5638L75.2784 20.3287L68.6732 15.5298L62.068 20.3287L64.5909 12.5638L57.9857 7.76488H66.1502L68.6732 0Z" fill="#F6D24F"/>
<path d="M97.3908 0L99.9137 7.76488H108.078L101.473 12.5638L103.996 20.3287L97.3908 15.5298L90.7856 20.3287L93.3085 12.5638L86.7033 7.76488H94.8678L97.3908 0Z" fill="#F6D24F"/>
<path d="M126.237 0L128.76 7.76488H136.925L130.32 12.5638L132.843 20.3287L126.237 15.5298L119.632 20.3287L122.155 12.5638L115.55 7.76488H123.714L126.237 0Z" fill="#F6D24F"/>
</svg>
