<?xml version="1.0" encoding="UTF-8"?>
<svg id="Layer_1" data-name="Layer 1" xmlns="http://www.w3.org/2000/svg" viewBox="0 0 138.22 123.02">
  <defs>
    <style>
      .cls-1 {
        opacity: .85;
      }

      .cls-2 {
        fill: #4d2b10;
        stroke-width: 0px;
      }
    </style>
  </defs>
  <g>
    <g class="cls-1">
      <g>
        <path class="cls-2" d="m48.41,23.53c.75,0,1.52.01,2.27.02-.38-.03-.76-.09-1.15-.17-.5-.05-.76.05-1.13.15Z"/>
        <path class="cls-2" d="m52.79,23.6c.14,0,.28,0,.4,0,.12-.01.24-.03.35-.04l-.75.03Z"/>
        <path class="cls-2" d="m56.75,23.53c-.7-.04-1.37-.04-2.02-.02.57.05,1.23.06,2.02.02Z"/>
        <path class="cls-2" d="m53.6,23.37c.24.07.36.15-.04.2h-.02c.4-.02.79-.03,1.2-.05-.43-.03-.81-.08-1.14-.15Z"/>
        <path class="cls-2" d="m53.6,23.37c-.23-.07-.61-.14-.73-.18.21.07.46.13.73.18Z"/>
        <path class="cls-2" d="m54.62,21.68c.4-.05.3.43,1.1.34,1.86-.1,3.46-.28,5.21-.22.8-.09,2.03.5,2.83.42,1.87-.08,6.67-.45,3.86-.57-4.23-.15-6.99-.11-10.79-.1-3.09.12-6.05.34-9.2.52-.88.03-1.71,0-2.54-.02,1.09.06,2.19.12,3.42.19,1.62.12,3.57-.48,6.12-.56Z"/>
        <path class="cls-2" d="m31.65,23.72c.39-.07,1.18-.22,1.18-.22,1.78.27,3.63.04,5.48-.15-.27-.07-.55-.14-.83-.21-1.06.06-1.18.2-.23.27-2.17-.21-4.22-.17-6.3,0,.14.12.12.27.71.31Z"/>
        <path class="cls-2" d="m29.72,23.51c.41-.04.82-.07,1.22-.1,0-.01-.03-.03-.05-.04-.41.05-.82.09-1.22.13h.04Z"/>
        <path class="cls-2" d="m65.17,23.37c5.27.22,10.22.59,15.05,1.07.38-.06.65-.14,1.14-.04.37.12.74.21,1.12.28.7.08,1.41.16,2.1.24.24.01.49.03.75.04,0,0,.01,0,.02,0,.4-.01.29-.1.05-.19-.27-.08-.51-.16-.72-.25.13.05.49.16.72.25.33.09.69.18,1.12.25.64.04,1.32.1,2.01.21-.78-.04-1.44-.11-2.01-.21-.41-.02-.8-.04-1.19-.06-.11,0-.23,0-.35,0,1.61.18,3.2.38,4.79.61.37.04.72.07,1,.1,1.16.11,2.32.23,2.97.61.28.06.56.12.84.18l-.15-.08c.12.04.22.08.3.11,1.17.27,2.33.6,3.48.97.77.16,1.57.32,2.34.56,0,0,.44.36.65.54.35.02.81.14,1.31.36-.51-.44-1-.82-1.47-1.14-.68-.55-1.88-.22-2.65-.95.78.72,1.97.4,2.65.95.48.32.96.7,1.47,1.14,1.06.44,2.3,1.3,3.08,2.22-1.27-.73-2.21-1.51-3.08-2.22-.5-.22-.97-.35-1.31-.36-.21-.18-.65-.54-.65-.54-.78-.24-1.58-.4-2.34-.56,2.22.76,4.4,1.74,6.35,3.14.78.56,1.55,1.15,2.17,1.82.63.67,1.17,1.42,1.51,2.22.34.79.49,1.64.29,2.38-.17.76-.68,1.39-1.36,1.91-.68.52-1.5.95-2.37,1.34l-2.59,1.19c-.85.42-1.75.74-2.63,1.09-.89.34-1.76.71-2.66,1.02-7.19,2.49-14.78,4.06-22.92,4.74-4.4.39-8.74.52-13.02.48-4.28-.02-8.49-.21-12.66-.5-4.17-.28-8.24-.55-12.27-.81-4.02-.26-7.96-.57-11.8-1.23-3.82-.68-7.57-1.7-10.93-3.46-.83-.45-1.67-.9-2.44-1.45-.81-.53-1.52-1.06-2.04-1.62-.53-.55-.82-1.11-.84-1.47-.02-.37.08-.63.35-1,.42-.59,1.6-1.58,3.25-2.41,1.8-.93,3.83-1.91,5.85-2.81,4.06-1.81,8.24-3.26,11.15-4.07,3.8-1.43,4.66-2.25,4.44-2.87-.21-.6-1.48-.88-1.69-.89-2.71-.27-5.03.15-7.92.98-2.89.85-6.36,2.08-11.4,3.97,3.43-1.3,2.31-.49-.45.93-1.34.74-3.21,1.54-4.99,2.96-.88.7-1.75,1.58-2.35,2.74-.6,1.17-.78,2.59-.55,3.82.32,1.81,1.44,3.28,2.6,4.37.59.56,1.22,1.03,1.83,1.46.61.45,1.26.87,1.94,1.25,2.7,1.59,5.83,2.7,9.03,3.44,6.44,1.5,13.12,1.57,19.13,2.14,3.02.28,6.24.36,9.87.51,9.4.63,18.61.53,27.89-.62,4.64-.6,9.3-1.45,13.98-2.64,4.67-1.25,9.35-2.84,14.02-4.92.61-.29,1.21-.58,1.8-.87.59-.3,1.15-.56,1.77-.94.61-.36,1.26-.79,1.9-1.36.63-.56,1.25-1.29,1.69-2.19.42-.89.64-1.89.6-2.82-.03-.94-.26-1.78-.57-2.5-.64-1.44-1.53-2.51-2.49-3.41-.34-.34-.7-.66-1.07-.97l-1.07-.82c-.73-.52-1.46-1.03-2.21-1.47-1.49-.89-2.98-1.57-4.3-2.04-4.17-1.43-7.85-1.76-11.26-1.98,1.91.19,3.57.38,5.3.65,1.73.28,3.52.64,5.67,1.33,1.42.49.87.44-.26.24-1.13-.21-2.84-.47-3.79-.61-.82-.08-1.98-.86-2.81-.88-1.75-.3-3.39-.29-5.26-.37-.81.02-.66-.45-1.07-.44-2.54-.16-4.55.27-6.15-.01-1.22-.18-2.32-.35-3.4-.51-.68-.09-1.36-.16-2.08-.19-.45,0-.92.01-1.39.02.36.17.48.36.59.55-.67-.07-1.6-.25-2.27-.32.67.06,1.6.24,2.27.32-.11-.19-.23-.38-.59-.55-3.36.05-7.22.11-10.8.16l.05.04c2.09.03,4.13.18,6.28.58-.93-.15-.81-.29.26-.25.27.1.54.19.8.29-1.87.02-3.73.07-5.47-.36,0,0-.8.08-1.2.11-.59-.09-.55-.24-.67-.37-.41,0-.82,0-1.23,0,.86.27,3.59.69,3.59.69Z"/>
        <path class="cls-2" d="m86.57,25.03c-.28-.02-.63-.04-1-.07,1.34.16,2.68.33,4.02.53-.68-.32-1.85-.4-3.01-.46Z"/>
      </g>
    </g>
    <g class="cls-1">
      <g>
        <path class="cls-2" d="m89.59,38.03l-.75-.25c.12.07.23.16.33.28.15.1.27.02.42-.03Z"/>
        <path class="cls-2" d="m88.15,37.55s-.09-.03-.13-.04c-.04,0-.09,0-.13,0l.26.04Z"/>
        <path class="cls-2" d="m86.8,37.28c.23.09.45.14.67.18-.18-.09-.4-.16-.67-.18Z"/>
        <path class="cls-2" d="m87.82,37.7c-.06-.09-.08-.18.07-.19h0s-.41-.05-.41-.05c.13.07.25.15.34.24Z"/>
        <path class="cls-2" d="m87.82,37.7c.06.09.16.19.2.24-.05-.08-.12-.16-.2-.24Z"/>
        <path class="cls-2" d="m87.03,39.24c-.14.01.02-.44-.27-.41-.64-.05-1.21,0-1.79-.12-.29.04-.57-.57-.86-.53-.65-.01-2.35.25-1.43.44,1.39.27,2.34.31,3.58.58,1.04.11,2.07.17,3.15.31.29.06.55.18.81.29-.33-.17-.68-.35-1.05-.54-.49-.28-1.3.12-2.15-.02Z"/>
        <path class="cls-2" d="m94.97,40.19c-.15,0-.44.01-.44.01-.45-.53-1.1-.62-1.75-.71l.19.32c.35.1.44-.01.17-.22.6.53,1.24.8,1.94,1,0-.14.07-.27-.1-.4Z"/>
        <path class="cls-2" d="m95.49,40.7c-.14-.04-.28-.07-.41-.11v.04c.14.03.28.05.42.08v-.02Z"/>
        <path class="cls-2" d="m83.88,37.01c-.88-.21-1.74-.41-2.58-.61-.85-.17-1.67-.33-2.49-.49-.14.07-.25.16-.41.08-.11-.1-.23-.18-.36-.24l-.71-.15c-.08,0-.17,0-.26,0h0c-.14.03-.11.11-.04.2.09.07.16.14.22.22-.04-.05-.15-.13-.22-.22-.1-.08-.22-.15-.37-.2-.22-.02-.46-.01-.69-.07.27-.02.5,0,.69.07.14,0,.28,0,.41,0l.12-.02c-.54-.13-1.09-.22-1.64-.3-.13,0-.25,0-.35,0-.41.02-.81.03-1.03-.23l-.29-.05s.03.03.05.05c-.04-.02-.08-.04-.11-.06-.41-.07-.83-.14-1.25-.21-.28.06-.57.14-.85.17,0,0-.17-.17-.26-.26-.12.11-.29.18-.49.21.21.16.41.33.59.44.26.26.67-.41.96.08-.29-.49-.7.18-.96-.08-.18-.11-.37-.28-.59-.44-.4.06-.91-.06-1.31-.32.53-.17.95.05,1.31.32.19-.03.36-.1.49-.21.09.09.26.26.26.26.28-.03.57-.11.85-.17-.81-.16-1.64-.23-2.49-.33-1.36-.14-2.7-.35-4.03-.38-1.34-.04-2.66-.09-3.99-.13-1.33.03-2.67.06-4.04.1-1.37.01-2.74.17-4.17.23-1.55.05-3.06.23-4.56.34-1.5.09-2.97.26-4.43.42-5.87.63-10.82,2.7-16.79,3.64-1.14.21-2.67.79-4.18,1.4-1.51.6-2.92,1.39-3.92,1.85-2.34,1.94-.05,3.16.11,3.22,1.18.43,1.97.28,2.93-.04.48-.16,1-.37,1.63-.56.64-.18,1.39-.33,2.31-.43-1.23.18-.93-.25.01-.69.94-.44,2.51-.92,3.8-.7,1.87.32,3.74-.28,5.72-.92.99-.32,1.97-.75,2.98-1.04,1.01-.3,2.03-.56,3.03-.69,1-.15,2.03-.42,3.22-.62,6.2-.6,11.85-1.99,18.42-1.83.87,0,1.68-.1,2.47-.24.78-.11,1.54-.22,2.28-.3,1.08,0,2.21.26,3.07.37,1.36.16,2.55.13,3.7.05-1.27-.06-2.2-.04-3.61-.14-.94-.08.71-.54,1.35-.6.28-.07.63.5.91.43.58.07,1.14-.08,1.78-.14.28-.08.18.4.32.37.85.04,1.6-.45,2.12-.23.39.15.75.28,1.1.42.22.07.44.13.69.15.16-.01.32-.03.48-.04-.09-.17-.1-.35-.11-.53.22.06.51.23.73.31-.21-.08-.51-.25-.73-.31,0,.18.01.37.11.53,1.16-.04,2.48.03,3.72.1v-.05c-.71-.12-1.38-.32-2.04-.77.29.18.22.3-.14.24l-.22-.3c.65.01,1.3.03,1.81.5,0,0,.29-.04.44-.06.18.11.14.25.15.39.14.02.28.04.42.06-.23-.3-1.07-.81-1.07-.81Z"/>
        <path class="cls-2" d="m76.64,35.57c.1,0,.22.01.35.02-.45-.11-.91-.18-1.37-.26.21.26.62.24,1.03.24Z"/>
      </g>
    </g>
    <g class="cls-1">
      <g>
        <path class="cls-2" d="m110.74,49.7c-.08.57-.15,1.14-.23,1.72.07-.28.16-.56.27-.85.1-.37.02-.58-.04-.87Z"/>
        <path class="cls-2" d="m110.23,52.99c-.02.1-.04.21-.06.3,0,.09,0,.18,0,.27l.06-.57Z"/>
        <path class="cls-2" d="m109.76,55.98c.14-.52.23-1.02.3-1.51-.13.42-.23.91-.3,1.51Z"/>
        <path class="cls-2" d="m110.37,53.64c-.1.17-.19.25-.19-.07,0,0,0,0,0-.01-.02.3-.06.6-.11.91.1-.31.2-.59.3-.83Z"/>
        <path class="cls-2" d="m110.37,53.64c.1-.16.21-.44.26-.53-.09.15-.18.33-.26.53Z"/>
        <path class="cls-2" d="m111.89,54.72c-.01.32-.47.15-.49.78-.08.73-.15,1.41-.26,2.07-.11.66-.2,1.32-.42,1.97-.09.63-.87,1.41-.99,2.02-.32,1.42-1.22,5.14-.38,3.08,1.2-3.13,1.72-5.27,2.35-8.19.37-2.41.49-4.75.56-7.22.03-.69.11-1.33.19-1.97-.14.84-.25,1.7-.43,2.64-.14.62-.1,1.32-.05,2.13.01.8.07,1.7-.08,2.69Z"/>
        <path class="cls-2" d="m110.66,36.94c.1.29.31.87.31.87-.09.7-.06,1.39.03,2.08.07.7.18,1.4.3,2.11.06-.21.13-.43.19-.65-.09-.81-.23-.9-.28-.17.1-.84.1-1.65.03-2.45-.04-.8-.17-1.59-.34-2.38-.11.12-.26.13-.25.58Z"/>
        <path class="cls-2" d="m110.71,35.43c.07.31.13.62.2.92.01,0,.02-.03.04-.04-.08-.31-.15-.62-.23-.92v.04Z"/>
        <path class="cls-2" d="m108.31,62.26c-1.39,3.81-3.23,7.19-5.36,10.24-.08.29-.11.52-.37.81-.23.19-.46.39-.66.6-.33.43-.67.86-1,1.28-.11.15-.22.31-.34.46h0c-.15.28-.04.26.14.16.17-.13.35-.24.5-.33-.1.06-.33.23-.5.33-.21.16-.43.35-.67.59-.29.4-.61.81-1,1.18.37-.47.7-.86,1-1.18.18-.26.36-.5.53-.75.04-.08.09-.15.13-.23l-1.21,1.41-1.27,1.34c-.18.22-.36.42-.5.59-.59.67-1.17,1.36-1.73,1.57-.16.14-.33.29-.5.43l.12-.05c-.08.05-.15.1-.21.13l-1.05.91-1.1.87c-.4.46-.82.94-1.29,1.36,0,0-.43.12-.65.18-.13.24-.37.54-.7.81.5-.17.95-.33,1.36-.51.66-.19.84-1.22,1.69-1.36-.85.13-1.03,1.17-1.69,1.36-.41.18-.86.34-1.36.51-.69.56-1.67,1.17-2.59,1.43.88-.75,1.74-1.16,2.59-1.43.33-.27.57-.57.7-.81.21-.06.65-.18.65-.18.47-.42.89-.9,1.29-1.36-1.43,1.13-2.96,2.16-4.54,3.17-5.16,3.14-10.61,5.3-16.31,6.48-5.72,1.16-11.68,1.35-17.93.9-6.77-.53-13.3-1.57-18.91-4.2-2.77-1.32-5.31-2.9-7.61-4.78-2.32-1.85-4.4-3.96-6.26-6.27-3.74-4.61-6.53-10.02-8.28-16.1-.71-2.32-1.8-5.61-2.79-8.94-1-3.33-1.93-6.69-2.55-9.01-2.33-6.06-3.52-2.33-3.56-2-.37,2.14-.13,3.91.35,6.16.49,2.25,1.18,4.97,1.94,9.04-.56-2.76.02-1.85.79.4.78,2.25,1.91,5.81,2.43,8.49.68,3.9,2.81,8.3,5.84,12.33,3.02,4.06,6.9,7.74,10.84,10.79,1.97,1.54,4.35,2.82,7.1,4.03,3.54,1.63,7.23,2.61,10.86,3.19,3.65.59,7.21.85,10.83.97,7.24.19,14.78-.34,22.47-2.71,4.05-1.3,7.27-3.29,10.18-5.27,2.18-1.36,4.55-2.76,6.21-4.05,2.59-2.05,4.52-4.16,6.16-6.31-1.96,2.29-3.47,3.93-6.06,6.11-1.75,1.41.87-1.43,1.83-2.54.39-.5,1.5-.77,1.86-1.31.99-.96,1.69-2.04,2.57-3.22.32-.55.64-.19.8-.47.61-.8,1.03-1.61,1.37-2.35.36-.72.68-1.36,1.08-1.86.61-.76,1.15-1.45,1.65-2.15.3-.45.62-.89.86-1.41.13-.33.27-.67.41-1.02-.27.19-.48.19-.68.19.26-.45.73-1.04.97-1.51-.24.47-.71,1.06-.97,1.51.2,0,.41,0,.68-.19.99-2.45,1.96-5.32,2.64-8.02l-.05.02c-.47,1.55-1.09,3.03-2.03,4.44.38-.62.47-.49.17.29l-.49.47c.48-1.37.91-2.72,1.69-3.89,0,0,.11-.61.17-.92.22-.41.34-.34.5-.39.08-.3.17-.61.25-.93-.22.28-.54.92-.86,1.45-.31.54-.57,1.01-.57,1.01Z"/>
        <path class="cls-2" d="m100.02,76.42c.13-.18.29-.39.46-.62l-1.02,1.18-1.08,1.13c.53-.25,1.12-.94,1.63-1.68Z"/>
      </g>
    </g>
    <g class="cls-1">
      <g>
        <path class="cls-2" d="m103.21,80.28l.79-.11c-.14-.01-.28-.04-.42-.1-.18-.03-.25.1-.37.21Z"/>
        <path class="cls-2" d="m104.73,80.09s.1,0,.14-.01l.11-.06-.26.07Z"/>
        <path class="cls-2" d="m106.1,79.79c-.25,0-.48.05-.7.11.2.01.43-.02.7-.11Z"/>
        <path class="cls-2" d="m104.98,79.82c.09.06.15.13.01.2h0c.14-.04.27-.08.41-.12-.15,0-.29-.04-.42-.08Z"/>
        <path class="cls-2" d="m104.98,79.82c-.09-.06-.23-.1-.28-.14.08.05.18.1.28.14Z"/>
        <path class="cls-2" d="m105.11,78.09c.14-.07.16.41.43.26.65-.21,1.19-.49,1.82-.55.27-.14.77.35,1.04.22.65-.2,2.26-1.01,1.28-.88-1.47.22-2.45.44-3.8.68-1.09.32-2.12.7-3.22,1.08-.31.08-.61.12-.92.15.4-.01.81-.03,1.26-.03.6.03,1.2-.7,2.1-.92Z"/>
        <path class="cls-2" d="m97.55,81.71c.1-.11.31-.32.31-.32.69.03,1.26-.26,1.82-.63l-.35-.13c-.35.16-.34.3,0,.28-.4,0-.78.04-1.15.13-.35.12-.69.28-1.01.46.1.1.16.24.37.21Z"/>
        <path class="cls-2" d="m96.8,81.72c.13-.07.25-.15.38-.22l-.03-.03c-.12.08-.24.17-.36.25h.02Z"/>
        <path class="cls-2" d="m109.03,79.05c1.87-.2,3.63-.36,5.35-.6.12-.12.19-.24.37-.21.15.06.29.09.43.1.25-.03.5-.09.75-.13.08-.03.17-.06.25-.1h0c.13-.09.07-.15-.03-.2-.11-.03-.21-.07-.29-.11.06.03.2.06.29.11.13.03.27.05.43.04.22-.07.45-.16.69-.2-.25.13-.48.2-.69.2-.14.05-.27.11-.4.16l-.11.07c.57-.1,1.14-.22,1.7-.37.12-.05.24-.1.34-.14.39-.16.75-.4,1.08-.27l.3-.1s-.05-.01-.07-.02c.05,0,.09,0,.13,0,.43-.12.83-.32,1.24-.48.22-.21.45-.43.66-.63,0,0,.25.04.38.06.05-.16.15-.32.3-.46-.27,0-.54-.03-.76-.02-.36-.06-.35.72-.87.47.51.25.51-.53.87-.47.22-.01.49.02.76.02.31-.29.8-.51,1.29-.58-.32.49-.83.58-1.29.58-.15.14-.26.3-.3.46-.13-.02-.38-.06-.38-.06-.21.2-.45.42-.66.63.82-.31,1.6-.75,2.37-1.23,2.49-1.55,4.44-3.64,6.13-5.86,1.68-2.23,3.21-4.64,4.42-7.46,1.31-3.04,2.04-6.37,1.66-9.75-.38-3.36-2.08-6.32-4.33-8.64-2.28-2.32-5.22-4.09-8.68-5.2-1.33-.42-3.36-.57-5.32-.23-1.96.3-3.82,1.04-5.02,1.68-.72.59-1.05,1.12-1.15,1.55-.1.43.01.75.2,1,.39.5,1.05.73,1.13.74,1.23.27,1.96.13,2.91-.11.93-.22,2.13-.56,3.82-.16-1.14-.18-.79-.52.22-.64,1-.13,2.61.18,3.49,1.02,1.26,1.23,2.63,1.94,4.08,2.99,1.44,1.01,2.86,2.46,3.4,4.16.26.84.66,1.67.82,2.69.21,2.62-.23,5.22-1.21,7.91-.5,1.34-1.13,2.68-1.9,4.01-.78,1.32-1.69,2.67-2.73,3.86-1.07,1.29-1.78,2.61-2.73,3.67-.76.7-1.79,1.07-2.5,1.42-.56.29-1.09.56-1.6.82-.5.28-1.02.52-1.52.78.58-.21,1.08-.41,1.55-.66.5-.22.97-.5,1.54-.82.78-.41-.26.82-.79,1.19-.21.19-.78-.16-.98.03-.52.2-.98.52-1.53.84-.23.17-.32-.31-.44-.23-.79.3-1.33,1.04-1.91.99-.43,0-.82,0-1.2-.04-.24,0-.47.02-.72.07-.15.06-.31.12-.46.18.15.13.21.3.28.48-.24,0-.58-.07-.82-.07.24,0,.58.07.82.07-.06-.17-.13-.35-.28-.48-1.13.41-2.46.8-3.71,1.13l.02.04c.74-.12,1.46-.15,2.26.07-.34-.07-.32-.21.06-.27l.31.21c-.64.2-1.29.4-1.95.12,0,0-.27.13-.41.2-.22-.05-.22-.2-.28-.32-.14.03-.29.05-.43.08.33.21,1.33.42,1.33.42Z"/>
        <path class="cls-2" d="m116.61,77.96c-.1.03-.22.07-.34.12.48-.07.95-.19,1.43-.31-.32-.16-.69.04-1.08.19Z"/>
      </g>
    </g>
    <g class="cls-1">
      <g>
        <path class="cls-2" d="m103.99,76.94l.53-.08c-.09-.02-.19-.05-.3-.12-.13-.03-.17.08-.23.2Z"/>
        <polygon class="cls-2" points="105.01 76.79 105.1 76.78 105.18 76.73 105.01 76.79"/>
        <path class="cls-2" d="m105.91,76.52c-.17,0-.32.04-.47.1.14.01.3,0,.47-.1Z"/>
        <path class="cls-2" d="m105.15,76.52c.07.06.11.13.02.2h0s.27-.11.27-.11c-.1-.01-.2-.04-.29-.09Z"/>
        <path class="cls-2" d="m105.15,76.52c-.07-.06-.17-.11-.2-.14.06.05.13.1.2.14Z"/>
        <path class="cls-2" d="m105.11,74.81c.09-.07.14.41.32.27.42-.2.77-.48,1.18-.54.17-.14.54.34.71.21.42-.2,1.38-1.03.76-.89-.94.24-1.57.45-2.46.69-.71.31-1.39.66-2.11.99-.21.07-.41.08-.62.1.28,0,.57.02.87.02.41.05.77-.64,1.36-.85Z"/>
        <path class="cls-2" d="m100.25,77.93c.06-.09.17-.28.17-.28.53.13.84-.16,1.21-.44l-.27-.15c-.23.12-.2.25.04.27-.58-.09-1.06.08-1.46.38.09.1.16.23.31.22Z"/>
        <path class="cls-2" d="m99.7,77.88c.08-.06.16-.12.24-.18l-.03-.03-.22.2h.02Z"/>
        <path class="cls-2" d="m107.83,75.77c1.25-.22,2.42-.44,3.56-.76.06-.12.08-.24.21-.23.11.05.22.06.32.06l.49-.16c.05-.03.1-.07.15-.11h0c.07-.09.01-.15-.07-.19-.08-.02-.16-.05-.23-.09.05.03.15.05.23.09.1.02.2.03.3.01.13-.09.27-.17.44-.22-.15.13-.29.2-.44.22l-.24.18-.06.07c.36-.15.74-.27,1.1-.44.07-.05.15-.1.2-.15.22-.19.43-.38.7-.27l.19-.1s-.04,0-.06-.02c.03,0,.07,0,.09,0,.27-.13.53-.28.79-.44.11-.19.21-.39.33-.56,0,0,.2.05.3.07,0-.15.04-.28.12-.39-.21-.02-.42-.06-.59-.05-.29-.07-.07.65-.52.41.45.24.23-.48.52-.41.16,0,.37.04.59.05.17-.23.5-.4.87-.41-.15.39-.51.45-.87.41-.08.11-.12.25-.12.39-.1-.02-.3-.07-.3-.07-.12.18-.22.37-.33.56.51-.29,1.01-.63,1.5-.98,1.6-1.14,2.92-2.51,4.11-3.98,1.18-1.49,2.26-3.03,3.33-4.78,1.16-1.89,2.2-3.94,2.51-6.36.3-2.46-.64-4.85-2.1-6.68-1.46-1.85-3.5-3.36-6.1-4.36-1-.38-2.54-.47-4-.15-1.47.29-2.82.98-3.68,1.54-.96,1.09-.65,1.87-.24,2.31.43.46,1.01.7,1.08.72,1.02.33,1.48.27,2.09.11.58-.15,1.35-.4,2.41,0-.71-.21-.53-.52.1-.65.62-.12,1.67.13,2.12.88.62,1.11,1.24,1.53,2.04,2.17.77.6,1.6,1.49,1.64,2.51.02.5.18.94.14,1.53-.32,1.48-.88,3.04-1.74,4.8-.88,1.76-1.93,3.64-3.34,5.21-.72.86-1.07,1.86-1.61,2.68-.47.52-1.18.8-1.63,1.1-.69.51-1.24.99-1.78,1.51.66-.45,1.11-.83,1.78-1.4.47-.37.02.75-.26,1.08-.1.18-.6-.13-.69.05-.33.16-.52.54-.83.82-.11.17-.29-.28-.35-.19-.43.33-.63,1.03-1.01,1.03-.28,0-.53.02-.79,0-.15.01-.3.03-.46.09-.09.07-.18.13-.27.19.11.13.18.29.25.46-.16,0-.39-.05-.55-.04.16,0,.39.05.55.04-.07-.17-.14-.34-.25-.46-.67.45-1.52.85-2.33,1.18l.02.04c.49-.13.97-.16,1.53.03-.24-.06-.23-.2,0-.27l.24.2c-.41.22-.83.43-1.3.15,0,0-.17.14-.26.2-.15-.04-.17-.19-.22-.32-.09.03-.19.05-.28.08.24.2.94.4.94.4Z"/>
        <path class="cls-2" d="m112.82,74.42c-.06.04-.13.09-.21.14.3-.12.62-.22.92-.36-.26-.12-.48.05-.71.22Z"/>
      </g>
    </g>
    <g class="cls-1">
      <g>
        <path class="cls-2" d="m60.78,20.94h-.34c.06,0,.12.03.17.07.08.03.11-.03.17-.07Z"/>
        <path class="cls-2" d="m60.12,20.91h-.06s-.05.02-.05.02c.04,0,.08-.01.11-.02Z"/>
        <path class="cls-2" d="m59.52,20.98c.11.01.21,0,.31-.01-.09-.02-.19-.02-.31.01Z"/>
        <path class="cls-2" d="m60,21.03s-.06-.07,0-.1h0c-.06.01-.12.02-.18.03.06.01.12.04.17.07Z"/>
        <path class="cls-2" d="m60,21.03s.09.07.11.09c-.03-.03-.07-.06-.11-.09Z"/>
        <path class="cls-2" d="m59.85,21.88c-.06.03-.05-.21-.17-.16-.28.07-.52.18-.78.19-.12.06-.31-.21-.43-.15-.28.07-.98.41-.56.39.63-.05,1.04-.13,1.61-.18.46-.1.9-.21,1.38-.3.13-.01.26,0,.38.02-.17-.04-.34-.07-.51-.11-.24-.07-.54.24-.91.3Z"/>
        <path class="cls-2" d="m63.32,21.1c-.06.03-.18.08-.18.08-.26-.18-.55-.11-.83-.05l.12.12c.16-.01.18-.08.04-.13.32.15.63.18.95.16-.02-.07-.01-.14-.1-.17Z"/>
        <path class="cls-2" d="m63.61,21.26c-.06,0-.13.01-.19.02v.02c.07-.01.13-.02.19-.03h0Z"/>
        <path class="cls-2" d="m58.25,21.22c-.8.02-1.54.03-2.28.04-.05.05-.09.1-.17.08-.06-.04-.12-.06-.18-.08h-.32s-.07.02-.11.02h0c-.06.03-.04.07,0,.1.04.02.08.05.12.08-.03-.02-.07-.05-.12-.08-.05-.03-.11-.05-.18-.06-.1.02-.2.03-.3.03.12-.03.22-.04.3-.03l.18-.04.05-.02h-.73c-.05.01-.1.02-.15.03-.17.04-.35.08-.46-.03h-.13s.03.02.03.02l-.05-.02h-.55c-.12.05-.24.12-.36.16,0,0-.09-.07-.13-.11-.05.06-.11.11-.2.13.1.06.2.14.29.18.13.11.26-.26.42-.04-.16-.22-.29.15-.42.04-.09-.04-.18-.12-.29-.18-.17.06-.4.03-.59-.07.22-.12.41-.03.59.07.08-.03.15-.07.2-.13.04.04.13.11.13.11.12-.04.24-.1.36-.16-.36,0-.73,0-1.1.01-2.4.01-4.61.26-7.09.47-1.35.1-2.65.18-3.93.25-2.56.13-4.78.87-7.42.84-1.01,0-2.78.54-3.7.81-1.14.7-.24,1.53-.17,1.57.97.67,1.44.02,3.09.17-1.11-.04.64-.74,1.77-.36,1.62.58,3.51-.54,5.33-.62.45-.03.92-.13,1.45-.2,2.8-.13,5.31-.84,8.24-1.04.77-.08,1.43-.36,2.08-.52.48-.07.99,0,1.38-.02.61-.04,1.13-.15,1.63-.28-.56.08-.97.16-1.6.23-.42.04.27-.32.55-.41.12-.06.32.2.43.13.26-.02.49-.14.77-.22.12-.06.11.18.17.15.38-.07.66-.39.9-.33.18.03.35.06.52.09.1,0,.2.02.31,0l.2-.07c-.06-.07-.08-.16-.1-.25.1,0,.24.06.34.07-.1-.01-.24-.06-.34-.07.02.09.04.18.1.25.5-.16,1.07-.29,1.61-.41v-.02c-.32.03-.63.02-.96-.12.14.05.13.12-.03.13l-.13-.12c.28-.07.56-.15.83.02,0,0,.12-.06.18-.08.09.03.09.11.11.17.06,0,.12-.02.19-.02-.13-.12-.55-.26-.55-.26Z"/>
        <path class="cls-2" d="m55.01,21.32s.1-.02.15-.03h-.61c.11.11.29.07.46.03Z"/>
      </g>
    </g>
  </g>
  <g class="cls-1">
    <g>
      <path class="cls-2" d="m89.26,44.34c-.48-.03-.96-.06-1.43-.08.24.06.48.15.72.28.31.09.48-.06.72-.2Z"/>
      <path class="cls-2" d="m86.5,44.18c-.09,0-.17-.01-.25-.02-.08.02-.15.04-.22.06l.47-.04Z"/>
      <path class="cls-2" d="m84,44.3c.44.05.86.03,1.27,0-.36-.06-.78-.07-1.27,0Z"/>
      <path class="cls-2" d="m85.99,44.52c-.15-.11-.22-.23.03-.3h.01c-.25.02-.5.05-.76.08.27.05.51.12.71.22Z"/>
      <path class="cls-2" d="m85.99,44.52c.15.11.38.21.46.27-.13-.1-.29-.19-.46-.27Z"/>
      <path class="cls-2" d="m85.29,47.05c-.25.07-.18-.64-.68-.49-1.17.18-2.17.47-3.26.46-.5.15-1.27-.66-1.77-.5-1.17.18-4.15,1.13-2.4,1.1,2.64-.08,4.36-.25,6.72-.33,1.93-.25,3.78-.54,5.76-.73.55-.01,1.06.06,1.58.13-.67-.14-1.36-.28-2.12-.41-1.01-.23-2.26.65-3.84.77Z"/>
      <path class="cls-2" d="m99.82,45.44c-.26.05-.78.16-.78.16-1.06-.62-2.26-.52-3.44-.39.16.13.33.26.49.39.67,0,.76-.19.18-.39,1.33.53,2.6.69,3.91.8-.06-.2-.01-.43-.37-.57Z"/>
      <path class="cls-2" d="m100.97,46.05c-.26-.01-.52-.02-.78-.04,0,.02.01.04.02.07.26,0,.52,0,.78,0l-.03-.02Z"/>
      <path class="cls-2" d="m78.69,44.87c-3.32-.01-6.44-.05-9.49-.11-.23.14-.4.31-.71.22-.24-.12-.48-.2-.72-.25-.45,0-.89-.02-1.33-.03-.15.02-.31.04-.47.06h-.01c-.25.09-.17.2-.02.3.17.07.33.16.47.26-.09-.06-.32-.15-.47-.26-.21-.09-.45-.16-.72-.19-.41.05-.83.08-1.27.05.49-.09.91-.1,1.27-.05.26-.04.5-.07.75-.11.07-.02.14-.04.22-.07-1.02-.02-2.03-.04-3.04-.06-.23.02-.46.04-.64.07-.73.11-1.46.22-1.92-.11-.18,0-.36,0-.55,0,.04.02.07.04.11.06-.08-.02-.15-.04-.21-.06-.77,0-1.54,0-2.31,0-.5.16-.99.35-1.5.47,0,0-.35-.23-.52-.34-.2.18-.5.3-.84.37.41.21.79.45,1.15.59.54.34,1.13-.76,1.76-.11-.64-.65-1.23.45-1.76.11-.36-.13-.74-.38-1.15-.59-.72.13-1.66-.01-2.39-.4.94-.26,1.7.04,2.39.4.35-.06.64-.18.84-.37.17.11.52.34.52.34.51-.12,1-.31,1.5-.47-1.51,0-2.97-.01-4.5-.12-4.91-.39-9.61-1.11-14.43-1.72-1.21-.15-2.42-.3-3.65-.42-.18-.02-.38-.04-.58-.03h-.48s-.92,0-.92,0c-.61,0-1.23,0-1.84,0-1.23,0-2.48-.01-3.71-.05-.3-.01-.62-.02-.88-.04h-.08s-.02-.01-.02-.01c0,.02,0-.04,0,.04l-.06.51c-.07.38-.07.55-.15.78,0,.09-.04.14-.06.16-.02,0,.08.07.07.13.03.09.08.21.11.32l.04.17.06.25.11.51c.02.12.01.09.01.09h0l.36-.03c.59-.05,1.23-.08,1.87-.11,5.57-.21,10.97-.22,16.27-.15,5.28.07,10.31-.3,15.37-.61,2.53-.15,5.07-.29,7.68-.37,1.33-.04,2.66-.08,4.02-.11,1.42-.05,2.67-.09,3.67.07.75.14,1.59.22,2.63.46,1.03.22,2.21.53,3.49.9,2.53.76,5.47,1.71,7.69,2.18,1.54.07,2.6-.21,3.21-.6.62-.39.81-.87.83-1.34.01-.95-.64-1.85-.74-1.95-1.4-1.54-2.56-2.15-4.27-2.83-1.72-.67-3.74-1.52-7.02-3.14,4.36,2.22-3.49.09-8.54-.48-.86-.22-1.66-.36-2.46-.46-.82-.1-1.67-.14-2.56-.15-1.77,0-3.64.16-5.57.38-3.85.44-7.88,1.11-11.68,1.01-1.9-.05-3.89.21-6.16.31-5.91-.07-11.48.3-17.36.92l-1.22.15-.44.07-.18.03-.3.07-.16.04-.22.07-.22.08c-.37.14-.81.38-1.16.66-.24.21-.2.13-.64.62-.96.72-1.5,3.77-.43,5.1,1.06,1.45.62.74,1.04,1.2.22.18.46.34.72.47.24.13.54.25.75.31l.12.04.25.06.25.05h.09s.17.04.17.04l.22.02.28.02h.38c.87,0,1.58-.02,2.33-.04,1.47-.06,2.94-.12,4.43-.18l1.04-.04h.02s.03,0,.03,0h.12s.53.05.53.05c.72.06,1.45.13,2.18.19,1.47.15,2.97.33,4.51.53,3.27.36,6.29,0,9.16-.21,2.09,0,4.36.38,6.15.28,2.46-.13,4.68-.42,6.77-.77-2.34.18-4.08.39-6.62.62-.93.06-.59-.18.07-.47.64-.29,1.64-.63,2.22-.74.49-.17,1.28.6,1.78.43,1.08-.02,2.06-.37,3.22-.59.5-.17.45.55.69.47,1.58-.19,2.79-1.11,3.81-.92.77.12,1.46.22,2.14.33.43.04.85.07,1.3.04.28-.06.57-.12.86-.18-.23-.22-.31-.49-.39-.76.42.04,1.01.2,1.43.24-.42-.04-1.01-.2-1.43-.24.08.27.16.54.39.76,2.09-.42,4.5-.78,6.75-1.05l-.03-.06c-1.31.05-2.59-.02-3.95-.48.59.16.51.36-.16.4l-.51-.36c1.17-.19,2.34-.38,3.44.15,0,0,.5-.15.75-.23.37.11.35.33.42.52.26-.01.51-.03.77-.05-.54-.37-2.26-.85-2.26-.85Z"/>
      <path class="cls-2" d="m65.19,44.85c.18-.03.4-.05.63-.07-.85-.02-1.7-.04-2.55-.06.46.34,1.19.24,1.92.13Z"/>
    </g>
  </g>
  <g>
    <g class="cls-1">
      <g>
        <path class="cls-2" d="m87.46,88.25l.75.12c-.12-.05-.24-.12-.36-.22-.16-.08-.26.02-.39.1Z"/>
        <path class="cls-2" d="m88.91,88.51s.09.02.13.03l.12-.02h-.25Z"/>
        <path class="cls-2" d="m90.23,88.64c-.22-.07-.45-.1-.67-.11.18.07.4.12.67.11Z"/>
        <path class="cls-2" d="m89.21,88.32c.07.08.09.16-.05.19h0c.13,0,.27,0,.4,0-.13-.06-.25-.13-.35-.2Z"/>
        <path class="cls-2" d="m89.21,88.32c-.07-.08-.18-.17-.22-.21.06.07.13.15.22.21Z"/>
        <path class="cls-2" d="m89.86,86.72c.15-.02.03.44.32.39.66-.01,1.25-.09,1.85.05.3-.04.58.6.88.56.66.03,2.46-.06,1.5-.33-1.45-.39-2.44-.49-3.76-.69-1.1-.04-2.16.03-3.27.06-.31-.02-.59-.08-.87-.14.37.11.74.23,1.15.35.53.2,1.29-.31,2.19-.25Z"/>
        <path class="cls-2" d="m81.86,87.71c.13-.06.4-.18.4-.18.6.34,1.22.19,1.85.08l-.27-.25c-.36.02-.4.15-.09.26-.72-.3-1.43-.34-2.14-.26.05.13.05.28.25.34Z"/>
        <path class="cls-2" d="m81.2,87.42c.14-.02.28-.04.41-.06l-.02-.04c-.14.03-.28.06-.41.09h.02Z"/>
        <path class="cls-2" d="m93.09,88.91c1.72.49,3.29,1.12,4.76,1.85.15-.03.28-.09.41.03.08.13.18.23.27.32l.63.35c.08.03.16.05.24.08h0c.15.01.14-.07.1-.17-.06-.09-.11-.18-.14-.27.02.06.1.17.14.27.07.1.16.21.28.3.21.08.42.17.61.31-.26-.08-.46-.19-.61-.31-.13-.04-.26-.09-.39-.13h-.12c.48.25.94.54,1.4.83.12.05.23.09.32.13.38.14.75.28.86.6l.25.16s-.02-.04-.03-.07c.03.03.06.07.08.09.36.21.72.43,1.08.64.28.05.59.06.87.12,0,0,.11.22.16.33.15-.06.33-.07.53-.03-.16-.22-.27-.45-.41-.61-.15-.33-.77.17-.86-.39.09.56.72.06.86.39.13.17.25.4.41.61.4.08.84.33,1.18.68-.57.04-.92-.31-1.18-.68-.19-.03-.37-.03-.53.03-.05-.11-.16-.33-.16-.33-.28-.06-.59-.08-.87-.12.72.41,1.47.8,2.28,1.13,1.29.52,2.73.88,4.2.74,1.44-.15,2.86-.63,4.04-1.62.58-.49,1.1-1.13,1.41-1.9.31-.76.41-1.64.28-2.45-.28-1.64-1.2-2.93-2.13-4.06-2.04-2.48-4.52-4.44-7.23-5.93-2.72-1.48-5.72-2.1-8.72-2.2-3.03-.09-6.02.34-9.26,1.07-1.24.3-2.9,1.1-4.36,2.17-1.48,1.05-2.75,2.36-3.55,3.31-.8,1.52-.39,2.27.12,2.6.53.34,1.22.35,1.3.33,1.22-.15,1.85-.53,2.6-1.13.76-.56,1.67-1.34,3.33-1.77-1.1.34-.92-.1-.12-.68.8-.56,2.3-1.1,3.49-.89,1.73.35,3.36.02,5.18-.16,1.78-.21,3.78-.23,5.47.43.83.35,1.76.56,2.73,1.01,2.4,1.38,4.55,2.93,6.3,4.83.41.45.74.89.93,1.25.19.36.24.59.24.74.01.15-.04.32-.27.56-.22.24-.61.5-1.09.67-.49.2-1,.4-1.5.56-.26.08-.49.14-.78.18-.3.03-.61.05-.92.03-.89-.14-1.74-.76-2.46-1.12-1.14-.56-2.24-1.02-3.37-1.4,1.19.56,2.05.92,3.26,1.45.8.36-.82.3-1.43.1-.28-.03-.39-.7-.67-.74-.51-.28-1.09-.37-1.72-.56-.3-.04-.04-.45-.19-.47-.85-.32-1.74-.08-2.2-.43-.36-.24-.69-.47-1.01-.69-.21-.12-.42-.24-.67-.31-.16-.02-.33-.04-.5-.06.07.18.05.37.02.55-.21-.11-.48-.32-.68-.43.21.11.48.33.68.43.03-.18.05-.37-.02-.55-1.19-.16-2.54-.34-3.79-.46v.05c.71.14,1.38.39,1.99.9-.27-.21-.19-.32.17-.23l.19.32c-.65-.09-1.28-.14-1.76-.65,0,0-.29.03-.44.05-.18-.12-.13-.26-.14-.4-.14-.02-.28-.05-.42-.07.23.31,1.04.86,1.04.86Z"/>
        <path class="cls-2" d="m99.8,91.68c-.09-.04-.2-.08-.32-.13l1.18.72c-.1-.32-.48-.46-.86-.59Z"/>
      </g>
    </g>
    <g class="cls-1">
      <g>
        <path class="cls-2" d="m83.45,104.05l.6.48c-.08-.11-.15-.22-.21-.37-.1-.14-.23-.11-.39-.11Z"/>
        <path class="cls-2" d="m84.62,104.95s.08.05.11.08l.12.03-.23-.11Z"/>
        <path class="cls-2" d="m85.82,105.54c-.19-.14-.39-.24-.59-.32.15.13.34.24.59.32Z"/>
        <path class="cls-2" d="m84.98,104.9c.03.1.02.19-.12.16h0s.37.15.37.15c-.11-.1-.19-.2-.25-.32Z"/>
        <path class="cls-2" d="m84.98,104.9c-.03-.1-.1-.22-.11-.28.02.09.06.19.11.28Z"/>
        <path class="cls-2" d="m86.14,103.63c.13.02-.14.41.12.44.56.18,1.09.2,1.57.44.26,0,.38.66.66.66.59.12,2.19.03,1.37-.25-1.22-.41-2.03-.64-3.06-1.11-.9-.28-1.76-.59-2.62-1.06-.22-.16-.39-.35-.55-.54.2.27.4.55.65.84.32.42,1.17.27,1.86.57Z"/>
        <path class="cls-2" d="m80.36,99.24c.02.19.17.47.17.47-.11.35-.02.71.15.99.18.3.43.48.66.69l.03-.36c-.23-.26-.36-.22-.26.09-.19-.74-.51-1.37-.35-2.06-.13,0-.29-.07-.4.18Z"/>
        <path class="cls-2" d="m80.97,98.7c-.1.1-.17.23-.21.36h.04c.03-.13.09-.25.18-.36h-.02Z"/>
        <path class="cls-2" d="m88.49,106.35c1.59.65,3.12,1.15,4.62,1.61.14-.06.25-.14.39-.04.1.11.2.19.31.26l.66.19c.08,0,.16.01.24.02h0c.14-.02.12-.1.06-.19-.07-.07-.14-.15-.19-.23.03.05.13.14.19.23.09.08.2.16.33.22.21.02.43.05.64.13-.26,0-.47-.05-.64-.13-.13,0-.26-.02-.39-.03l-.12.02,1.51.42c.12.01.23.02.33.03.39.01.76.02.96.29l.28.06s-.03-.03-.05-.05c.04.02.07.04.1.06.39.08.78.17,1.18.24.27-.06.55-.14.82-.19,0,0,.17.18.25.26.12-.11.28-.18.46-.21-.21-.16-.39-.32-.56-.44-.24-.26-.64.43-.89-.06.26.49.66-.2.89.06.17.12.35.28.56.44.38-.06.86.03,1.26.25-.49.22-.92,0-1.26-.25-.18.03-.34.1-.46.21-.08-.09-.25-.26-.25-.26-.27.05-.55.13-.82.19.78.14,1.57.24,2.4.28,1.32.07,2.65-.02,3.94-.38,1.31-.34,2.53-1.03,3.55-1.93,1-.95,1.85-1.96,2.36-3.64.23-.78.33-1.62.22-2.42-.02-.41-.15-.79-.24-1.2l-.18-.6c-.07-.18-.25-.21-.36-.32-.03,0-.07,0-.11,0-.96-.05-1.92-.09-2.87-.14-.54-.03-.82-.06-1.17-.09l-1.02-.12c-1.35-.17-2.64-.42-3.86-.78-1.23-.36-2.35-.72-3.46-1.18-1.12-.46-2.24-.98-3.39-1.56-2.32-1.13-4.58-2.54-7.69-3.8-1.19-.46-3.21-.7-5.19-.24-.26.06-.47.1-.75.18-.29.09-.56.19-.82.3-.53.23-1.01.51-1.46.82-.89.64-1.66,1.46-2.15,2.4-.46,1.31-.14,2.17.14,2.6.34.44.69.51,1.01.48.63-.11,1.11-.5,1.18-.54.42-.37.79-.57,1.08-.73.29-.16.53-.33.83-.51.3-.18.67-.38,1.14-.47.22-.05.48-.05.81-.04.15,0,.31.01.48.03.17.04.34.08.51.13-.95-.21-.69-.51.17-.65.86-.12,2.27.23,3.03,1.09,1.08,1.24,2.56,1.97,4.4,2.76,1.82.77,3.9,1.51,5.9,2.43,1.02.46,2.19.68,3.45.93,1.55.42,3.08.63,4.56.72l1.11.05h.55c.1.01.05.01.08,0,.04,0,.03-.03.07-.05.07-.05.17.03.16.16.02-.03-.12.29-.25.47-.12.21-.29.42-.47.61-.36.39-.79.74-1.28.99-.86.49-1.96,1.2-3.14,1.52-.88.15-1.85-.15-2.6-.23-1.18-.13-2.26-.17-3.33-.2,1.16.17,2.01.2,3.24.28.82.06-.63.56-1.23.59-.26.06-.54-.52-.8-.47-.52-.1-1.05,0-1.65,0-.27.05-.13-.41-.26-.39-.8-.08-1.55.36-2.01.1-.36-.17-.67-.34-.97-.51-.2-.09-.4-.16-.62-.22-.15,0-.3-.01-.45-.02.06.18.05.36.03.54-.19-.09-.45-.28-.63-.38.19.1.44.29.63.38.02-.18.03-.37-.03-.54-1.08-.05-2.3-.24-3.42-.52v.05c.62.23,1.2.51,1.75,1.03-.24-.21-.16-.32.17-.22l.17.31c-.61-.08-1.23-.17-1.61-.71,0,0-.28,0-.42,0-.15-.14-.08-.27-.06-.41-.12-.04-.24-.09-.37-.13.14.34.84.97.84.97Z"/>
        <path class="cls-2" d="m95.12,108.44c-.09,0-.21-.02-.33-.04l1.27.36c-.18-.28-.56-.3-.94-.32Z"/>
      </g>
    </g>
    <g class="cls-1">
      <g>
        <path class="cls-2" d="m94.47,85.9c-.16-.08-.39-.18-.52-.26-.15-.08-.04-.1-.19-.03.02,0,.02,0,.07-.03,0,0-.02.02-.02.03,0,.03.02.09.07.17.18.15.39.13.59.12Z"/>
        <path class="cls-2" d="m94.13,85.33s.08-.06.12-.08c.03-.03.06-.07.08-.1-.07.05-.14.12-.2.18Z"/>
        <path class="cls-2" d="m95.77,84.76c-.34-.02-.67.05-.96.16.28-.04.58-.09.96-.16Z"/>
        <path class="cls-2" d="m94.26,84.96c.12.02.18.08.08.19h0c.09-.07.31-.17.48-.23-.2.02-.42.05-.55.05Z"/>
        <path class="cls-2" d="m94.26,84.96c-.12-.02-.3.02-.37.03.12-.01.24-.03.37-.03Z"/>
        <path class="cls-2" d="m94.24,83.17c.26-.13.31.35.8.15,1.19-.3,2.36-.34,3.48.19.57.15,1.02,1.06,1.46,1.54.13.15.27.35.4.62.13.29.21.63.2.99,0,.36-.1.76-.33,1.13-.22.37-.61.66-.92.81-.63.29-.99.31-1.06.38-.05.03.06.18.96-.01.34-.09.74-.29,1.06-.58.32-.28.53-.63.66-.95.25-.66.24-1.28.06-1.86-.39-1.1-1.08-1.57-1.61-1.92-1.1-.65-2.28-.94-3.63-.89-.55.06-1.08.19-1.58.4-.13.05-.25.11-.37.17-.13.06-.31.16-.44.25-.28.19-.52.42-.73.7-.2.28-.42.65-.45,1.19-.03.56.31,1.14.68,1.37.37.25.57.27.78.35.22.08.45.16.71.22.28.08.59.16.92.19.35.03.7-.01,1.04-.14-.44.15-.95.14-1.34.04-.41-.1-.75-.27-1.07-.46-.22-.14-.39-.18-.74-.35-.17-.08-.39-.24-.55-.47-.17-.24-.26-.58-.24-.88.05-.61.32-1.04.64-1.4.17-.18.36-.34.6-.48.25-.14.4-.21.63-.29Z"/>
        <path class="cls-2" d="m91.55,84.99c.07-.07.16-.2.26-.29.1-.09.18-.16.18-.16.96-.08,1.82-.29,2.79-.16-.11-.11-.23-.23-.37-.33-.59-.05-.64.1-.17.24-1.06-.46-2.38-.16-3.19.66.14.05.24.17.5.03Z"/>
        <path class="cls-2" d="m90.65,85.49c.11-.19.25-.37.41-.54-.01,0-.03,0-.05-.01-.15.18-.28.37-.38.56h.02Z"/>
        <path class="cls-2" d="m99.33,86.35c.01.32-.14.64-.41.78-.27.14-.64.12-.96.06-.66-.14-1.24-.58-1.58-1.13-.35-.55-.4-1.27-.01-1.77.37-.5,1.01-.76,1.63-.79.18-.1.34-.22.61-.13.21.11.38.21.55.3.35.12.69.29,1.01.49.12.06.24.12.36.18h.01c.21.08.2-.01.13-.15-.1-.13-.19-.25-.26-.37.05.07.19.24.26.37.12.15.26.31.43.48.15.1.3.2.43.32.03.04.13,0,.17.02l.1.11c.06.07.12.15.17.24-.14-.15-.19-.41-.5-.34-.13-.12-.26-.23-.37-.34-.19-.12-.38-.23-.57-.33-.06-.02-.12-.04-.18-.07.35.24.72.52,1.02.8.43-.15.46.17.6.34.06.1.1.21.13.33.02.06.02.12.03.19.02.03.06.02.07.07,0,.21-.06.4-.13.54-.3.59-.95.89-1.33.96-.15.03-.32.04-.48.04.03,0,.06,0,.09,0-.07,0-.13,0-.18,0-.64-.04-1.42-.42-1.47-1.15-.02-.44.22-.88.54-1.19,0,0,.23-.21.34-.26.14-.09.37-.2.66-.26-.13.01-.31.08-.41.13-.06.03-.1.06-.15.11,0,.04-.32.3-.6.61-.28.3-.48.68-.09.67-.39.01-.19-.36.09-.67.28-.31.61-.57.6-.61.05-.05.09-.09.15-.11.1-.04.28-.11.41-.13.3-.07.66-.08.97.05.08.03.16.08.23.12.09.04.25,0,.39-.01.15.11.29.23.39.39-.07-.09-.16-.15-.23-.23l-.12-.09-.06-.04-.16.06-.32.11c-.11.04-.1-.03-.16-.04l-.22-.14c-.26-.17-.47-.22-.71-.18-.29.06-.52.18-.66.26-.11.06-.34.26-.34.26-.32.31-.55.75-.54,1.19-.04-.66.54-1.31,1.01-1.54.25-.12.5-.16.75-.11.13.03.26.08.39.15.07.04.14.08.21.13l.11.08s.19-.06.28-.09c.45-.24.42,0,.56.07.11.1.2.25.27.41.06.03.13.04.2.06.06.02.09.11.13.17.07.13.14.26.18.4.17.66.23.88-.04,1.48-.44,1.07-2.03,1.3-2.8.49-.17-.21-.26-.5-.22-.77.02-.14.06-.27.11-.4.03-.06.06-.12.1-.18.11-.13-.13.1-.03-.02.06-.08.13-.16.21-.22l.08-.07.21-.19c.17-.17.21-.18.27-.22.23-.14.49-.25.75-.32.27-.07.48-.04.67.18.06.02.19-.09.28-.12.09-.02.14.04.21.06.13.06.26.16.38.29.61.17,1.09.34,1.48.97l.11.34c.03.1.08.28.1.26l.12.16c.07.11.14.23.19.35.11.24.17.5.18.77,0,.13,0,.27-.02.4-.01.07-.02.13-.04.2l-.03.1-.02.05s0,.03-.01,0l-.03-.09-.12-.35-.06-.17s-.02-.07-.03-.08v.02s-.1.18-.1.18c-.06.11-.14.22-.22.33-.33.41-.84.69-1.37.64-.53-.04-1-.41-1.26-.87-.53-.96-.18-2.17.44-3.02.04-.06.09-.1.13-.12.02,0,.04-.02.06-.03h.03s-.06.26-.06.26c-.08.3.01.11.04.1.04-.04.08-.05.11-.08.07-.05.15-.07.23-.11.15-.05.31-.08.47-.08h.12s.03,0,.03,0c.01,0,.01.18.02.27l.02.3h.01s.11.02.11.02h.06c.05.03.1.04.14.06.09.03.18.07.26.12.04.08.09-.07.14-.17.05-.08.1-.27.14-.26.08,0,.15,0,.23,0,.15.01.29.05.42.1.07.03.13.04.21.12l.11.1s.11.18.16.27l.17.32c.05.06.08.05.11.07l.21.11c.14.08.27.16.4.25.25.18.47.39.64.63.35.47.46,1.1.25,1.68-.1.29-.26.56-.47.8-.05.06-.11.11-.16.17l-.09.08s-.03.18-.14-.15c-.44-1.29-.43-.71-.58-.74-.5.25-1.1.25-1.61.06-.26-.09-.5-.23-.72-.4-.06-.04-.11-.09-.16-.13l-.08-.07c0-.05-.04.07-.07.15l-.09.26-.18.52c-.03.07-.07.21-.09.22l-.04-.04c-.05-.06-.1-.11-.15-.16-.39-.45-.53-1.03-.44-1.54.09-.51.39-.96.9-1.26.13-.1.26-.1.43-.25.08-.04.17-.2.25-.15.08,0,.15.08.24,0l.29-.64c.09-.13.17-.09.25-.14.08-.04.17-.03.25-.05h.06s.03-.01.03-.01c0-.01.04.1.06.14l.13.35.06.18c.02.05.02.01.03.02.16,0,.37.02.56.09.3.09.59.26.8.45.11.1.18.2.26.31.04.06.07.12.1.17l.04.09s-.02.01.03,0l.2-.07.4-.15c.07,0,.05.03.08.04l.09.11c.23.31.34.66.36,1.07l-.02.34s.01.01.05-.02l.09-.07.18-.15.35-.29s.15-.14.14-.11v.04s.03.08.03.08c.02.04,0,.12,0,.19-.08.56-.37,1.09-.82,1.43-.87.7-2.26.81-3.09.01-.42-.37-.59-1.03-.28-1.52.03-.06.07-.12.11-.18l-1.53.59s-.19.08-.15.05l.02-.02.03-.04.07-.09c.04-.06.1-.1.15-.16.2-.2.44-.34.7-.43.13-.05.27-.08.41-.09.07,0,.14-.02.21,0h.11s0,.02.09,0l.35-.13.7-.26.35-.13c.09-.03.05-.01.05,0v.02s-.02.08-.02.08c.02.01-.08.08.09.03.2-.05.48-.14.62-.15l.17.1c.22.15.42.38.54.7.06.17.11.35.11.59-.1.24.28-.1.49-.24l.18-.13.09-.06v.03s.03.1.03.1c.14.54.05,1.16-.33,1.58-.37.43-1.03.58-1.54.31-.25-.13-.42-.41-.4-.7.02-.29.17-.55.34-.77.37-.43.85-.77,1.38-1,.32-.16.42-.08.61.04.18.13.41.32.62.74l.04.08s.05.02-.06.21l-.44.85-.11.21-.06.11-.03.05c1.16-1.94.32-.54.58-.97h0s-.02.04-.02.04c-.03.04-.07.07-.1.1-.08.06-.1.04,0,.03.07-.01.21-.01.31.02.05.02.07.03.08.04-.03-.02-.07-.05-.12-.11-.1-.11-.18-.3-.19-.38-.02-.08.01,0-.03.14-.01.07-.05.15-.08.21-.02.04-.03.05-.05.07h0s0,0,0,0h0c.2-.24.06-.07.1-.12h0s-.02.03-.02.03l-.05.05c-.08.08-.22.17-.33.21-.15.05-.13.03-.03.03.17,0,.49.19.47.2.02,0,.16.23.19.39.04.17.01.24.03.16.01-.08.09-.27.19-.38.02-.03.05-.05.06-.06l-.03.02s-.07.04-.11.05c-.09.03-.15.02-.1.03.04,0,.16.04.23.1.04.03.05.04.07.06-.02-.02-.06-.08-.09-.14-.15-.29-.08-.56-.11-.4-.02.14-.19.39-.27.44l-.05,1.81h0c.14.09.2.21.2.21,0,.01,0-.03-.01-.06-.01.06.02-.34,0-.6-.02-.28-.14-.52-.32-.67-.17-.15-.38-.2-.43-.2-.34-.03-.72.07-1.03.33h0s-.14.11-.14.11l.18.44c.33.8,1.19,1.33,2.14,1.36.48,0,1.02-.1,1.53-.43.51-.33.91-.87,1.1-1.47.2-.61.22-1.3-.02-2.01-.23-.71-.84-1.42-1.6-1.77-.75-.36-1.63-.51-2.64-.23-.49.14-1.04.43-1.47.9-.42.45-.83,1.12-.82,2.07-.01-.72.21-1.19.4-1.51.2-.32.39-.5.54-.62.3-.23.41-.21.34-.08-.06.14-.29.41-.49.9-.1.25-.19.56-.2.95-.02.38.1.85.31,1.21.4.71,1.18,1.22,2.03,1.35.83.12,1.76-.01,2.58-.72.4-.35.71-.88.83-1.4.13-.52.12-1.05.01-1.54-.11-.49-.33-.96-.65-1.37-.16-.21-.35-.4-.56-.57l-.27-.2c-.06-.05-.04-.06-.06-.09-.14-.28-.18-.34-.15-.41.03-.06.09-.09.21-.1.32-.05.43-.27.28-.32-.07-.03-.2-.02-.34.04-.13.06-.3.2-.28.34.04.3.48.16.6-.19.04-.08.05-.13.05-.18,0-.02,0-.04,0-.06,0,0-.01-.03,0-.02-.09-.18-.2-.36-.31-.53-.44-.68-1.07-1.32-1.77-1.77-.7-.46-1.47-.8-2.34-.98-.69-.16-1.38-.22-2.17-.11-.15-.06-.03-.09-.03-.14,0-.03.04.02.03.03,0,0-.02,0-.03.02-.03,0,.11.02-.3-.04-.13-.02-.34-.03-.42-.04.05,0,.01,0,.02,0-.01,0-.02.02-.03.03-.04.05-.09.15-.08.27,0,.12.11.22.18.18.08-.03.08-.14.01-.21-.07-.09-.22-.13-.3-.09-.06.03-.15.1-.21.25-.07.15-.05.34,0,.48.12.33.35.26.17,0-.1-.24-.4-.46-.62-.45-.22-.01-.34.1-.41.27-.14.33.21.59.42.62.21.06.5-.17.21-.42.43.8-1.01.82-.79-.06.12-.21-.15-.04-.52.37-.18.21-.31.51-.3.75,0,.24.09.42.19.5.05.11.34-.04.59-.23.25-.19.45-.4.49-.36.36-.17.48-.46-.18-.82-.5-.3-.15-.61-.38-.73-.67-.44-1.44-.7-2.16-.82-.72-.12-1.39-.12-2.01-.15-.92,0-1.85.24-2.61.97-.46.46-.79,1.18-.77,1.92.04.45.18.88.38,1.23.01-.35.16-.51.32-.64.08.51.36,1.17.69,1.53-.34-.36-.62-1.02-.69-1.53-.16.14-.31.29-.32.64.71,1.23,2,1.99,3.44,1.89.34-.03.79-.13,1.16-.46.36-.33.52-.77.53-1.15.02-.38-.1-.79-.29-1.07-.18-.29-.42-.51-.65-.68v.05c.25.21.5.49.64.84.15.36.16.78,0,1.16-.14.38-.53.7-.92.74-.38.06-.7-.04-1-.17.53.17.49.33-.21.22-.15-.12-.28-.26-.39-.4.53.18,1.09.21,1.58.05.51-.18.79-.73.81-1.33.02-.02-.28-.46-.48-.58-.17-.3-.08-.39-.05-.54-.2-.17-.42-.3-.64-.41.17.23.55.65.72,1.09.19.44.09.78.09.78Z"/>
        <path class="cls-2" d="m101.11,84.7c-.13-.08-.29-.19-.47-.29.3.21.56.48.86.67.26-.14.22.04.31.09.06.08.12.15.16.24.1.15.15.4.19.54-.02-.19-.1-.5-.29-.72-.04-.06-.09-.12-.15-.17-.01-.1-.22,0-.24-.09-.12-.1-.25-.18-.39-.27Z"/>
      </g>
    </g>
    <g class="cls-1">
      <g>
        <path class="cls-2" d="m94.16,85.93c-.22-.05-.44-.06-.66-.1.11.04.21.11.32.2.14.07.22-.03.34-.11Z"/>
        <path class="cls-2" d="m92.89,85.77s-.08,0-.12,0l-.1.04c.07-.01.15-.02.22-.03Z"/>
        <path class="cls-2" d="m91.74,85.88c.2.02.39,0,.58-.03-.16-.03-.36-.03-.58.03Z"/>
        <path class="cls-2" d="m92.65,86c-.07-.07-.1-.15.02-.2h0s-.35.05-.35.05c.12.03.23.08.33.15Z"/>
        <path class="cls-2" d="m92.65,86c.07.07.17.14.2.18-.06-.07-.13-.13-.2-.18Z"/>
        <path class="cls-2" d="m92.34,87.68c-.1.05-.08-.43-.28-.32-.49.13-.89.38-1.34.41-.19.13-.58-.38-.78-.24-.49.19-1.63,1.03-.9.88,1.08-.23,1.78-.44,2.74-.56.78-.22,1.55-.4,2.38-.45.23.01.43.08.63.17-.25-.14-.53-.25-.83-.37-.41-.19-.98.38-1.62.48Z"/>
        <path class="cls-2" d="m96.62,87.49c.12.02.36.06.36.06.08.23.21.39.37.52l.46-.72c-.28-.16-.6-.25-.92-.3.04.1.08.2.12.31.28.11.37,0,.17-.21.15.19.31.35.47.49l-.1.15c-.26-.29-.55-.51-.88-.7-.05.13-.14.25-.04.39Z"/>
        <path class="cls-2" d="m96.36,86.93c.1.06.2.11.3.17v-.04c-.09-.05-.2-.09-.3-.14v.02Z"/>
        <path class="cls-2" d="m89.41,86.51c-1.46.21-2.81.49-4.14.73-.02.03-.05.07-.07.1l.14.15c-.04-.08-.06-.15.01-.23.11-.07.19-.15.27-.22.08-.17.18-.32.29-.47.02-.06.05-.12.08-.18h0c.02-.12-.06-.14-.15-.13-.09.03-.18.05-.26.07.05-.01.16-.06.26-.07.11-.04.2-.09.3-.16.1-.14.2-.3.37-.4-.13.17-.23.31-.37.4l-.14.29-.02.1c.26-.33.58-.61.92-.85.07-.07.14-.13.19-.18.21-.22.48-.43.74-.29.07-.03.14-.05.21-.07-.02,0-.03-.02-.06-.03.04,0,.07,0,.09.01.29-.1.6-.14.91-.17.18-.11.38-.26.6-.31,0,0,.14.16.21.24.1-.16.24-.31.4-.36-.19.06-.33-.2-.5-.28-.26-.25-.49.49-.8.07.31.41.55-.32.8-.07.16.08.31.34.5.28.16-.06.34.05.52.07.19.07.31,0,.61.55-.02-.01-.03.02-.07-.03-.06-.13-.12-.24-.17-.35-.05-.04-.1-.07-.14-.09-.09-.04-.18-.07-.26-.09-.17-.02-.33-.12-.49-.06-.16.05-.3.2-.4.36-.07-.08-.21-.24-.21-.24-.22.06-.42.2-.6.31.15-.01.3,0,.45-.01l.22.02c.08-.02.14.07.23-.06l.27-.28s.09-.12.13-.13l.12.03c.16.04.33.07.49.13.03.01.07.03.1.05l.05.04s.02.01.03.03l.07.16.14.32s.03.02.05.03l.09.04s.04-.02.1.1l.07.13.04.04c.05.06.09.12.11.19.03.07.04.14.03.21-.01,0,.02.11-.05-.05-.02-.04-.06-.13-.06-.13v.02s-.03.06-.05.09l-.05.08v.02s-.1-.19-.1-.19l-.04-.1s-.01,0-.01,0v.02c-.05.06-.09.11-.13.16-.34.42-.8.75-1.31.89-.27.35-.54.16-.8.1-.25-.12-.52-.19-.68-.42-.18-.25.04-.53.24-.68.2-.18.4-.35.61-.51.21-.16.43-.32.66-.46l.17-.11.09-.05s0-.01.01,0l.02.09.04.18.09.35c.03.1.06.27.08.32l.06-.04.11-.08.23-.14c.15-.09.32-.17.47-.23.14-.06.2-.07.3-.09.18-.04.34-.04.48-.02.2.01.46.27.44.34,0,0,0,0,0,0h.06s.05-.02.06-.02h-.01s.06.01.06.01c.02,0-.02,0-.03-.02-.03-.01-.16-.16-.14-.12-.01,0-.05,0-.08,0-.22-.02-.17-.06-.23-.21-.03-.17.02-.4.17-.55.29-.38,1.37-.82,2.02-.76.31.02.58.13.6.2.02.03.06.08.07.12.04.04-.08.08.21-.03.21-.07.41-.04.39-.04h0s0,0,0,0c.61.24.17.07.3.12h0s0,0,0,0h0s-.01,0-.01,0c0,0-.04-.02-.07-.05-.06-.05-.14-.14-.19-.22-.12-.19-.11-.32-.1-.18.02.12-.07.46-.16.56-.06.07-.06.06-.03.05h0s.08-.04.08-.04h0s-.03.02-.03.02c-.02,0-.04.02-.07.02-.02,0-.03,0-.04,0,.03-.02.34.07.53.27.21.19.28.36.25.31-.02-.04-.07-.27-.05-.42v-.05s.02-.03.02-.03h0s-.2.82-.2.82h0s0,0,0,0v.03s0,.03,0,.06c0,.05.04.12.08.24.04.11.09.26.14.45l.08.3.04.17.02.09s0,.03,0,.04h0s0,.01,0,.01c.01,0-.05.03.11-.06l.58-.31.37-.19c.2-.1.36-.17.48-.22.24-.1.4-.14.5-.15.08-.02.21,0,.11-.02.05,0,.08.04.05.01-.04-.02-.19-.26-.24-.61-.06-.35-.06-.81-.02-1.09l.03-.21v.04s-.01.01-.01.01h0s0,0,0,0c-.15.63.21-.86.17-.71h0s-.02,0-.02,0l-.09-.03-.11-.04h-.02s0-.01,0-.01c0,0,0,0-.02.07l-.1.28c-.26.69-.43.98-.56,1.17l-.08.11-.03.03-.02.02h0c-.53.54-.15.15-.27.27h0s0,0,0,0h0s.07-.06.08-.07c.03-.01-.07.03-.2.02-.14,0-.24-.09-.19-.04.05.06.12.17.14.57,0,.19,0,.44-.04.78-.02.17-.05.37-.09.62l-.08.42v.07s-.01,0-.01,0h0s0,0,0,0c.32.05.69.14.94.24.83-.07,1.42-.49,1.74-1.04.33-.54.34-1.17.32-1.25-.2-1.12-.84-1.62-1.71-1.97-.23-.08-.42-.17-.83-.24-.2-.03-.45-.05-.78,0-.33.06-.74.23-1.07.6-.33.36-.48.84-.5,1.25-.02.41.05.79.21,1.17.42.85,1.03,1.22,1.54,1.55-.35-.19-.62-.43-.74-.59-.12-.17-.11-.24-.02-.25.19.01.74.23,1.25.32.12.03.25.06.38.09.17.04.36.07.56.09.21.02.44.03.75-.02.28-.05.77-.2,1.14-.69.36-.46.39-1.14.3-1.5-.08-.38-.17-.59-.19-.73-.06-.31-.12-.64-.17-.97-.06-.49-.23-1.01-.61-1.53-.37-.52-.98-1.06-1.8-1.38l-.31-.11c-.14-.04-.29-.07-.43-.1-.29-.05-.58-.07-.85-.06-.56.01-1.07.14-1.55.34-.48.2-.93.48-1.36.89-.42.4-.83.94-1.08,1.71-.26.76-.22,1.8.12,2.55.31.79.99,1.49,1.68,1.84.69.36,1.35.46,1.95.45.6-.01,1.14-.14,1.69-.38.54-.24,1.1-.62,1.56-1.21.23-.28.43-.67.55-1,.11-.31.18-.63.22-.94.13-1.3-.3-2.32-.81-3.1-.52-.78-1.29-1.41-2.3-1.76-.9-.31-1.85-.35-2.71-.25-1.14.09-2.07.42-2.95.9-.88.5-1.93,1.3-2.56,2.78-.33.81-.42,1.62-.31,2.45.11.82.44,1.7,1.1,2.45.34.38.67.67,1.22.97.51.27,1.02.41,1.51.46.98.09,1.91-.06,2.87-.67.48-.31.96-.77,1.31-1.4.35-.64.51-1.36.47-2.03-.09-1.39-.79-2.29-1.45-2.86-.68-.58-1.47-.94-2.42-1.06-.79-.09-1.53.03-2.11.22-.14.04-.31.11-.4.14-.04.02-.06.03-.06.03l-.04.03-.08.07s-.14.08-.09.11c.04.04.09.25.21.44.1.19.36.35.39.29-.04-.09-.23-.18-.36-.25l-.1-.05-.04-.02h-.02s-.1-.02-.1-.02c-.3-.03-.59-.05-.86-.02-1.7.16-2.97.99-3.81,2.02.53-.52,1.04-.91,1.63-1.22.58-.31,1.24-.57,2.09-.7.58-.06.37.11-.03.32-.4.21-.95.54-1.23.71-.22.18-.85-.13-1.08.12-.58.31-.95.84-1.32,1.41-.12.28-.46-.07-.52.09-.55.82-.32,1.73-.53,2.22l-.58,1.35h1.86s.06,0,.06,0c.34,0,.66,0,.96.01.19-.01.37-.03.56-.09.11-.06.23-.13.34-.19-.13-.12-.2-.29-.27-.46.18,0,.46.04.64.03-.18,0-.46-.04-.64-.03.07.17.14.34.27.46.83-.45,1.81-.88,2.76-1.19l-.02-.04c-.56.11-1.11.15-1.75-.05.27.06.26.2-.02.28l-.26-.2c.48-.22.98-.44,1.51-.16,0,0,.2-.13.31-.2.17.05.18.2.23.32.11-.02.22-.05.33-.07-.26-.22-1.05-.43-1.05-.43Z"/>
        <path class="cls-2" d="m86.16,86.1c-.04.07-.09.15-.14.23.22-.28.51-.5.79-.71-.29-.07-.5.2-.66.48Z"/>
      </g>
    </g>
    <g class="cls-1">
      <g>
        <path class="cls-2" d="m103.29,82.01l-.11-.07s0,.1,0,.18c0,.06.06-.03.11-.12Z"/>
        <path class="cls-2" d="m103.08,81.88h-.02s-.03.02-.03.02c.02,0,.04-.02.05-.02Z"/>
        <path class="cls-2" d="m102.83,81.92s.07.04.11.02c-.02-.05-.05-.06-.11-.02Z"/>
        <path class="cls-2" d="m102.95,82.09c.01-.07.03-.14.07-.19h0s-.06.03-.08.04c.01.03.01.09.01.15Z"/>
        <path class="cls-2" d="m102.95,82.09c0,.07-.02.14-.02.18.01-.06.02-.12.02-.18Z"/>
        <path class="cls-2" d="m102.3,83.65s.14-.4.06-.32c-.14.09-.3.26-.39.23-.08.09.05-.44-.03-.35-.14.09-.62.6-.46.63.24.02.43-.05.66-.06.23-.12.46-.28.69-.38.05,0,.08.05.11.09-.03-.09-.06-.18-.1-.27-.04-.16-.36.38-.53.43Z"/>
        <path class="cls-2" d="m104.05,82.61s-.12.13-.12.13c.03-.36-.11-.27-.26-.18l-.04.24c.06,0,.12-.13.11-.24,0,.31.1.4.22.39.04-.12.09-.26.09-.34Z"/>
        <path class="cls-2" d="m104.04,82.94s-.05.01-.08.01v.04s.08-.04.08-.04h0Z"/>
        <path class="cls-2" d="m102.24,82.16c-.28-.09-.53-.2-.76-.34-.05.08-.1.18-.11.11.01-.09,0-.14,0-.18l-.1-.07s-.03.01-.05.02h0s-.06.12-.07.19c0,.05-.01.11-.02.18,0-.04.01-.11.02-.18,0-.06,0-.12-.01-.15-.04.02-.08.02-.11-.02.06-.04.09-.02.11.02.03-.01.06-.03.09-.04l.03-.03-.22-.16s-.05,0-.07.02c-.08.04-.17.07-.12-.16l-.04-.03s0,.03,0,.04v-.05s-.17-.13-.17-.13c-.07.07-.16.16-.22.21,0,0,.03-.16.04-.24-.06.11-.11.17-.16.2-.02.15-.04.31-.05.41-.04.24.27-.41.15.03.11-.44-.2.21-.15-.03.01-.1.03-.26.05-.41-.09.06-.14-.05-.12-.29.15-.16.14.05.12.29.04-.03.1-.09.16-.2-.01.08-.04.24-.04.24.07-.05.15-.14.22-.21l-.33-.26c-.05-.04-.1-.08-.14-.12l-.56,1.17c.61.64,1.34.97,2.08,1.5.43.33.84.69,1.24,1.12l.05.05,1.08-3.29c-.42-.41-.93-.52-1.42-.69-.5-.17-.97-.39-1.49-1.03-.42-.47-1.31-.25-1.74-.18-.54.83-.07,2.87-.06,2.98.37,1.74.53.75,1.02,1.8-.34-.6.33-1.12.54.11.13.93.33,1.05.59,1.02.26-.03.59-.21.77.09.08.13.2.11.32.17l1.74-5.3-.04-.02c-.6-.85-1.61-.43-2.37-.99-.21-.11-.6.17-.91.27l-1.82,3.78h.02c.19-.02.29.27.42.32.21.08.45-.01.7-.14-.23,0-.41.07-.66.06-.16-.03.32-.54.46-.63.08-.08-.05.44.03.35.09.03.25-.14.39-.23.08-.08-.1.36-.06.32.17-.05.49-.59.53-.43.04.09.07.18.1.27.03.04.05.07.1.07l.11-.09c.03-.14.09-.31.15-.49.03.04.04.16.06.19-.02-.04-.04-.16-.06-.19-.06.17-.12.34-.15.49.27-.2.56-.36.82-.48v-.04c-.11,0-.2-.08-.21-.39.01.12-.04.24-.11.25l.04-.24c.14-.09.29-.18.26.18,0,0,.08-.08.12-.13,0,.07-.05.21-.09.34.02,0,.05,0,.08-.01.04-.24,0-.58,0-.58Z"/>
        <path class="cls-2" d="m101.14,81.73s.04-.01.07-.02l-.19-.14c-.05.23.04.19.12.16Z"/>
      </g>
    </g>
    <g class="cls-1">
      <g>
        <path class="cls-2" d="m86.08,99.91c-.06.33-.26.46-.5.43.12.05.25.07.42.03.19-.11.15-.31.08-.47Z"/>
        <path class="cls-2" d="m84.85,99.78c-.03-.06-.06-.12-.08-.17-.04-.05-.06-.09-.09-.13.04.1.1.21.16.3Z"/>
        <path class="cls-2" d="m85.35,97.97c-.37.22-.61.58-.68.92.12-.28.33-.6.68-.92Z"/>
        <path class="cls-2" d="m84.48,99.49c.05-.14.12-.17.2-.02h0c-.06-.14-.07-.37-.02-.58-.1.2-.15.43-.19.6Z"/>
        <path class="cls-2" d="m84.48,99.49c-.05.13-.02.37,0,.47-.01-.15-.01-.31,0-.47Z"/>
        <path class="cls-2" d="m82.87,98.5c.04-.25.18-.31.33-.4.15-.09.3-.22.5-.59.54-.82,1.3-1.36,2.19-1.61.9-.26,1.93-.12,2.73.34.4.16.78.59,1.04,1.04.27.46.42.93.63,1.25.48.76.92,2.5.26,3.82-.32.66-.72,1.02-.77,1.13-.07.09.27.04.9-.77.45-.64.61-1.28.68-1.87.06-.58,0-1.12-.12-1.64-.26-1.02-.79-1.83-1.47-2.47-.68-.63-1.57-1.09-2.57-1.22-1.06-.12-2.09.17-2.97.8-.69.53-1.24,1.33-1.41,2.28-.07.47-.05.97.12,1.47.17.47.44.85.77,1.16.33.31.72.55,1.2.69.47.14,1.08.11,1.57-.14.5-.24.86-.72,1.01-1.19.15-.47.14-.95,0-1.39-.32-1.06-1.1-1.58-1.83-1.9.48.22.96.54,1.32,1.03.38.5.54,1.22.37,1.86-.12.42-.35.89-.81,1.23-.44.33-1.13.44-1.7.28-.58-.15-1.11-.49-1.52-1.03-.42-.53-.64-1.44-.44-2.18Z"/>
        <path class="cls-2" d="m82.79,99.31c.28,0,.84.14.83.15.46.5.27.82-.14,1.14-.2.14-.45.21-.65.16-.23-.05-.46-.22-.61-.47,0,.19.03.39.14.58.33.24.56.19.59.15.03-.05-.1-.09-.31-.27.41.5,1.56.09,1.57-.71,0-.39-.35-.7-.71-.86-.36-.17-.76-.26-1.16-.29.08.15.05.27.44.43Z"/>
        <path class="cls-2" d="m81.43,98.94c.3-.06.62-.08.93-.06,0-.01-.02-.03-.03-.04-.32,0-.64.03-.93.1h.03Z"/>
        <path class="cls-2" d="m89.57,100.03c.05.48-.02.97-.23,1.39-.21.42-.59.72-1.02.9-.86.35-1.94.18-2.53-.51-.59-.68-.7-1.74-.26-2.49.44-.76,1.42-1.07,2.27-.94.28-.07.52-.12.85.09.26.18.5.39.7.63.1.13.18.23.26.31l.11.15s.11.33.13.31c.13.24.24.5.32.76.05.17.09.34.11.52h0c.01.26,0,.1-.04-.16-.04-.28-.11-.59-.18-.84.04.16.14.55.18.84.04.31.05.65-.02,1.01-.02.04-.06-.04-.08.03-.02.06-.04.12-.07.18-.05.12-.11.23-.19.33-.15.21-.34.4-.57.54.26-.16.45-.36.6-.57.07-.11.13-.22.18-.33.03-.05.04-.11.06-.17.02-.03.06.02.07-.02.08-.29.09-.57.06-.85,0-.07-.02-.15-.03-.22.07.31.09.63.05.94-.01.08-.02.16-.04.23-.01.11-.11-.23-.11-.05-.05.15-.12.29-.2.42-.33.52-.93.89-1.56.85-.29,0-.55-.12-.74-.23-.39-.23-.67-.6-.83-.98-.18.11-.2-.15-.24-.3-.02-.12-.05-.24-.07-.36,0-.22.04-.43.09-.65v.09c0-.08.02-.14.03-.2.13-.44.33-.86.57-1.25.13-.19.28-.37.48-.5.05-.02.11-.08.17-.12.04.04.13-.1.2-.12.13-.07.26-.09.39-.09.04,0,.09,0,.13-.01.04,0,.05.1.08.14.06.02.12,0,.18.02.13.01.26.04.4.08.27.08.57.21.84.35,0,0,.26.36.36.55.27.05.59.21.91.48-.24-.45-.51-.87-.81-1.2-.2-.28-.57-.38-.94-.48-.38-.1-.74-.18-1.08-.41.34.23.7.31,1.08.41.37.1.74.2.94.48.3.33.58.75.81,1.2.08.06.16.16.26.23.11.06.2.15.27.26.16.19.25.51.37.74.23.51.32,1.11.3,1.69-.03-.48-.23-1.02-.48-1.53l-.09-.19-.05-.27c-.04-.16-.1-.27-.17-.38-.05-.13-.16-.19-.25-.26-.08-.09-.12-.21-.17-.3-.32-.27-.64-.43-.91-.48-.11-.18-.36-.55-.36-.55-.28-.14-.57-.27-.84-.35-.14-.04-.27-.07-.4-.08-.06-.01-.13,0-.18-.02-.03-.04-.04-.14-.08-.14-.04,0-.08,0-.13.01.03,0,.06,0,.1,0,.04,0,.06,0,.07.07.03.14.07.12.11.13.08.02.17.05.26.09.18.08.35.18.54.3.38.24.74.49,1.06.78.17.14.32.29.47.44.07.08.14.15.23.26.14.05.34.03.38.17.08.1.15.22.2.36l.05.27c.02.08.07.12.1.18.13.23.25.46.33.7.2.61.22,1.26.01,1.84-.21.57-.67,1.08-1.28,1.28-.56.17-1.44.43-1.51-.6-.57-.17-1.08-.52-1.41-1.02.16-.53-1.12.24-.88-.35-.06-.31-.05-.62,0-.92.12-.6.43-1.14.88-1.51.88-.79,2.33-.58,3.53.28.42.24.64.43.93.71.26.27.49.57.66.89.36.62.44,1.34.22,1.75-.19.42-.9.71-1.22.56-.3-.06-.6-.65-.62-1.42-.02-.35.03-.75.11-1.06.08-.31.2-.6.37-.87.17-.26.37-.52.64-.68.27-.16.61-.18.92-.13.31.05.61.16.89.3.14.07.27.16.39.25.03.02.06.05.11.08l.21.07c.14.04.28.11.41.16l.14.18c.05.05.1.12.12.25l.08.33s.12.05.17.07c.13.03.21.11.31.16l.12.11.06.05.03.17.06.35.07.18c.05.12.08.24.12.36.05.24.07.48.05.73-.03.44-.2.86-.44,1.23-.06.1-.13.18-.2.27l-.11.12-.06.06s-.02.04-.02,0v-.14c.09-1.14-.16-.52-.32-.5-.71.49-1.68.47-2.41.05-.18-.11-.36-.22-.51-.37-.08-.07-.15-.15-.22-.23l-.05-.06s-.16.13-.24.18l-.55.46s-.1.09-.13.1l-.02-.04-.05-.07s-.07-.1-.09-.15c-.05-.11-.11-.21-.14-.32-.08-.22-.11-.44-.11-.66.03-.9.69-1.53,1.43-1.85.38-.16.79-.26,1.24-.3.12-.02.22,0,.35-.04l.34-.22c.09-.05.15-.05.23-.08.28-.07.52-.08.72.06l.07.06s.05.02.05.13c.01.15,0,.34.03.45.18-.06.36-.1.52-.11.14-.01.35,0,.44.02.06.01.12.04.17.05.2.07.39.2.54.34.14.14.22.28.24.38.02.09,0,.17-.03.29-.07.24-.41.65-.83.92-.45.29-.93.4-1.07.34-.03,0-.04-.05-.06-.05-.14.21-.59.4-.59.36.15,0,.15,0,.29.04.1.02.32.1.43.15l.11-.15c.13-.16.3-.31.47-.44.35-.25.74-.37,1.05-.36.09-.01.14.04.21,0l.22-.59c.07-.18.15-.47.21-.39.12,0,.26-.01.37.02.23.04.44.14.65.29.1.06.2.19.3.28.11.15.21.36.33.56l.17.34.09.17h.05c.06-.02.13-.02.17-.01.1,0,.16.05.2.1.07.11.03.29-.11.51-.31.37-.94,1.08-1.7,1.2-.38.08-.78.02-1.13-.16-.17-.09-.33-.21-.44-.37-.06-.08-.1-.16-.13-.26l-.02-.07s.04-.2-.12.23l-.33.87-.17.44c-.02.05-.07.2-.07.17v-.02c-.06-.4.11-.77.34-1.07l.05-.06s0,.03.02-.05l.08-.22.16-.44.32-.88.16-.44c.03-.07.02-.03.03-.06.06-.08.12-.15.18-.22.13-.14.27-.3.4-.38.25-.13.52-.22.88-.19.09.02.18.02.29.08l.08.04s.05-.02.1.19l.29.89c.11.46.16.17.24.16.07-.06.14-.13.21-.18.14-.1.28-.22.43-.29.08-.04.13-.08.24-.13.09-.04.07-.02.11-.04l.14-.04c.1-.02.15-.03.23-.03.14,0,.3.02.43.06.13.04.22.11.24.14,0,.01.01.01,0,.02-.01.01.05-.05.07-.06l.03-.02.44-.25s-.03.02-.08.03c-.14.05-.38.02-.33.02.03,0,.3.17.38.32.05.07.05.12.04.06v-.02s0,0,0,0h0s0,.11,0,.11c0,.17,0,.31-.02.43-.03.23-.09.37-.12.41.07-.1.02-.02.03-.04h0s0,.02,0,.02l-.02.02s-.01.01-.02.02c0,0,.01,0,.04-.02.07-.03.24-.04.43,0,.39.05.85.32.73.26l-.03-.02h-.01c-.6-.45.81.58.66.48h0s.03-.04.03-.04l.07-.07.14-.14c.1-.09.2-.18.3-.27.21-.17.43-.32.67-.46.12-.07.24-.13.36-.18l.18-.08h.01s0,0,0,0c.04.07-.33-.6-.17-.31l.03.06.06.12.08.16s.04.02.05.04c0,0,0,.01,0,0v-.09s-.04-.21-.04-.21c0-.15-.02-.34,0-.52.02-.29.07-.58.16-.79.08-.21.18-.29.16-.27-.11.05.06,0-.07.02-.12,0-.41-.06-.81-.28-.21-.11-.42-.25-.68-.44l-.33-.26s0,0-.02,0c-.01.01-.04.04-.04.03.27.28.52.57.69.8.36.47.49.84.51.98v.04s0,0,0,0h0c.01.49-.08-4.26-.07-2.25h-.1s0,0,0,0h0s0,0,0,0h0c.01-.05-.01-.02,0-.04,0,0,.01,0,.01,0,0,0,0,0,0,.01h0s0,0,0,0h0s0,.01,0,.01h0s0,0,0,0l-.95,1.01c-.06.06-.13.13-.2.17-.13.1-.25.12-.25.12h0c-.62.02-.17,0-.31.01h0s0,0,0,0c0,0,0,0,.03,0,.02,0,.1.03.16.07.13.08.22.21.23.23.01.03-.05-.09-.06-.25-.02-.16.04-.31.05-.32,0-.01,0,0-.07.05,0,0,.02-.01-.01,0-.04.02-.17.03-.26.01-.09-.02-.13-.04-.11-.03,0,0,.03.02.05.04l.03.04-.22-.29c-.07-.09-.16-.29-.23-.56-.03-.13-.07-.28-.09-.43-.03-.16-.04-.37-.04-.28,0,.03-.05.06-.09.09-.04.03-.03.06-.07.09-.1.12-.26.18-.33.2-.16.02-.1.17-.25.35-.12.16-.45.38-.61.77-.17.37-.13.76-.08.83.18.52.64.78,1.1.95.45.16.98.26,1.58.1.29-.08.62-.23.89-.52.27-.27.46-.61.55-1.02.09-.4.05-.93-.23-1.38-.26-.45-.82-.82-1.34-.87-.52-.07-.97.04-1.38.24-.4.21-.8.53-1.06,1.07-.13.26-.2.61-.19.93.01.28.07.56.17.81.1.26.24.48.41.68l.13.14.07.06s.13-.07.19-.09c.07-.04.16-.1.21-.11l-.04.16-.07.31c.64.49,1.53.77,2.46.64.94-.12,1.95-.63,2.85-1.5.28-.27.54-.59.68-.97.14-.37.1-.76,0-.72-.11.01-.13.31-.57.99-.4.65-1.61,1.64-2.45,1.9.53-.18,1.15-.57,1.62-.97.46-.42.76-.78.92-1.06.31-.56.31-.72.36-.81.05-.12,0-.05-.11-.1-.15-.02-.25-.06-.79.59-.28.31-.9.86-1.58,1.2-.17.08-.33.15-.48.2-.07.03-.15.03-.22.12l-.11.1s-.07.01-.1.02c-.26.02-.46.02-.59.05-.27.05-.36.23-.22.5.13.25.46.56.96.64h.09s.06.02.09-.04l.04-.06.02-.03s-.04.18-.03.16h.02s.17-.01.17-.01c.22-.02.43-.08.6-.16.35-.15.6-.33.81-.51.39-.36.74-.66,1.06-1.36.15-.34.25-.84.14-1.34-.1-.47-.38-.95-.78-1.27-.82-.61-1.53-.6-2.11-.6-.59.03-1.13.14-1.68.38-.4.16-.79.33-1.16.51-.54.26-1.06.59-1.56,1-.25.2-.49.43-.72.67-.14.15-.36.45-.5.72-.15.29-.3.63-.37,1.15-.07.48,0,1.35.54,2.08.5.71,1.34,1.09,1.86,1.18.56.11.87.08,1.26.04.38-.05.76-.15,1.1-.31,1.42-.66,2.18-1.88,2.45-3.14.13-.65.13-1.36-.07-2.09-.09-.35-.27-.75-.44-1.04-.17-.29-.37-.56-.58-.8-.88-.97-1.96-1.46-3-1.68-.52-.11-1.05-.15-1.59-.11-.55.03-1.1.15-1.56.29-.12.04-.23.08-.35.12.07-.02.01,0,.02,0l-.03.02s-.04.03-.06.05c-.06.08-.2.2-.19.4.04.19.25.24.35.15.11-.09.02-.29-.13-.38l-.06-.03h-.03s.04,0-.13-.05c-.22-.06-.52-.11-.81-.14-.27-.02-.54-.03-.81-.02-1.07.05-2.06.37-2.9.83-.85.47-1.58,1.11-2.18,1.95-.3.44-.7,1.07-.84,2.07-.15,1.03.22,2.17.75,2.85.53.71,1.16,1.18,1.87,1.5.36.16.74.28,1.15.34.38.06.73.07,1.09.05,1.43-.1,2.45-.64,3.34-1.25.59-.41,1.13-.89,1.6-1.52.47-.62.9-1.42,1.07-2.43.18-.99,0-2.16-.48-3.06-.47-.91-1.12-1.56-1.82-2.04-.35-.24-.72-.44-1.12-.6-.36-.16-.89-.3-1.09-.33,0,0,0-.02,0-.02,0,0,0-.02,0-.02,0-.03,0,.11.02.09h-.02s-.02-.02-.02-.02c-.02,0,.02.02-.09-.06l-.42-.3c-.18-.11-.36-.22-.54-.32-.37-.2-.75-.38-1.15-.5-.79-.27-1.61-.41-2.41-.36-.8.05-1.58.29-2.26.73-.67.43-1.22,1.04-1.67,1.74-.44.7-.77,1.48-.97,2.31-.18.79-.22,1.43-.18,2.16.05.7.16,1.42.56,2.29.38.85,1.2,1.88,2.49,2.35,1.25.45,2.45.27,3.37-.12.93-.41,1.73-1.05,2.31-2.05.14-.24.26-.53.36-.81.08-.24.14-.49.18-.73.08-.49.09-.98.04-1.43-.1-.9-.39-1.66-.75-2.31-.36-.65-.79-1.21-1.28-1.71-.24-.25-.51-.48-.79-.7-.14-.11-.29-.22-.44-.32l-.23-.15-.07-.04s-.05-.03-.08-.04c-.14-.06-.6.18-.78.75-.08.27-.04.56.08.76.11.2.33.28.44.16.2-.27.1-.83-.1-1.14-.03-.04-.04-.07-.08-.12-.11-.14-.27-.3-.41-.44-.28-.28-.57-.53-.84-.75-.28-.22-.55-.41-.82-.59-.24-.16-.56-.36-.95-.53-.31-.13-.68-.27-1.14-.34l-.13-.02h-.02s-.04,0-.04,0c-.03,0-.05,0-.08.02-.1.04-.17.14-.23.23-.11.2-.21.44-.25.72-.04.28.03.59.18.85.15.26.43.42.65.42-.25.1-.55-.02-.71-.25-.17-.22-.24-.52-.21-.79.03-.27.13-.52.24-.75.06-.11.13-.22.23-.3.05-.03.11-.06.17-.06h.04c.1,0,.2.02.31.04.22.04.42.1.6.16.9.36.97.51.9.52-.11.02-.46-.14-1.21-.29-.19-.03-.43-.07-.64-.07-.05.02-.11.04-.17.07-.12.06-.24.17-.34.31-.2.28-.35.61-.45.84-.1.24-.09.28-.03.28.06,0,.16-.06.17.18.1.27.28.63.57.89.29.26.66.33.91.17.21-.06-.01-1.1.04-1.11.09-.31.01-.42-.2-.6-.11-.08-.27-.17-.46-.24-.23-.08-.29-.11-.8-.24-1.27-.27-2.63.04-3.58,1.09-.57.68-.81,1.56-.73,2.41.08.53.27,1.05.58,1.5-.08-.45.06-.65.19-.82.14.64.7,1.53,1.38,1.87-.68-.33-1.24-1.23-1.38-1.87-.13.17-.27.37-.19.82.52.83,1.53,1.43,2.48,1.49.95.08,1.9-.2,2.63-.85.77-.69,1-1.72.91-2.53-.07-.85-.43-1.62-.93-2.22v.06c.53.71.82,1.65.69,2.55-.06.45-.23.91-.55,1.27-.31.37-.74.6-1.17.7.37-.1.55-.17.54-.1,0,.06-.2.26-.65.42-.26,0-.5-.04-.73-.1.76-.11,1.44-.54,1.82-1.15.37-.62.48-1.33.51-2.08,0,0-.06-.16-.15-.34-.1-.18-.23-.38-.32-.51-.16-.44-.06-.5,0-.66-.21-.28-.47-.53-.75-.74.23.32.63.97.78,1.58.17.61.11,1.12.11,1.12Z"/>
        <path class="cls-2" d="m90.22,102.03c.07-.15.1-.44.08-.71.02.25,0,.57-.08.75l-.05-.06s-.02.05-.04.07c-.02.06-.05.12-.07.18-.06.12-.12.23-.2.33-.31.41-.8.71-1.32.74.28,0,.64-.12.96-.37.16-.12.31-.28.43-.46.06-.09.12-.19.16-.29.05-.09.07-.26.13-.18Z"/>
      </g>
    </g>
    <g class="cls-1">
      <g>
        <path class="cls-2" d="m89.22,104.66l-.26-.16c.03.05.05.13.06.23.03.08.12,0,.2-.06Z"/>
        <path class="cls-2" d="m88.72,104.34l-.05-.03-.06.02s.07,0,.11.01Z"/>
        <path class="cls-2" d="m88.19,104.18c.07.07.16.1.25.12-.05-.07-.13-.12-.25-.12Z"/>
        <path class="cls-2" d="m88.51,104.5c0-.08.03-.15.1-.17h0c-.06,0-.12-.01-.17-.02.04.05.06.12.07.2Z"/>
        <path class="cls-2" d="m88.51,104.5c0,.08,0,.16,0,.2,0-.07,0-.14,0-.2Z"/>
        <path class="cls-2" d="m87.56,105.91c-.08.02.17-.39.02-.36-.3-.02-.62.05-.84-.09-.16.03-.03-.52-.19-.49-.3-.03-1.26.09-.89.31.57.3.99.41,1.53.62.5.07.99.07,1.48.12.13.04.22.12.31.2-.11-.14-.22-.27-.35-.42-.15-.22-.68.19-1.07.1Z"/>
        <path class="cls-2" d="m91.22,105.83c-.07.03-.21.1-.21.1-.11-.4-.39-.38-.68-.35l.02.26c.15.03.21-.09.13-.23.17.39.43.53.72.58.03-.13.08-.27.03-.36Z"/>
        <path class="cls-2" d="m91.37,106.21c-.06,0-.12-.01-.17-.02v.04c.05,0,.12,0,.18,0h0Z"/>
        <path class="cls-2" d="m86.97,103.94c-.63-.39-1.17-.83-1.66-1.29-.1.04-.2.1-.22.01.01-.1,0-.17-.01-.23l-.2-.21s-.07-.03-.1-.04h0c-.08,0-.11.07-.14.15,0,.06-.02.13-.04.2.01-.04.02-.13.04-.2,0-.08,0-.15-.03-.21-.09-.04-.17-.09-.22-.18.12.03.19.09.22.18l.17.06h.06c-.15-.17-.3-.33-.45-.5-.05-.03-.09-.05-.13-.07-.16-.07-.32-.13-.23-.37l-.07-.1s0,.03-.02.05c0-.02,0-.04,0-.06-.1-.14-.21-.27-.3-.41-.14-.02-.3-.03-.43-.07,0,0,.07-.16.1-.24-.12.04-.23.05-.3.02-.05.16-.11.33-.13.45-.1.25.53-.13.29.28.24-.41-.39-.03-.29-.28.02-.12.08-.29.13-.45-.17-.07-.24-.28-.16-.56.29.03.24.28.16.56.08.03.18.03.3-.02-.03.08-.1.24-.1.24.13.04.29.05.43.07-.19-.27-.38-.54-.56-.83-.29-.46-.54-.9-.6-1.24-.06-.34.03-.5.22-.7.21-.18.41-.22.66-.14.12.04.24.11.32.2.04.04.07.09.08.13.04.05-.09.1.25-.03.1-.03.24-.03.18-.03.04,0,0,0-.04-.02-.04-.02-.13-.08-.21-.16-.05-.05-.09-.09-.14-.15-.06-.08-.02-.03-.04-.05-.07,0-.23,0-.42-.02-.37-.04-.76-.23-.82-.42-.02-.02,0-.07,0-.06-.07.1-.13.17-.18.22-.1.1-.14.1-.07.08l-.19,1.42s.16.19.21.41c0,.03.05.02.1.05.02.01.04.03.06.04,0,0,0,.02,0,.02h0s.04-.05.04-.05c.12-.19.3-.32.33-.32l.6-2.59h0c-.05-.12-.05-.21-.05-.21,0,0,0,.03,0,.07-.12.38-.23.77-.35,1.18-.02.06-.1.23-.2.36-.15.22-.33.26-.26.24.05,0,.16.05.37.22l.2.17.17.17h0s.14.28.13.53c0,.26-.07.35-.01.23.05-.11.23-.33.36-.41.17-.13.25-.12.23-.12h0c.21-.01.57-.05.77-.11.22-.06.36-.14.38-.16.38-.28.51-.68.47-1-.03-.34-.22-.61-.47-.84-.26-.22-.58-.42-1-.6-.43-.17-.95-.39-1.84-.36.6-.04.75.13.69.24-.06.13-.32.24-.68.43-.18.11-.39.22-.59.38-.11.08-.2.14-.34.3-.13.15-.33.42-.39.84-.06.41.09.86.26,1.12.17.28.34.44.49.59.15.14.28.26.42.37.13.11.19.19.29.29.61.7,1.68.98,2.78.65h0s1.52-3.72,1.52-3.72c-.28-.78-.85-1.44-1.47-1.85-.62-.42-1.29-.63-1.96-.72-1.31-.15-2.74.07-4.12,1.08-.1.07-.19.16-.29.24l-1.03.95.46,1.74c.15.57.47,1.13.89,1.57.42.44.9.75,1.37.99,1.33.75,2.5.83,3.73.61.64-.15,1.34-.31,2.29-1.15.46-.41,1.03-1.24,1.14-2.22.13-1.01-.2-1.81-.45-2.26-.51-.9-1.24-1.48-2-1.84-.77-.36-1.6-.52-2.52-.42-.93.1-1.84.53-2.5,1.14-.66.61-1.18,1.42-1.38,2.45-.19,1.15.22,2.02.61,2.54.4.53.82.8,1.15,1.03.4.37.55.91.83,1.22.43.48.95.75,1.47.95-.48-.34-.88-.55-1.37-.98-.31-.31.66-.18.95-.09.16,0-.09.52.07.53.19.18.51.2.81.29.16,0-.17.35-.09.35.36.18.98-.1,1.08.15.09.17.17.33.26.49.06.08.13.16.23.21l.24.03c.04-.15.14-.31.23-.46.06.08.11.24.17.32-.06-.08-.11-.24-.17-.32-.09.15-.19.31-.23.46.57.07,1.17.18,1.72.28l.02-.04c-.28-.12-.5-.33-.59-.74.05.16-.04.26-.18.2l.04-.26c.29.05.58.07.6.5,0,0,.15-.03.23-.04.03.1-.05.22-.1.34.05.02.11.04.17.06.02-.27-.13-.74-.13-.74Z"/>
        <path class="cls-2" d="m84.62,102.1s.08.04.13.06c-.13-.14-.25-.28-.37-.43-.09.24.07.31.24.36Z"/>
      </g>
    </g>
    <g class="cls-1">
      <g>
        <path class="cls-2" d="m94.44,107.56l-.15-.05s.04.09.05.18c.03.06.06-.04.1-.13Z"/>
        <path class="cls-2" d="m94.15,107.47h-.03s-.03.03-.03.03c.02-.01.04-.02.06-.03Z"/>
        <path class="cls-2" d="m93.86,107.55s.09.02.14,0c-.03-.04-.08-.05-.14,0Z"/>
        <path class="cls-2" d="m94.06,107.7c0-.07,0-.15.03-.2h0s-.06.04-.09.05c.02.03.04.08.06.15Z"/>
        <path class="cls-2" d="m94.06,107.7c0,.07.02.14.02.18,0-.06-.01-.13-.02-.18Z"/>
        <path class="cls-2" d="m93.73,109.36s.04-.42-.03-.33c-.16.12-.32.31-.45.28-.08.09-.07-.45-.15-.35-.16.11-.65.66-.44.68.34,0,.57-.08.87-.12.27-.16.52-.35.77-.49.07-.01.12.03.18.07-.07-.09-.14-.17-.22-.25-.1-.15-.33.44-.54.52Z"/>
        <path class="cls-2" d="m95.56,107.96c-.03.05-.09.15-.09.15-.1-.35-.23-.23-.38-.11l.04.24c.08-.02.1-.15.04-.26.13.3.27.36.42.32,0-.13,0-.28-.03-.35Z"/>
        <path class="cls-2" d="m95.68,108.28s-.06.02-.09.03v.04s.09-.06.09-.06h0Z"/>
        <path class="cls-2" d="m93.21,107.87c-.37-.05-.7-.15-1.02-.29-.05.08-.1.18-.12.12,0-.09-.02-.15-.03-.19l-.14-.06s-.04.01-.06.02h0s-.05.12-.06.19c0,.05,0,.12,0,.18,0-.04,0-.11,0-.18,0-.06-.02-.12-.04-.15-.05.02-.1.02-.14-.02.07-.04.11-.02.14.02.03-.01.07-.03.1-.04l.04-.04c-.1-.05-.2-.11-.3-.16-.03,0-.05,0-.08.02-.1.04-.19.07-.17-.17l-.05-.03s0,.03,0,.04v-.05s-.23-.14-.23-.14c-.08.07-.17.16-.25.2,0,0,.02-.16.03-.25-.06.1-.12.17-.17.19,0,.15-.02.32-.02.42-.02.25.28-.41.2.04.08-.45-.22.21-.2-.04,0-.11.01-.27.02-.42-.11.05-.17-.07-.17-.32.17-.15.18.06.17.32.05-.02.11-.09.17-.19,0,.08-.03.25-.03.25.08-.05.17-.14.25-.2-.14-.09-.28-.19-.43-.29-.9-.66-1.81-1.05-2.64-1.82-.44-.43-.79-.91-1.05-1.47-.26-.54-.65-.85-.98-1.24-.32-.39-.58-.86-.46-1.63.07-.56-.53-.95-.77-1.23-.94.05-2.52,1.39-2.59,1.49-1.22,1.29-.28,1-.57,2.26.13-.79,1.1-.4.56.77-.42.9-.14,1.34.29,1.64.42.31.99.46,1.21.96.11.25.38.34.59.55.88,1.44,2.54,1.54,3.91,2.33.39.18.91-.08,1.32-.19.27.01.43.34.63.4.31.1.63.03.95-.09-.31,0-.55.05-.89.01-.22-.04.35-.53.53-.62.09-.08.02.45.11.37.13.04.31-.13.48-.21.09-.08-.05.37-.01.33.22-.05.53-.61.61-.45l.19.28s.09.07.15.07l.13-.09c0-.15.04-.33.07-.51.04.04.08.16.13.19-.04-.03-.09-.16-.13-.19-.03.18-.07.36-.07.51.31-.22.65-.41.94-.56v-.04c-.15.02-.29-.06-.38-.37.04.12,0,.25-.08.26v-.25c.16-.1.31-.21.36.15,0,0,.08-.09.12-.14.03.07,0,.22-.02.35.03,0,.06-.01.09-.02-.02-.25-.15-.59-.15-.59Z"/>
        <path class="cls-2" d="m91.75,107.5s.05-.01.08-.02c-.09-.04-.17-.1-.25-.15-.02.24.08.2.17.16Z"/>
      </g>
    </g>
    <g class="cls-1">
      <g>
        <path class="cls-2" d="m96.06,101.76l-.08-.13s-.03.1-.08.17c-.02.06.07,0,.16-.04Z"/>
        <path class="cls-2" d="m95.9,101.5v-.02s-.06.01-.06.01c.02,0,.04,0,.06.01Z"/>
        <path class="cls-2" d="m95.63,101.37c.01.05.05.08.11.09,0-.05-.03-.09-.11-.09Z"/>
        <path class="cls-2" d="m95.69,101.61c.04-.06.09-.12.15-.13h0s-.07-.01-.1-.02c0,.04-.02.09-.05.15Z"/>
        <path class="cls-2" d="m95.69,101.61c-.04.06-.08.12-.1.15.04-.05.07-.1.1-.15Z"/>
        <path class="cls-2" d="m94.37,102.69c-.06.02.31-.3.19-.26-.18,0-.4.08-.47,0-.11.04.22-.38.11-.34-.18,0-.82.29-.69.37.21.11.42.14.63.24.26,0,.56,0,.82.04.05.03.06.09.07.15.01-.1.02-.2.03-.31.03-.16-.51.14-.7.1Z"/>
        <path class="cls-2" d="m96.55,102.82c-.06.01-.18.04-.18.04.2-.31.01-.32-.17-.33l-.15.19c.07.04.18-.04.22-.15-.14.29-.09.43.03.51.1-.09.22-.18.24-.25Z"/>
        <path class="cls-2" d="m96.38,103.11s-.06-.02-.08-.04l-.03.03.1.02h0Z"/>
        <path class="cls-2" d="m94.92,101.26c-.26-.24-.49-.48-.72-.72-.08.06-.16.13-.15.07.03-.08.04-.14.04-.18l-.1-.11s-.04,0-.06,0h0c-.05.03-.09.09-.12.16-.01.05-.04.11-.06.17.01-.04.04-.1.06-.17.02-.06.03-.12.02-.16-.05,0-.1-.01-.12-.06.08-.02.11,0,.12.06.03,0,.07,0,.1,0l.04-.02-.24-.25s-.05,0-.08,0c-.1,0-.2.03-.13-.2l-.04-.04s0,.03-.01.04v-.05s-.19-.18-.19-.18c-.09.05-.19.13-.27.16,0,0,.04-.16.06-.24-.07.1-.14.15-.19.17-.03.15-.05.31-.07.41-.06.24.33-.37.17.06.15-.43-.24.18-.17-.06.02-.1.04-.26.07-.41-.11.04-.16-.07-.14-.32.18-.14.18.07.14.32.05-.02.12-.08.19-.17-.02.08-.06.24-.06.24.08-.04.18-.11.27-.16-.13-.12-.26-.23-.4-.34-.91-.75-1.92-.95-2.88-1.48-.52-.3-1.01-.66-1.46-1.09-.9-.85-2.05-.53-2.78-2.01-.29-.53-1.12-.54-1.53-.61-.76.6-1.08,2.66-1.08,2.78-.18,1.78.36.92.73,2.11-.28-.7.66-.98.74.3.09,1.94,1.4.8,2.03,1.48.16.17.38.15.6.25.5.48,1.08.61,1.69.69.61.08,1.25.1,1.73.34.27.09.64-.25.95-.38.19,0,.24.28.34.33.17.08.38.01.63-.07-.2-.03-.37.02-.57,0-.13-.04.37-.5.53-.57.09-.07-.13.42-.04.35.07.04.25-.09.41-.15.1-.06-.18.33-.14.3.16-.02.62-.44.61-.28,0,.1,0,.2,0,.29.01.04.03.08.07.1l.14-.04c.08-.12.2-.26.31-.4.01.05-.02.16,0,.21-.01-.05.02-.16,0-.21-.11.14-.23.28-.31.4.33-.08.67-.1.98-.08l.03-.03c-.13-.06-.18-.18-.08-.49-.03.12-.13.21-.2.18l.13-.21c.18-.02.37-.02.2.3,0,0,.11-.04.17-.06-.02.07-.13.18-.22.27.02.01.05.02.08.03.14-.2.23-.55.23-.55Z"/>
        <path class="cls-2" d="m93.83,100.31s.05,0,.08,0l-.19-.21c-.09.22.01.21.11.2Z"/>
      </g>
    </g>
  </g>
</svg>