<svg width="118" height="115" viewBox="0 0 118 115" fill="none" xmlns="http://www.w3.org/2000/svg">
<path d="M54.2355 67.1526C54.6245 61.8718 55.0135 56.725 55.4261 51.0792C51.5006 51.0792 48.6125 50.9941 45.7362 51.0914C27.9006 51.7119 15.8295 40.7003 12.3991 22.595C11.3264 16.9492 11.456 10.9628 11.8215 5.18321C11.9394 3.39458 14.5092 0.48653 16.1831 0.304016C30.3526 -1.18043 49.9564 2.32383 58.4321 20.8428C58.9272 20.563 59.6463 20.417 59.8702 19.9911C68.7939 2.76186 84.1775 -0.292194 101.07 0.0241627C104.489 0.0850005 106.328 1.71545 106.599 5.53607C107.4 16.6329 105.797 27.316 100.21 36.8189C95.6003 44.6669 88.3388 49.4488 79.4151 50.5073C74.2637 51.1157 68.9825 50.6169 62.7584 50.6169C63.0884 57.3455 63.1592 63.3076 63.7604 69.221C64.1376 72.9078 66.6367 72.2873 68.9236 70.9123C74.4405 67.6028 79.922 64.2445 85.4035 60.8741C89.6473 58.2702 93.8321 58.1486 98.0523 60.9349C103.168 64.3175 108.52 67.3594 113.401 71.0705C119.365 75.6334 119.495 82.4472 113.471 86.4503C101.447 94.4566 89.4822 102.706 76.7863 109.423C61.556 117.465 45.8776 116.212 30.0225 109.471C22.5016 106.271 14.0023 105.188 5.83306 104.154C1.7897 103.643 -0.155354 103.181 0.00968153 98.4475C0.316175 89.6017 0.198293 80.7316 0.0450462 71.8736C-0.0138949 68.3085 1.0942 66.3617 4.27702 64.3054C12.741 58.8056 21.4053 53.9021 31.5196 56.9075C38.8636 59.0855 45.6654 63.1859 54.2473 67.1526H54.2355ZM4.40669 97.1212C16.0652 100.82 26.321 104.057 36.5767 107.342C51.3827 112.087 65.7761 111.686 79.3444 103.315C89.3172 97.1699 99.0071 90.5508 108.933 84.3331C111.656 82.6297 114.332 80.6464 112.552 77.4585C111.338 75.2805 107.53 72.4089 106.056 73.0052C99.349 75.6942 93.0305 79.4418 86.6531 82.9704C86.1698 83.2381 86.2641 84.7468 86.2169 85.6837C85.7925 93.6292 81.6902 97.754 74.1929 96.5737C65.953 95.284 57.7955 93.2885 49.697 91.22C47.3865 90.6359 45.3825 88.7378 43.2371 87.448C43.6143 86.645 43.9915 85.8298 44.3687 85.0267C47.2333 85.8419 50.0742 86.7788 52.9623 87.448C60.1178 89.0907 67.2615 90.9523 74.4994 91.9865C76.6095 92.2907 80.6411 90.4413 80.9829 88.9081C81.5134 86.6085 79.922 83.4692 78.5074 81.1574C77.753 79.9285 75.5368 79.2714 73.8982 79.0524C62.5108 77.5558 52.4201 73.1025 42.9424 66.3982C31.0481 57.9661 18.9062 58.6109 7.36553 67.5906C6.02167 68.637 4.58351 70.6325 4.53636 72.2386C4.26523 81.0601 4.40669 89.8937 4.40669 97.1212ZM64.0551 43.5597C64.8331 44.4357 65.6229 45.3118 66.4009 46.1879C73.2263 48.0008 81.6784 46.7476 87.6315 43.146C99.7969 35.7968 101.754 23.471 102.697 10.5856C103.062 5.66991 100.61 3.96645 96.3666 4.34364C92.0992 4.72084 87.8201 5.21971 83.5999 5.94976C68.3106 8.56579 57.7248 26.2817 62.1689 42.4038C63.4303 41.26 64.5855 40.3353 65.6111 39.2645C71.6585 33.0347 77.5997 26.7076 83.7532 20.5873C85.2621 19.0907 87.3722 18.239 90.5432 16.2557C89.9538 18.9812 90.0245 19.7478 89.6944 20.0641C81.1716 27.9244 72.6133 35.7359 64.0669 43.5475L64.0551 43.5597ZM55.5793 42.5011C56.5342 42.0144 57.489 41.5155 58.4557 41.0288C56.4634 33.6553 55.5204 25.7342 52.2433 19.0299C47.1508 8.62662 30.5412 1.93447 19.2716 4.66C17.7509 5.02503 15.7116 7.93307 15.7823 9.56353C16.0534 15.55 16.3364 21.7432 18.0339 27.4012C22.478 42.1726 39.3352 51.0914 52.1018 45.5065C42.9777 35.955 33.9951 26.5738 25.0243 17.1926C25.5783 16.5842 26.1324 15.9758 26.6746 15.3674C33.3232 17.1804 36.3763 23.8726 41.1623 28.1677C46.1841 32.6819 50.7933 37.6949 55.5793 42.4889V42.5011ZM102.166 67.7974C95.8832 66.8849 83.9536 73.7595 81.9378 80.0623C89.164 75.682 95.3056 71.9588 102.166 67.7974ZM73.8275 73.0295C74.299 73.7839 74.7823 74.5383 75.2539 75.2805C81.0655 71.7032 86.8771 68.126 92.6886 64.5487C92.2878 63.843 91.8753 63.1373 91.4745 62.4316C85.5921 65.9601 79.7098 69.4887 73.8275 73.0295Z" fill="#C6B39A"/>
</svg>
