<svg width="141" height="137" viewBox="0 0 141 137" fill="none" xmlns="http://www.w3.org/2000/svg">
<path d="M64.4134 79.7546C64.8754 73.4828 65.3374 67.3701 65.8275 60.6649C61.1653 60.6649 57.7352 60.5637 54.3191 60.6793C33.1365 61.4163 18.8001 48.3382 14.7259 26.8352C13.4519 20.13 13.6059 13.0201 14.0399 6.1559C14.1799 4.03161 17.232 0.577833 19.2201 0.361069C36.0486 -1.40195 59.3313 2.75992 69.3976 24.7543C69.9856 24.4219 70.8396 24.2485 71.1056 23.7427C81.7039 3.28016 99.9745 -0.347027 120.037 0.0286971C124.097 0.100952 126.281 2.03738 126.603 6.57498C127.555 19.7542 125.651 32.4422 119.015 43.7284C113.541 53.0492 104.917 58.7284 94.3183 59.9857C88.2001 60.7082 81.9279 60.1157 74.5357 60.1157C74.9277 68.1071 75.0117 75.1881 75.7258 82.2112C76.1738 86.5899 79.1419 85.8529 81.8579 84.2199C88.4101 80.2892 94.9203 76.3008 101.431 72.2979C106.471 69.2054 111.441 69.0609 116.453 72.3701C122.529 76.3875 128.885 80.0002 134.682 84.4078C141.766 89.8269 141.92 97.9194 134.766 102.674C120.485 112.182 106.275 121.98 91.1962 129.957C73.1077 139.509 54.4871 138.021 35.6566 130.015C26.7243 126.214 16.63 124.928 6.92771 123.7C2.12556 123.093 -0.184507 122.544 0.0114984 116.922C0.375509 106.417 0.235505 95.8818 0.0534996 85.3615C-0.0165024 81.1274 1.29954 78.8152 5.07965 76.373C15.1319 69.8412 25.4223 64.0175 37.4346 67.5869C46.1569 70.1736 54.2351 75.0435 64.4274 79.7546H64.4134ZM5.23365 115.347C19.0801 119.74 31.2604 123.584 43.4408 127.486C61.0253 133.122 78.1198 132.645 94.2343 122.703C106.079 115.405 117.587 107.544 129.375 100.159C132.609 98.1362 135.788 95.7807 133.673 91.9945C132.231 89.4078 127.709 85.9974 125.959 86.7055C117.993 89.8991 110.489 94.35 102.915 98.5408C102.341 98.8587 102.453 100.651 102.397 101.763C101.893 111.2 97.0204 116.099 88.1161 114.697C78.3298 113.165 68.6415 110.795 59.0233 108.339C56.2792 107.645 53.8991 105.391 51.351 103.859C51.799 102.905 52.2471 101.937 52.6951 100.983C56.0972 101.951 59.4713 103.064 62.9014 103.859C71.3996 105.81 79.8839 108.021 88.4801 109.249C90.9862 109.61 95.7744 107.414 96.1804 105.593C96.8104 102.862 94.9203 99.1333 93.2403 96.3876C92.3443 94.928 89.7122 94.1477 87.7661 93.8876C74.2417 92.1101 62.2574 86.8211 51.001 78.8586C36.8746 68.8441 22.4542 69.61 8.74776 80.2748C7.15171 81.5176 5.44366 83.8875 5.38766 85.7951C5.06565 96.272 5.23365 106.763 5.23365 115.347ZM76.0758 51.7342C76.9998 52.7746 77.9378 53.8151 78.8619 54.8556C86.9681 57.0088 97.0064 55.5203 104.077 51.2428C118.525 42.5145 120.849 27.8757 121.969 12.5721C122.403 6.73393 119.491 4.7108 114.451 5.15878C109.383 5.60676 104.301 6.19925 99.2885 7.06631C81.1299 10.1733 68.5575 31.2138 73.8357 50.3613C75.3337 49.0029 76.7058 47.9047 77.9238 46.633C85.106 39.2341 92.1622 31.7196 99.4705 24.4508C101.263 22.6733 103.769 21.6618 107.535 19.3063C106.835 22.5433 106.919 23.4537 106.527 23.8294C96.4044 33.1647 86.2401 42.4422 76.0898 51.7197L76.0758 51.7342ZM66.0095 50.4769C67.1435 49.8989 68.2775 49.3064 69.4256 48.7284C67.0595 39.9711 65.9395 30.5635 62.0474 22.6011C55.9992 10.2455 36.2726 2.2975 22.8882 5.53451C21.0821 5.96804 18.6601 9.42181 18.7441 11.3582C19.0661 18.4681 19.4021 25.8236 21.4181 32.5433C26.6963 50.0868 46.7169 60.6793 61.8793 54.0463C51.043 42.7023 40.3747 31.5607 29.7204 20.419C30.3784 19.6964 31.0364 18.9739 31.6804 18.2513C39.5767 20.4045 43.2028 28.3525 48.887 33.4537C54.8511 38.815 60.3253 44.7688 66.0095 50.4625V50.4769ZM121.339 80.5205C113.877 79.4366 99.7085 87.6014 97.3144 95.087C105.897 89.8847 113.191 85.4627 121.339 80.5205ZM87.6821 86.7344C88.2421 87.6303 88.8161 88.5263 89.3762 89.4078C96.2784 85.1592 103.181 80.9106 110.083 76.6621C109.607 75.8239 109.117 74.9857 108.641 74.1476C101.655 78.3384 94.6683 82.5291 87.6821 86.7344Z" fill="#C6B39A"/>
</svg>
