<svg width="19" height="16" viewBox="0 0 19 16" fill="none" xmlns="http://www.w3.org/2000/svg">
<path d="M17.0119 0.608398H1.89022C0.850597 0.608398 0.00945107 1.43537 0.00945107 2.44611L0 13.4724C0 14.4831 0.850597 15.3101 1.89022 15.3101H17.0119C18.0516 15.3101 18.9022 14.4831 18.9022 13.4724V2.44611C18.9022 1.43537 18.0516 0.608398 17.0119 0.608398ZM16.6339 4.51353L9.95198 8.57487C9.64955 8.75864 9.2526 8.75864 8.95017 8.57487L2.26826 4.51353C2.17349 4.46181 2.0905 4.39193 2.02432 4.30812C1.95813 4.22432 1.91012 4.12833 1.8832 4.02596C1.85627 3.92359 1.851 3.81698 1.86768 3.71257C1.88437 3.60816 1.92267 3.50813 1.98027 3.41853C2.03787 3.32893 2.11357 3.25163 2.20279 3.19129C2.29201 3.13096 2.39289 3.08886 2.49933 3.06753C2.60577 3.0462 2.71556 3.04609 2.82205 3.06721C2.92854 3.08832 3.02951 3.13023 3.11886 3.19038L9.45108 7.04038L15.7833 3.19038C15.8726 3.13023 15.9736 3.08832 16.0801 3.06721C16.1866 3.04609 16.2964 3.0462 16.4028 3.06753C16.5093 3.08886 16.6101 3.13096 16.6994 3.19129C16.7886 3.25163 16.8643 3.32893 16.9219 3.41853C16.9795 3.50813 17.0178 3.60816 17.0345 3.71257C17.0512 3.81698 17.0459 3.92359 17.019 4.02596C16.992 4.12833 16.944 4.22432 16.8778 4.30812C16.8117 4.39193 16.7287 4.46181 16.6339 4.51353Z" fill="#FAF6EF"/>
</svg>
