<svg width="77" height="77" viewBox="0 0 77 77" fill="none" xmlns="http://www.w3.org/2000/svg">
<rect width="77" height="77" rx="38.5" fill="#064D00"/>
<path d="M16.7062 33.3848C17.2003 33.3848 17.6944 33.4073 18.185 33.3813C20.0002 33.2842 21.8118 33.1629 23.627 33.0641C26.3055 32.9184 28.9858 32.7815 31.6643 32.6462C32.6143 32.5994 33.5678 32.5769 34.5179 32.5353C36.9381 32.4295 39.3583 32.2943 41.7802 32.2198C43.3197 32.1729 44.861 32.2111 46.3259 32.2111C37.4547 37.0584 28.4917 41.956 19.5269 46.8537C19.5581 46.9195 19.5893 46.9837 19.6205 47.0496C28.9927 43.2338 38.3649 39.4179 47.7354 35.6021C47.7614 35.6299 47.7874 35.6576 47.8134 35.6854C40.8354 43.4141 33.7811 51.0699 26.6626 58.6738C34.6895 52.1153 42.4841 45.2968 50.1556 38.3361C50.1903 38.3569 50.2249 38.3777 50.2613 38.3986C48.8709 41.481 47.4996 44.5704 46.0867 47.6407C44.6651 50.7319 43.2296 53.8161 41.7508 56.8795C40.2719 59.9411 38.7324 62.975 37.2224 66.0159C37.7182 65.6761 43.9473 56.004 45.5146 53.2925C48.0596 48.8907 50.6722 44.5271 53.2883 40.0941C53.1635 41.143 53.0473 42.1485 52.9243 43.154C52.6451 45.4286 52.3747 47.7049 52.08 49.9777C51.9014 51.3491 51.6934 52.7187 51.4801 54.0848C51.0536 56.8032 50.615 59.5216 50.1764 62.2382C50.0984 62.7219 50.0308 63.2108 49.8955 63.6789C49.8314 63.9008 49.6598 64.1626 49.4639 64.2631C46.6172 65.7142 43.6006 66.5741 40.4072 66.8238C38.6024 66.9659 36.7994 66.9555 35.0085 66.7007C32.3942 66.3297 29.8907 65.5911 27.5104 64.4192C25.0937 63.2299 22.9283 61.6921 20.9727 59.8562C18.9617 57.9699 17.306 55.7994 15.933 53.4087C14.7645 51.3716 13.856 49.2322 13.2076 46.975C12.6009 44.8599 12.268 42.6998 12.0842 40.5119C11.8415 37.6115 12.1432 34.744 12.7344 31.9146C13.4382 28.5444 14.683 25.3718 16.5831 22.4783C17.0581 21.7571 17.5782 21.0653 18.0619 20.3493C18.2353 20.0928 18.4416 20.0286 18.7276 20.1084C21.5761 20.8989 24.428 21.6773 27.2729 22.48C29.1747 23.0157 31.0696 23.574 32.9611 24.1461C34.7554 24.687 36.5428 25.2539 38.3302 25.8173C40.3933 26.4692 42.4529 27.128 44.5125 27.7868C45.043 27.9567 45.57 28.1387 46.0971 28.3797C36.2568 29.8602 26.4373 31.3876 16.6975 33.3848H16.7062Z" fill="#F6F500"/>
<path d="M18.4142 19.9128C18.8407 19.4014 19.1718 18.9731 19.5341 18.5727C22.0774 15.7676 25.068 13.5762 28.5319 12.0333C28.8491 11.8928 29.0936 11.8824 29.4039 12.1009C32.5211 14.2853 35.6746 16.4177 38.7727 18.6299C41.1894 20.3549 43.5403 22.1735 45.9223 23.9488C46.2535 24.1967 46.5898 24.4394 46.8984 24.7567C37.4828 22.8791 28.0655 21.0726 18.4142 19.9128Z" fill="#F6F500"/>
<path d="M50.8393 63.4973C53.1294 55.9316 54.9134 48.3572 56.6054 40.7412C56.8967 42.383 57.207 44.0213 57.4757 45.6683C57.9525 48.5826 58.4032 51.5004 58.8661 54.4181C58.8783 54.4892 58.8713 54.5672 58.8956 54.6314C59.2891 55.6143 58.9043 56.3425 58.2645 57.1122C56.2466 59.5411 53.9547 61.6388 51.2553 63.2841C51.1617 63.3413 51.0594 63.3846 50.8375 63.4973H50.8393Z" fill="#F6F500"/>
<path d="M48.8222 21.8878C42.7024 18.1708 36.5635 14.674 30.2529 11.3575C30.6915 11.2119 31.1267 11.0507 31.5705 10.9241C34.2854 10.1457 37.061 9.90644 39.8748 10.0313C40.2215 10.0469 40.4538 10.1908 40.6619 10.4734C42.191 12.5486 43.7547 14.6012 45.2717 16.6868C46.4662 18.3286 47.6087 20.0068 48.7737 21.6711C48.7962 21.7023 48.7928 21.7509 48.8222 21.8896V21.8878Z" fill="#F6F500"/>
<path d="M60.7 53.4543C60.4036 49.0109 60.1123 44.6213 59.821 40.2299C59.847 40.2212 59.8731 40.2108 59.8991 40.2021C60.2302 40.8176 60.5717 41.4279 60.8872 42.0502C61.6969 43.6417 62.503 45.2367 63.2901 46.8386C63.3733 47.0085 63.3855 47.2599 63.3317 47.4454C62.7544 49.4027 61.9413 51.2612 60.967 53.0504C60.8924 53.1856 60.7954 53.3104 60.7 53.4543Z" fill="#F6F500"/>
<path d="M51.4493 19.7278C48.639 16.6193 45.8808 13.5681 43.048 10.4336C43.7016 10.5914 44.2719 10.6832 44.8094 10.8687C46.1426 11.3299 47.4636 11.8275 48.7829 12.3302C48.9372 12.3892 49.1106 12.5504 49.1626 12.703C49.9185 14.9411 50.657 17.1862 51.3973 19.4296C51.4233 19.5076 51.4268 19.5926 51.4511 19.7261L51.4493 19.7278Z" fill="#F6F500"/>
<path d="M62.7084 38.3232C63.3152 38.9092 63.9255 39.49 64.5219 40.0864C64.5999 40.1644 64.6432 40.3239 64.6328 40.4401C64.5687 41.163 64.4837 41.8842 64.4074 42.6054C64.3693 42.6106 64.3329 42.6158 64.2947 42.621C63.7382 41.215 63.1835 39.8073 62.627 38.4013C62.6547 38.3753 62.6824 38.351 62.7084 38.325V38.3232Z" fill="#F6F500"/>
<path d="M52.8671 14.7109C53.4132 15.1426 53.9627 15.5708 54.5036 16.0095C54.5591 16.0545 54.5903 16.1638 54.5903 16.2435C54.5973 17.0635 54.5938 17.8836 54.4967 18.733L52.7648 14.8046C52.7994 14.7733 52.8324 14.7421 52.8671 14.7109Z" fill="#F6F500"/>
</svg>
