<svg width="133" height="122" viewBox="0 0 133 122" fill="none" xmlns="http://www.w3.org/2000/svg">
<g opacity="0.85">
<path d="M113.68 74.495C113.42 74.195 113.14 73.915 112.87 73.625C112.99 73.795 113.09 73.975 113.17 74.175C113.31 74.395 113.48 74.425 113.68 74.505V74.495Z" fill="#603913"/>
<path d="M112.1 72.8337C112.05 72.7837 112 72.7337 111.95 72.6837C111.89 72.6537 111.84 72.6237 111.79 72.5938L112.1 72.8337Z" fill="#603913"/>
<path d="M110.46 71.5547C110.73 71.8047 110.99 72.0247 111.27 72.2247C111.07 72.0047 110.81 71.7647 110.46 71.5547Z" fill="#603913"/>
<path d="M111.63 72.7244C111.59 72.5844 111.59 72.4844 111.78 72.5944C111.61 72.4744 111.44 72.3544 111.27 72.2344C111.42 72.4044 111.54 72.5644 111.62 72.7344L111.63 72.7244Z" fill="#603913"/>
<path d="M111.63 72.7227C111.67 72.8527 111.77 73.0327 111.79 73.1127C111.75 72.9927 111.7 72.8627 111.63 72.7227Z" fill="#603913"/>
<path d="M110.109 73.6547C109.929 73.5647 110.279 73.2347 109.909 73.0547C109.119 72.5547 108.359 72.2347 107.679 71.7147C107.299 71.5647 107.109 70.7747 106.719 70.6247C105.869 70.1847 103.529 69.4747 104.719 70.1947C106.509 71.2647 107.679 71.9647 109.179 73.0847C110.469 73.9147 111.689 74.7447 112.879 75.7947C113.199 76.1047 113.429 76.4347 113.669 76.7747C113.389 76.3047 113.069 75.8547 112.709 75.3447C112.249 74.6547 111.119 74.3947 110.119 73.6547H110.109Z" fill="#603913"/>
<path d="M118.319 81.9045C118.199 81.7345 117.909 81.4145 117.909 81.4145C117.829 80.4345 117.239 79.6245 116.609 78.8945L116.629 79.3845C116.939 79.8345 117.079 79.8245 116.919 79.3545C117.239 80.4745 117.679 81.4045 118.129 82.3845C118.219 82.2745 118.369 82.2245 118.309 81.9145L118.319 81.9045Z" fill="#603913"/>
<path d="M118.419 82.9333C118.329 82.7433 118.229 82.5533 118.139 82.3633C118.129 82.3633 118.119 82.3833 118.109 82.4033C118.209 82.5933 118.319 82.7733 118.419 82.9533V82.9233V82.9333Z" fill="#603913"/>
<path d="M106.72 69.3039C104.46 67.8239 102.25 66.4339 99.7498 65.8839C99.5398 65.9339 99.3898 66.0239 99.1398 65.9339C98.9598 65.8239 98.7598 65.7539 98.5698 65.7039C98.1998 65.6739 97.8198 65.6739 97.4498 65.6839C97.3198 65.7039 97.1898 65.7339 97.0598 65.7639H97.0498C96.8498 65.8439 96.9198 65.9139 97.0498 65.9639C97.1998 65.9939 97.3298 66.0339 97.4398 66.0939C97.3698 66.0539 97.1798 66.0139 97.0498 65.9639C96.8698 65.9239 96.6698 65.9139 96.4398 65.9239C96.1198 66.0239 95.7798 66.1339 95.4298 66.2239C95.7898 66.0439 96.1398 65.9539 96.4398 65.9239C96.6498 65.8639 96.8398 65.8039 97.0498 65.7539C97.1098 65.7339 97.1698 65.7139 97.2298 65.6839C96.3698 65.7539 95.5398 65.9639 94.7498 66.2639C94.5698 66.3439 94.4098 66.4339 94.2798 66.5039C93.7498 66.8139 93.2598 67.1539 92.8098 67.1339C92.6798 67.2039 92.5498 67.2739 92.4098 67.3439C92.4398 67.3439 92.4698 67.3439 92.5098 67.3439C92.4498 67.3639 92.3898 67.3839 92.3398 67.3939C91.7998 67.7039 91.2498 68.0139 90.6998 68.3239C90.3998 68.6139 90.1098 68.9239 89.7898 69.2039C89.7898 69.2039 89.4698 69.2039 89.3098 69.2139C89.2298 69.4039 89.0598 69.5939 88.8398 69.7739C89.1998 69.7239 89.5498 69.7039 89.8498 69.6339C90.3298 69.6139 90.3998 68.7339 91.0598 68.8539C90.3998 68.7339 90.3398 69.6139 89.8498 69.6339C89.5498 69.6939 89.2098 69.7239 88.8398 69.7739C88.3798 70.1539 87.6698 70.4539 87.0198 70.5639C87.5798 70.0039 88.2298 69.8639 88.8398 69.7739C89.0598 69.5939 89.2298 69.4039 89.3098 69.2139C89.4698 69.2139 89.7898 69.2039 89.7898 69.2039C90.1098 68.9239 90.3998 68.6139 90.6998 68.3239C89.6398 68.9339 88.5698 69.5439 87.4598 70.1239C83.8898 71.9939 80.3598 73.6039 76.6298 74.4639C72.8998 75.3339 68.9998 75.3139 65.1298 74.0239C60.9298 72.6639 57.2498 70.3539 53.5598 68.1039C51.7198 66.9739 49.8398 65.9239 47.8898 65.0239C45.9398 64.1139 43.8998 63.3339 41.7498 62.7939C37.3998 61.6639 32.7798 61.6239 27.9798 62.5839C26.1398 62.9739 23.5898 64.0439 21.3798 65.7039C19.1498 67.3239 17.3598 69.5239 16.3898 71.1639C15.8498 72.3339 15.8198 73.2039 15.8898 73.7239C15.9798 74.2539 16.2298 74.4939 16.5298 74.5939C17.1398 74.7839 17.8998 74.4439 17.9898 74.3839C18.3298 74.1839 18.6198 73.9739 18.8898 73.7739C19.1798 73.5839 19.4298 73.3839 19.6698 73.1639C20.1098 72.7239 20.5898 72.2939 21.0598 71.7639C22.0498 70.7839 23.3298 69.5039 25.7198 68.6839C24.9198 68.9739 24.6298 69.0239 24.6698 68.8539C24.6998 68.6739 25.1098 68.3439 25.7298 67.9339C26.9698 67.1339 29.2498 66.3939 30.9398 66.6139C33.3798 66.9639 35.9798 66.7839 38.7398 67.1039C41.4698 67.4439 44.5198 68.2739 47.0898 69.7639C48.3798 70.5039 49.8298 71.1439 51.4398 72.0439C55.4898 74.5039 59.7698 76.9239 64.8798 78.1239C67.4098 78.7139 70.1398 78.9639 72.8398 78.7439C75.5298 78.5039 78.1798 77.8839 80.7598 77.0039C83.4798 76.0139 85.5198 74.5239 87.4298 73.1939C88.8798 72.3139 90.5398 71.5939 91.6898 70.8739C93.5098 69.7339 94.7798 68.7339 96.0598 68.0839C94.5698 68.6939 93.5598 69.5139 91.7598 70.7239C90.5298 71.5239 92.3098 69.6539 92.9998 69.0739C93.2898 68.7739 94.0698 68.9439 94.3398 68.6739C95.0498 68.3039 95.6098 67.8239 96.3498 67.4739C96.6598 67.2839 96.7298 67.7639 96.8798 67.6839C97.8198 67.3839 98.7298 66.8339 99.4498 67.1039C99.9798 67.2839 100.45 67.4839 100.89 67.7339C101.18 67.8639 101.46 68.0039 101.78 68.1239C101.99 68.1739 102.21 68.2339 102.42 68.2939C103.98 68.7539 105.77 69.6139 107.36 70.4839V70.4339C106.47 69.8539 105.64 69.2539 104.85 68.4239C105.2 68.7639 105.08 68.8439 104.6 68.5839L104.37 68.1639C105.25 68.5339 106.14 68.9339 106.68 69.7339C106.68 69.7339 107.08 69.8739 107.27 69.9439C107.48 70.1739 107.38 70.2939 107.35 70.4339C107.52 70.5439 107.7 70.6539 107.88 70.7739C107.77 70.5539 107.48 70.1639 107.21 69.8439C106.92 69.5239 106.69 69.2639 106.69 69.2639L106.72 69.3039Z" fill="#603913"/>
<path d="M96.4301 65.9347C96.5701 65.8947 96.7501 65.8447 96.9401 65.8047C96.2301 65.8847 95.5401 66.0647 94.8701 66.3047C95.3001 66.3847 95.8401 66.1247 96.4301 65.9347Z" fill="#603913"/>
</g>
<g opacity="0.85">
<path d="M116.71 81.5352C116.59 81.9852 116.46 82.4252 116.28 82.8552C116.4 82.6452 116.52 82.4452 116.67 82.2452C116.81 81.9652 116.75 81.7752 116.71 81.5352Z" fill="#603913"/>
<path d="M115.72 84.0234C115.68 84.0934 115.64 84.1734 115.6 84.2434C115.58 84.3134 115.55 84.3834 115.53 84.4434L115.72 84.0234Z" fill="#603913"/>
<path d="M114.46 86.1116C114.76 85.7916 115 85.4416 115.2 85.1016C114.97 85.3716 114.73 85.7016 114.46 86.1116Z" fill="#603913"/>
<path d="M115.69 84.5731C115.55 84.6731 115.45 84.6931 115.53 84.4531C115.43 84.6631 115.32 84.8831 115.19 85.1031C115.36 84.9031 115.53 84.7231 115.68 84.5731H115.69Z" fill="#603913"/>
<path d="M115.69 84.5739C115.83 84.4839 116 84.3039 116.07 84.2539C115.95 84.3439 115.83 84.4539 115.69 84.5739Z" fill="#603913"/>
<path d="M116.77 86.043C116.65 86.313 116.3 85.983 116.06 86.493C115.39 87.603 114.76 88.553 113.87 89.343C113.53 89.793 112.54 89.923 112.2 90.323C111.32 91.213 109.15 93.553 110.63 92.443C112.82 90.743 114.28 89.493 115.97 87.403C117.24 85.593 118.03 83.523 118.25 81.323C118.34 80.713 118.42 80.133 118.45 79.543C118.37 80.313 118.21 81.083 117.96 81.893C117.57 82.913 117.7 84.433 116.78 86.043H116.77Z" fill="#603913"/>
<path d="M113.1 72.8125C113.35 72.8425 113.83 73.0025 113.83 73.0025C114.59 73.8625 115.45 74.5425 116.19 75.4725C116.16 75.2825 116.13 75.0925 116.1 74.9025C115.66 74.3725 115.52 74.4025 115.79 74.9325C115.22 73.6725 114.11 72.7325 112.82 72.3125C112.85 72.4625 112.79 72.5825 113.1 72.8025V72.8125Z" fill="#603913"/>
<path d="M112.05 72.1333C112.31 72.1833 112.57 72.2333 112.82 72.3233C112.82 72.3133 112.82 72.2933 112.81 72.2733C112.55 72.1933 112.28 72.1633 112.03 72.1133L112.06 72.1333H112.05Z" fill="#603913"/>
<path d="M110.77 90.0519C108.04 92.1319 105.35 93.9319 102.64 95.5519C102.48 95.7619 102.39 95.9419 102.09 96.0619C101.84 96.1219 101.6 96.2119 101.37 96.3019C100.97 96.5219 100.57 96.7519 100.17 96.9719C100.04 97.0619 99.9 97.1519 99.77 97.2519H99.76C99.56 97.4419 99.67 97.4619 99.84 97.4419C100.02 97.3919 100.19 97.3619 100.34 97.3519C100.24 97.3619 100 97.4219 99.84 97.4419C99.62 97.5019 99.39 97.5819 99.13 97.6919C98.78 97.9219 98.4 98.1419 97.99 98.3419C98.41 98.0519 98.79 97.8419 99.13 97.6919C99.35 97.5419 99.56 97.3919 99.77 97.2419C99.83 97.1919 99.88 97.1419 99.94 97.0919C99.03 97.6119 98.09 98.0819 97.16 98.5619C96.96 98.6919 96.76 98.8119 96.6 98.9119C95.96 99.3119 95.31 99.7219 94.79 99.7219C94.62 99.8019 94.45 99.8819 94.28 99.9619C94.32 99.9619 94.36 99.9619 94.4 99.9519C94.32 99.9819 94.25 99.9919 94.19 100.002C93.47 100.322 92.75 100.652 92.03 100.982C91.6 101.282 91.17 101.602 90.71 101.882C90.71 101.882 90.32 101.882 90.13 101.882C89.98 102.082 89.74 102.282 89.42 102.462C89.87 102.422 90.29 102.402 90.66 102.342C91.25 102.342 91.55 101.412 92.31 101.562C91.55 101.422 91.25 102.342 90.66 102.342C90.29 102.402 89.87 102.422 89.42 102.462C88.76 102.832 87.83 103.132 87.02 103.222C87.84 102.662 88.66 102.522 89.42 102.462C89.74 102.282 89.98 102.082 90.13 101.882C90.32 101.882 90.71 101.882 90.71 101.882C91.16 101.602 91.6 101.282 92.03 100.982C90.6 101.592 89.16 102.202 87.67 102.772C82.87 104.592 78.16 106.092 73.32 107.252C68.49 108.412 63.52 109.322 58.29 109.192C55.46 109.122 52.73 108.692 50.15 107.922C47.56 107.142 45.07 106.062 42.58 104.942C38.54 103.082 34.34 101.632 30.14 100.552C28.04 100.002 25.92 99.5219 23.78 99.1019C22.71 98.8919 21.63 98.6819 20.55 98.4919C20.5 98.4819 20.38 98.4619 20.38 98.4619H20.33L20.22 98.4119L20.02 98.3519C19.89 98.3119 19.78 98.2719 19.68 98.2319C19.73 98.0919 19.79 97.9519 19.84 97.8419C19.9 97.7019 19.95 97.5619 20.01 97.4519C20.01 97.4319 20.02 97.4319 20.03 97.4019L20.07 97.2119L20.15 96.8219L20.32 96.0419C20.43 95.5219 20.53 95.0019 20.64 94.4719C21.07 92.3119 21.3 89.1719 21.27 86.0619C21.25 82.9419 20.97 79.8619 20.72 77.7619C19.25 72.2419 17.55 75.4719 17.48 75.7019C16.82 77.4819 16.79 78.9519 16.81 80.8719C16.83 82.7719 16.94 85.1219 16.34 88.4719C16.67 86.1919 16.95 87.0319 16.96 89.0019C16.97 90.9719 16.57 94.0519 15.71 96.1119L15.53 96.5519C15.47 96.7019 15.42 96.8119 15.34 97.1119C15.19 97.6319 15.04 98.1719 14.89 98.7519C14.6 99.8819 14.28 101.212 14 102.552C15.27 102.772 16.66 102.982 18.12 103.192L19.22 103.342L20.02 103.472C20.4 103.532 20.77 103.592 21.15 103.662C22.67 103.912 24.25 104.152 25.83 104.442C28.99 105.012 32.2 105.762 35.06 106.912C36.84 107.622 38.73 108.242 40.92 109.142C43.7 110.392 46.61 111.582 49.76 112.352C52.94 113.132 56.18 113.362 59.36 113.252C65.76 113.012 71.82 111.472 78.14 109.742C81.49 108.762 84.23 107.312 86.85 106.022C88.8 105.182 90.98 104.482 92.56 103.752C95.03 102.592 97.05 101.392 98.91 100.122C96.76 101.402 95.18 102.332 92.68 103.592C91 104.392 93.6 102.502 94.63 101.822C95.06 101.502 96.03 101.592 96.45 101.262C97.47 100.742 98.29 100.052 99.3 99.3419C99.71 98.9919 99.89 99.4419 100.09 99.2719C101.49 98.3319 102.29 97.1619 103.25 96.7019C103.97 96.3419 104.63 96.0119 105.27 95.6819C105.66 95.4619 106.05 95.2319 106.44 94.9519C106.67 94.7619 106.9 94.5519 107.13 94.3419C106.85 94.3619 106.68 94.2619 106.51 94.1519C106.89 93.9219 107.45 93.6619 107.83 93.4319C107.45 93.6619 106.88 93.9219 106.51 94.1519C106.68 94.2519 106.85 94.3519 107.13 94.3419C108.79 92.8619 110.69 91.2119 112.4 89.5719H112.35C111.31 90.4719 110.2 91.2119 108.89 91.8119C109.45 91.5319 109.46 91.6919 108.92 92.1219L108.35 92.2419C109.25 91.4119 110.16 90.6119 111.28 90.1819C111.28 90.1819 111.62 89.7719 111.79 89.5719C112.13 89.3819 112.21 89.5119 112.36 89.5619C112.56 89.3819 112.76 89.2019 112.96 89.0119C112.37 89.2219 110.78 90.0619 110.78 90.0619L110.77 90.0519Z" fill="#603913"/>
<path d="M99.0898 97.7116C99.2498 97.6116 99.4398 97.4816 99.6398 97.3516C98.8698 97.7816 98.0798 98.1616 97.2998 98.5716C97.8198 98.5516 98.4598 98.1316 99.0898 97.7116Z" fill="#603913"/>
</g>
<g opacity="0.85">
<path d="M71.5703 78.8755L72.2703 78.9955C72.1603 78.9455 72.0503 78.8755 71.9403 78.7755C71.7903 78.6955 71.7003 78.7955 71.5703 78.8755Z" fill="#603913"/>
<path d="M72.9211 79.1133C72.9211 79.1133 73.0011 79.1333 73.0411 79.1433L73.1511 79.1133H72.9111H72.9211Z" fill="#603913"/>
<path d="M74.1603 79.2033C73.9503 79.1333 73.7403 79.1133 73.5303 79.1133C73.7003 79.1733 73.9103 79.2133 74.1603 79.2033Z" fill="#603913"/>
<path d="M73.2011 78.9258C73.2611 79.0058 73.2911 79.0858 73.1611 79.1258H73.5411C73.4111 79.0758 73.3011 79.0058 73.2111 78.9358L73.2011 78.9258Z" fill="#603913"/>
<path d="M73.201 78.9248C73.141 78.8448 73.031 78.7648 73.001 78.7148C73.061 78.7848 73.121 78.8548 73.201 78.9248Z" fill="#603913"/>
<path d="M73.8009 77.3044C73.9409 77.2744 73.8309 77.7444 74.0909 77.6744C74.7009 77.6544 75.2509 77.5344 75.8009 77.6444C76.0709 77.5944 76.3509 78.1944 76.6309 78.1444C77.2409 78.1444 78.9009 77.8944 78.0109 77.7044C76.6609 77.4444 75.7609 77.3844 74.5309 77.2444C73.5109 77.2444 72.5409 77.3344 71.5109 77.3744C71.2309 77.3544 70.9709 77.2944 70.7109 77.2344C71.0509 77.3444 71.3909 77.4644 71.7709 77.5844C72.2609 77.7844 72.9709 77.2644 73.8009 77.2944V77.3044Z" fill="#603913"/>
<path d="M66.3504 78.1531C66.4804 78.1031 66.7304 78.0031 66.7304 78.0031C67.2704 78.3631 67.8604 78.2731 68.4504 78.1731L68.2104 77.9231C67.8704 77.9231 67.8304 78.0631 68.1204 78.1831C67.4604 77.8431 66.8104 77.7731 66.1504 77.8031C66.1904 77.9331 66.1804 78.0831 66.3604 78.1531H66.3504Z" fill="#603913"/>
<path d="M65.761 77.8239C65.891 77.8239 66.021 77.8039 66.151 77.7939V77.7539C66.011 77.7739 65.871 77.7939 65.751 77.8139H65.761V77.8239Z" fill="#603913"/>
<path d="M76.8407 79.3144C78.4707 79.6744 79.9707 80.1344 81.4007 80.6544C81.5407 80.6044 81.6507 80.5244 81.7907 80.6244C81.8807 80.7444 81.9707 80.8344 82.0707 80.9044L82.6907 81.1544C82.7707 81.1644 82.8407 81.1844 82.9207 81.1944C83.0607 81.1944 83.0507 81.1044 83.0007 81.0144C82.9407 80.9344 82.8807 80.8544 82.8407 80.7744C82.8707 80.8244 82.9507 80.9244 83.0007 81.0144C83.0807 81.1044 83.1707 81.1944 83.2907 81.2644C83.4907 81.3044 83.7007 81.3744 83.8907 81.4744C83.6407 81.4444 83.4407 81.3644 83.2907 81.2644C83.1607 81.2344 83.0407 81.2144 82.9107 81.1944H82.7907C83.2607 81.3844 83.7207 81.6044 84.1907 81.8044C84.3007 81.8344 84.4107 81.8644 84.5007 81.8844C84.8607 81.9644 85.2307 82.0444 85.3507 82.3444L85.5907 82.4644C85.5907 82.4644 85.5707 82.4244 85.5607 82.4044C85.5907 82.4344 85.6207 82.4644 85.6407 82.4844L86.6607 83.0044C86.9207 83.0244 87.2007 83.0344 87.4607 83.0844C87.4607 83.0844 87.5407 83.3044 87.5807 83.4144C87.7307 83.3544 87.8907 83.3444 88.0707 83.3944C87.9507 83.1744 87.8507 82.9444 87.7407 82.7744C87.6107 82.4444 87.0107 82.9544 86.9207 82.4244C87.0107 82.9644 87.6007 82.4444 87.7407 82.7744C87.8607 82.9444 87.9607 83.1644 88.0707 83.3944C88.4307 83.4844 88.8107 83.7944 88.9907 84.1844C88.5007 84.1144 88.2607 83.7644 88.0707 83.3944C87.9007 83.3444 87.7307 83.3544 87.5807 83.4144C87.5407 83.3044 87.4607 83.0844 87.4607 83.0844C87.2007 83.0344 86.9207 83.0244 86.6607 83.0044C87.3207 83.3544 87.9807 83.7144 88.6007 84.1344C89.6007 84.8044 90.4807 85.5644 91.0807 86.4644C91.6707 87.3244 91.9407 88.3844 91.8407 89.3744C91.7407 90.3844 91.2507 91.1644 90.3807 91.5844C89.5107 92.0344 88.2007 92.2044 86.9707 92.4244C84.2607 92.8244 81.6107 92.7944 79.0607 92.4844C74.0107 91.8444 69.2407 91.6444 64.4207 89.2144C62.5807 88.3344 58.9107 87.5644 57.0007 87.0544C54.2407 87.0844 54.9807 89.4444 55.0707 89.5844C56.1507 91.7244 57.6407 91.1544 60.6007 93.0244C58.5607 91.8544 62.4907 92.3844 64.3307 94.0344C65.6507 95.2844 67.5407 95.7944 69.5607 96.0644C71.5907 96.3444 73.7407 96.3544 75.7107 96.7544C76.7107 96.9244 77.7807 96.9344 78.9907 96.9644C82.1207 97.3144 85.2407 97.0144 88.2907 96.2644C89.0707 96.0644 89.7607 95.9144 90.6707 95.5944C91.5607 95.2744 92.6907 94.7844 93.6707 93.7744C94.6607 92.7744 95.2207 91.4544 95.4007 90.2344C95.5907 89.0044 95.4707 87.8144 95.1307 86.6844C94.7607 85.4844 93.9607 84.4644 93.2107 83.8444C92.4407 83.1844 91.6307 82.7544 90.8807 82.3844C89.8507 81.7744 88.8907 81.0344 88.0907 80.6644C86.8507 80.1044 85.7207 79.8044 84.6107 79.6044C85.7907 79.9644 86.6707 80.2044 87.9707 80.7144C88.8307 81.0744 87.1207 80.9944 86.5207 80.8944C86.2407 80.8944 86.0807 80.2444 85.7907 80.2444C85.2707 80.0244 84.7107 80.0344 84.1007 79.9444C83.8207 79.9444 84.0207 79.5144 83.8807 79.5144C83.0607 79.3344 82.2707 79.6944 81.8207 79.4144C81.4707 79.2244 81.1507 79.0444 80.8407 78.8644C80.6407 78.7744 80.4307 78.6944 80.2007 78.6444C80.0507 78.6444 79.8907 78.6444 79.7407 78.6344C79.8107 78.8144 79.8007 78.9944 79.7907 79.1744C79.8007 78.9944 79.8107 78.8044 79.7407 78.6344C78.6007 78.5944 77.3607 78.5444 76.2107 78.5044V78.5444C76.8807 78.6344 77.5007 78.8444 78.1007 79.2844C77.8407 79.1044 77.9107 78.9844 78.2407 79.0444L78.4307 79.3444C77.8307 79.3144 77.2207 79.3244 76.7607 78.8444C76.7607 78.8444 76.4907 78.8944 76.3607 78.9144C76.1907 78.8144 76.2307 78.6644 76.2207 78.5344C76.0907 78.5244 75.9607 78.5044 75.8307 78.4844C76.0507 78.7744 76.8307 79.2644 76.8307 79.2644L76.8407 79.3144Z" fill="#603913"/>
<path d="M83.311 81.2927C83.221 81.2727 83.111 81.2427 83.001 81.2227L84.171 81.7427C84.041 81.4427 83.681 81.3727 83.311 81.3027V81.2927Z" fill="#603913"/>
</g>
<g opacity="0.85">
<path d="M118.73 74.3622C118.62 74.3122 118.52 74.2822 118.41 74.2422C118.46 74.2922 118.5 74.3522 118.53 74.4522C118.58 74.5222 118.65 74.4322 118.73 74.3622Z" fill="#603913"/>
<path d="M118.11 74.1411L118.05 74.1211L117.99 74.1511C117.99 74.1511 118.07 74.1411 118.11 74.1311V74.1411Z" fill="#603913"/>
<path d="M117.51 74.1619C117.61 74.2019 117.7 74.2019 117.8 74.1919C117.72 74.1419 117.63 74.1219 117.51 74.1619Z" fill="#603913"/>
<path d="M117.94 74.3502C117.92 74.2702 117.92 74.2002 117.99 74.1602C117.93 74.1602 117.86 74.1802 117.81 74.1902C117.87 74.2302 117.91 74.2902 117.95 74.3602L117.94 74.3502Z" fill="#603913"/>
<path d="M117.939 74.3516C117.969 74.4216 117.989 74.5016 118.009 74.5416C117.989 74.4716 117.969 74.4116 117.939 74.3516Z" fill="#603913"/>
<path d="M117.49 75.9907C117.44 76.0307 117.53 75.5607 117.42 75.6507C117.18 75.7507 116.97 75.9407 116.77 75.9207C116.67 76.0207 116.56 75.4807 116.45 75.5807C116.2 75.7007 115.64 76.3507 115.97 76.3207C116.46 76.2507 116.78 76.1407 117.21 76.1207C117.58 75.9807 117.96 75.8307 118.36 75.7807C118.46 75.7907 118.55 75.8507 118.62 75.9207C118.54 75.8007 118.43 75.7007 118.32 75.5807C118.16 75.4007 117.78 75.9207 117.49 75.9807V75.9907Z" fill="#603913"/>
<path d="M120.72 75.862C120.64 75.862 120.49 75.862 120.49 75.862C120.53 75.442 120.21 75.352 119.91 75.332L119.87 75.592C120.01 75.652 120.1 75.552 120.05 75.392C120.14 75.812 120.31 76.002 120.54 76.182C120.62 76.082 120.73 75.972 120.72 75.872V75.862Z" fill="#603913"/>
<path d="M120.69 76.2697C120.64 76.2397 120.59 76.2097 120.54 76.1797L120.51 76.2097C120.57 76.2297 120.62 76.2597 120.68 76.2797L120.69 76.2697Z" fill="#603913"/>
<path d="M116.3 74.4909C115.58 74.4909 114.9 74.5109 114.24 74.5309C114.2 74.6309 114.18 74.7409 114.1 74.6909C114.04 74.6109 113.98 74.5709 113.93 74.5409H113.64C113.64 74.5409 113.58 74.5909 113.54 74.6009C113.49 74.6609 113.52 74.7409 113.56 74.8009C113.6 74.8509 113.65 74.9009 113.68 74.9609C113.66 74.9209 113.6 74.8709 113.56 74.8009C113.51 74.7509 113.45 74.7009 113.39 74.6909C113.31 74.7309 113.22 74.7609 113.12 74.7509C113.22 74.6809 113.31 74.6709 113.39 74.6909L113.54 74.6009L113.58 74.5509L112.92 74.5709C112.92 74.5709 112.83 74.6109 112.79 74.6309C112.64 74.7209 112.5 74.8109 112.36 74.5909H112.24C112.24 74.5909 112.26 74.6209 112.27 74.6309C112.25 74.6209 112.23 74.6109 112.22 74.5909L111.72 74.6209C111.63 74.7309 111.54 74.8609 111.45 74.9509C111.45 74.9509 111.35 74.8109 111.29 74.7409C111.27 74.8709 111.22 74.9609 111.16 75.0109C111.28 75.1309 111.39 75.2709 111.48 75.3509C111.63 75.5709 111.63 74.8309 111.84 75.2509C111.63 74.8309 111.63 75.5609 111.48 75.3509C111.39 75.2709 111.28 75.1309 111.16 75.0109C111.02 75.1309 110.81 75.0809 110.6 74.8909C110.76 74.6509 110.97 74.8109 111.16 75.0109C111.23 74.9609 111.27 74.8609 111.29 74.7409C111.34 74.8109 111.45 74.9509 111.45 74.9509C111.55 74.8609 111.63 74.7309 111.72 74.6209C111.39 74.6409 111.06 74.6709 110.72 74.6909C108.52 74.8509 106.59 75.4809 104.38 76.1009C103.18 76.4309 102 76.7309 100.82 77.0209C99.6398 77.3109 98.6398 77.8909 97.6198 78.4909C96.5998 79.0909 95.5698 79.6809 94.1898 80.1509C93.1198 80.5209 91.9698 82.2209 91.4698 83.1409C91.4298 83.9609 91.9798 84.4409 92.5298 84.7409C93.0798 85.0409 93.6398 85.1709 93.6998 85.1809C94.6298 85.3309 94.9398 85.2209 95.2298 84.9809C95.5298 84.7609 95.8198 84.3909 96.6198 84.2809C96.1198 84.4009 95.9998 84.1009 96.2198 83.7809C96.4298 83.4609 96.9898 83.1509 97.6898 83.3309C98.7298 83.6309 99.2898 83.3009 99.8598 82.8109C100.41 82.3309 100.97 81.7009 101.73 81.5409C102.11 81.4609 102.42 81.2009 102.84 81.0309C105.17 80.5409 106.88 79.0409 109.32 78.5109C109.94 78.3309 110.39 77.7609 110.89 77.4009C111.27 77.2309 111.75 77.3709 112.07 77.3109C112.58 77.2109 112.99 76.9709 113.39 76.7009C112.92 76.8609 112.6 77.0409 112.08 77.2109C111.73 77.3009 112.21 76.5609 112.43 76.3809C112.51 76.2509 112.76 76.7609 112.85 76.6309C113.07 76.6009 113.24 76.3509 113.46 76.1809C113.55 76.0609 113.6 76.5409 113.65 76.4809C113.96 76.3309 114.13 75.6809 114.35 75.7909C114.51 75.8409 114.66 75.9009 114.8 75.9709C114.89 75.9909 114.97 76.0009 115.06 75.9709L115.22 75.8409C115.17 75.7009 115.14 75.5209 115.11 75.3409C115.2 75.3609 115.32 75.4609 115.41 75.4809C115.32 75.4509 115.2 75.3609 115.11 75.3409C115.14 75.5209 115.16 75.7009 115.22 75.8409C115.62 75.5409 116.1 75.2709 116.57 75.1009V75.0609C116.29 75.0909 116.04 75.0409 115.74 74.7509C115.87 74.8609 115.85 74.9909 115.71 75.0209L115.6 74.7809C115.84 74.6409 116.1 74.5109 116.33 74.8609C116.33 74.8609 116.44 74.7609 116.5 74.7109C116.58 74.7809 116.56 74.9309 116.57 75.0609C116.62 75.0609 116.68 75.0409 116.73 75.0309C116.64 74.7809 116.28 74.4609 116.28 74.4609L116.3 74.4909Z" fill="#603913"/>
<path d="M113.38 74.6928C113.38 74.6928 113.46 74.6528 113.51 74.6328H112.95C113.08 74.8628 113.23 74.7728 113.38 74.6928Z" fill="#603913"/>
</g>
<g opacity="0.85">
<path d="M107.22 68.8047H106.93C106.98 68.8247 107.03 68.8747 107.08 68.9547C107.14 69.0047 107.17 68.8947 107.22 68.8047Z" fill="#603913"/>
<path d="M106.66 68.793H106.61L106.57 68.843C106.6 68.823 106.63 68.813 106.66 68.793Z" fill="#603913"/>
<path d="M106.18 68.9837C106.27 68.9937 106.35 68.9637 106.42 68.9237C106.34 68.8937 106.26 68.9137 106.18 68.9837Z" fill="#603913"/>
<path d="M106.58 69.0437C106.54 68.9737 106.52 68.9037 106.56 68.8438C106.56 68.8438 106.46 68.8937 106.42 68.9237C106.48 68.9437 106.53 68.9837 106.58 69.0437Z" fill="#603913"/>
<path d="M106.58 69.043C106.62 69.103 106.66 69.163 106.69 69.203C106.66 69.143 106.62 69.093 106.58 69.043Z" fill="#603913"/>
<path d="M106.69 70.7313C106.66 70.7913 106.6 70.3113 106.54 70.4313C106.38 70.5913 106.27 70.8313 106.1 70.8713C106.05 70.9913 105.8 70.5113 105.75 70.6313C105.59 70.8113 105.33 71.5713 105.59 71.4613C105.96 71.2713 106.19 71.0813 106.52 70.9413C106.77 70.7013 107.02 70.4413 107.33 70.2713C107.41 70.2513 107.5 70.2813 107.57 70.3213C107.47 70.2413 107.36 70.1713 107.24 70.1013C107.06 69.9813 106.91 70.6013 106.7 70.7413L106.69 70.7313Z" fill="#603913"/>
<path d="M109.25 69.4818C109.18 69.5118 109.05 69.5718 109.05 69.5718C108.98 69.1718 108.69 69.2118 108.44 69.3018L108.48 69.5618C108.6 69.5618 108.66 69.4418 108.58 69.3118C108.76 69.6618 108.95 69.7818 109.18 69.8418C109.22 69.7218 109.29 69.5818 109.25 69.4918V69.4818Z" fill="#603913"/>
<path d="M109.32 69.852C109.27 69.852 109.22 69.832 109.17 69.832V69.872C109.17 69.872 109.26 69.872 109.32 69.872V69.852Z" fill="#603913"/>
<path d="M105.31 69.6316C104.73 69.8216 104.19 69.9916 103.65 70.1616C103.65 70.2616 103.65 70.3716 103.58 70.3416C103.51 70.2816 103.45 70.2516 103.39 70.2316L103.16 70.3016L103.1 70.3716C103.08 70.4416 103.12 70.5016 103.17 70.5616C103.22 70.5916 103.27 70.6416 103.32 70.6916C103.29 70.6616 103.23 70.6116 103.17 70.5616C103.11 70.5216 103.05 70.4916 103 70.4916C102.94 70.5516 102.88 70.5916 102.79 70.6016C102.85 70.5116 102.92 70.4816 103 70.4916L103.1 70.3816L103.12 70.3216L102.58 70.4716C102.58 70.4716 102.51 70.5216 102.49 70.5516C102.39 70.6616 102.3 70.7716 102.13 70.5916L102.03 70.6216C102.03 70.6216 102.05 70.6416 102.06 70.6516C102.04 70.6516 102.02 70.6316 102.01 70.6216L101.6 70.7316C101.55 70.8516 101.52 70.9916 101.46 71.0916C101.46 71.0916 101.34 70.9716 101.28 70.9116C101.29 71.0316 101.28 71.1316 101.24 71.1916C101.37 71.2916 101.5 71.4116 101.6 71.4716C101.78 71.6516 101.6 70.9516 101.88 71.3116C101.59 70.9416 101.78 71.6516 101.6 71.4716C101.5 71.4116 101.37 71.2916 101.24 71.1916C101.16 71.3216 100.97 71.3216 100.74 71.1616C100.81 70.9016 101.02 71.0216 101.24 71.1916C101.28 71.1316 101.3 71.0316 101.28 70.9116C101.34 70.9716 101.46 71.0916 101.46 71.0916C101.52 70.9916 101.56 70.8516 101.6 70.7316C101.33 70.8116 101.06 70.8816 100.79 70.9616C99.0002 71.4516 97.5202 72.2716 95.7502 73.0016C94.7802 73.3816 93.8202 73.7216 92.8402 73.9916C90.8602 74.5616 89.7602 76.0916 87.4302 76.3116C86.5502 76.4316 85.5502 77.4916 85.0102 78.0116C84.7402 79.2616 86.4602 80.5216 86.5602 80.5816C88.1202 81.5716 87.8602 80.5216 89.4202 80.6216C88.4302 80.6516 89.2102 79.3516 90.5302 79.8816C92.4702 80.7316 92.8702 78.6716 94.2502 78.3316C94.5902 78.2516 94.8402 77.9916 95.2002 77.8116C97.2602 77.2716 98.5102 75.6716 100.52 74.8316C101.03 74.5716 101.28 73.9516 101.62 73.5316C101.91 73.3016 102.35 73.3616 102.61 73.2416C103.02 73.0516 103.31 72.7416 103.57 72.4016C103.22 72.6416 102.99 72.8916 102.6 73.1416C102.33 73.2916 102.54 72.4916 102.68 72.2816C102.72 72.1516 103.06 72.5816 103.1 72.4416C103.28 72.3616 103.35 72.1016 103.49 71.8916C103.53 71.7616 103.71 72.2016 103.73 72.1416C103.94 71.9316 103.91 71.2716 104.13 71.3316C104.28 71.3516 104.42 71.3716 104.55 71.4016C104.63 71.4016 104.7 71.4016 104.77 71.3516L104.86 71.1916C104.77 71.0716 104.7 70.9016 104.62 70.7416C104.7 70.7416 104.83 70.8016 104.91 70.8116C104.83 70.8116 104.7 70.7416 104.62 70.7416C104.69 70.9116 104.77 71.0716 104.86 71.1916C105.1 70.8116 105.41 70.4316 105.73 70.1416L105.71 70.1016C105.5 70.2016 105.28 70.2216 104.96 70.0216C105.09 70.0916 105.12 70.2216 105.02 70.2816L104.86 70.0816C105.01 69.8816 105.19 69.6916 105.47 69.9716C105.47 69.9716 105.53 69.8416 105.56 69.7816C105.64 69.8316 105.68 69.9716 105.72 70.1016C105.76 70.0816 105.8 70.0516 105.84 70.0316C105.7 69.8216 105.31 69.6016 105.31 69.6016V69.6316Z" fill="#603913"/>
<path d="M102.99 70.4745C102.99 70.4745 103.05 70.4245 103.08 70.3945L102.63 70.5145C102.8 70.6945 102.89 70.5845 102.99 70.4745Z" fill="#603913"/>
</g>
<g opacity="0.85">
<path d="M76.2998 27.1649L76.8498 27.2049C76.7598 27.1649 76.6698 27.1149 76.5798 27.0249C76.4598 26.9649 76.3998 27.0749 76.2998 27.1649Z" fill="#603913"/>
<path d="M77.3594 27.2431H77.4594L77.5394 27.2031C77.4794 27.2131 77.4194 27.2231 77.3594 27.2431Z" fill="#603913"/>
<path d="M78.3103 27.1325C78.1403 27.1025 77.9803 27.1225 77.8203 27.1425C77.9603 27.1825 78.1203 27.1825 78.3103 27.1325Z" fill="#603913"/>
<path d="M77.5598 27.0039C77.6198 27.0739 77.6498 27.1539 77.5498 27.2039L77.8398 27.1439C77.7398 27.1139 77.6498 27.0639 77.5698 27.0039H77.5598Z" fill="#603913"/>
<path d="M77.5596 27.0042C77.4996 26.9342 77.4196 26.8642 77.3896 26.8242C77.4396 26.8842 77.4996 26.9442 77.5596 27.0042Z" fill="#603913"/>
<path d="M77.8201 25.3129C77.9101 25.2629 77.8901 25.7429 78.0701 25.6329C78.5101 25.5029 78.8801 25.2829 79.2901 25.2829C79.4701 25.1729 79.7701 25.7029 79.9601 25.5929C80.4001 25.4529 81.4901 24.7729 80.8401 24.8229C79.8601 24.9229 79.2201 25.0529 78.3401 25.1429C77.6201 25.3329 76.9201 25.5429 76.1701 25.6929C75.9601 25.7029 75.7701 25.6629 75.5801 25.6229C75.8301 25.7029 76.0901 25.7929 76.3801 25.8729C76.7601 26.0129 77.2401 25.4229 77.8301 25.3129H77.8201Z" fill="#603913"/>
<path d="M72.3002 26.6256C72.4002 26.5756 72.6002 26.4856 72.6002 26.4856C72.9902 26.8756 73.4502 26.7656 73.9002 26.6656L73.7202 26.4156C73.4702 26.4156 73.4302 26.5556 73.6402 26.6756C73.1402 26.3456 72.6602 26.2656 72.1602 26.2656C72.1802 26.3956 72.1602 26.5456 72.2902 26.6256H72.3002Z" fill="#603913"/>
<path d="M71.8701 26.2727C71.9701 26.2727 72.0701 26.2727 72.1701 26.2627V26.2227C72.0601 26.2327 71.9601 26.2527 71.8701 26.2627V26.2727Z" fill="#603913"/>
<path d="M80.3298 26.6742C81.5898 26.6342 82.7698 26.5942 83.9398 26.5642C84.0198 26.4642 84.0798 26.3542 84.1998 26.3942C84.2998 26.4742 84.3898 26.5142 84.4798 26.5442H84.9898C85.0498 26.5142 85.0998 26.4942 85.1598 26.4742C85.2498 26.4042 85.2098 26.3342 85.1598 26.2742C85.0898 26.2342 85.0298 26.1742 84.9698 26.1142C85.0098 26.1542 85.0998 26.2042 85.1598 26.2742C85.2398 26.3242 85.3398 26.3642 85.4398 26.3842C85.5898 26.3442 85.7498 26.3042 85.9198 26.3242C85.7398 26.3942 85.5798 26.4142 85.4398 26.3842L85.1598 26.4742L85.0798 26.5242L86.2298 26.4842C86.3098 26.4642 86.3798 26.4442 86.4498 26.4242C86.6998 26.3342 86.9898 26.2342 87.0798 26.4642H87.2498C87.2498 26.4642 87.2398 26.4342 87.2298 26.4142C87.2498 26.4242 87.2698 26.4442 87.2798 26.4542L87.9898 26.4242C88.1998 26.3042 88.4498 26.1542 88.6898 26.0542C88.6898 26.0542 88.6898 26.2142 88.6698 26.2942C88.8298 26.1642 88.9798 26.0642 89.1398 26.0042C89.1398 26.0042 89.1698 25.9842 89.1798 25.9942C89.1798 25.9742 89.1798 25.9742 89.1798 25.9542C89.1798 25.8242 89.1698 25.6742 89.1098 25.5942C89.0698 25.3542 88.3098 26.1942 88.3898 25.7242C88.3198 26.1942 89.0698 25.3542 89.1098 25.5942C89.1598 25.6742 89.1698 25.8242 89.1798 25.9542C89.1798 25.9642 89.1798 25.9742 89.1798 25.9942C89.2698 26.1542 89.1998 26.6042 88.9798 27.0442C88.7698 26.9142 88.9598 26.5142 89.1798 25.9942C89.1798 25.9942 89.1498 25.9942 89.1398 26.0042C88.9898 26.0642 88.8298 26.1642 88.6698 26.2942C88.6898 26.2142 88.6898 26.0542 88.6898 26.0542C88.4498 26.1542 88.1998 26.3042 87.9898 26.4242L88.8098 26.3842C88.8398 26.5342 88.8098 26.7642 88.8098 26.9542C88.7398 28.1942 88.6998 28.9342 88.7098 30.3942C88.7098 31.3942 88.6998 32.3942 88.6898 33.4342C88.3198 33.4342 87.9398 33.4142 87.5498 33.4042C87.1598 33.3842 86.7698 33.3742 86.3598 33.3542C84.2298 33.2742 82.1798 33.1342 80.1698 32.9142C78.4298 32.7242 76.7598 32.7542 75.0998 32.7642C74.3198 32.7642 73.1898 32.7742 73.1998 32.7142C72.9698 32.6542 72.7598 32.5742 72.7798 32.3942C72.8998 32.1842 73.0398 31.9942 73.2098 31.8742C73.3198 31.7942 73.3898 31.7642 73.4298 31.7642H73.4398C73.4398 31.7642 73.4398 31.7842 73.4498 31.6942L73.4798 31.2842C73.4898 31.0042 73.4998 30.7242 73.5198 30.4342C73.5498 29.2942 73.4898 28.1742 73.4698 27.4042C72.6698 25.3442 70.6098 26.4442 70.4898 26.5342C68.7398 27.7642 69.7198 28.7242 68.5998 31.1542C68.9298 30.3342 69.1998 30.6442 69.2298 31.3742C69.2298 31.5242 69.2298 31.8342 69.1898 32.1442C69.1598 32.4542 69.0998 32.7842 69.0198 33.1442C68.8598 33.8542 68.6098 34.6742 68.2298 35.5642C67.9798 36.1442 67.7698 36.7542 67.5898 37.3942C68.2998 37.6442 69.3898 37.7242 70.5698 37.7442C71.1698 37.7442 71.7898 37.7442 72.4198 37.7142C72.7398 37.6942 73.0498 37.6842 73.3698 37.6642L73.7398 37.6342L73.9898 37.6142C75.3098 37.4742 76.6698 37.2642 77.9498 37.4342C78.6698 37.5342 79.4298 37.4342 80.2898 37.4342C81.8898 37.6142 83.4498 37.6042 84.9998 37.5342C87.4998 37.3942 89.9998 37.2542 92.5698 37.1042C92.5098 35.8942 92.4498 34.6742 92.3898 33.4342C92.3698 32.8242 92.3498 32.2142 92.3198 31.5942C92.3198 31.2042 92.3098 30.8242 92.2998 30.4242C92.2898 30.1142 92.2498 29.8142 92.1898 29.5242L92.0898 29.0942L91.9698 28.3642C91.7898 27.3642 91.5898 26.5042 91.4498 25.7142C91.3698 24.9842 91.4198 24.1242 91.4398 23.3242C90.9698 23.3542 90.5198 23.3742 90.0898 23.4342C89.2398 23.5542 88.4198 23.7142 87.6698 23.8842C87.2998 23.9642 86.9398 24.0442 86.5998 24.1342C86.2798 24.2142 85.8598 24.3142 85.7298 24.3842C87.1898 24.0942 88.2998 23.8842 89.9098 23.5642C90.4898 23.4642 90.1598 23.6642 89.6398 23.9142C89.1098 24.1642 88.4198 24.4542 88.0798 24.5642C87.7898 24.7142 87.4798 24.2142 87.1498 24.3642C86.5198 24.4342 85.8498 24.7342 85.5298 24.8942C85.3498 25.0142 85.3298 24.5342 85.2398 24.6042C84.6698 24.7742 84.2598 25.4142 83.8698 25.3142C83.5798 25.2642 83.3098 25.2042 83.0598 25.1442C82.8998 25.1242 82.7398 25.1142 82.5698 25.1442L82.2498 25.2842C82.3398 25.4242 82.3798 25.6042 82.4198 25.7842C82.2598 25.7642 82.0298 25.6742 81.8798 25.6542C82.0398 25.6742 82.2698 25.7642 82.4198 25.7842C82.3798 25.6042 82.3398 25.4242 82.2498 25.2842C81.4798 25.6042 80.5898 25.8842 79.7398 26.1042V26.1442C80.2498 26.0842 80.7298 26.1242 81.2498 26.3942C81.0198 26.2942 81.0498 26.1642 81.2998 26.1242L81.4998 26.3542C81.0598 26.5042 80.6198 26.6542 80.1898 26.3142C80.1898 26.3142 79.9998 26.4242 79.9098 26.4842C79.7698 26.4242 79.7698 26.2742 79.7398 26.1442C79.6498 26.1542 79.5498 26.1742 79.4498 26.1842C79.6598 26.4242 80.3198 26.7142 80.3198 26.7142L80.3298 26.6742Z" fill="#603913"/>
<path d="M85.45 26.3951C85.38 26.4151 85.3 26.4351 85.21 26.4551L86.18 26.4251C86 26.2051 85.72 26.2951 85.45 26.3951Z" fill="#603913"/>
</g>
<g opacity="0.85">
<path d="M58.0603 26.6641H57.5303C57.6203 26.6841 57.7103 26.7341 57.8003 26.8141C57.9203 26.8641 57.9703 26.7541 58.0603 26.6641Z" fill="#603913"/>
<path d="M57.0401 26.6445H56.9501L56.8701 26.6845C56.9301 26.6745 56.9901 26.6545 57.0401 26.6445Z" fill="#603913"/>
<path d="M56.1299 26.7724C56.2899 26.7924 56.4499 26.7724 56.5999 26.7424C56.4699 26.7124 56.3099 26.7124 56.1299 26.7724Z" fill="#603913"/>
<path d="M56.8601 26.8836C56.8001 26.8136 56.7701 26.7336 56.8601 26.6836L56.5801 26.7536C56.6801 26.7836 56.7701 26.8236 56.8501 26.8836H56.8601Z" fill="#603913"/>
<path d="M56.8604 26.8828C56.9204 26.9528 57.0004 27.0128 57.0304 27.0528C56.9804 26.9928 56.9204 26.9328 56.8604 26.8828Z" fill="#603913"/>
<path d="M56.6502 28.5848C56.5602 28.6348 56.5702 28.1548 56.3902 28.2648C55.9502 28.4048 55.5702 28.6148 55.1602 28.6148C54.9702 28.7248 54.6802 28.1848 54.4902 28.2848C54.0502 28.4148 52.8902 29.0148 53.5602 29.0148C54.5702 28.9748 55.2302 28.8448 56.1302 28.7548C56.8502 28.5448 57.5802 28.3248 58.3002 28.1148C58.5102 28.0848 58.7002 28.1148 58.9002 28.1348C58.6402 28.0748 58.3702 28.0148 58.0802 27.9448C57.7002 27.8248 57.2502 28.4548 56.6502 28.5748V28.5848Z" fill="#603913"/>
<path d="M61.9697 26.7031C61.8797 26.7631 61.7097 26.8931 61.7097 26.8931C61.2697 26.5931 60.8497 26.7531 60.4297 26.9231L60.6397 27.1431C60.8897 27.0931 60.8997 26.9631 60.6797 26.8731C61.1997 27.1331 61.6897 27.1331 62.1697 27.0331C62.1297 26.9031 62.1197 26.7531 61.9797 26.7031H61.9697Z" fill="#603913"/>
<path d="M62.4402 26.9648C62.3402 26.9848 62.2502 27.0048 62.1602 27.0348V27.0748C62.2702 27.0448 62.3602 27.0148 62.4502 26.9748H62.4402V26.9648Z" fill="#603913"/>
<path d="M54.16 27.1931C52.93 27.1831 51.77 27.1031 50.65 26.9731C50.56 27.0631 50.49 27.1631 50.37 27.0931C50.29 27.0031 50.2 26.9431 50.12 26.9031L49.63 26.8331C49.57 26.8331 49.51 26.8431 49.45 26.8531C49.35 26.9031 49.37 26.9731 49.42 27.0531C49.48 27.1131 49.53 27.1731 49.58 27.2431C49.55 27.2031 49.47 27.1231 49.42 27.0531C49.35 26.9831 49.27 26.9331 49.17 26.8931C49.02 26.9031 48.86 26.9131 48.7 26.8631C48.89 26.8231 49.04 26.8431 49.17 26.8931L49.45 26.8531L49.53 26.8131L48.38 26.6231C48.28 26.6231 48.19 26.6231 48.12 26.6331C47.82 26.6631 47.57 26.7031 47.31 26.4331L47.08 26.3831C47.08 26.3831 47.12 26.4131 47.14 26.4331C47.1 26.4131 47.07 26.3931 47.04 26.3731L46.03 26.1731C45.88 26.2431 45.76 26.3431 45.62 26.3931C45.62 26.3931 45.34 26.1931 45.19 26.0931C45.2 26.1531 45.19 26.2031 45.18 26.2331C45.18 26.2831 45.24 26.4331 45.24 26.5131C45.32 26.5231 45.34 26.4831 45.46 26.5631C45.62 26.6631 45.76 26.7531 45.88 26.8331C45.76 26.7631 45.62 26.6631 45.46 26.5631C45.34 26.4831 45.32 26.5231 45.24 26.5131C45.31 26.8931 45.22 27.1531 44.98 27.2931C44.8 26.7231 45 26.5231 45.24 26.5131C45.24 26.4331 45.17 26.2831 45.18 26.2331C45.2 26.1931 45.2 26.1531 45.19 26.0931C45.33 26.1931 45.62 26.3931 45.62 26.3931C45.76 26.3431 45.88 26.2431 46.03 26.1731L44.95 25.9531C44.88 26.1931 44.88 26.5331 44.84 26.8231C44.68 28.2731 44.56 30.0631 44.48 31.2031C44.39 32.7931 44.3 34.3831 44.21 36.0331C45.51 36.1131 46.9 36.2031 48.34 36.3031C50.42 36.5031 52.41 36.7731 54.36 37.1131C57.99 37.7031 59.56 37.3531 66.71 38.1831C66.75 37.2831 66.81 36.3231 66.91 35.2731C66.96 34.5831 66.96 33.6831 66.95 32.6831C66.95 32.3731 66.95 32.0431 66.95 31.7131C66.95 31.4531 66.93 31.1931 66.93 30.9331C66.87 29.8931 66.82 28.8531 66.78 28.1431C65.99 26.2331 63.93 27.1931 63.81 27.2931C62.05 28.5031 63.01 29.4531 62.08 31.9731C62.34 31.1131 62.63 31.4131 62.72 32.1331C62.73 32.2231 62.74 32.3231 62.74 32.4231C62.74 32.5031 62.74 32.5531 62.74 32.6231C62.73 32.7531 62.7 32.8931 62.66 33.0131C62.56 33.2531 62.39 33.4231 62.08 33.3631C61.83 33.3031 61.65 33.2231 61.5 33.1431C61.16 32.9131 61.04 32.8031 60.98 32.7631C60.95 32.7431 60.94 32.7431 60.92 32.7531L60.89 32.7731H60.87L60.64 32.8031C59.36 32.8631 58.04 32.9831 56.82 32.7431C56.12 32.6031 55.36 32.6631 54.52 32.6031C51.7 32.0731 47.12 32.2031 48.1 32.3731C48.07 32.3531 48.05 32.3131 48.05 32.2531C48.05 32.2231 48.05 32.1931 48.05 32.1631C48.06 31.9231 48.08 31.6731 48.09 31.4231C48.09 31.1231 48.08 30.8231 48.04 30.5331C48 30.2531 47.95 29.8831 47.88 29.9331C47.74 29.8231 47.58 29.6231 47.46 29.3731C47.41 29.1731 47.5 29.0531 47.58 29.0131C47.68 29.0531 47.75 29.0931 47.8 29.1031C48.04 29.1331 48.18 28.9831 48.51 28.8031C48.17 28.8531 47.98 28.9631 47.75 29.0031C47.67 29.0031 47.56 28.8431 47.54 28.6631C47.51 28.4831 47.6 28.3031 47.69 28.2431C47.77 28.1431 48.08 28.7231 48.12 28.6131C48.21 28.6131 48.28 28.5731 48.38 28.5131C48.48 28.4531 48.54 28.3731 48.82 28.3331C49.02 28.2431 48.95 28.7231 49.05 28.6731C49.67 28.6231 50.18 28.0431 50.55 28.2031C50.83 28.3031 51.09 28.3931 51.35 28.4731C51.51 28.5131 51.67 28.5431 51.84 28.5331L52.17 28.4331C52.09 28.2831 52.07 28.1031 52.05 27.9231C52.21 27.9531 52.42 28.0731 52.58 28.1131C52.42 28.0831 52.21 27.9631 52.05 27.9231C52.07 28.1031 52.09 28.2831 52.17 28.4331C52.98 28.1931 53.89 27.9731 54.74 27.7731V27.7331C54.24 27.7731 53.76 27.7231 53.26 27.4031C53.48 27.5131 53.44 27.6531 53.19 27.6731L53.01 27.4231C53.45 27.3031 53.89 27.1831 54.29 27.5331C54.29 27.5331 54.48 27.4331 54.57 27.3731C54.71 27.4431 54.7 27.5931 54.73 27.7231C54.82 27.7131 54.92 27.7031 55.02 27.6931C54.82 27.4531 54.18 27.1331 54.18 27.1331L54.16 27.1931Z" fill="#603913"/>
<path d="M49.1604 26.8831C49.2304 26.8831 49.3104 26.8731 49.4004 26.8631L48.4404 26.7031C48.6204 26.9631 48.8804 26.9231 49.1604 26.8831Z" fill="#603913"/>
</g>
<g opacity="0.85">
<path d="M63.0405 20.3227L62.2705 19.9727C62.3905 20.0627 62.5005 20.1627 62.6005 20.2927C62.7505 20.4127 62.8805 20.3527 63.0405 20.3227Z" fill="#603913"/>
<path d="M61.56 19.6655C61.56 19.6655 61.47 19.6255 61.42 19.6055C61.37 19.6055 61.33 19.6055 61.29 19.6055L61.56 19.6755V19.6655Z" fill="#603913"/>
<path d="M60.1504 19.2539C60.3804 19.3739 60.6204 19.4439 60.8504 19.4939C60.6704 19.3839 60.4404 19.2939 60.1504 19.2539Z" fill="#603913"/>
<path d="M61.2003 19.7722C61.1403 19.6722 61.1304 19.5922 61.2904 19.5922C61.1504 19.5622 61.0004 19.5322 60.8604 19.4922C61.0004 19.5722 61.1103 19.6722 61.2003 19.7722Z" fill="#603913"/>
<path d="M61.2002 19.7734C61.2602 19.8634 61.3602 19.9834 61.3902 20.0334C61.3402 19.9434 61.2802 19.8534 61.2002 19.7734Z" fill="#603913"/>
<path d="M60.2496 21.2224C60.0996 21.2224 60.2996 20.7824 59.9996 20.7824C59.3196 20.6724 58.7296 20.6924 58.0996 20.4624C57.7696 20.4624 57.5196 19.7824 57.1996 19.7524C56.8396 19.6724 56.1496 19.5424 55.6496 19.4124C55.1496 19.2824 54.8596 19.2524 55.4196 19.6324C56.2596 20.1424 56.9496 20.3724 57.5896 20.5724C58.1996 20.7424 58.7796 20.9124 59.4596 21.1024C60.5596 21.3024 61.6296 21.4824 62.7396 21.7724C63.0396 21.8824 63.2996 22.0324 63.5596 22.1824C63.2296 21.9524 62.8996 21.7324 62.5196 21.4924C62.0296 21.1424 61.1396 21.4424 60.2596 21.2224H60.2496Z" fill="#603913"/>
<path d="M68.4798 23.2548C68.3298 23.2348 68.0198 23.1948 68.0198 23.1948C67.6098 22.5848 66.9298 22.3948 66.2598 22.2148L66.4198 22.5648C66.7798 22.7148 66.8798 22.6148 66.6198 22.3648C67.1998 22.9748 67.8398 23.3648 68.5298 23.6848C68.5498 23.5448 68.6298 23.4148 68.4698 23.2548H68.4798Z" fill="#603913"/>
<path d="M68.95 23.8558C68.81 23.7958 68.67 23.7358 68.54 23.6758V23.7158C68.68 23.7658 68.82 23.8158 68.96 23.8658V23.8458L68.95 23.8558Z" fill="#603913"/>
<path d="M57.1601 18.5341C56.3201 18.1141 55.5501 17.5441 55.1401 16.7641C54.7201 15.9941 54.7001 15.0841 54.7901 14.2341C54.7101 14.0941 54.6101 13.9841 54.6801 13.8141C54.7801 13.6841 54.8501 13.5541 54.9001 13.4341C54.9501 13.1841 55.0101 12.9341 55.0801 12.7141C55.0901 12.6341 55.1001 12.5441 55.1201 12.4641C55.1201 12.3041 55.0301 12.3141 54.9401 12.3641C54.8601 12.4341 54.7801 12.5041 54.6901 12.5641C54.7401 12.5241 54.8401 12.4141 54.9401 12.3641C55.0301 12.2741 55.1301 12.1741 55.2101 12.0441C55.2801 11.8241 55.3801 11.6041 55.5501 11.4341C55.4301 11.6941 55.3301 11.8841 55.2101 12.0441C55.1701 12.1841 55.1401 12.3241 55.1201 12.4541V12.5841C55.3001 12.0741 55.5701 11.5941 55.9801 11.2741C56.0601 11.1841 56.1501 11.1141 56.2301 11.0441C56.2901 11.0041 56.3401 10.9441 56.4101 10.9141C56.6701 10.7441 56.9901 10.6941 57.2101 10.8741C57.3001 10.8741 57.3901 10.8741 57.4901 10.8741C57.4701 10.8641 57.4501 10.8441 57.4301 10.8341C57.4701 10.8541 57.5101 10.8641 57.5401 10.8841C57.7301 10.9041 57.9201 10.9341 58.1101 10.9641C58.3201 11.0041 58.5301 11.0441 58.7401 11.0941C59.0301 11.0541 59.3301 11.0041 59.6301 11.0241C59.6301 11.0241 59.7701 11.2341 59.8301 11.3341C59.9801 11.2541 60.1601 11.2441 60.3501 11.2841C60.2001 11.0641 60.0401 10.8341 59.8701 10.6741C60.0401 10.8341 60.2001 11.0541 60.3501 11.2841C60.7601 11.3641 61.1901 11.7341 61.3701 12.1741C60.8401 12.0241 60.6101 11.6641 60.3501 11.2841C60.1501 11.2441 59.9701 11.2541 59.8301 11.3341C59.7701 11.2241 59.6301 11.0241 59.6301 11.0241C59.3301 11.0041 59.0301 11.0541 58.7401 11.0941C59.5601 11.2841 60.3101 11.5741 60.9501 12.0741C61.8101 12.7441 62.5701 13.6541 63.2901 14.5341C63.9901 15.4341 64.6201 16.3741 65.1501 17.3541C65.4201 17.8441 65.6601 18.3541 65.8801 18.8641C66.0001 19.1141 66.0801 19.3841 66.1801 19.6441C66.2801 19.9341 66.3301 20.1141 66.4701 20.5341C66.8801 21.9941 66.9601 23.9041 67.0201 25.6841L67.1101 25.7441L67.1501 25.7741C67.1501 25.7741 67.2101 25.7341 67.2401 25.7241L67.6101 25.4641C67.8601 25.2941 68.1201 25.1141 68.3901 24.9341C68.9301 24.5741 69.4901 24.2141 70.0501 23.8441C70.5201 23.5441 70.9901 23.2641 71.4701 23.0041L72.1901 22.6141L72.7101 22.3641C73.4101 22.0341 74.1201 21.7341 74.8301 21.4641C76.2601 20.8941 77.6201 20.6141 79.3001 20.0241C80.0001 19.7641 80.7201 19.4141 81.4001 18.9041C81.5701 18.7841 81.7401 18.6441 81.9101 18.4841C82.1001 18.3041 82.2701 18.1241 82.4401 17.9241C82.7601 17.5241 83.0201 17.0741 83.1901 16.5941C83.3501 16.1441 83.4301 15.6641 83.4401 15.1941C83.4401 14.9541 83.4401 14.7141 83.4201 14.4841C83.4001 14.2841 83.3701 14.0841 83.3401 13.9041C83.2101 13.1741 83.0001 12.4641 82.7001 11.7841C82.5501 11.4441 82.3901 11.1141 82.2001 10.7941C81.9701 10.4041 81.6901 9.9941 81.3901 9.6241C80.8001 8.8841 80.0601 8.2541 79.1301 8.0641C78.2301 7.8741 77.2901 8.1441 76.3301 8.3841C75.6901 8.5441 75.0401 8.7241 74.3601 8.9741C73.6801 9.2241 72.9701 9.5441 72.2701 9.9741C71.5601 10.4141 70.8801 10.9841 70.3201 11.5241C69.7701 12.0641 69.2501 12.7641 68.8201 13.4141C68.3801 14.0741 67.9101 14.8241 67.4701 15.6441C66.5701 17.2641 65.8601 19.1941 65.6001 20.6641C65.6001 21.6841 65.8301 22.3341 66.1301 22.6941C66.4201 23.0541 66.7601 23.1541 67.0701 23.1341C67.7001 23.0841 68.2601 22.6641 68.3201 22.6041C69.2701 21.7441 69.6101 21.1241 70.0401 20.2141C70.4701 19.3241 71.0201 18.2041 72.4101 16.8741C71.5301 17.8141 71.5001 17.2741 72.0101 16.3041C72.5201 15.3341 73.6001 13.8541 74.6601 13.7441C75.3801 13.6641 75.9901 13.5841 76.7301 13.4141C77.0901 13.3341 77.4401 13.2441 77.8001 13.1641C77.8401 13.1641 77.8701 13.1641 77.9101 13.1441C77.9601 13.1341 78.0101 13.1441 78.0601 13.1641C78.0901 13.1841 78.1001 13.1641 78.1601 13.2341C78.2701 13.3841 78.3701 13.5441 78.4601 13.7141C78.6401 14.0441 78.7601 14.4141 78.8301 14.7641C78.8401 14.8541 78.8501 14.9241 78.8601 14.9841C78.8601 14.9941 78.8601 15.0241 78.8501 15.0341C78.8401 15.0741 78.8101 15.1041 78.7801 15.1341L78.7501 15.1541C78.7501 15.1541 78.6801 15.1841 78.6601 15.1941C78.6401 15.2041 78.6501 15.1941 78.6201 15.2241L78.4701 15.3541C78.2301 15.5541 77.9001 15.7641 77.4401 15.9641C76.6901 16.2141 75.6801 16.4741 74.6101 16.8741C73.5601 17.2641 72.5501 17.7041 71.5601 18.2141C71.0901 18.4541 70.5401 18.7541 70.1501 18.9941C70.1501 18.9941 70.1501 19.0141 70.1501 19.0341C70.1401 19.0641 70.0801 19.1641 70.0301 19.2141C69.9901 19.1941 69.9601 19.1941 69.8801 19.0041C69.3601 17.5141 68.6601 16.0941 67.8301 14.7241C67.2401 13.8041 66.5401 13.0541 65.8101 12.4041C65.0701 11.7541 64.3601 11.2441 63.5601 10.6841C63.0101 10.2441 62.4101 9.7341 61.7001 9.3241C60.9901 8.9041 60.2901 8.6441 59.7101 8.5141C59.0201 8.3741 58.6101 8.3041 57.6401 8.2841C56.8101 8.2841 56.0301 8.4841 55.3901 8.8541C54.8801 9.1541 54.4601 9.5641 54.1501 10.0141C54.5301 9.5341 54.9801 9.1741 55.4301 8.9241C56.0801 8.5741 56.7801 8.4241 57.5501 8.4041C57.7401 8.4041 57.9401 8.4041 58.1401 8.4141C58.3101 8.4241 58.4901 8.4441 58.6701 8.4541C58.9501 8.4841 59.2501 8.5141 59.5901 8.5741C60.2201 8.7041 59.9501 8.7941 59.4601 8.8641C59.2101 8.9041 58.9201 8.9441 58.6401 8.9841C58.4001 9.0241 57.9701 9.0441 57.7501 9.0641C57.3601 9.1341 56.5801 8.6541 56.1601 8.8941C55.9501 8.9541 55.7501 9.0441 55.5601 9.1441C54.9301 9.5141 54.5001 10.1141 54.1901 10.8041C54.0701 11.2141 53.6901 10.9241 53.6401 11.1441C53.3801 11.8041 53.4001 12.5441 53.4901 12.9341C53.5601 13.3941 53.6501 13.7441 53.5501 14.0541C53.4401 14.5441 53.3501 15.0141 53.3301 15.5241C53.3301 15.8441 53.3701 16.1741 53.4901 16.5141C53.5901 16.7141 53.7101 16.9241 53.8501 17.1241C53.9001 16.8941 54.0501 16.7741 54.2001 16.6541C54.0501 16.7641 53.9001 16.8941 53.8501 17.1241C54.3301 17.8241 55.0101 18.3741 55.7001 18.7241C56.3901 19.0741 57.0901 19.2841 57.7601 19.4541V19.4041C57.0301 19.1541 56.2901 18.7341 55.8501 17.9741C56.0601 18.2741 55.9501 18.3641 55.6001 18.1141C55.5701 17.9841 55.5501 17.8441 55.5301 17.7241C56.1401 18.1341 56.7501 18.3441 57.1901 18.9441C57.1901 18.9441 57.5001 18.9741 57.6601 18.9841C57.8301 19.1341 57.7701 19.2641 57.7601 19.4041C57.9001 19.4541 58.0501 19.4941 58.2001 19.5441C58.0901 19.3741 57.8301 19.1241 57.6101 18.9041C57.3901 18.6841 57.2001 18.5041 57.2001 18.5041L57.1601 18.5341Z" fill="#603913"/>
<path d="M55.2296 12.0333C55.1996 12.1333 55.1696 12.2433 55.1396 12.3733C55.3096 11.9433 55.5496 11.5533 55.8996 11.2633C55.5596 11.2333 55.3296 11.6333 55.2296 12.0333Z" fill="#603913"/>
</g>
<g opacity="0.85">
<path d="M57.3496 19.8731L57.4396 19.9531C57.4396 19.9531 57.4396 19.8931 57.4396 19.8531C57.4396 19.8131 57.3896 19.8531 57.3496 19.8731Z" fill="#603913"/>
<path d="M57.5098 20.0352L57.5298 20.0552H57.5598C57.5598 20.0552 57.5298 20.0452 57.5198 20.0352H57.5098Z" fill="#603913"/>
<path d="M57.7101 20.1125C57.7101 20.1125 57.6601 20.0625 57.6201 20.0625C57.6301 20.0925 57.6601 20.1225 57.7101 20.1125Z" fill="#603913"/>
<path d="M57.6205 19.9727C57.6205 19.9727 57.5905 20.0427 57.5605 20.0527C57.5605 20.0527 57.6105 20.0527 57.6305 20.0627C57.6305 20.0427 57.6205 20.0027 57.6305 19.9727H57.6205Z" fill="#603913"/>
<path d="M57.6201 19.9728C57.6201 19.9728 57.6401 19.9028 57.6401 19.8828C57.6301 19.9128 57.6201 19.9428 57.6201 19.9728Z" fill="#603913"/>
<path d="M58.1705 19.3253C58.1705 19.3253 58.0505 19.5053 58.1105 19.4853C58.2205 19.4853 58.3405 19.4353 58.4105 19.4853C58.4705 19.4553 58.3705 19.7153 58.4305 19.6853C58.5405 19.6853 58.8905 19.5053 58.7805 19.4553C58.6305 19.4153 58.4605 19.3653 58.3105 19.3153C58.1505 19.3153 57.9705 19.3153 57.8005 19.2953C57.7605 19.2753 57.7505 19.2353 57.7305 19.1953C57.7405 19.2553 57.7505 19.3253 57.7805 19.3853C57.8005 19.4853 58.0605 19.3053 58.1805 19.3253H58.1705Z" fill="#603913"/>
<path d="M56.8301 19.1652H56.9301C56.8601 19.3452 56.9801 19.3752 57.0901 19.3952L57.1501 19.2852C57.1501 19.2852 57.0501 19.2952 57.0501 19.3652C57.0801 19.1852 57.0301 19.0952 56.9401 19.0352C56.9001 19.0852 56.8401 19.1352 56.8301 19.1752V19.1652Z" fill="#603913"/>
<path d="M56.8799 18.9944C56.8799 18.9944 56.9199 19.0144 56.9399 19.0244V19.0044L56.8899 18.9844L56.8799 18.9944Z" fill="#603913"/>
<path d="M58.1906 20.1739C58.4206 20.3039 58.6306 20.4339 58.8306 20.5639C58.8706 20.5339 58.9006 20.4939 58.9106 20.5239C58.9106 20.5739 58.9106 20.6039 58.9206 20.6239L59.0106 20.6839H59.0506C59.0806 20.6639 59.0906 20.6339 59.1006 20.5939C59.1006 20.5639 59.1006 20.5339 59.1006 20.5039C59.1006 20.5239 59.1006 20.5639 59.1006 20.5939C59.1006 20.6239 59.1006 20.6539 59.1206 20.6839C59.1606 20.6839 59.1906 20.6839 59.2106 20.7139C59.1606 20.7139 59.1306 20.7139 59.1206 20.6839C59.1006 20.6839 59.0806 20.6839 59.0506 20.6839H59.0206L59.2206 20.8339C59.2406 20.8339 59.2606 20.8339 59.2706 20.8339C59.3406 20.8339 59.4006 20.8239 59.3906 20.9439L59.4306 20.9639V20.9439V20.9739L59.5906 21.0739C59.6406 21.0439 59.7006 21.0139 59.7506 20.9939C59.7506 20.9939 59.7506 21.0739 59.7506 21.1239C59.7906 21.0739 59.8306 21.0439 59.8606 21.0439C59.8606 20.9639 59.8606 20.8839 59.8606 20.8239C59.8606 20.6939 59.6806 21.0139 59.7306 20.7839C59.6806 21.0139 59.8706 20.7039 59.8606 20.8239C59.8606 20.8839 59.8606 20.9639 59.8606 21.0439C59.9306 21.0239 59.9806 21.0939 59.9906 21.2239C59.8806 21.2939 59.8606 21.1739 59.8606 21.0439C59.8306 21.0439 59.7906 21.0839 59.7506 21.1239C59.7506 21.0839 59.7506 20.9939 59.7506 20.9939C59.7006 21.0139 59.6406 21.0439 59.5906 21.0739L59.9006 21.2739C60.5806 21.7139 61.2806 21.9339 61.9706 22.3439C62.3406 22.5739 62.6606 22.8339 62.9406 23.1439C63.5006 23.7539 64.2606 23.8839 64.8606 24.8339C65.1006 25.1939 65.8606 25.3539 66.2706 25.4139C66.8906 25.1339 66.7706 24.0639 66.7906 24.0039C66.7406 23.1039 66.4506 23.5339 66.1906 22.8839C66.3806 23.2739 65.7406 23.3239 65.7306 22.6339C65.7706 21.6339 64.8706 21.9639 64.4406 21.4439C64.3306 21.3139 64.1606 21.2739 64.0006 21.1639C63.2106 20.3939 62.1706 20.4239 61.3106 20.0139C61.0706 19.9239 60.7906 20.0539 60.5506 20.0839C60.4006 20.0639 60.2906 19.8939 60.1806 19.8439C60.0106 19.7739 59.8206 19.7839 59.6406 19.8139C59.8106 19.8539 59.9606 19.8439 60.1506 19.8839C60.2706 19.9239 59.9506 20.1339 59.8406 20.1539C59.7806 20.1839 59.8406 19.9239 59.7806 19.9539C59.7106 19.9239 59.6006 19.9839 59.4906 20.0139C59.4306 20.0439 59.5406 19.8339 59.5106 19.8439C59.3806 19.8439 59.1606 20.0739 59.1206 19.9839L59.0306 19.8139C59.0306 19.8139 58.9906 19.7639 58.9506 19.7539L58.8606 19.7739C58.8406 19.8439 58.8006 19.9239 58.7606 20.0139C58.7406 19.9839 58.7306 19.9139 58.7106 19.8939C58.7306 19.9239 58.7406 19.9939 58.7606 20.0139C58.8006 19.9339 58.8406 19.8539 58.8606 19.7739C58.6606 19.8139 58.4406 19.8439 58.2406 19.8239V19.8439C58.3206 19.8839 58.4006 19.9439 58.4106 20.1239C58.4006 20.0539 58.4406 20.0039 58.4906 20.0139L58.4606 20.1339C58.3506 20.1439 58.2306 20.1539 58.2506 19.9639C58.2506 19.9639 58.1906 19.9839 58.1606 19.9939C58.1606 19.9539 58.2006 19.8839 58.2306 19.8339C58.2106 19.8339 58.1906 19.8239 58.1706 19.8139C58.1406 19.9339 58.1706 20.1439 58.1706 20.1439L58.1906 20.1739Z" fill="#603913"/>
<path d="M59.1301 20.6953C59.1301 20.6953 59.1001 20.6953 59.0801 20.6953L59.2501 20.8153C59.2701 20.6953 59.2001 20.6953 59.1301 20.7053V20.6953Z" fill="#603913"/>
</g>
<g opacity="0.85">
<path d="M46.7107 44.7109L46.6807 45.5609C46.7107 45.4209 46.7607 45.2709 46.8507 45.1309C46.9107 44.9509 46.8007 44.8509 46.7107 44.7109Z" fill="#603913"/>
<path d="M46.7209 46.3203C46.7209 46.3203 46.7209 46.4203 46.7209 46.4703C46.7409 46.5103 46.7609 46.5503 46.7709 46.5903L46.7109 46.3203H46.7209Z" fill="#603913"/>
<path d="M46.9603 47.7434C46.9603 47.4934 46.9303 47.2534 46.8803 47.0234C46.8603 47.2334 46.8803 47.4734 46.9603 47.7434Z" fill="#603913"/>
<path d="M46.9803 46.6016C46.9203 46.6916 46.8503 46.7416 46.7803 46.6016C46.8103 46.7416 46.8503 46.8816 46.8803 47.0216C46.8903 46.8616 46.9303 46.7316 46.9803 46.6016Z" fill="#603913"/>
<path d="M46.9805 46.602C47.0405 46.512 47.0905 46.382 47.1305 46.332C47.0705 46.412 47.0205 46.502 46.9805 46.602Z" fill="#603913"/>
<path d="M48.7104 46.8911C48.7804 47.0311 48.2904 47.0211 48.4204 47.2911C48.6104 47.9411 48.8704 48.4911 48.9304 49.1011C49.0704 49.3611 48.5504 49.8811 48.6804 50.1611C48.8504 50.8411 49.4904 52.6111 49.4604 51.5711C49.4304 50.7811 49.3504 50.1211 49.2604 49.4911C49.1604 48.9011 49.0704 48.3211 48.9604 47.6611C48.6904 46.6011 48.3104 45.5211 48.2004 44.5211C48.1904 44.2811 48.2404 44.0711 48.2904 43.8711C48.1904 44.1311 48.1004 44.3811 48.0204 44.7911C47.9504 45.0711 48.0704 45.3811 48.2304 45.7211C48.4104 46.0711 48.6304 46.4611 48.7204 46.9011L48.7104 46.8911Z" fill="#603913"/>
<path d="M50.4408 41.2424C50.2908 41.2824 49.9908 41.3624 49.9908 41.3624C49.2508 40.9624 48.4508 41.0824 47.8408 41.2224L48.3208 41.4624C48.6808 41.4424 48.6808 41.3024 48.2408 41.2024C49.2608 41.4924 49.9308 41.5924 50.6908 41.6224C50.6508 41.4924 50.6808 41.3424 50.4408 41.2524V41.2424Z" fill="#603913"/>
<path d="M51.1304 41.6233C50.9804 41.6233 50.8304 41.6233 50.6904 41.6133V41.6533C50.8504 41.6533 51.0004 41.6433 51.1504 41.6333H51.1404L51.1304 41.6233Z" fill="#603913"/>
<path d="M47.6007 50.722C47.6707 52.602 47.5307 54.382 47.4107 56.112C47.5007 56.252 47.6007 56.342 47.5407 56.522C47.4507 56.652 47.4007 56.792 47.3607 56.922L47.3207 57.682C47.3307 57.772 47.3407 57.862 47.3507 57.952C47.4007 58.102 47.4807 58.062 47.5507 57.972C47.6007 57.872 47.6607 57.782 47.7307 57.712C47.6907 57.762 47.6207 57.892 47.5507 57.972C47.4907 58.092 47.4407 58.222 47.4107 58.382C47.4407 58.612 47.4507 58.852 47.4407 59.112C47.3707 58.832 47.3807 58.592 47.4107 58.382C47.3907 58.232 47.3707 58.092 47.3507 57.952L47.3107 57.832C47.2807 58.422 47.2607 58.982 47.2607 59.592C47.2807 59.742 47.3007 59.872 47.3207 59.982C47.4007 60.432 47.5007 60.812 47.3207 61.222C47.3307 61.332 47.3207 61.462 47.3507 61.572C47.3507 61.542 47.3707 61.512 47.3807 61.482C47.3807 61.542 47.3707 61.592 47.3607 61.632L47.4707 62.342C47.4907 62.572 47.6607 62.822 47.9007 62.822C48.2607 62.772 48.6407 62.672 48.9707 62.602C48.9707 62.602 49.1107 62.762 49.1807 62.842C49.3707 62.722 49.5807 62.632 49.8007 62.592C49.5807 62.452 49.4407 62.302 49.3007 62.202C49.2207 62.082 49.0207 62.202 48.7907 62.312C48.5707 62.412 48.3207 62.482 48.3407 62.262C48.3307 62.492 48.5707 62.412 48.7907 62.312C49.0207 62.212 49.2207 62.082 49.3007 62.202C49.4407 62.292 49.5907 62.452 49.8007 62.592C50.2507 62.492 50.8107 62.572 51.2407 62.802C50.7507 63.012 50.1407 62.832 49.8007 62.592C49.5807 62.642 49.3707 62.722 49.1807 62.842C49.1107 62.762 48.9707 62.602 48.9707 62.602C48.6407 62.662 48.2607 62.762 47.9007 62.822C48.3507 62.862 48.8007 62.912 49.2907 62.942C49.7907 62.942 50.3007 62.962 50.8107 62.972C53.3507 63.062 55.7907 63.152 58.2407 63.242C59.4707 63.312 60.7007 63.372 61.9507 63.442C62.7007 63.492 63.4607 63.542 64.2307 63.602C65.0907 63.672 65.9507 63.742 66.8207 63.812C66.8607 63.112 66.8807 62.292 66.9107 61.472C66.9507 60.502 66.9907 59.542 67.0407 58.582C67.0807 57.792 67.1307 57.012 67.1707 56.242C67.2707 54.692 67.3607 53.172 67.4507 51.642C67.5507 50.132 67.5607 48.652 67.5407 47.192C67.5207 46.462 67.5007 45.732 67.4807 45.012L67.3607 42.102L67.2807 40.292L67.2407 39.372V39.142C67.2207 39.072 67.2607 38.952 67.1507 38.992H66.7107C65.5107 38.972 64.3007 38.962 63.0707 38.942L62.1807 38.912L61.6307 38.872C61.2607 38.842 60.8907 38.802 60.5207 38.762C59.7807 38.682 59.0207 38.572 58.2607 38.442C55.9207 38.072 51.6107 38.412 49.3707 38.512C46.3807 39.382 47.9907 41.402 48.1407 41.512C50.0307 43.222 51.4507 42.212 55.2407 43.152C52.6607 42.632 57.1007 41.972 59.5507 43.122C60.4107 43.562 61.4707 43.782 62.3907 43.892C62.4907 44.032 62.5307 43.992 62.6207 44.002C62.6407 44.022 62.6707 44.052 62.7107 44.102C62.7307 44.122 62.7407 44.152 62.7607 44.192V44.212L62.7807 44.312L62.8007 44.522L62.8407 44.942C62.9407 46.062 62.9907 47.172 62.9107 48.242C62.8307 49.312 62.9507 50.452 62.9507 51.732C62.8207 53.602 62.7907 55.432 62.8007 57.242V58.602L62.8207 59.282V59.452C62.8207 59.512 62.8207 59.472 62.8207 59.482C62.8207 59.482 62.8707 59.542 62.9007 59.612C62.9007 59.632 62.8707 59.662 62.8307 59.682L62.6607 59.702L61.5607 59.682C60.0607 59.642 58.5407 59.602 56.9707 59.562C55.0707 59.542 53.4107 59.982 51.8207 60.242C51.2907 60.292 50.4407 60.262 50.4607 60.222C50.2907 60.182 50.1807 60.122 50.0607 60.122C50.0107 60.122 49.9607 60.132 49.9107 60.122C49.8607 60.112 49.8407 60.062 49.8307 60.022C49.8007 59.942 49.7607 59.872 49.7207 59.792L49.5807 59.532C49.5307 59.422 49.4807 59.402 49.4207 59.042C49.4507 59.442 49.4807 59.422 49.5107 59.562C49.5407 59.672 49.5807 59.762 49.6107 59.852C49.6407 59.932 49.6807 60.022 49.7207 60.102C49.7407 60.142 49.7507 60.192 49.8007 60.212C49.8507 60.232 49.9207 60.212 49.9807 60.202C50.1307 60.182 50.0107 60.342 49.7407 60.522C49.6107 60.612 49.3907 60.732 49.2707 60.682C49.1707 60.642 49.1007 60.572 49.0507 60.512C48.9207 60.402 49.4207 59.882 49.3107 59.832C49.3007 59.702 49.2407 59.582 49.1607 59.452C49.0907 59.372 48.9807 58.962 48.9207 58.672C48.8107 58.402 49.2907 58.432 49.2407 58.292C49.1407 57.422 48.5407 56.722 48.7007 56.142C48.8007 55.712 48.8807 55.322 48.9707 54.932C49.0107 54.692 49.0407 54.442 49.0307 54.182C49.0007 54.022 48.9607 53.852 48.9307 53.682C48.7807 53.812 48.6007 53.852 48.4107 53.892C48.5907 53.852 48.7707 53.812 48.9307 53.682C48.7007 52.462 48.4707 51.052 48.1907 49.762L48.1507 49.782C48.2407 50.542 48.2107 51.282 47.9007 52.062C48.0107 51.722 48.1407 51.772 48.1707 52.152L47.9307 52.442C47.8107 51.772 47.6807 51.112 48.0007 50.462C48.0007 50.462 47.8807 50.182 47.8207 50.042C47.8707 49.832 48.0307 49.832 48.1507 49.772C48.1307 49.622 48.1107 49.482 48.0907 49.332C47.8807 49.672 47.6007 50.652 47.6007 50.652V50.722Z" fill="#603913"/>
<path d="M47.4005 58.4108C47.3805 58.3108 47.3705 58.1808 47.3605 58.0508C47.3405 58.5408 47.3205 59.0208 47.3105 59.5208C47.5405 59.2408 47.4605 58.8408 47.4005 58.4108Z" fill="#603913"/>
</g>
<g opacity="0.85">
<path d="M71.9003 58.0364L71.9403 57.3164C71.9003 57.4364 71.8503 57.5564 71.7603 57.6764C71.7003 57.8364 71.8103 57.9164 71.9003 58.0364Z" fill="#603913"/>
<path d="M71.9902 56.6462C71.9902 56.6462 71.9902 56.5563 71.9902 56.5163L71.9502 56.4062L71.9802 56.6462H71.9902Z" fill="#603913"/>
<path d="M71.9102 55.375C71.8702 55.595 71.8802 55.815 71.9102 56.025C71.9502 55.845 71.9602 55.635 71.9102 55.375Z" fill="#603913"/>
<path d="M71.7607 56.3756C71.8307 56.2956 71.9107 56.2656 71.9607 56.3956L71.9107 56.0156C71.8807 56.1556 71.8207 56.2756 71.7607 56.3756Z" fill="#603913"/>
<path d="M71.7611 56.375C71.6911 56.445 71.6211 56.565 71.5811 56.605C71.6511 56.535 71.7111 56.465 71.7611 56.375Z" fill="#603913"/>
<path d="M70.0703 55.9942C70.0203 55.8642 70.5003 55.9142 70.4003 55.6542C70.2903 55.0542 70.1003 54.5342 70.1203 53.9742C70.0203 53.7142 70.5703 53.3442 70.4803 53.0842C70.3703 52.4742 69.7903 50.9442 69.7803 51.8342C69.8003 53.1742 69.8803 54.0642 69.9203 55.2842C70.0903 56.2742 70.2603 57.2642 70.4303 58.2642C70.4503 58.5542 70.4103 58.8142 70.3703 59.0842C70.4403 58.7342 70.5203 58.3742 70.6003 57.9842C70.7403 57.4642 70.1503 56.8242 70.0703 55.9942Z" fill="#603913"/>
<path d="M71.9211 62.5539C71.7911 62.5939 71.5311 62.6739 71.5311 62.6739C71.4911 62.6439 71.4411 62.6139 71.3911 62.5839L71.6511 62.8539C71.8711 62.3139 71.6911 61.7939 71.5611 61.2539L71.3311 61.5239C71.3811 61.8639 71.5111 61.8939 71.6011 61.5839C71.4411 62.0239 71.3911 62.4439 71.3911 62.8639L71.3711 62.8439C71.6211 62.8839 71.8611 62.9039 72.1211 62.9039C72.0911 62.7739 72.1211 62.6239 71.9311 62.5339L71.9211 62.5539Z" fill="#603913"/>
<path d="M72.5006 62.9141C72.3706 62.9141 72.2306 62.9141 72.1006 62.9141V62.9541C72.2406 62.9441 72.3806 62.9341 72.5106 62.9241H72.5006V62.9141Z" fill="#603913"/>
<path d="M71.6006 52.6648C71.6606 50.9748 71.7206 49.3848 71.7706 47.8248C71.6806 47.7048 71.5706 47.6248 71.6206 47.4648C71.7006 47.3448 71.7606 47.2148 71.7906 47.0948V46.4148C71.7806 46.3348 71.7606 46.2548 71.7506 46.1748C71.6906 46.0448 71.6206 46.0848 71.5506 46.1748C71.5006 46.2648 71.4406 46.3448 71.3806 46.4148C71.4206 46.3648 71.4806 46.2548 71.5506 46.1748C71.6106 46.0648 71.6506 45.9448 71.6706 45.8048C71.6306 45.6048 71.6006 45.3748 71.6106 45.1648C71.6806 45.3948 71.6906 45.6248 71.6706 45.8048L71.7506 46.1848L71.8006 46.2948C71.8006 45.7748 71.7806 45.2348 71.7906 44.7948C71.7706 44.6848 71.7506 44.5848 71.7206 44.4948C71.6206 44.1448 71.5206 43.7448 71.7406 43.6748L71.7206 43.4448L71.6806 43.4648C71.6806 43.4648 71.7006 43.4148 71.7206 43.4048L71.6606 42.6248C71.6206 42.5448 71.7506 42.5948 71.7906 42.5848C71.9106 42.4948 72.0406 42.3748 72.2306 42.3048C72.2306 42.3048 72.5106 42.4648 72.6506 42.5348C72.6506 42.4148 72.7406 42.3348 72.8806 42.2948C72.6006 42.1548 72.3006 42.0048 72.0306 41.9048C71.5206 41.6748 71.8706 42.3848 71.1006 41.9448C71.8606 42.3848 71.5206 41.6648 72.0306 41.9048C72.3006 41.9948 72.6006 42.1548 72.8806 42.2948C73.1806 42.2048 73.7106 42.2848 74.0706 42.5148C73.7106 42.7248 73.3606 42.5348 72.8806 42.2948C72.7406 42.3348 72.6506 42.4148 72.6506 42.5348C72.5106 42.4548 72.2306 42.3048 72.2306 42.3048C72.0406 42.3748 71.9106 42.4948 71.7906 42.5848C72.4506 42.6148 73.1206 42.6448 73.8006 42.6748L74.4206 42.7048L75.1606 42.7348C75.6706 42.7448 76.1706 42.7648 76.6806 42.7748C77.6906 42.7948 78.6906 42.8048 79.6906 42.8248C80.6906 42.8248 81.7006 42.8348 82.7106 42.8448C83.4106 42.8548 84.1206 42.8748 84.8406 42.8848C84.8206 43.5048 84.8006 44.1748 84.7806 44.8548C84.7106 47.6148 84.5706 50.4248 84.3606 53.1148C84.2406 54.6848 84.2506 56.2448 84.3506 57.8048C84.3906 58.3548 84.4406 58.8948 84.4806 59.4448L84.5506 60.1548C84.2106 60.1748 83.7606 60.0948 83.4806 59.9948C83.5006 59.9648 83.1006 59.9448 82.8506 59.9148C82.5706 59.8848 82.2906 59.8548 82.0106 59.8248C81.4506 59.7548 80.8806 59.6648 80.3106 59.5648C78.2106 59.2148 74.3606 59.5848 72.3606 59.7148C69.7006 60.6148 71.1706 62.6148 71.3006 62.7248C73.0206 64.4148 74.2706 63.3948 77.6806 64.3048C75.3706 63.8048 79.3306 63.1148 81.5406 64.2348C81.9506 64.4548 82.3706 64.6148 82.8206 64.7348C83.0406 64.7948 83.2706 64.8448 83.5006 64.8848C83.5706 64.9048 83.8606 64.9148 84.0606 64.9348L84.7306 64.9648C86.5406 65.0248 88.5306 64.9548 90.4006 64.8248C89.9806 62.9148 89.4106 60.8648 89.1406 59.0848L89.0006 58.1248C88.9706 57.8948 88.9506 57.6648 88.9306 57.4348C88.9006 56.9748 88.8906 56.5148 88.9306 56.0548C88.9906 55.1248 88.8706 54.1348 88.8706 52.9948C89.0206 51.1148 89.0306 49.2448 88.9806 47.3948C88.8606 44.6048 88.7406 41.8048 88.6206 38.9648C86.6006 39.0248 84.5606 39.0948 82.4806 39.1548C81.3706 39.1948 80.2406 39.2148 79.0906 39.2048C77.4206 39.2348 75.9606 39.7048 74.5606 39.9648C72.9906 40.0748 70.9506 39.8648 69.4906 39.8848C69.1806 39.8948 68.8506 39.8848 68.6006 39.9248C68.9106 41.8648 69.3306 43.6548 69.6306 45.1548C69.4106 43.4548 69.0806 42.0348 68.7306 40.0448C68.8706 39.9948 69.1706 40.0048 69.4406 39.9848C70.4706 39.9648 69.8106 40.2148 69.2606 40.5048C69.4506 41.0548 69.6206 41.5748 69.7106 41.8948C69.8806 42.3148 69.3806 42.6048 69.5406 43.0948C69.5906 43.5348 69.7006 43.9748 69.8306 44.4048C69.8806 44.6048 69.9406 44.8248 70.0006 45.0348C70.0506 45.2548 70.1006 45.4648 70.1506 45.5748C70.2706 45.8148 69.7906 45.8148 69.8506 45.9348C69.9906 46.7048 70.6306 47.3048 70.4906 47.8148C70.4206 48.2048 70.3506 48.5448 70.2706 48.8848C70.2406 49.0948 70.2206 49.3148 70.2306 49.5348C70.2706 49.6748 70.3006 49.8248 70.3406 49.9748C70.4906 49.8648 70.6706 49.8248 70.8506 49.7848C70.6706 49.8148 70.4906 49.8548 70.3406 49.9748C70.5906 51.0348 70.8006 52.2748 70.9506 53.4248H70.9906C70.9706 52.7448 71.0406 52.0948 71.3606 51.4148C71.2406 51.7148 71.1106 51.6648 71.1006 51.3248L71.3506 51.0748C71.4606 51.6748 71.5706 52.2748 71.2006 52.8248C71.2006 52.8248 71.3006 53.0848 71.3406 53.2148C71.2706 53.4048 71.1106 53.3848 70.9806 53.4148C70.9806 53.5448 70.9906 53.6748 71.0006 53.8148C71.2506 53.5448 71.6006 52.6848 71.6006 52.6848V52.6648Z" fill="#603913"/>
<path d="M71.6707 45.7642C71.6907 45.8542 71.7107 45.9642 71.7207 46.0842V44.8242C71.4907 45.0142 71.5807 45.3942 71.6707 45.7642Z" fill="#603913"/>
</g>
</svg>
