<svg width="48" height="49" viewBox="0 0 48 49" fill="none" xmlns="http://www.w3.org/2000/svg">
<circle cx="23.6777" cy="24.5823" r="23.6277" fill="#FAF6EF"/>
<g clip-path="url(#clip0_584_3581)">
<path d="M17.7317 10.4253H29.6237C34.154 10.4253 37.8348 14.1061 37.8348 18.6364V30.5284C37.8348 32.7061 36.9697 34.7946 35.4298 36.3345C33.8899 37.8744 31.8014 38.7395 29.6237 38.7395H17.7317C13.2015 38.7395 9.52063 35.0586 9.52063 30.5284V18.6364C9.52063 16.4587 10.3857 14.3702 11.9256 12.8303C13.4655 11.2904 15.554 10.4253 17.7317 10.4253ZM17.4486 13.2567C16.0969 13.2567 14.8006 13.7937 13.8448 14.7495C12.889 15.7052 12.352 17.0016 12.352 18.3533V30.8115C12.352 33.6288 14.6313 35.908 17.4486 35.908H29.9068C31.2585 35.908 32.5549 35.3711 33.5106 34.4153C34.4664 33.4595 35.0034 32.1632 35.0034 30.8115V18.3533C35.0034 15.536 32.7241 13.2567 29.9068 13.2567H17.4486ZM31.1102 15.3803C31.5795 15.3803 32.0296 15.5667 32.3615 15.8986C32.6934 16.2305 32.8798 16.6806 32.8798 17.1499C32.8798 17.6192 32.6934 18.0694 32.3615 18.4012C32.0296 18.7331 31.5795 18.9195 31.1102 18.9195C30.6408 18.9195 30.1907 18.7331 29.8589 18.4012C29.527 18.0694 29.3405 17.6192 29.3405 17.1499C29.3405 16.6806 29.527 16.2305 29.8589 15.8986C30.1907 15.5667 30.6408 15.3803 31.1102 15.3803ZM23.6777 17.5038C25.5551 17.5038 27.3555 18.2496 28.683 19.5771C30.0105 20.9046 30.7563 22.705 30.7563 24.5824C30.7563 26.4597 30.0105 28.2602 28.683 29.5877C27.3555 30.9151 25.5551 31.6609 23.6777 31.6609C21.8004 31.6609 19.9999 30.9151 18.6724 29.5877C17.3449 28.2602 16.5992 26.4597 16.5992 24.5824C16.5992 22.705 17.3449 20.9046 18.6724 19.5771C19.9999 18.2496 21.8004 17.5038 23.6777 17.5038ZM23.6777 20.3353C22.5513 20.3353 21.471 20.7827 20.6745 21.5792C19.8781 22.3757 19.4306 23.456 19.4306 24.5824C19.4306 25.7088 19.8781 26.7891 20.6745 27.5856C21.471 28.382 22.5513 28.8295 23.6777 28.8295C24.8041 28.8295 25.8844 28.382 26.6809 27.5856C27.4774 26.7891 27.9248 25.7088 27.9248 24.5824C27.9248 23.456 27.4774 22.3757 26.6809 21.5792C25.8844 20.7827 24.8041 20.3353 23.6777 20.3353Z" fill="#513826"/>
</g>
<defs>
<clipPath id="clip0_584_3581">
<rect width="28.5094" height="28.5094" fill="white" transform="translate(9.42297 10.3276)"/>
</clipPath>
</defs>
</svg>
