<svg width="133" height="122" viewBox="0 0 133 122" fill="none" xmlns="http://www.w3.org/2000/svg">
<g opacity="0.85">
<path d="M92.0512 25.2315C91.9594 24.9403 91.8677 24.6401 91.7852 24.3398C91.8035 24.4945 91.8035 24.6583 91.7852 24.8312C91.8035 25.0404 91.9227 25.1132 92.0603 25.2315H92.0512Z" fill="#603913"/>
<path d="M91.5464 23.5086C91.528 23.454 91.5189 23.3994 91.5005 23.3539C91.473 23.3084 91.4455 23.2721 91.418 23.2266L91.5464 23.5086Z" fill="#603913"/>
<path d="M90.9678 21.9922C91.0228 22.2742 91.1237 22.529 91.2246 22.7747C91.1879 22.5381 91.1145 22.2833 90.9678 21.9922Z" fill="#603913"/>
<path d="M91.2342 23.2674C91.2709 23.1491 91.3167 23.0854 91.4176 23.231C91.3534 23.0854 91.28 22.9398 91.2158 22.7852C91.2433 22.958 91.2525 23.1218 91.2342 23.2674Z" fill="#603913"/>
<path d="M91.2351 23.2617C91.2076 23.3709 91.1892 23.5347 91.1709 23.5984C91.1984 23.4983 91.2168 23.3891 91.2351 23.2617Z" fill="#603913"/>
<path d="M89.6291 23.3183C89.5373 23.1727 89.9685 23.0817 89.7758 22.7997C89.4364 22.0991 89.0603 21.5259 88.8677 20.8253C88.6751 20.5342 89.0145 19.9064 88.8402 19.6243C88.51 18.9146 87.4551 17.1495 87.7669 18.2686C88.2623 19.9519 88.6934 21.0164 89.2163 22.4994C89.7483 23.6731 90.3262 24.7741 90.8858 25.9569C91.0234 26.2935 91.0968 26.6301 91.1793 26.9577C91.0968 26.5119 91.0142 26.0569 90.9133 25.5565C90.8216 24.8923 90.0327 24.2918 89.6291 23.3183Z" fill="#603913"/>
<path d="M94.1705 31.7547C94.0604 31.6182 93.8494 31.3543 93.8494 31.3543C93.8769 30.5628 93.4825 29.9077 93.1064 29.2344L93.0146 29.6256C93.1889 30.0259 93.3265 30.0259 93.2807 29.6256C93.3449 30.5446 93.6109 31.3452 93.9778 32.1277C94.0696 32.0367 94.198 31.9912 94.1705 31.7456V31.7547Z" fill="#603913"/>
<path d="M94.1969 32.5916C94.1235 32.437 94.0501 32.2914 93.9767 32.1367C93.9676 32.1367 93.9584 32.1549 93.9492 32.164C94.0318 32.3096 94.1143 32.4643 94.1969 32.6098V32.5916Z" fill="#603913"/>
<path d="M89.6382 18.7891C89.0694 16.7056 88.6291 14.713 88.2714 12.7659C88.1613 12.6295 88.0421 12.5476 88.0421 12.3292C88.0879 12.1472 88.0971 11.9653 88.0971 11.7924C88.0421 11.4831 87.9962 11.1646 87.9412 10.8553C87.9136 10.7552 87.877 10.6642 87.8494 10.5641C87.776 10.4276 87.7302 10.5459 87.6935 10.7006C87.6751 10.8553 87.6476 11.0008 87.6109 11.1282C87.6293 11.0372 87.666 10.8553 87.6935 10.7006C87.7118 10.5277 87.7393 10.2912 87.6935 10.1274C87.3908 10.1729 87.0972 10.2093 86.8129 10.2002C87.1706 10.1274 87.4733 10.1092 87.6935 10.1274C87.776 10.2366 87.8036 10.4185 87.8586 10.555L87.9228 10.6733L87.8311 10.1274C87.8311 10.1274 87.8311 10.0273 87.8036 10H87.666L87.3999 10.0091L86.3175 10.0455C86.1432 10.0728 85.9873 10.091 85.8497 10.1092C85.2993 10.2002 84.8315 10.2912 84.5196 10.1001C84.4004 10.1001 84.2811 10.1001 84.1619 10.1001C84.1894 10.1092 84.2077 10.1183 84.2352 10.1365C84.1802 10.1274 84.1343 10.1183 84.0977 10.1001C83.5931 10.1092 83.0886 10.1274 82.5841 10.1365C82.263 10.2366 81.9328 10.3639 81.6026 10.4458C81.6026 10.4458 81.3641 10.3184 81.2448 10.2457C81.1164 10.3639 80.9238 10.4458 80.6945 10.5004C80.9788 10.6096 81.2357 10.7461 81.4742 10.8189C81.8319 11.019 82.1988 10.3366 82.63 10.7188C82.1988 10.3366 81.8319 11.0099 81.4742 10.8189C81.2357 10.7461 80.9788 10.6187 80.6945 10.5004C80.2266 10.6096 79.6029 10.5641 79.0892 10.3821C79.6946 10.1638 80.2266 10.3093 80.6945 10.5004C80.9238 10.4458 81.1072 10.3639 81.2448 10.2457C81.3641 10.3093 81.6026 10.4458 81.6026 10.4458C81.9328 10.3639 82.263 10.2366 82.5841 10.1365C81.5934 10.1638 80.6027 10.182 79.5753 10.2093C73.0166 10.3366 66.9807 10.7552 60.1835 10.9644C56.496 11.0645 52.9552 11.0918 49.4786 11.0554C42.5438 10.9826 36.2694 11.9198 29.2245 11.2192C26.5184 10.9826 21.5558 11.474 18.9782 11.6741C15.5566 12.5931 17.4646 14.3673 17.6298 14.4582C19.8496 15.9322 21.4641 14.9496 25.858 15.641C22.8767 15.2771 27.977 14.4946 30.8298 15.4227C34.9668 16.8511 40.6358 15.2134 45.6442 15.3226C46.8918 15.3499 48.2127 15.1952 49.7079 15.1406C57.4591 15.2316 64.5866 14.0852 72.7139 13.7122C74.8604 13.5757 76.7225 13.0571 78.5204 12.7204C79.8414 12.5658 81.2632 12.6931 82.3456 12.6204C83.1895 12.5658 83.9784 12.4748 84.7214 12.3656C84.9049 12.3383 85.0883 12.311 85.2718 12.2837L85.4553 12.2109L85.8772 12.0472C85.7121 12.0745 85.5745 12.1108 85.4461 12.1381C85.3727 12.1563 85.3452 12.1654 85.2443 12.1836L84.7306 12.2473C84.0334 12.3383 83.3179 12.4293 82.4557 12.5112C81.2999 12.6113 83.217 11.9016 83.9784 11.7287C84.2995 11.6104 84.8498 12.0654 85.1709 11.9471C85.4277 11.9289 85.5011 11.8743 85.7029 11.8015C85.8864 11.7287 86.1065 11.6286 86.3634 11.5558C86.6202 11.4467 86.2808 11.8834 86.3634 11.8652C86.5193 12.1654 87.1248 12.3474 87.1248 12.9297C87.1615 13.4392 87.189 13.9032 87.2257 14.3582C87.2624 14.6402 87.299 14.9223 87.3908 15.2043C87.4642 15.3772 87.5467 15.5592 87.6293 15.732C87.7302 15.5501 87.8769 15.4682 88.0237 15.3772C87.8769 15.4591 87.721 15.5501 87.6293 15.732C88.1797 17.0422 88.8034 18.5071 89.3813 19.8718L89.418 19.8445C89.1428 19.0257 88.9777 18.2068 89.0144 17.2788C89.0144 17.6791 88.886 17.6609 88.7484 17.2424L88.886 16.8602C89.1887 17.579 89.5006 18.2796 89.3813 19.0621C89.3813 19.0621 89.5648 19.3532 89.6565 19.4988C89.6565 19.7445 89.5281 19.7718 89.4272 19.8536C89.4822 20.0083 89.5373 20.1721 89.5923 20.3359C89.7116 19.9355 89.684 18.7709 89.684 18.7709L89.6382 18.7891Z" fill="#603913"/>
<path d="M87.6752 10.1184C87.6752 10.1184 87.7303 10.1184 87.7394 10.1639L87.767 10.2549C87.7853 10.3186 87.8037 10.3914 87.822 10.4733L87.7853 10.2458L87.767 10.1366C87.767 10.1366 87.767 10.0548 87.7119 10.073H87.2716L86.3818 10.1093C86.6295 10.3095 87.1157 10.2185 87.6752 10.1275V10.1184Z" fill="#603913"/>
</g>
<g opacity="0.85">
<path d="M24.1147 69.8297L24.0689 69.2383C24.0505 69.3384 24.0138 69.4475 23.9496 69.5476C23.9129 69.6841 24.023 69.7387 24.1147 69.8206V69.8297Z" fill="#603913"/>
<path d="M24.0234 68.6937C24.0234 68.6937 24.0234 68.6209 24.0234 68.5936L23.9775 68.5117L24.0326 68.7028L24.0234 68.6937Z" fill="#603913"/>
<path d="M23.7939 67.6836C23.7939 67.8656 23.8215 68.0384 23.8765 68.2022C23.8948 68.0475 23.8765 67.8838 23.7939 67.6836Z" fill="#603913"/>
<path d="M23.7842 68.5125C23.8392 68.4397 23.9034 68.4033 23.9676 68.5034L23.8759 68.2031C23.8667 68.3123 23.83 68.4215 23.7842 68.5125Z" fill="#603913"/>
<path d="M23.7851 68.5117C23.73 68.5754 23.6842 68.6846 23.6475 68.721C23.7025 68.6573 23.7484 68.5936 23.7851 68.5117Z" fill="#603913"/>
<path d="M22.2065 68.4284C22.1423 68.3283 22.5826 68.3101 22.4633 68.1099C22.2891 67.6459 22.0414 67.2638 21.9863 66.8088C21.8671 66.6178 22.3166 66.2447 22.1882 66.0446C22.0139 65.5805 21.28 64.425 21.3901 65.1438C21.5827 66.2174 21.7845 66.9089 21.9772 67.8734C22.2432 68.6467 22.5367 69.3837 22.7936 70.1753C22.8394 70.4027 22.8303 70.612 22.8303 70.8304C22.8578 70.5392 22.8945 70.2481 22.9312 69.9296C23.0046 69.502 22.3808 69.0653 22.2065 68.4193V68.4284Z" fill="#603913"/>
<path d="M24.3448 74.1675C24.2806 74.0675 24.1613 73.8764 24.1613 73.8764C24.4273 73.3851 24.2439 72.9211 24.0696 72.457L23.877 72.6936C23.932 72.9665 24.0604 72.9847 24.1246 72.73C23.9228 73.3123 23.9412 73.8491 24.0512 74.3768C24.1705 74.3313 24.3081 74.3222 24.3448 74.1584V74.1675Z" fill="#603913"/>
<path d="M24.1237 74.6961C24.0962 74.5869 24.0779 74.4868 24.0504 74.3867L24.0137 74.4049C24.0504 74.505 24.0779 74.6142 24.1146 74.7143H24.1237V74.6961Z" fill="#603913"/>
<path d="M23.1427 65.5629C22.9684 64.2072 22.84 62.9243 22.7391 61.6778C22.6382 61.5959 22.5372 61.5322 22.5739 61.4049C22.6381 61.2957 22.6748 61.1956 22.6932 61.0955L22.6565 60.5496C22.6382 60.4859 22.6198 60.4222 22.6015 60.3585C22.5372 60.2585 22.473 60.2949 22.418 60.3585C22.3813 60.4313 22.3354 60.5041 22.2804 60.5678C22.3171 60.5314 22.363 60.4313 22.418 60.3585C22.4639 60.2676 22.5006 60.1675 22.5097 60.0492C22.4639 59.8854 22.4272 59.7126 22.4363 59.5306C22.5097 59.7216 22.5281 59.8945 22.5097 60.0492L22.6015 60.3494L22.6473 60.4313L22.5648 59.1848C22.5464 59.0939 22.5189 59.0029 22.5006 58.9301C22.4088 58.6389 22.3171 58.3478 22.5006 58.1385V57.9111C22.5006 57.9111 22.4639 57.9383 22.4547 57.9565C22.4639 57.9202 22.473 57.8929 22.4822 57.8656L22.4272 56.9193C22.3171 56.7283 22.1978 56.5281 22.1061 56.3279C22.1061 56.3279 22.2345 56.1732 22.2987 56.0914C22.1795 56.0186 22.0969 55.9003 22.0419 55.7638C21.9318 55.9458 21.8034 56.1187 21.73 56.2733C21.5374 56.5099 22.2254 56.6919 21.8401 56.9921C22.2254 56.701 21.5374 56.5099 21.73 56.2733C21.8034 56.1187 21.9318 55.9458 22.0419 55.7638C21.9318 55.4727 21.9593 55.0814 22.1428 54.7448C22.3721 55.1087 22.2345 55.4545 22.0419 55.7638C22.0969 55.9003 22.1795 56.0186 22.2987 56.0914C22.2345 56.1732 22.1061 56.3279 22.1061 56.3279C22.1887 56.5281 22.3171 56.7283 22.4272 56.9193C22.3905 56.3006 22.363 55.6728 22.3263 55.0359C22.1336 50.9234 21.6475 47.1658 21.3631 42.9077C21.2255 40.5967 21.1613 38.3766 21.1613 36.1839C21.1705 31.8166 20.1339 27.9498 20.7302 23.4734C20.9228 21.7537 20.3541 18.6785 20.1156 17.0771C19.134 15.0027 17.3912 16.3311 17.2994 16.4493C15.8501 17.9597 16.8591 18.8968 16.2354 21.7082C16.5564 19.8067 17.4187 22.9456 16.5289 24.8108C15.1529 27.5222 16.905 30.9523 16.8316 34.1095C16.8133 34.901 16.9876 35.7108 17.0609 36.6479C17.0518 41.5247 18.2718 45.9102 18.7304 50.978C18.8864 52.3155 19.4276 53.4528 19.7853 54.5537C19.9596 55.3726 19.8404 56.2733 19.9229 56.9466C20.0514 58.002 20.3082 58.8937 20.6017 59.7398C20.4091 58.7754 20.2073 58.0839 20.0238 57.0103C19.9138 56.2915 20.6384 57.447 20.8219 57.9111C20.9411 58.1021 20.4917 58.4843 20.6201 58.6753C20.6751 59.1212 20.9136 59.5033 21.0971 59.9673C21.2163 60.1584 20.776 60.1857 20.8402 60.2858C21.0145 60.9226 21.6383 61.3685 21.5649 61.7961C21.5282 62.1145 21.5007 62.4057 21.464 62.6968C21.464 62.8788 21.464 63.0517 21.5007 63.2337C21.5466 63.3428 21.6016 63.4611 21.6475 63.5794C21.7667 63.4702 21.9318 63.4156 22.0878 63.3701C21.9227 63.4247 21.7667 63.4702 21.6475 63.5794C22.0052 64.4074 22.3446 65.3718 22.6473 66.2634L22.684 66.2453C22.5739 65.7084 22.5556 65.1807 22.7574 64.5984C22.6932 64.8532 22.5648 64.835 22.5097 64.562L22.7024 64.3255C22.8767 64.7895 23.0601 65.2535 22.7941 65.7448C22.7941 65.7448 22.9133 65.9359 22.9776 66.036C22.9317 66.1907 22.7941 66.1998 22.684 66.2453C22.7115 66.3453 22.7299 66.4545 22.7574 66.5546C22.95 66.3089 23.1518 65.572 23.1518 65.572L23.1427 65.5629Z" fill="#603913"/>
<path d="M22.5189 60.0389C22.5372 60.1117 22.5648 60.2027 22.5831 60.2937L22.5189 59.2383C22.3263 59.4475 22.418 59.7387 22.5189 60.0389Z" fill="#603913"/>
</g>
<g opacity="0.85">
<path d="M102.307 74.0923L102.445 73.3008C102.399 73.4282 102.326 73.5555 102.234 73.6829C102.16 73.8467 102.243 73.9559 102.307 74.0923Z" fill="#603913"/>
<path d="M102.563 72.5725C102.563 72.527 102.582 72.4815 102.591 72.436C102.591 72.3905 102.573 72.3541 102.573 72.3086V72.5725H102.563Z" fill="#603913"/>
<path d="M102.637 71.1719C102.582 71.4084 102.563 71.645 102.563 71.8816C102.619 71.6905 102.655 71.4539 102.637 71.1719Z" fill="#603913"/>
<path d="M102.39 72.261C102.463 72.1883 102.536 72.1519 102.573 72.2974C102.573 72.161 102.573 72.0245 102.573 71.8789C102.527 72.0245 102.463 72.1519 102.399 72.261H102.39Z" fill="#603913"/>
<path d="M102.39 72.2656C102.317 72.3384 102.234 72.4658 102.197 72.5022C102.261 72.4385 102.335 72.3566 102.39 72.2656Z" fill="#603913"/>
<path d="M100.894 71.7132C100.867 71.5676 101.298 71.6586 101.234 71.3675C101.197 70.7124 101.069 70.1392 101.142 69.5387C101.078 69.2566 101.61 68.8745 101.546 68.5924C101.5 67.9282 101.105 66.2177 101.014 67.1913C100.913 68.6561 100.913 69.6205 100.83 70.9307C100.876 72.0134 100.931 73.0507 100.94 74.1607C100.922 74.47 100.83 74.743 100.757 75.025C100.885 74.6611 101.014 74.2972 101.142 73.8786C101.344 73.3327 100.876 72.5866 100.904 71.7041L100.894 71.7132Z" fill="#603913"/>
<path d="M100.802 80.0047C101.004 79.7591 100.958 79.4224 100.958 79.4224C101.389 78.8674 101.389 78.2033 101.389 77.5391L101.123 77.7847C101.078 78.1578 101.188 78.2215 101.344 77.9121C101.142 78.2578 100.995 78.6036 100.894 78.9584C100.839 79.1313 100.812 79.3133 100.747 79.4861C100.692 79.6499 100.573 79.8592 100.344 79.8228C100.344 79.8865 100.362 79.9593 100.417 80.0138C100.463 80.0684 100.601 80.123 100.802 80.0047Z" fill="#603913"/>
<path d="M100.49 79.4938C100.472 79.4483 100.353 79.421 100.316 79.4756C100.279 79.512 100.27 79.5575 100.252 79.5939C100.234 79.6667 100.243 79.7849 100.334 79.8122V79.7758C100.27 79.7485 100.261 79.6576 100.279 79.5848C100.279 79.5484 100.298 79.512 100.344 79.4756C100.399 79.4301 100.472 79.4756 100.49 79.5211V79.4938Z" fill="#603913"/>
<path d="M102.6 68.1976C102.802 66.3597 103.004 64.631 103.242 62.9477C103.169 62.8113 103.086 62.7021 103.151 62.5383C103.242 62.4109 103.307 62.2927 103.353 62.1562L103.463 61.4192C103.463 61.3373 103.463 61.2463 103.463 61.1554C103.426 61.0007 103.362 61.0371 103.279 61.119C103.224 61.2099 103.16 61.2918 103.086 61.3555C103.132 61.31 103.206 61.1917 103.279 61.119C103.353 61.0098 103.408 60.8824 103.453 60.7368C103.453 60.5094 103.463 60.2728 103.518 60.0362C103.536 60.3092 103.508 60.5458 103.453 60.7368C103.453 60.8824 103.453 61.0189 103.463 61.1554L103.49 61.2827C103.582 60.7277 103.664 60.1727 103.756 59.6086C103.756 59.4812 103.756 59.3539 103.765 59.2538C103.765 58.8443 103.765 58.4349 104.004 58.2074L104.059 57.9072C104.059 57.9072 104.031 57.9436 104.013 57.9618C104.031 57.9163 104.05 57.8799 104.068 57.8526C104.151 57.4341 104.224 57.0155 104.307 56.597C104.27 56.315 104.206 56.0147 104.187 55.7236C104.187 55.7236 104.362 55.5598 104.444 55.4688C104.352 55.3414 104.307 55.1595 104.297 54.9684C104.279 54.559 104.453 54.0585 104.738 53.6764C104.829 54.2223 104.573 54.6227 104.297 54.9684C104.297 55.1686 104.352 55.3414 104.444 55.4688C104.362 55.5507 104.187 55.7236 104.187 55.7236C104.206 56.0147 104.27 56.315 104.307 56.597C104.472 55.7782 104.618 54.9502 104.811 54.1131C105.398 51.4109 106.022 48.8451 106.811 46.2975C107.187 45.0238 107.655 43.7682 108.141 42.5126C108.416 41.8757 108.682 41.2297 108.966 40.5837C109.343 39.7376 109.664 38.8095 109.535 37.8906C109.471 37.4356 109.287 37.008 109.003 36.6623C108.416 35.9617 107.535 35.6523 106.609 35.5068C105.848 35.4158 105.086 35.3248 104.334 35.2338C102.995 35.07 101.683 34.8881 100.38 34.697C94.5097 33.8326 89.0884 34.0874 83.1993 32.6317C80.9336 32.1039 76.6773 32.0584 74.4666 31.9766C71.467 32.5225 72.8796 34.4877 73.0172 34.5969C74.7326 36.2983 76.2095 35.4977 79.8603 36.6623C77.3744 35.9799 81.7867 35.7524 84.0983 36.9807C87.4373 38.855 92.4366 37.8178 96.6562 38.5002C97.7111 38.673 98.8485 38.6639 100.114 38.7731C101.481 38.9733 102.83 39.1189 104.169 39.228L105.481 39.319C105.481 39.319 105.49 39.3099 105.517 39.3008C105.545 39.3008 105.582 39.3099 105.591 39.3554V39.3736C105.646 39.2553 105.572 39.4464 105.536 39.5556L105.279 40.2562C105.105 40.7202 104.939 41.1933 104.765 41.6664C104.141 43.568 103.563 45.5151 103.031 47.5349C102.573 49.3819 102.646 51.0833 102.582 52.6665C102.444 53.8038 102.041 54.9775 101.912 55.8964C101.692 57.3431 101.692 58.5987 101.738 59.7997C101.83 58.4713 101.83 57.4887 101.986 55.9965C102.114 55.0048 102.426 56.7608 102.472 57.425C102.536 57.7161 101.986 58.0892 102.05 58.3803C101.967 58.9899 102.087 59.5631 102.142 60.2273C102.206 60.5185 101.775 60.4366 101.802 60.573C101.793 61.4738 102.27 62.2108 102.087 62.7658C101.967 63.1843 101.857 63.5573 101.747 63.9304C101.692 64.1669 101.646 64.4035 101.637 64.6492C101.655 64.8129 101.674 64.9767 101.692 65.1405C101.839 65.0313 102.013 65.004 102.178 64.9767C102.132 65.2042 101.995 65.5226 101.94 65.7501C101.986 65.5226 102.123 65.2042 102.178 64.9767C102.004 65.004 101.839 65.0313 101.692 65.1405C101.821 66.3324 101.894 67.688 101.94 68.9527H101.977C102.013 68.2067 102.142 67.5061 102.49 66.7873C102.353 67.1057 102.243 67.0512 102.252 66.6781L102.499 66.4143C102.554 67.0785 102.6 67.7335 102.206 68.3158C102.206 68.3158 102.27 68.607 102.307 68.7435C102.224 68.9436 102.087 68.9163 101.967 68.9436C101.967 69.0892 101.958 69.2257 101.949 69.3804C102.206 69.1074 102.591 68.1794 102.591 68.1794L102.6 68.1976Z" fill="#603913"/>
<path d="M103.472 60.726C103.472 60.8261 103.472 60.9535 103.472 61.0808L103.701 59.6797C103.463 59.9071 103.472 60.3166 103.481 60.726H103.472Z" fill="#603913"/>
</g>
<g opacity="0.85">
<path d="M73.1821 60.2625L73.2097 59.9531C73.1821 60.0077 73.1271 60.0532 73.0537 60.1078C72.9987 60.1715 73.0996 60.2079 73.1913 60.2625H73.1821Z" fill="#603913"/>
<path d="M73.2285 59.6644V59.6088L73.1914 59.5625C73.2007 59.5996 73.2192 59.6366 73.2285 59.6644Z" fill="#603913"/>
<path d="M73.1181 59.125C73.0906 59.216 73.1089 59.307 73.1365 59.398C73.1731 59.3252 73.1731 59.2342 73.1181 59.125Z" fill="#603913"/>
<path d="M73.0078 59.5531C73.072 59.5258 73.1454 59.5076 73.1913 59.5622C73.1729 59.5076 73.1546 59.453 73.1362 59.3984C73.1087 59.453 73.0629 59.5076 73.0078 59.5531Z" fill="#603913"/>
<path d="M73.0075 59.5508C72.9433 59.5783 72.8883 59.6333 72.8516 59.6517C72.9066 59.6242 72.9616 59.5875 73.0075 59.5508Z" fill="#603913"/>
<path d="M71.4575 59.3768C71.4117 59.3223 71.852 59.3405 71.7511 59.2313C71.6318 58.9765 71.43 58.7581 71.43 58.5216C71.3291 58.4124 71.8245 58.2577 71.7236 58.1485C71.6043 57.8938 71.0172 57.2387 71.0356 57.6208C71.0998 58.194 71.2099 58.5671 71.2924 59.0766C71.4667 59.4951 71.6777 59.8955 71.8336 60.3322C71.852 60.4505 71.8153 60.5596 71.7878 60.6779C71.8612 60.5324 71.9254 60.3868 71.9896 60.223C72.1088 60.0046 71.5493 59.7317 71.4484 59.3859L71.4575 59.3768Z" fill="#603913"/>
<path d="M72.8978 62.5297C72.8519 62.4751 72.751 62.3659 72.751 62.3659C73.0721 62.1384 72.9436 61.8837 72.8244 61.6289L72.6042 61.7381C72.6318 61.8837 72.751 61.9019 72.8519 61.7745C72.5859 62.0565 72.54 62.3386 72.5859 62.6206C72.7052 62.6024 72.8427 62.6206 72.907 62.5388L72.8978 62.5297Z" fill="#603913"/>
<path d="M72.6134 62.781C72.6043 62.7264 72.5859 62.6718 72.5767 62.6172H72.54C72.5584 62.6809 72.5859 62.7355 72.6043 62.7901H72.6134V62.781Z" fill="#603913"/>
<path d="M72.7232 57.9772C72.714 57.2584 72.7323 56.5851 72.7874 55.9301C72.7048 55.8755 72.6039 55.8391 72.6589 55.7754C72.7323 55.7299 72.7874 55.6753 72.8149 55.6207L72.8424 55.3296C72.8424 55.3296 72.8241 55.2659 72.8057 55.2295C72.7599 55.1749 72.6865 55.184 72.6223 55.2204C72.5764 55.2568 72.5214 55.2932 72.4663 55.3205C72.503 55.3023 72.5672 55.2568 72.6223 55.2204C72.6773 55.1749 72.7232 55.1294 72.7507 55.0657C72.7232 54.9747 72.7048 54.8837 72.7323 54.7927C72.7874 54.9019 72.7782 54.9929 72.7507 55.0657L72.8057 55.2295L72.8424 55.275L72.9066 54.6199C72.8974 54.5653 72.8883 54.5198 72.8699 54.4834C72.8149 54.3287 72.7507 54.1649 72.9708 54.074L72.9892 53.9557C72.9892 53.9557 72.9617 53.9648 72.9525 53.9739C72.9617 53.9557 72.98 53.9466 72.9984 53.9284L73.0626 53.4371C72.98 53.3279 72.8791 53.2187 72.8149 53.1095C72.8149 53.1095 72.9617 53.0367 73.035 53.0003C72.925 52.9549 72.8516 52.8912 72.8149 52.8093C72.6865 52.9003 72.5397 52.973 72.448 53.0549C72.5397 52.9821 72.6865 52.9003 72.8149 52.8093C72.7415 52.6546 72.8149 52.4544 73.035 52.2907C73.2185 52.4999 73.035 52.6637 72.8149 52.8093C72.8516 52.8821 72.925 52.9458 73.035 53.0003C72.9617 53.0367 72.8149 53.1095 72.8149 53.1095C72.8791 53.2187 72.98 53.337 73.0626 53.4371C73.0993 53.1095 73.1451 52.7911 73.1818 52.4544C73.4753 50.3072 73.4387 48.3237 73.668 46.0946C73.8056 44.8845 73.9982 43.729 74.2642 42.5826C74.7963 40.308 74.2184 38.2335 75.3466 35.9316C75.7411 35.0491 75.5393 33.4113 75.5026 32.5561C74.7779 31.4279 72.8883 32.0375 72.7782 32.0921C71.1637 32.8017 72.0535 33.3477 71.0995 34.7761C71.6407 33.8026 72.1269 35.4858 71.017 36.4047C69.3291 37.7331 70.6592 39.6074 70.2189 41.2451C70.1088 41.6546 70.1822 42.0822 70.1455 42.5735C69.5585 45.0938 70.2464 47.4412 70.0997 50.0979C70.0997 50.7985 70.5033 51.4263 70.7234 52.0177C70.7968 52.4544 70.5767 52.9094 70.5767 53.2642C70.5767 53.8192 70.7234 54.2923 70.9161 54.7563C70.8427 54.2468 70.7234 53.8738 70.6592 53.3006C70.6317 52.9185 71.2188 53.5735 71.3472 53.8283C71.4481 53.9375 70.9528 54.1013 71.0537 54.2104C71.0537 54.447 71.2463 54.6654 71.3747 54.911C71.4756 55.0202 71.0353 55.002 71.0812 55.0566C71.1821 55.4023 71.7416 55.6753 71.6224 55.8937C71.5582 56.0574 71.4848 56.203 71.4206 56.3486C71.3931 56.4396 71.3747 56.5306 71.3931 56.6306L71.5031 56.8217C71.76 57.2766 71.9893 57.8043 72.1728 58.2866H72.2095C72.1636 57.9954 72.2095 57.7224 72.4755 57.4313C72.3746 57.5587 72.2553 57.5405 72.2278 57.3949L72.448 57.2857C72.5672 57.5405 72.6956 57.7952 72.3746 58.0227C72.3746 58.0227 72.4755 58.1319 72.5214 58.1865C72.4571 58.2684 72.3195 58.2593 72.2003 58.2775C72.2003 58.332 72.2186 58.3866 72.237 58.4412C72.4571 58.332 72.7415 57.959 72.7415 57.959L72.7232 57.9772Z" fill="#603913"/>
<path d="M72.76 55.0657C72.76 55.0657 72.7875 55.1476 72.7967 55.2022L72.8609 54.6562C72.65 54.7472 72.705 54.911 72.76 55.0657Z" fill="#603913"/>
</g>
<g opacity="0.85">
<path d="M54.5788 57.3738V56.7188C54.5604 56.8279 54.5146 56.9371 54.4412 57.0463C54.3953 57.1919 54.4962 57.2647 54.5788 57.3647V57.3738Z" fill="#603913"/>
<path d="M54.6064 56.1168C54.6064 56.1168 54.6064 56.0349 54.6064 55.9985L54.5605 55.8984L54.5972 56.1077L54.6064 56.1168Z" fill="#603913"/>
<path d="M54.4683 54.9883C54.45 55.1884 54.4683 55.3795 54.4958 55.5615C54.5234 55.3977 54.5234 55.2066 54.4683 54.9883Z" fill="#603913"/>
<path d="M54.377 55.8991C54.4412 55.8264 54.5054 55.79 54.5604 55.8991L54.4962 55.5625C54.4687 55.6808 54.432 55.7991 54.377 55.89V55.8991Z" fill="#603913"/>
<path d="M54.3766 55.8984C54.3124 55.9621 54.2574 56.0713 54.2207 56.1077C54.2757 56.044 54.3308 55.9712 54.3766 55.8984Z" fill="#603913"/>
<path d="M52.8171 55.6467C52.7621 55.5375 53.2024 55.5557 53.1015 55.3282C52.9639 54.8005 52.7621 54.3547 52.7529 53.8543C52.652 53.6268 53.129 53.2629 53.0281 53.0445C52.8905 52.5168 52.2759 51.1702 52.3218 51.9709C52.4135 53.1719 52.5419 53.9544 52.6428 55.028C52.8355 55.9014 53.0648 56.7385 53.2391 57.6301C53.2666 57.8849 53.2391 58.1124 53.2116 58.3489C53.2666 58.0396 53.3308 57.7211 53.395 57.3754C53.5051 56.9114 52.9364 56.3655 52.8171 55.6467Z" fill="#603913"/>
<path d="M54.4127 62.1672C54.3576 62.058 54.2567 61.8306 54.2567 61.8306C54.5594 61.321 54.431 60.7933 54.2934 60.2656L54.0824 60.5022C54.11 60.8024 54.2384 60.8388 54.3301 60.5659C54.0733 61.1846 54.0457 61.776 54.1008 62.3674C54.22 62.331 54.3576 62.331 54.4127 62.1672Z" fill="#603913"/>
<path d="M54.1372 62.7207C54.1189 62.6025 54.1097 62.4842 54.0914 62.375H54.0547C54.0822 62.5024 54.1006 62.6207 54.1281 62.7389H54.1372V62.7207Z" fill="#603913"/>
<path d="M54.0187 52.596C53.9728 51.0948 53.9636 49.6754 53.982 48.2925C53.8903 48.1924 53.7894 48.1196 53.8444 47.974C53.9178 47.8648 53.9636 47.7557 53.9912 47.6465V47.046C53.9912 46.9732 53.9728 46.9095 53.9636 46.8367C53.9086 46.7184 53.8444 46.7548 53.7802 46.8276C53.7343 46.9095 53.6793 46.9823 53.6242 47.046C53.6609 47.0096 53.716 46.9004 53.7802 46.8276C53.8352 46.7275 53.8719 46.6274 53.8994 46.5001C53.8719 46.3181 53.8444 46.127 53.8719 45.9269C53.9269 46.1452 53.9361 46.3363 53.8994 46.5001L53.9636 46.8367L54.0095 46.9368L54.0462 45.5538C54.0279 45.4537 54.0187 45.3537 54.0003 45.2627C53.9361 44.9351 53.8719 44.5985 54.0829 44.3892V44.1436C54.0829 44.1436 54.0645 44.1709 54.0554 44.1891C54.0645 44.1527 54.0829 44.1254 54.0921 44.0981C54.1012 43.7523 54.1196 43.4066 54.1288 43.0517C54.037 42.8243 53.9361 42.5968 53.8627 42.3694C53.8627 42.3694 54.0095 42.2147 54.0737 42.1328C53.9636 42.0418 53.8903 41.9053 53.8444 41.7507C53.716 41.9417 53.5784 42.1146 53.4866 42.2784C53.2757 42.5149 53.9361 42.797 53.5325 43.079C53.9453 42.797 53.2757 42.5149 53.4866 42.2784C53.5692 42.1146 53.716 41.9417 53.8444 41.7507C53.7618 41.4231 53.826 40.9955 54.037 40.6498C54.2297 41.0683 54.0554 41.4322 53.8444 41.7507C53.8811 41.9053 53.9636 42.0418 54.0737 42.1328C54.0003 42.2147 53.8627 42.3694 53.8627 42.3694C53.9269 42.5968 54.037 42.8334 54.1288 43.0517C54.1563 42.3694 54.1746 41.6779 54.2021 40.9773C54.2939 38.7118 54.3122 36.5372 54.3214 34.3445C54.3214 33.2618 54.3214 32.17 54.3306 31.06C54.3306 30.6869 54.3489 30.3048 54.3581 29.9136V29.6315L54.3764 29.495C54.3856 29.4586 54.3489 29.3767 54.4223 29.3949L55.0277 29.3767H55.6607L56.3303 29.3858C56.9541 29.3858 57.5778 29.3858 58.1924 29.404C59.4216 29.4313 60.6324 29.5041 61.8249 29.6133C66.5674 30.0318 70.9429 29.6224 75.5937 31.1873C77.3733 31.7424 80.7489 31.9698 82.4918 32.2155C84.941 31.8879 84.0696 29.8408 83.9595 29.7134C82.7578 27.8937 81.4644 28.567 78.5566 27.2568C80.5471 28.0484 76.9238 28.0757 75.0708 26.8201C72.3556 24.8912 68.1543 25.9921 64.6411 25.5645C63.7513 25.4553 62.8156 25.5281 61.7516 25.519C60.3756 25.4007 59.018 25.3916 57.6787 25.4462C57.3393 25.4553 57.0091 25.4735 56.6697 25.5008L55.468 25.5918C54.193 25.7101 52.9087 25.8374 51.6245 25.9557L50.6797 26.0558L50.7072 27.0202C50.7256 27.6662 50.7531 28.3122 50.7714 28.9582C50.8173 29.9772 50.854 30.9963 50.8998 32.0335C50.9641 33.371 51.0099 34.7266 51.0099 36.1278C51.0466 37.6109 51.4777 38.9119 51.7254 40.1584C51.8171 41.0683 51.6245 42.0509 51.6337 42.797C51.6612 43.9616 51.8355 44.9715 52.0465 45.9269C51.9456 44.8532 51.808 44.0708 51.7254 42.8698C51.6796 42.0691 52.3033 43.4157 52.4317 43.9434C52.5326 44.1709 52.0556 44.5348 52.1565 44.7623C52.1657 45.2536 52.3767 45.7085 52.5051 46.2362C52.606 46.4637 52.1657 46.4455 52.2208 46.5547C52.3308 47.2734 52.9087 47.8193 52.7987 48.2834C52.7345 48.6291 52.6702 48.9476 52.6152 49.2569C52.5969 49.448 52.5785 49.6481 52.5969 49.8483C52.6335 49.9757 52.6794 50.1031 52.7161 50.2395C52.8445 50.1304 53.0096 50.094 53.1748 50.0485C53.1564 50.2395 53.0647 50.5125 53.0372 50.7036C53.0555 50.5125 53.1472 50.2395 53.1748 50.0485C53.0096 50.0849 52.8445 50.1304 52.7161 50.2395C52.9913 51.1858 53.2481 52.2776 53.4591 53.2875L53.4958 53.2693C53.4408 52.6779 53.4683 52.0956 53.7251 51.4678C53.6334 51.7408 53.5142 51.7044 53.4775 51.4041L53.6884 51.1676C53.826 51.6953 53.9545 52.223 53.6518 52.7325C53.6518 52.7325 53.7527 52.96 53.8077 53.0692C53.7527 53.242 53.6151 53.2329 53.4958 53.2693C53.505 53.3876 53.5233 53.5059 53.5417 53.6242C53.7527 53.3694 54.0187 52.5869 54.0187 52.5869V52.596Z" fill="#603913"/>
<path d="M53.9081 46.4711C53.9265 46.553 53.9356 46.6531 53.9448 46.7532L53.9815 45.5977C53.7705 45.8069 53.8347 46.1345 53.8989 46.4711H53.9081Z" fill="#603913"/>
</g>
<g opacity="0.85">
<path d="M37.3428 61.8972L38.1225 61.8153C37.9849 61.8062 37.8565 61.7789 37.7097 61.7152C37.5354 61.6879 37.462 61.7971 37.3428 61.8972Z" fill="#603913"/>
<path d="M38.8379 61.7335C38.8838 61.7335 38.9296 61.7244 38.9755 61.7152C39.0122 61.6968 39.0489 61.6785 39.0856 61.6602L38.8379 61.7335Z" fill="#603913"/>
<path d="M40.1583 61.4023C39.9198 61.4205 39.6905 61.4751 39.4795 61.5388C39.6813 61.5388 39.9015 61.5024 40.1583 61.4023Z" fill="#603913"/>
<path d="M39.0771 61.4727C39.1689 61.5272 39.2239 61.5818 39.0955 61.6546C39.2239 61.6182 39.3615 61.5818 39.4899 61.5363C39.3432 61.5363 39.2056 61.5091 39.0863 61.4727H39.0771Z" fill="#603913"/>
<path d="M39.076 61.4747C38.9842 61.4197 38.8466 61.383 38.8008 61.3555C38.8833 61.4013 38.9751 61.4472 39.076 61.4747Z" fill="#603913"/>
<path d="M39.1683 59.9006C39.2967 59.8369 39.3334 60.2645 39.581 60.1281C40.1773 59.9006 40.6635 59.6277 41.2414 59.5094C41.4799 59.3638 41.9844 59.755 42.2321 59.6095C42.8283 59.3729 44.241 58.4448 43.3328 58.6723C41.9752 59.0362 41.1038 59.3274 39.8746 59.6186C38.8931 59.9643 37.9482 60.3191 36.9117 60.6012C36.6181 60.6558 36.343 60.6558 36.0586 60.6649C36.4347 60.6831 36.8108 60.7013 37.2236 60.7195C37.7831 60.7832 38.3519 60.1099 39.1774 59.9006H39.1683Z" fill="#603913"/>
<path d="M31.5904 62.1412C31.7189 62.0866 31.9849 61.9774 31.9849 61.9774C32.6087 62.2686 33.2324 62.0866 33.8562 61.9228L33.5626 61.7227C33.2049 61.7772 33.1682 61.8955 33.4984 61.9683C32.7462 61.7681 32.0491 61.759 31.3428 61.8409C31.3886 61.9592 31.3886 62.0957 31.5904 62.1412Z" fill="#603913"/>
<path d="M30.9305 61.8925C31.0681 61.8742 31.2056 61.8558 31.3432 61.8375L31.3249 61.8008C31.1873 61.8283 31.0497 61.8558 30.9121 61.8833H30.9305V61.8925Z" fill="#603913"/>
<path d="M42.9107 60.483C44.6628 60.0917 46.3139 59.7005 47.9192 59.3002C48.0201 59.1819 48.0752 59.0636 48.2494 59.0636C48.3962 59.1 48.5338 59.1091 48.6622 59.1L49.3594 58.918C49.4328 58.8816 49.5153 58.8453 49.5887 58.8089C49.6988 58.7179 49.6437 58.6633 49.5428 58.6269C49.4419 58.6087 49.341 58.5814 49.2585 58.5541C49.3135 58.5723 49.4511 58.5996 49.5428 58.6269C49.6713 58.6451 49.7997 58.6451 49.9465 58.6269C50.1483 58.5359 50.3592 58.4449 50.5977 58.3994C50.3592 58.5268 50.1483 58.5996 49.9465 58.6269C49.818 58.6906 49.6988 58.7452 49.5795 58.8089L49.4786 58.8816C50.0107 58.7361 50.5427 58.5814 51.0656 58.4358C51.1848 58.3903 51.2949 58.3357 51.3774 58.2902C51.7352 58.1083 52.0838 57.9172 52.3957 58.0355L52.68 57.9536C52.68 57.9536 52.6342 57.9445 52.6158 57.9354C52.6617 57.9354 52.6984 57.9354 52.7351 57.9354C53.1295 57.808 53.5239 57.6806 53.9276 57.5533C54.1477 57.3804 54.377 57.1893 54.6064 57.0256C54.6064 57.0256 54.8357 57.0892 54.9458 57.1256C55.01 56.9801 55.1292 56.8527 55.2943 56.7526C55.0375 56.7162 54.7898 56.6616 54.588 56.6434C54.2486 56.5433 54.1661 57.2803 53.7166 57.0074C54.1752 57.2803 54.2578 56.5433 54.588 56.6434C54.799 56.6525 55.0375 56.7162 55.2943 56.7526C55.6337 56.5342 56.1291 56.416 56.5877 56.4433C56.1933 56.8163 55.7255 56.8163 55.2943 56.7526C55.1292 56.8527 55.01 56.9801 54.9458 57.1256C54.8357 57.0892 54.6064 57.0256 54.6064 57.0256C54.377 57.1893 54.1477 57.3804 53.9276 57.5533C54.7073 57.3076 55.487 57.0256 56.2759 56.7344C56.762 56.5524 57.2482 56.3705 57.7252 56.1885C57.9729 56.0884 58.1655 56.0156 58.349 55.9701C58.5324 55.9155 58.7251 55.8792 58.9177 55.8792C59.303 55.861 59.6699 56.0429 59.9634 56.2613L60.1927 56.4433L60.4588 56.6525L60.8807 57.0074C61.4311 57.4805 61.9448 57.9627 62.431 58.454C62.6786 58.6997 62.908 58.9544 63.1373 59.2092L63.4675 59.5913L63.5501 59.6914C63.5501 59.6914 63.6143 59.7642 63.5409 59.746H63.2565C62.3759 59.7733 61.4586 59.8188 60.5688 59.8643L59.8166 59.9007C59.5598 59.9098 59.4039 59.9098 58.9636 59.9553C58.2114 60.0281 57.4684 60.0917 56.7253 60.1645C55.2393 60.3283 53.7808 60.4921 52.3314 60.7013C49.4328 61.1017 46.7542 61.9023 44.094 62.7667C43.4336 62.9851 42.764 63.2125 42.0943 63.4309C41.4063 63.6492 40.7734 63.8858 40.2781 63.9586C40.0304 64.0041 39.8194 64.0041 39.6543 63.9859C39.48 63.9586 39.3974 63.9131 39.2507 63.8403C38.9663 63.6947 38.5168 63.3672 37.9206 62.9305C36.141 61.6658 32.5177 60.0008 30.7014 58.9908C27.9311 58.2175 28.1972 60.5467 28.2705 60.7104C28.9769 62.9669 30.6097 62.9123 33.3708 65.3961C32.3984 64.5955 32.9213 64.5773 33.8845 65.0049C34.3614 65.2233 34.9577 65.5417 35.5264 65.933C36.1135 66.3242 36.618 66.7791 37.1409 67.2977C37.517 67.6799 38.0307 68.0438 38.7553 68.2713C39.4892 68.4987 40.3148 68.526 41.0119 68.4259C41.7182 68.335 42.3237 68.1348 42.8465 67.9528C43.3602 67.7618 43.7913 67.598 44.2775 67.3978C46.158 66.6244 48.1302 65.7419 50.1024 65.4234C51.0839 65.2688 52.0838 64.9321 53.2488 64.6956C55.3035 64.4226 57.2849 64.1042 59.2754 63.8039L60.1652 63.6765L61.7155 63.4946L63.2657 63.3126L64.8618 63.1852C66.9533 63.0214 69.0539 62.8668 71.1729 62.703C70.7051 62.1571 69.962 61.3928 69.3658 60.7468C68.7512 60.0917 68.1366 59.4367 67.522 58.7816C66.3203 57.4805 64.9444 56.1066 63.3574 54.7782C63.0364 54.5235 62.6878 54.2414 62.3943 54.0322L62.0824 53.8229C61.9173 53.7137 61.7522 53.6045 61.5779 53.5136C60.8991 53.1314 60.1561 52.913 59.4314 52.9221C58.7067 52.9221 58.0187 53.1314 57.4133 53.4226C57.2757 53.4863 57.0831 53.5863 56.9914 53.6409L56.7162 53.8138C56.5602 53.9139 56.4043 54.014 56.2483 54.114C55.3035 54.6054 54.1752 54.8328 53.3772 55.1422C52.1113 55.6244 51.0747 56.1612 50.0657 56.6889C51.2307 56.2249 52.0471 55.8064 53.3313 55.2514C54.1936 54.8965 52.9277 55.9974 52.3865 56.3341C52.1663 56.516 51.6068 56.1976 51.3958 56.3796C50.8546 56.5706 50.4143 56.9255 49.8639 57.2257C49.6437 57.3986 49.5337 56.971 49.4236 57.062C48.6531 57.4168 48.1852 58.1265 47.6348 58.1629C47.2221 58.2084 46.846 58.2448 46.479 58.272C46.2497 58.3084 46.0296 58.3448 45.8002 58.4267C45.6626 58.4995 45.525 58.5723 45.3783 58.6451C45.5342 58.7452 45.6168 58.8907 45.6993 59.0454C45.4792 59.0727 45.1398 59.0545 44.9196 59.0909C45.1398 59.0636 45.4792 59.0818 45.6993 59.0454C45.6168 58.8998 45.5342 58.7452 45.3783 58.6451C44.3601 59.1637 43.1492 59.6823 42.0026 60.0917L42.0301 60.1281C42.7181 59.9553 43.3969 59.837 44.1674 59.9371C43.8372 59.9098 43.8464 59.7824 44.195 59.6823L44.516 59.837C43.9289 60.0917 43.3327 60.3556 42.6814 60.1736C42.6814 60.1736 42.4337 60.3192 42.3145 60.392C42.1035 60.3738 42.0852 60.2373 42.0209 60.1281C41.8925 60.1645 41.7549 60.2009 41.6173 60.2464C41.9476 60.4011 42.9199 60.4921 42.9199 60.4921L42.9107 60.483Z" fill="#603913"/>
<path d="M49.9838 58.6373C49.892 58.6737 49.782 58.7283 49.6719 58.7738L51.0111 58.4099C50.7084 58.2825 50.3507 58.4645 49.9929 58.6373H49.9838Z" fill="#603913"/>
</g>
<g opacity="0.85">
<path d="M41.3424 83.7406L41.3791 83.5586C41.3791 83.5586 41.2965 83.6132 41.2139 83.6405C41.1589 83.6769 41.2598 83.7042 41.3424 83.7406Z" fill="#603913"/>
<path d="M41.4155 83.3852V83.3481L41.3877 83.3203C41.397 83.3388 41.4062 83.3666 41.4155 83.3852Z" fill="#603913"/>
<path d="M41.3145 83.0547C41.2869 83.1093 41.2961 83.1639 41.3236 83.2185C41.3603 83.173 41.3603 83.1184 41.3145 83.0547Z" fill="#603913"/>
<path d="M41.1953 83.3027C41.2595 83.2843 41.3329 83.2843 41.3788 83.3118C41.3788 83.3118 41.3421 83.2476 41.3237 83.2109C41.2962 83.2476 41.2504 83.2751 41.1953 83.2935V83.3027Z" fill="#603913"/>
<path d="M41.1944 83.3047C41.1302 83.323 41.066 83.3414 41.0293 83.3597C41.0843 83.3414 41.1394 83.3322 41.1944 83.3047Z" fill="#603913"/>
<path d="M39.6449 83.1471C39.599 83.1107 40.0393 83.1471 39.9384 83.0743C39.8192 82.9197 39.6265 82.7923 39.6357 82.6558C39.544 82.5921 40.0301 82.5102 39.9292 82.4465C39.81 82.2919 39.2321 81.9188 39.2504 82.1372C39.3055 82.4647 39.4247 82.674 39.4889 82.9743C39.654 83.2199 39.8467 83.4656 39.9934 83.7203C40.0118 83.7931 39.9751 83.8568 39.9384 83.9114C40.0118 83.8295 40.0852 83.7476 40.1586 83.6566C40.287 83.5384 39.7366 83.3473 39.6449 83.1471Z" fill="#603913"/>
<path d="M40.507 85.2682C40.6079 85.1863 40.617 85.0408 40.617 85.0408C41.0115 85.1408 41.0757 84.7041 40.9381 84.5312L40.7179 84.5767C40.7271 84.6677 40.828 84.7405 40.9564 84.6404C40.8005 84.7678 40.6812 84.7951 40.5987 84.8497C40.507 84.8952 40.4611 84.9589 40.351 84.9771C40.3418 85.0863 40.3235 85.25 40.507 85.2773V85.2682Z" fill="#603913"/>
<path d="M40.2227 84.9154C40.2227 84.9154 40.3052 84.9705 40.3419 84.9705V84.9338C40.3419 84.9338 40.2685 84.9338 40.2227 84.9062V84.9154Z" fill="#603913"/>
<path d="M40.9384 82.3571C40.9384 81.9295 40.9567 81.5292 41.0026 81.1379C40.92 81.1106 40.8191 81.0924 40.865 81.0469C40.9384 81.0196 40.9934 80.9832 41.0209 80.9559L41.0393 80.7831C41.0393 80.7831 41.0209 80.7467 41.0026 80.7194C40.9475 80.683 40.8833 80.7012 40.8191 80.7194C40.7732 80.7467 40.7182 80.7649 40.6632 80.7831C40.6999 80.7649 40.7549 80.7467 40.8191 80.7194C40.8741 80.6921 40.92 80.6648 40.9384 80.6284C40.9108 80.5738 40.8925 80.5192 40.92 80.4646C40.975 80.5283 40.975 80.5829 40.9384 80.6284C40.9567 80.6557 40.9842 80.6921 41.0026 80.7194L41.0393 80.7467L41.0943 80.3555C41.0943 80.3555 41.076 80.3009 41.0576 80.2736C40.9934 80.1826 40.9384 80.0916 41.1493 80.0279V79.9551C41.1493 79.9551 41.1402 79.9642 41.1218 79.9733C41.131 79.9642 41.1493 79.9551 41.1585 79.946L41.2044 79.6458C41.1218 79.5821 41.0117 79.5275 40.9475 79.4638C40.9475 79.4638 41.0943 79.4092 41.1677 79.391C41.0576 79.3728 40.9842 79.3364 40.9384 79.2909C40.8099 79.3546 40.6632 79.4092 40.5806 79.4547C40.6723 79.4092 40.8099 79.3546 40.9384 79.2909C40.8558 79.1999 40.9292 79.0817 41.131 78.9725C41.3236 79.0817 41.1493 79.1999 40.9384 79.2909C40.975 79.3364 41.0484 79.3728 41.1677 79.391C41.0943 79.4183 40.9475 79.4638 40.9475 79.4638C41.0117 79.5275 41.1218 79.5912 41.2044 79.6458C41.2319 79.4456 41.2594 79.2545 41.2869 79.0544C41.4979 77.7442 41.3236 76.5614 41.3511 75.2057C41.3787 74.4687 41.4612 73.7409 41.608 73.0403C41.9107 71.6664 41.1402 70.52 42.2226 69.319C42.5895 68.8732 42.4152 68.1453 42.4336 67.7723C41.7914 67.1627 39.8926 67.0535 39.7826 67.099C38.957 67.1718 38.746 67.3537 38.6176 67.6085C38.4892 67.8633 38.4525 68.1726 37.9663 68.6275C38.5258 68.027 38.9753 69.0915 37.9112 69.7102C37.0948 70.1834 37.049 70.7475 37.1774 71.2843C37.3058 71.8211 37.6085 72.3397 37.4709 72.8674C37.3976 73.1313 37.5168 73.3769 37.5352 73.6772C37.2049 75.2421 38.0947 76.4158 38.0947 77.9353C38.1314 78.3265 38.5625 78.6449 38.8102 78.9725C38.9019 79.2181 38.7001 79.4911 38.7093 79.6822C38.7276 79.9915 38.8928 80.2554 39.0854 80.5101C39.0028 80.219 38.8744 80.0188 38.7919 79.6913C38.7552 79.4729 39.3606 79.8186 39.489 79.9551C39.5899 80.0097 39.1037 80.128 39.2046 80.1826C39.2046 80.3191 39.4065 80.4373 39.5349 80.5738C39.6358 80.6375 39.1955 80.6375 39.2413 80.6648C39.3422 80.8559 39.911 81.0014 39.7917 81.1288C39.7275 81.2289 39.6633 81.3108 39.5899 81.3927C39.5624 81.4473 39.5441 81.5019 39.5624 81.5565L39.6725 81.6656C39.8101 81.6383 39.9752 81.6292 40.1403 81.6201C39.9752 81.6201 39.8101 81.6383 39.6725 81.6656C39.9293 81.9295 40.1586 82.2388 40.3329 82.5209H40.3696C40.3329 82.348 40.3696 82.1933 40.6448 82.0205C40.5439 82.0933 40.4247 82.0842 40.3971 81.9932L40.6173 81.9295C40.7365 82.0842 40.8558 82.2297 40.5347 82.3662C40.5347 82.3662 40.6356 82.4299 40.6815 82.4663C40.6173 82.5118 40.4797 82.5027 40.3605 82.5118C40.3605 82.5482 40.3788 82.5755 40.3971 82.6119C40.6173 82.5482 40.9017 82.3389 40.9017 82.3389L40.9384 82.3571Z" fill="#603913"/>
<path d="M40.9565 80.6285C40.9565 80.6285 40.984 80.6831 40.9932 80.7104L41.0482 80.3828C40.8373 80.4465 40.9015 80.5375 40.9565 80.6285Z" fill="#603913"/>
</g>
<g opacity="0.85">
<path d="M29.3342 79.2249L29.3801 79.0156C29.3801 79.0156 29.2883 79.0793 29.2149 79.1066C29.1599 79.1521 29.2516 79.1794 29.3342 79.2249Z" fill="#603913"/>
<path d="M29.4262 78.8124V78.7753L29.3984 78.7383C29.4077 78.7661 29.417 78.7846 29.4262 78.8124Z" fill="#603913"/>
<path d="M29.3533 78.4219C29.3258 78.4856 29.335 78.5493 29.3533 78.6129C29.39 78.5584 29.3992 78.4947 29.3533 78.4219Z" fill="#603913"/>
<path d="M29.2148 78.7142C29.2791 78.6958 29.3524 78.6958 29.3983 78.7325C29.3983 78.7325 29.3616 78.65 29.3524 78.6133C29.3249 78.65 29.2791 78.6867 29.2148 78.7142Z" fill="#603913"/>
<path d="M29.2149 78.7109C29.1507 78.7293 29.0865 78.7568 29.0498 78.766C29.114 78.7476 29.1691 78.7293 29.2149 78.7109Z" fill="#603913"/>
<path d="M27.6732 78.4878C27.6732 78.4878 28.0677 78.4878 27.9759 78.415C27.875 78.2421 27.6824 78.0874 27.6916 77.9328C27.5998 77.86 28.086 77.7781 27.9943 77.6962C27.875 77.5142 27.3063 77.0775 27.3247 77.3232C27.3705 77.6962 27.4806 77.9419 27.5356 78.2785C27.6824 78.5606 27.8659 78.8426 27.9943 79.1429C28.0035 79.2247 27.9668 79.2975 27.9301 79.3612C28.0035 79.2702 28.086 79.1793 28.1594 79.0792C28.297 78.9427 27.7558 78.7152 27.6732 78.4787V78.4878Z" fill="#603913"/>
<path d="M28.8388 80.758C28.7929 80.7125 28.7104 80.6215 28.7104 80.6215C29.0498 80.5123 28.958 80.3122 28.8571 80.1211L28.6278 80.1666C28.6278 80.2667 28.7562 80.3031 28.8663 80.2303C28.5728 80.385 28.4994 80.5669 28.5086 80.7671C28.6278 80.7762 28.7654 80.8035 28.8296 80.7671L28.8388 80.758Z" fill="#603913"/>
<path d="M28.5365 80.8771C28.5365 80.8771 28.5273 80.7945 28.5181 80.7578H28.4814L28.5273 80.8771H28.5365Z" fill="#603913"/>
<path d="M28.9949 77.6127C29.0132 77.1214 29.0408 76.6574 29.0775 76.2115C28.9949 76.1751 28.894 76.1479 28.9399 76.1024C29.0132 76.066 29.0683 76.0296 29.0958 75.9932L29.1233 75.793C29.1233 75.793 29.105 75.7475 29.0866 75.7202C29.0408 75.6838 28.9674 75.6929 28.9032 75.7202C28.8573 75.7475 28.8023 75.7657 28.7472 75.793C28.7839 75.7748 28.8481 75.7475 28.9032 75.7202C28.9582 75.6929 29.0041 75.6565 29.0316 75.611C29.0041 75.5474 28.9857 75.4928 29.0132 75.42C29.0683 75.4928 29.0683 75.5565 29.0316 75.611C29.0499 75.6474 29.0683 75.6838 29.0958 75.7202L29.1325 75.7566L29.1875 75.3017C29.1875 75.3017 29.16 75.238 29.1508 75.2107C29.0866 75.1015 29.0224 75.0014 29.2426 74.9196V74.8377C29.2426 74.8377 29.2334 74.8468 29.2151 74.8559C29.2242 74.8468 29.2426 74.8286 29.2517 74.8286L29.2976 74.4828C29.2151 74.41 29.105 74.3373 29.0408 74.2645C29.0408 74.2645 29.1875 74.2099 29.2517 74.1826C29.1417 74.1553 29.0683 74.1189 29.0224 74.0643C28.894 74.128 28.7564 74.1917 28.6647 74.2463C28.4537 74.3282 29.1141 74.4009 28.7014 74.501C29.1141 74.3918 28.4537 74.3282 28.6647 74.2463C28.7564 74.1917 28.894 74.128 29.0224 74.0643C28.9399 73.9642 29.0041 73.8186 29.2151 73.6913C29.4077 73.8186 29.2334 73.946 29.0224 74.0643C29.0591 74.1098 29.1417 74.1553 29.2517 74.1826C29.1784 74.2099 29.0408 74.2645 29.0408 74.2645C29.105 74.3373 29.2151 74.41 29.2976 74.4828C29.3343 74.2554 29.3526 74.0279 29.3802 73.8004C29.582 72.2992 29.3985 70.9344 29.4627 69.3968C29.5086 68.5597 29.6187 67.75 29.8113 66.9675C30.1966 65.4208 29.5086 64.0469 30.6277 62.5638C31.0221 62.0088 30.8387 60.9989 30.8479 60.4803C30.169 59.716 28.2611 59.8798 28.151 59.9253C26.5273 60.271 27.3437 60.7259 26.3806 61.6995C26.9401 61.0262 27.3896 62.2181 26.298 62.8732C24.6194 63.8649 26.0228 65.2024 25.6834 66.367C25.5917 66.6672 25.7018 66.9584 25.6926 67.3041C25.2706 69.1238 26.1604 70.6615 26.1696 72.4357C26.2155 72.8997 26.6466 73.2818 26.8943 73.664C26.986 73.946 26.7934 74.2645 26.8025 74.4919C26.8117 74.8559 26.9768 75.1561 27.1786 75.4564C27.0869 75.1197 26.9677 74.8832 26.8851 74.5101C26.8484 74.2645 27.4538 74.6557 27.5822 74.8286C27.6831 74.9014 27.197 75.0196 27.2979 75.0924C27.2979 75.2471 27.5089 75.3836 27.6373 75.5474C27.7382 75.6201 27.2979 75.611 27.3437 75.6474C27.4447 75.8658 28.0042 76.0478 27.885 76.1933C27.8207 76.3025 27.7474 76.4026 27.6831 76.4936C27.6556 76.5573 27.6373 76.6119 27.6556 76.6756L27.7657 76.8029C27.9033 76.7756 28.0684 76.7665 28.2335 76.7575C28.206 76.8211 28.1143 76.903 28.0868 76.9576C28.1143 76.8939 28.206 76.812 28.2335 76.7575C28.0684 76.7575 27.9033 76.7756 27.7657 76.8029C28.0226 77.1032 28.2244 77.458 28.3986 77.8038H28.4353C28.3986 77.6036 28.4537 77.4307 28.7289 77.2397C28.628 77.3216 28.5087 77.3034 28.4812 77.2124L28.7014 77.1487C28.8206 77.3215 28.9307 77.5035 28.6096 77.6491C28.6096 77.6491 28.7014 77.731 28.7472 77.7674C28.683 77.822 28.5454 77.8038 28.4262 77.8129C28.4262 77.8493 28.4445 77.8857 28.4537 77.9311C28.6738 77.8675 28.9674 77.6218 28.9674 77.6218L28.9949 77.6127Z" fill="#603913"/>
<path d="M29.0503 75.6154C29.0503 75.6154 29.0778 75.67 29.087 75.7064L29.142 75.3242C28.931 75.397 28.9952 75.5062 29.0503 75.6063V75.6154Z" fill="#603913"/>
</g>
<g opacity="0.85">
<path d="M61.7803 63.9111L62.4866 63.7291C62.3582 63.7291 62.2298 63.7291 62.0922 63.6836C61.927 63.6836 61.872 63.7928 61.7894 63.9111H61.7803Z" fill="#603913"/>
<path d="M63.1279 63.5515C63.1279 63.5515 63.2105 63.5331 63.2564 63.5148L63.3481 63.4414L63.1279 63.5423V63.5515Z" fill="#603913"/>
<path d="M64.3027 63.0703C64.0825 63.1158 63.8807 63.1886 63.6973 63.2796C63.8807 63.2523 64.0825 63.1977 64.3027 63.0703Z" fill="#603913"/>
<path d="M63.3018 63.2656C63.3935 63.302 63.4485 63.3566 63.3476 63.4476L63.6962 63.2838C63.5586 63.302 63.4302 63.2929 63.3109 63.2747L63.3018 63.2656Z" fill="#603913"/>
<path d="M63.3025 63.2701C63.2108 63.2334 63.0824 63.2058 63.0273 63.1875C63.1099 63.2242 63.2016 63.2517 63.3025 63.2701Z" fill="#603913"/>
<path d="M63.1462 61.706C63.2471 61.6241 63.3572 62.0426 63.5682 61.8788C64.0911 61.5877 64.5039 61.2419 65.0175 61.0782C65.2193 60.9053 65.7514 61.2419 65.9532 61.0782C66.4761 60.7779 67.6777 59.7316 66.8613 60.0409C65.6413 60.5323 64.8616 60.9144 63.7517 61.3511C62.8894 61.806 62.0638 62.2792 61.1557 62.7159C60.8988 62.816 60.6328 62.8524 60.376 62.8979C60.7246 62.8706 61.0731 62.8342 61.4676 62.7887C61.9904 62.7614 62.4216 62.0426 63.1462 61.7151V61.706Z" fill="#603913"/>
<path d="M56.9274 65.0352C56.9274 65.0352 56.9458 65.0261 56.9733 65.017H57.0925L57.0834 65.0079C57.065 65.0079 57.0558 64.9897 57.0375 64.9806C57.0192 64.9533 57.0283 64.8987 57.0283 64.8987C57.2668 64.8805 57.4503 64.8987 57.7622 64.8077C58.0465 64.7258 58.3126 64.5894 58.5786 64.462L58.2667 64.3164C57.9456 64.4256 57.9365 64.553 58.2575 64.5712C57.8906 64.5348 57.542 64.5348 57.2301 64.5985C57.0742 64.644 56.9182 64.7167 56.8357 64.8532C56.799 64.926 56.7807 65.0079 56.8082 65.0807C56.8357 65.1535 56.9274 65.1626 57.0008 65.1444C56.9733 65.0898 56.9641 65.0261 56.9549 64.9715C56.9549 64.9624 56.9549 64.9442 56.9549 64.926C56.9549 64.9351 56.9549 64.9624 56.9458 64.9806C56.9458 65.0079 56.9091 65.0534 56.9274 65.0352Z" fill="#603913"/>
<path d="M57.1474 64.9974C57.2574 64.9974 57.129 65.1248 57.0098 65.143C57.0098 65.1521 57.0189 65.1612 57.0281 65.1793C57.1565 65.143 57.2758 64.9883 57.1382 64.9883V65.0065L57.1474 64.9974Z" fill="#603913"/>
<path d="M66.7146 61.8496C68.2924 61.2946 69.7784 60.7668 71.2278 60.2573C71.3103 60.139 71.347 60.0117 71.5121 60.0026C71.6497 60.0299 71.7781 60.0299 71.9066 60.0117L72.5395 59.7842C72.6037 59.7478 72.6771 59.7023 72.7505 59.6659C72.8514 59.5658 72.7872 59.5204 72.6954 59.4931C72.5945 59.484 72.5028 59.4658 72.4203 59.4385C72.4753 59.4567 72.6037 59.4658 72.6954 59.4931C72.8147 59.5022 72.9431 59.4931 73.0807 59.4749C73.2642 59.3748 73.4568 59.2747 73.6678 59.2201C73.4568 59.3566 73.2642 59.4385 73.0807 59.4749C72.9706 59.5385 72.8606 59.6113 72.7505 59.675L72.6679 59.7569L74.1173 59.2383C74.2182 59.1837 74.3191 59.1291 74.4016 59.0836C74.7227 58.8926 75.0346 58.6924 75.3281 58.7925L75.585 58.7015C75.585 58.7015 75.5483 58.6924 75.5207 58.6833C75.5666 58.6833 75.6033 58.6833 75.6308 58.6833C76.0161 58.5468 76.3188 58.4103 76.6307 58.3467C76.8141 58.2011 77.0526 58.0646 77.3003 58.0282C77.3003 58.0282 77.4471 58.2011 77.493 58.3012C77.603 58.2193 77.7498 58.192 77.9057 58.2284C77.7773 58.0191 77.6214 57.8098 77.4471 57.6825C77.3278 57.546 77.1535 57.6461 76.9976 57.7371C76.8417 57.828 76.7041 57.9281 76.5206 57.7643C76.7132 57.9281 76.8417 57.8371 76.9976 57.7371C77.1535 57.637 77.3278 57.546 77.4471 57.6825C77.6214 57.8098 77.7773 58.0191 77.9057 58.2284C78.236 58.3012 78.6212 58.6105 78.7772 58.9381C78.291 58.8835 78.1351 58.5832 77.9057 58.2284C77.7406 58.192 77.5939 58.2193 77.493 58.3012C77.4379 58.2011 77.3003 58.0282 77.3003 58.0282C77.0526 58.0646 76.8233 58.2102 76.6307 58.3467C76.9426 58.2739 77.2728 58.283 77.5663 58.4103C77.8599 58.5377 78.1167 58.7197 78.4011 58.8926C79.7954 59.7842 81.0337 60.5303 82.2629 61.2582C82.8684 61.613 83.4738 61.9678 84.0792 62.3227C84.3727 62.4956 84.6754 62.6684 84.969 62.8413L85.4093 63.0961H84.8406C84.0792 63.0779 83.2628 63.096 82.4647 63.1142C81.5199 63.1415 80.5843 63.1688 79.667 63.1961H79.3734C79.2542 63.2143 79.245 63.1961 79.034 63.2234L77.9975 63.3235C77.3095 63.3963 76.6215 63.4782 75.9427 63.5692C73.2183 63.9149 70.7049 64.7156 68.219 65.5799C67.6044 65.8074 66.9806 66.0349 66.3569 66.2623C65.7239 66.4898 65.1002 66.7354 64.5956 66.8719C64.082 67.0175 63.6325 67.0448 63.394 66.9538C63.1371 66.8446 63.2197 66.7718 62.8252 66.4079C62.5684 66.1531 61.9355 65.6891 61.3117 65.3161C60.6696 64.9248 59.9541 64.5609 59.2111 64.2425C57.7342 63.5874 56.2023 63.1415 55.1474 62.8595C53.6339 62.814 53.166 63.4054 53.0651 63.9604C52.9734 64.5245 53.2211 65.0977 53.2669 65.1614C53.8632 66.1258 54.4778 66.4898 55.3034 66.8719C56.1198 67.2541 57.1747 67.6544 58.3672 68.7735C57.5232 68.0729 57.9819 68.0001 58.8441 68.3641C59.2661 68.5551 59.789 68.8554 60.2568 69.2557C60.7155 69.6378 61.2475 70.2111 61.9905 70.7115C62.5225 71.0845 63.2197 71.312 63.8893 71.3666C64.5681 71.4302 65.2102 71.3484 65.7881 71.221C66.3569 71.0845 66.8706 70.8934 67.32 70.7115C67.7512 70.5386 68.1731 70.3566 68.5951 70.1565C70.3013 69.3831 72.0992 68.5278 73.9246 68.2276C74.8328 68.082 75.7501 67.7636 76.8233 67.5543C77.7498 67.436 78.6488 67.3177 79.5385 67.1995L80.6485 67.0448L82.0795 66.881L83.5196 66.7172C84.0058 66.6717 84.5378 66.6445 85.0424 66.6081L86.5743 66.508C87.0971 66.4807 87.7025 66.4807 88.2529 66.4625C89.3812 66.4352 90.5187 66.3988 91.6561 66.3715C93.8118 66.3078 95.9766 66.2441 98.169 66.1713L97.0224 65.5435L95.7657 64.8794C94.9493 64.4426 94.1237 64.0059 93.2889 63.5601C91.6561 62.6775 90.0508 61.8041 88.4456 60.9033C87.1797 60.2118 85.8129 59.5749 84.5562 59.0381C83.3637 58.5377 82.1895 58.0464 81.0888 57.5915C80.3549 57.2366 79.7128 56.8363 78.9882 56.3996C78.2543 55.9629 77.4379 55.7354 76.7316 55.8173C76.1812 55.8719 75.6583 56.0629 75.1905 56.2813C74.8419 56.4451 74.6401 56.5634 74.3741 56.7089C73.8788 56.991 73.4109 57.273 72.9615 57.5642C73.4935 57.3003 73.943 57.0638 74.4108 56.809C74.6493 56.6816 74.8878 56.5543 75.1355 56.4269C75.5483 56.2267 76.0436 56.0083 76.594 55.9174C77.3462 55.8537 77.0618 55.9901 76.539 56.2176C76.0436 56.436 75.2639 56.9819 75.1171 57.1093C74.9245 57.3003 74.3741 57.0001 74.1815 57.1911C73.6861 57.4004 73.3009 57.7734 72.8055 58.101C72.6129 58.283 72.4753 57.8735 72.3744 57.9645C71.6772 58.3557 71.3103 59.0927 70.7966 59.1655C70.4114 59.2383 70.0628 59.302 69.7234 59.3566C69.5124 59.4112 69.3106 59.4658 69.0996 59.5567C68.9804 59.6386 68.8519 59.7205 68.7327 59.8115C68.8886 59.8934 68.9804 60.039 69.0813 60.1754C68.9895 60.0299 68.8886 59.8934 68.7327 59.8115C67.8429 60.412 66.7788 61.0307 65.7606 61.5675L65.7881 61.6039C66.4027 61.3491 67.0173 61.1763 67.7603 61.2036C67.4485 61.2036 67.4393 61.0853 67.7603 60.9488L68.0814 61.0671C67.5677 61.3764 67.054 61.6949 66.4211 61.5766C66.4211 61.5766 66.2101 61.7495 66.1092 61.8405C65.9166 61.8405 65.8799 61.7131 65.7973 61.613C65.6781 61.6676 65.5588 61.7131 65.4396 61.7677C65.7698 61.886 66.6871 61.8769 66.6871 61.8769L66.7146 61.8496Z" fill="#603913"/>
<path d="M73.0988 59.4845C73.0163 59.5299 72.9245 59.5845 72.8145 59.6391L74.0345 59.2115C73.7409 59.1023 73.4199 59.2934 73.0988 59.4935V59.4845Z" fill="#603913"/>
</g>
<g opacity="0.85">
<path d="M67.8803 83.6807L67.8986 83.5352C67.8986 83.5352 67.8252 83.5897 67.7427 83.617C67.6968 83.6534 67.7885 83.6625 67.8803 83.6807Z" fill="#603913"/>
<path d="M67.9078 83.3974V83.3699L67.8711 83.3516C67.8894 83.3699 67.8986 83.3791 67.9078 83.3974Z" fill="#603913"/>
<path d="M67.7881 83.1562C67.7881 83.1562 67.7881 83.2381 67.8156 83.2836C67.8431 83.2472 67.8431 83.2017 67.7881 83.1562Z" fill="#603913"/>
<path d="M67.6875 83.3585C67.7517 83.3402 67.8159 83.331 67.871 83.3585C67.871 83.3585 67.8251 83.3127 67.8067 83.2852C67.7792 83.3127 67.7425 83.3402 67.6875 83.3677V83.3585Z" fill="#603913"/>
<path d="M67.6872 83.3594C67.623 83.3777 67.5679 83.4052 67.5312 83.4144C67.5863 83.3961 67.6413 83.3777 67.6872 83.3594Z" fill="#603913"/>
<path d="M66.1272 83.3814C66.0814 83.3632 66.5125 83.345 66.4208 83.2995C66.2924 83.1903 66.0905 83.1084 66.0814 82.9992C65.9805 82.9537 66.4666 82.8537 66.3657 82.8082C66.2373 82.699 65.6319 82.4442 65.6686 82.6171C65.7511 82.8718 65.8796 83.0356 65.9713 83.2631C66.1548 83.4451 66.3749 83.6179 66.5492 83.7999C66.5767 83.8545 66.5492 83.9091 66.5125 83.9546C66.5767 83.8818 66.6409 83.809 66.7051 83.7362C66.8244 83.627 66.2557 83.536 66.1456 83.3905L66.1272 83.3814Z" fill="#603913"/>
<path d="M67.66 84.7349C67.605 84.7076 67.5133 84.6621 67.5133 84.6621C67.8251 84.5439 67.6967 84.4256 67.5683 84.3164L67.3481 84.3801C67.3757 84.4438 67.4949 84.4438 67.5958 84.3801C67.3298 84.5257 67.3023 84.6531 67.3481 84.7804C67.4674 84.7713 67.605 84.7622 67.66 84.7258V84.7349Z" fill="#603913"/>
<path d="M67.3846 84.871C67.3846 84.871 67.3569 84.8154 67.3476 84.7969H67.3105L67.3754 84.8802H67.3846V84.871Z" fill="#603913"/>
<path d="M67.3568 82.6585C67.3201 82.331 67.3201 82.0216 67.3476 81.7123C67.2559 81.6941 67.1642 81.685 67.2101 81.6486C67.2834 81.6213 67.3293 81.594 67.366 81.5667L67.3843 81.4302L67.3476 81.3847C67.2926 81.3665 67.2284 81.3756 67.1642 81.3938C67.1183 81.412 67.0633 81.4302 67.0082 81.4484C67.0449 81.4393 67.1 81.412 67.1642 81.3938C67.2192 81.3665 67.2651 81.3392 67.2834 81.3119C67.2559 81.2755 67.2376 81.2301 67.2559 81.1846C67.3109 81.2301 67.3109 81.2664 67.2834 81.3119C67.3018 81.3301 67.3293 81.3574 67.3476 81.3847L67.3843 81.4029L67.421 81.0936C67.421 81.0936 67.3935 81.0481 67.3843 81.0299C67.3201 80.9662 67.2559 80.8934 67.4669 80.8297V80.7751C67.4669 80.7751 67.4485 80.7751 67.4394 80.7842L67.4761 80.7569L67.5128 80.5204C67.4302 80.4749 67.3201 80.4385 67.2559 80.393L67.4669 80.3202C67.3568 80.3111 67.2834 80.2838 67.2376 80.2565C67.1091 80.3111 66.9716 80.3566 66.8798 80.4021C66.6688 80.4658 67.3293 80.484 66.9165 80.575C67.3293 80.484 66.6597 80.4749 66.8798 80.4021C66.9624 80.3566 67.1091 80.3111 67.2376 80.2565C67.155 80.1928 67.2192 80.0927 67.4302 80.0018C67.6228 80.0837 67.4485 80.1746 67.2376 80.2565C67.2743 80.2838 67.3568 80.3111 67.4669 80.3202L67.2559 80.393C67.3201 80.4385 67.4302 80.484 67.5128 80.5204C67.5403 80.3657 67.5586 80.211 67.5861 80.0564C67.7788 79.0464 67.6412 78.1366 67.7329 77.0811C67.7971 76.5079 67.9164 75.9529 68.109 75.3979C68.4759 74.2788 67.7604 73.4054 68.6869 72.1771C69.008 71.704 68.6686 70.9761 68.5493 70.5939C67.7329 70.1936 65.9258 70.7941 65.8249 70.8396C64.293 71.431 65.2195 71.522 64.3939 72.3136C64.8526 71.7949 65.4763 72.4682 64.449 73.0505C62.8804 73.8967 64.3389 74.5245 64.0087 75.3161C63.9261 75.5162 64.027 75.6982 64.0178 75.9165C63.5959 77.1084 64.4214 78.0729 64.4031 79.2739C64.4398 79.5923 64.8709 79.8289 65.1186 80.0745C65.2103 80.2656 65.0177 80.4931 65.0269 80.6478C65.0544 80.8934 65.2195 81.1027 65.4305 81.2937C65.3296 81.0663 65.2011 80.9116 65.1186 80.6568C65.0819 80.484 65.6873 80.7296 65.8249 80.8388C65.9258 80.8843 65.4488 80.9935 65.5497 81.039C65.5497 81.1482 65.7607 81.2301 65.8983 81.3301C65.9992 81.3756 65.5589 81.3938 65.6139 81.4211C65.724 81.5667 66.2927 81.6486 66.1827 81.7578C66.1185 81.8397 66.0634 81.9124 65.9992 81.9852C65.9809 82.0307 65.9625 82.0671 65.9809 82.1126L66.1001 82.1945C66.2377 82.1672 66.3937 82.149 66.5588 82.1308C66.5404 82.1763 66.4487 82.24 66.4212 82.2764C66.4395 82.2309 66.5404 82.1672 66.5588 82.1308C66.3937 82.149 66.2285 82.1672 66.1001 82.1945C66.3753 82.3856 66.6138 82.6039 66.8156 82.8132H66.8523C66.7973 82.6767 66.834 82.5493 67.0908 82.4038C66.9991 82.4674 66.8706 82.4674 66.8431 82.4038L67.0633 82.3401C67.1917 82.4493 67.3293 82.5584 67.0174 82.6858C67.0174 82.6858 67.1183 82.7313 67.1734 82.7495C67.1183 82.7859 66.9807 82.795 66.8615 82.8132C66.8706 82.8405 66.889 82.8587 66.8982 82.886C67.1091 82.8223 67.3843 82.6312 67.3843 82.6312L67.3568 82.6585Z" fill="#603913"/>
<path d="M67.2743 81.3239C67.2743 81.3239 67.3019 81.3603 67.311 81.3876L67.3477 81.1328C67.1367 81.1965 67.2009 81.2602 67.2652 81.333L67.2743 81.3239Z" fill="#603913"/>
</g>
<g opacity="0.85">
<path d="M57.1842 85.8343V85.625C57.1842 85.625 57.12 85.6978 57.0466 85.7433C57.0008 85.7888 57.1017 85.807 57.1842 85.8343Z" fill="#603913"/>
<path d="M57.2031 85.4242V85.3872L57.166 85.3594C57.1845 85.3779 57.1938 85.4057 57.2031 85.4242Z" fill="#603913"/>
<path d="M57.0562 85.0703C57.0379 85.134 57.0562 85.1977 57.0837 85.2523C57.1113 85.1977 57.1113 85.134 57.0562 85.0703Z" fill="#603913"/>
<path d="M56.9736 85.3718C57.0378 85.3443 57.1021 85.3259 57.1571 85.3626C57.1571 85.3626 57.1112 85.2892 57.0929 85.2617C57.0745 85.3076 57.0287 85.3443 56.9736 85.3718Z" fill="#603913"/>
<path d="M56.9733 85.3672C56.9091 85.3947 56.8541 85.4314 56.8174 85.4497C56.8724 85.4222 56.9275 85.3947 56.9733 85.3672Z" fill="#603913"/>
<path d="M55.4136 85.3866C55.3585 85.3502 55.7988 85.332 55.6979 85.2683C55.5603 85.1045 55.3585 84.9771 55.3402 84.8225C55.2393 84.7588 55.7163 84.6041 55.6154 84.5404C55.4778 84.3766 54.854 83.9945 54.8999 84.2493C55.0008 84.6223 55.1292 84.868 55.2393 85.2046C55.4319 85.4685 55.6704 85.7232 55.8447 85.9962C55.8722 86.0781 55.8447 86.1508 55.8172 86.2327C55.8814 86.1326 55.9364 86.0235 56.0006 85.9052C56.1107 85.7505 55.5328 85.614 55.4227 85.3866H55.4136Z" fill="#603913"/>
<path d="M56.8261 86.3685C56.8261 86.4322 56.8261 86.5504 56.8261 86.5504C56.5876 86.4322 56.4959 86.514 56.4316 86.6414L56.9912 86.9053C56.9912 86.9053 56.927 86.8234 56.8903 86.7779L56.6793 86.8689C56.6793 86.8689 56.6977 86.9144 56.716 86.9235L56.5876 86.8598C56.5876 86.8143 56.5509 86.7597 56.4959 86.7324L56.8719 86.9053C56.8719 86.9053 56.9086 86.8871 56.9178 86.8689L56.8719 86.9053L56.4867 86.7233C56.771 86.7961 56.9362 86.7233 57.0554 86.5777C56.9729 86.4868 56.8995 86.3776 56.8169 86.3594L56.8261 86.3685Z" fill="#603913"/>
<path d="M57.1378 86.5C57.1378 86.5 57.092 86.5637 57.0645 86.6001L57.092 86.6274L57.147 86.5091H57.1378V86.5Z" fill="#603913"/>
<path d="M56.597 84.3233C56.5419 83.8411 56.5236 83.3861 56.5236 82.9403C56.4319 82.913 56.331 82.8948 56.3768 82.8493C56.4502 82.8038 56.4961 82.7674 56.5236 82.731V82.5309C56.5236 82.5309 56.5053 82.4854 56.4869 82.4672C56.4319 82.4308 56.3677 82.449 56.3034 82.4763C56.2576 82.5036 56.2025 82.5309 56.1475 82.5582C56.1842 82.54 56.2392 82.5036 56.3034 82.4763C56.3585 82.4399 56.3952 82.4035 56.4135 82.358C56.3768 82.3034 56.3585 82.2397 56.3768 82.176C56.4319 82.2397 56.441 82.3034 56.4135 82.358C56.4319 82.3944 56.4594 82.4308 56.4869 82.4581L56.5328 82.4854L56.5511 82.0396C56.5511 82.0396 56.5236 81.9759 56.5052 81.9486C56.441 81.8485 56.3677 81.7484 56.5695 81.6574V81.5755C56.5695 81.5755 56.5511 81.5846 56.5328 81.5937C56.5419 81.5846 56.5603 81.5664 56.5695 81.5573L56.5878 81.2207C56.4961 81.157 56.386 81.0933 56.3126 81.0205C56.3126 81.0205 56.4502 80.9568 56.5236 80.9204C56.4135 80.9022 56.331 80.8658 56.2943 80.8204C56.1659 80.8931 56.0283 80.9659 55.9457 81.0296C55.7347 81.1297 56.4044 81.1479 56.0007 81.2844C56.4044 81.157 55.7347 81.1297 55.9457 81.0296C56.0283 80.9659 56.1659 80.9022 56.2943 80.8204C56.2025 80.7203 56.2668 80.5747 56.4686 80.4473C56.6704 80.5656 56.5053 80.7021 56.2943 80.8204C56.3401 80.8658 56.4135 80.9022 56.5236 80.9204C56.4502 80.9568 56.3126 81.0205 56.3126 81.0205C56.386 81.0842 56.4961 81.1479 56.5878 81.2207C56.6062 80.9932 56.6153 80.7749 56.6337 80.5383C56.7437 79.0553 56.5236 77.7178 56.5052 76.1801C56.5052 75.3431 56.5695 74.5333 56.6979 73.7145C56.9456 72.0858 56.1016 70.8029 56.863 69.0287C57.1198 68.3555 56.6704 67.2818 56.4961 66.7268C55.6063 66.1172 53.8542 66.9452 53.7625 66.9998C52.2948 67.8186 53.258 67.9824 52.5333 69.1106C52.9186 68.3646 53.6524 69.3654 52.6893 70.1933C51.2216 71.3852 52.7718 72.3588 52.5425 73.5052C52.4783 73.7872 52.6067 74.0602 52.6251 74.3877C52.3407 76.1346 53.2763 77.5631 53.3681 79.3464C53.4323 79.8104 53.8818 80.1744 54.1478 80.5383C54.2579 80.8204 54.0744 81.1479 54.1019 81.3845C54.1478 81.7484 54.3312 82.0487 54.5514 82.3398C54.4413 82.0032 54.2945 81.7757 54.1845 81.4027C54.1294 81.157 54.7624 81.5209 54.9091 81.6756C55.0192 81.7393 54.5422 81.9031 54.6431 81.9577C54.6615 82.1123 54.8725 82.2397 55.01 82.3944C55.1109 82.4581 54.6798 82.4945 54.7257 82.5218C54.8449 82.7401 55.4228 82.8675 55.3219 83.0222C55.2669 83.1405 55.2119 83.2497 55.1476 83.3497C55.1293 83.4134 55.1109 83.4771 55.1385 83.5408L55.2577 83.6591C55.5421 83.9411 55.8081 84.2687 56.0191 84.578H56.0558C56.0007 84.387 56.0191 84.1959 56.2668 83.9775C56.175 84.0685 56.0558 84.0685 56.0191 83.9775L56.2301 83.8865C56.3677 84.0503 56.5053 84.205 56.2025 84.3961C56.2025 84.3961 56.3034 84.4597 56.3585 84.4961C56.3034 84.5507 56.1659 84.5598 56.0466 84.5871C56.0558 84.6235 56.0741 84.6599 56.0925 84.6963C56.3034 84.5962 56.5695 84.3233 56.5695 84.3233H56.597Z" fill="#603913"/>
<path d="M56.4316 82.3576C56.4316 82.3576 56.4591 82.4121 56.4775 82.4485L56.505 82.0664C56.294 82.1483 56.3674 82.2575 56.4408 82.3576H56.4316Z" fill="#603913"/>
</g>
<g opacity="0.85">
<path d="M94.3257 84.5674L94.3532 84.3672C94.3532 84.3672 94.2707 84.4309 94.1973 84.4673C94.1422 84.5128 94.2431 84.531 94.3349 84.5674H94.3257Z" fill="#603913"/>
<path d="M94.3808 84.182V84.145L94.3438 84.1172C94.353 84.1357 94.3715 84.1635 94.3808 84.182Z" fill="#603913"/>
<path d="M94.2704 83.8281C94.2429 83.8918 94.2613 83.9464 94.2888 84.0101C94.3255 83.9555 94.3255 83.9009 94.2704 83.8281Z" fill="#603913"/>
<path d="M94.1602 84.1062C94.2244 84.0878 94.2977 84.0786 94.3436 84.1062C94.3436 84.1062 94.3069 84.0328 94.2886 83.9961C94.2611 84.0328 94.2152 84.0695 94.1602 84.097V84.1062Z" fill="#603913"/>
<path d="M94.1608 84.1055C94.0966 84.133 94.0416 84.1513 94.0049 84.1697C94.0599 84.1513 94.115 84.133 94.1608 84.1055Z" fill="#603913"/>
<path d="M92.6007 83.9903C92.5548 83.9539 92.9952 83.9721 92.8942 83.8994C92.775 83.7356 92.5732 83.59 92.5824 83.4353C92.4815 83.3625 92.9768 83.2625 92.8759 83.1897C92.7566 83.0259 92.1696 82.5983 92.1879 82.8439C92.2521 83.217 92.3622 83.4626 92.4448 83.7902C92.6191 84.0631 92.8209 84.327 92.9768 84.609C92.9951 84.6909 92.9585 84.7637 92.9309 84.8274C93.0043 84.7364 93.0685 84.6363 93.1327 84.5271C93.252 84.3816 92.6924 84.2087 92.6007 83.9812V83.9903Z" fill="#603913"/>
<path d="M94.0328 86.0562C93.9869 86.0198 93.886 85.9471 93.886 85.9471C94.207 85.7924 94.0878 85.6286 93.9686 85.4648L93.7484 85.5376C93.7759 85.6286 93.8952 85.6468 93.9961 85.5649C93.7209 85.7469 93.6842 85.9289 93.7209 86.1199C93.8401 86.1108 93.9777 86.1199 94.0419 86.0653L94.0328 86.0562Z" fill="#603913"/>
<path d="M93.7482 86.2194C93.7482 86.2194 93.7207 86.1461 93.7115 86.1094H93.6748L93.739 86.2194H93.7482Z" fill="#603913"/>
<path d="M93.8762 83.0705C93.8671 82.6065 93.8946 82.1606 93.9405 81.733C93.8579 81.6966 93.757 81.6784 93.8029 81.6329C93.8762 81.5965 93.9313 81.5692 93.9588 81.5328L93.9863 81.3418C93.9863 81.3418 93.968 81.2963 93.9496 81.2781C93.9038 81.2417 93.8304 81.2508 93.7662 81.2781C93.7203 81.3054 93.6653 81.3236 93.6102 81.3418C93.6469 81.3236 93.7111 81.3054 93.7662 81.2781C93.8212 81.2508 93.8671 81.2144 93.8946 81.178C93.8671 81.1234 93.8487 81.0597 93.8762 80.996C93.9313 81.0688 93.9313 81.1234 93.8946 81.178C93.9129 81.2144 93.9313 81.2508 93.9496 81.2872L93.9863 81.3145L94.0505 80.8868C94.0505 80.8868 94.0322 80.8232 94.0138 80.7959C93.9588 80.6958 93.8946 80.5866 94.1147 80.5229L94.1331 80.4501C94.1331 80.4501 94.1056 80.4501 94.0964 80.4683C94.1056 80.4592 94.1239 80.4501 94.1423 80.441L94.1973 80.1135C94.1147 80.0407 94.0138 79.9679 93.9496 79.8951C93.9496 79.8951 94.0964 79.8496 94.1698 79.8223C94.0597 79.795 93.9863 79.7495 93.9496 79.704C93.8212 79.7586 93.6744 79.8132 93.5827 79.8678C93.6744 79.8223 93.8212 79.7677 93.9496 79.704C93.8671 79.604 93.9496 79.4675 94.1606 79.3583C94.3441 79.4948 94.1606 79.604 93.9496 79.704C93.9863 79.7495 94.0597 79.795 94.1698 79.8223C94.0964 79.8496 93.9496 79.8951 93.9496 79.8951C94.0138 79.9679 94.1147 80.0407 94.1973 80.1135C94.234 79.9042 94.2707 79.6858 94.3074 79.4675C94.5917 78.0572 94.5275 76.7652 94.7202 75.3004C94.8394 74.5088 95.0137 73.7445 95.2522 72.9894C95.7384 71.4881 95.1054 70.1416 96.1695 68.6039C96.5364 68.0125 96.2888 66.9389 96.2154 66.3839C95.454 65.6651 93.5827 66.1382 93.4726 66.1746C91.8857 66.6932 92.7938 67.0208 91.8765 67.9761C92.3902 67.321 92.9314 68.4037 91.849 69.0406C90.1979 69.9505 91.5738 71.1333 91.1702 72.2069C91.0693 72.4708 91.1519 72.7528 91.1243 73.0713C90.5831 74.7181 91.317 76.2375 91.1977 77.9662C91.1977 78.4212 91.6105 78.8215 91.8398 79.2127C91.9132 79.4948 91.7022 79.795 91.7022 80.0225C91.7022 80.3864 91.8582 80.6958 92.0508 80.9869C91.9682 80.6503 91.8582 80.4137 91.7848 80.0407C91.7573 79.795 92.3443 80.2136 92.4728 80.3773C92.5737 80.4501 92.0783 80.5593 92.1792 80.623C92.1792 80.7777 92.3719 80.9141 92.5003 81.0779C92.6012 81.1507 92.1609 81.1416 92.2068 81.1689C92.3077 81.3964 92.8672 81.5692 92.748 81.7057C92.6837 81.8149 92.6104 81.915 92.5462 82.006C92.5186 82.0696 92.5003 82.1242 92.5186 82.1879L92.6287 82.3062C92.7663 82.2789 92.9314 82.2607 93.0965 82.2516C92.9314 82.2607 92.7663 82.2698 92.6287 82.3062C92.8856 82.6065 93.1149 82.9431 93.2983 83.2615H93.335C93.2892 83.0705 93.335 82.8885 93.6011 82.7065C93.5001 82.7884 93.3809 82.7793 93.3534 82.6792L93.5735 82.6065C93.6928 82.7702 93.8212 82.934 93.5001 83.0887C93.5001 83.0887 93.6011 83.1615 93.6469 83.1979C93.5827 83.2524 93.4451 83.2433 93.3259 83.2524C93.3259 83.2888 93.3442 83.3252 93.3626 83.3616C93.5827 83.2888 93.8671 83.0523 93.8671 83.0523L93.8762 83.0705Z" fill="#603913"/>
<path d="M93.9031 81.1701C93.9031 81.1701 93.9306 81.2247 93.9398 81.2611L94.004 80.9062C93.793 80.9699 93.8481 81.07 93.9123 81.1792L93.9031 81.1701Z" fill="#603913"/>
</g>
<g opacity="0.85">
<path d="M40.6543 82.443C40.6543 82.443 40.6543 82.4521 40.6726 82.4612C40.6543 82.4339 40.6359 82.3884 40.5992 82.3247C40.5717 82.2792 40.6176 82.3702 40.6543 82.443Z" fill="#603913"/>
<path d="M40.6814 82.4742C40.6814 82.465 40.6723 82.4467 40.6631 82.4375C40.6631 82.4467 40.6723 82.465 40.6814 82.465V82.4742Z" fill="#603913"/>
<path d="M40.6357 82.3672C40.6357 82.3672 40.6357 82.3672 40.6357 82.3855C40.6541 82.413 40.6541 82.4131 40.6357 82.3672Z" fill="#603913"/>
<path d="M40.5811 82.2773C40.6086 82.3319 40.6453 82.3956 40.6636 82.4411C40.6636 82.4229 40.6453 82.4047 40.6361 82.3865C40.6269 82.3683 40.5994 82.3228 40.5811 82.2773Z" fill="#603913"/>
<path d="M40.5812 82.2771C40.5537 82.2225 40.5262 82.1679 40.5078 82.1406C40.5353 82.1952 40.5629 82.2407 40.5812 82.2771Z" fill="#603913"/>
<path d="M39.8933 80.8969C39.8933 80.8969 40.0676 81.2426 40.0217 81.1516C39.9667 81.0425 39.8841 80.8605 39.8841 80.8605C39.8382 80.7695 40.0584 81.2062 40.0217 81.1152C39.9667 81.0061 39.7098 80.4784 39.719 80.4966C39.7373 80.5602 39.7924 80.6694 39.8199 80.7422C39.8933 80.906 39.985 81.088 40.0492 81.2335C40.0492 81.2517 40.0492 81.2244 40.0217 81.1971C40.0584 81.2608 40.0859 81.3154 40.1134 81.37C40.1685 81.4792 39.9208 80.9697 39.8841 80.8787L39.8933 80.8969Z" fill="#603913"/>
<path d="M40.5074 82.217L40.4432 82.0805C40.59 82.3626 40.5349 82.2443 40.4799 82.1351C40.4432 82.0714 40.4157 82.0077 40.379 81.944C40.3882 81.9713 40.4432 82.0805 40.4891 82.1624C40.3698 81.9258 40.3423 81.8894 40.3607 81.9349C40.4157 82.0441 40.4799 82.1624 40.5074 82.217Z" fill="#603913"/>
<path d="M40.3798 81.9686C40.3798 81.9686 40.3706 81.9408 40.3613 81.9316C40.3613 81.9223 40.352 81.9131 40.3428 81.8945C40.3428 81.9131 40.3613 81.9316 40.3706 81.9501C40.3706 81.9501 40.3706 81.9501 40.3706 81.9594L40.3798 81.9686Z" fill="#603913"/>
<path d="M40.471 82.0038C40.471 82.0038 40.4893 82.0038 40.5168 82.0311C40.4801 81.9583 40.4343 81.8673 40.4618 81.9128C40.4985 81.9765 40.5168 82.022 40.5352 82.0493C40.5352 82.0493 40.5352 82.0583 40.5535 82.0674C40.5535 82.0583 40.5535 82.0493 40.5352 82.0402C40.5168 81.9947 40.4801 81.9401 40.4526 81.8764C40.4343 81.8309 40.4067 81.7854 40.3792 81.7399C40.3976 81.7763 40.4251 81.8218 40.4526 81.8764C40.4801 81.9219 40.4985 81.9674 40.5076 81.9856C40.4985 81.9583 40.4893 81.9492 40.5076 81.9674C40.526 82.0129 40.526 82.0129 40.5076 81.9856C40.5076 82.0038 40.526 82.022 40.5352 82.0402C40.5352 82.0493 40.5443 82.0674 40.5535 82.0765C40.5627 82.0947 40.581 82.1129 40.5902 82.1311C40.5902 82.122 40.5902 82.1129 40.5719 82.0947C40.5443 82.0402 40.526 81.9856 40.6177 82.1766C40.6177 82.1766 40.6177 82.1766 40.6177 82.1857C40.6177 82.1766 40.6086 82.1675 40.5994 82.1493C40.5994 82.1584 40.6086 82.1766 40.6177 82.1857C40.6269 82.2039 40.6361 82.213 40.6452 82.2312C40.6086 82.1584 40.5627 82.0674 40.5352 82.0038C40.5352 82.0038 40.5994 82.1311 40.6361 82.1948C40.5902 82.0947 40.5535 82.0311 40.5443 81.9947C40.4801 81.8764 40.4159 81.749 40.3792 81.6671C40.2783 81.476 40.5719 82.0583 40.3792 81.6944C40.5627 82.0583 40.2691 81.476 40.3792 81.6671C40.4251 81.749 40.4893 81.8764 40.5443 81.9947C40.5076 81.9219 40.5443 81.9947 40.6452 82.1857C40.7278 82.3495 40.6452 82.1857 40.5443 81.9947C40.5627 82.0311 40.5902 82.0947 40.6361 82.1948C40.5994 82.1311 40.5352 82.0038 40.5352 82.0038C40.5627 82.0583 40.6086 82.1493 40.6452 82.2312C40.6636 82.2585 40.6911 82.2949 40.7095 82.3222C40.8654 82.5588 40.8654 82.5042 40.9846 82.6679C41.058 82.7771 41.1589 82.9318 41.2874 83.1502C41.5442 83.5869 41.3057 83.0501 41.8377 84.0236C42.0212 84.3603 41.9478 84.1692 41.9386 84.1237C41.6268 83.4686 40.7737 81.7945 40.7278 81.7035C39.994 80.275 40.3884 81.0757 39.9481 80.2478C40.2049 80.7209 40.4067 81.1758 39.8931 80.2023C39.1225 78.7192 39.7004 79.9202 39.4894 79.5563C39.4344 79.4653 39.4619 79.529 39.4436 79.5108C39.1592 79.0195 39.4436 79.6655 39.3518 79.5654C39.3518 79.5654 39.517 79.9384 39.6087 80.1386C39.6362 80.2114 39.5353 80.0203 39.5261 80.0203C39.5261 80.0203 39.5812 80.1659 39.6637 80.3387C39.6362 80.2659 39.5903 80.1568 39.5628 80.0931C39.5628 80.0658 39.8105 80.5935 39.8655 80.7118C39.9114 80.8028 39.6912 80.366 39.7279 80.457C39.7279 80.457 39.8105 80.639 39.8655 80.7482C39.9114 80.8392 39.7096 80.4479 39.7279 80.4843C39.7646 80.5753 40.0215 81.0757 39.9573 80.9756C39.9297 80.921 39.8931 80.8574 39.8655 80.8028C39.8564 80.7846 39.8472 80.7664 39.8472 80.7846C39.8655 80.821 39.8747 80.8483 39.8931 80.8846C39.9573 81.0029 40.0306 81.1485 40.104 81.2941C40.0949 81.2759 40.049 81.1849 40.0307 81.1667C40.0398 81.1849 40.0857 81.2759 40.104 81.2941C40.0306 81.1485 39.9573 81.0029 39.8931 80.8846C40.0031 81.1212 40.104 81.3305 40.1774 81.4942C40.1774 81.5033 40.1866 81.5215 40.1958 81.5306C40.1774 81.4851 40.1958 81.5306 40.3242 81.7581C40.2783 81.6762 40.2233 81.567 40.2141 81.5397C40.2508 81.6034 40.2783 81.6671 40.315 81.7308C40.3701 81.84 40.4159 81.9583 40.2783 81.6762C40.2783 81.6762 40.3242 81.7672 40.3425 81.8127C40.315 81.7581 40.2508 81.6398 40.1958 81.5306C40.1958 81.5306 40.1958 81.5488 40.2049 81.567C40.3058 81.7581 40.4343 82.0129 40.4343 82.0129L40.471 82.0038Z" fill="#603913"/>
<path d="M40.5163 81.9968C40.5163 81.9968 40.5255 82.015 40.5347 82.0332C40.5438 82.0514 40.553 82.0696 40.5713 82.0787C40.4704 81.8876 40.498 81.9422 40.5255 81.9968H40.5163Z" fill="#603913"/>
</g>
<g opacity="0.85">
<path d="M19.75 83.5078C19.7316 83.8081 19.7224 84.1174 19.7041 84.4268C19.7408 84.2721 19.7958 84.1265 19.8692 83.9718C19.9243 83.7717 19.8325 83.6625 19.75 83.5169V83.5078Z" fill="#603913"/>
<path d="M19.6582 85.2734C19.6582 85.328 19.6582 85.3826 19.6582 85.4372C19.6674 85.4827 19.6857 85.5373 19.6949 85.5737L19.6674 85.2734H19.6582Z" fill="#603913"/>
<path d="M19.7225 86.8736C19.75 86.5915 19.75 86.3185 19.7225 86.0547C19.6858 86.2821 19.6766 86.5551 19.7225 86.8736Z" fill="#603913"/>
<path d="M19.869 85.6002C19.8048 85.7003 19.7314 85.7458 19.6855 85.582C19.7039 85.7367 19.7131 85.8914 19.7314 86.0551C19.7589 85.8823 19.8048 85.7276 19.869 85.6002Z" fill="#603913"/>
<path d="M19.8691 85.5997C19.9334 85.5088 19.9976 85.3541 20.0343 85.3086C19.97 85.3905 19.915 85.4906 19.8691 85.5997Z" fill="#603913"/>
<path d="M21.4095 86.0492C21.4553 86.213 21.015 86.1584 21.1067 86.4859C21.2076 87.2411 21.3911 87.8871 21.3728 88.5877C21.4645 88.9061 20.96 89.3974 21.0517 89.725C21.1526 90.4802 21.6938 92.409 21.703 91.2808C21.6846 89.5794 21.5929 88.4694 21.547 86.95C21.4003 85.7035 21.226 84.5116 21.0976 83.2378C21.0884 82.8829 21.1251 82.5554 21.171 82.2188C21.0976 82.6555 21.015 83.1013 20.9325 83.5926C20.7949 84.2386 21.3361 85.0393 21.4095 86.0674V86.0492Z" fill="#603913"/>
<path d="M20.1895 76.7521C20.2353 76.9159 20.3271 77.2344 20.3271 77.2344C19.9877 77.9349 20.0977 78.6901 20.1986 79.4453L20.428 79.1177C20.4096 78.6901 20.2904 78.6355 20.1895 79.0177C20.483 78.1533 20.538 77.3344 20.5197 76.4883C20.4004 76.5338 20.2628 76.5247 20.1986 76.7612L20.1895 76.7521Z" fill="#603913"/>
<path d="M20.4844 75.9752C20.4844 76.139 20.5027 76.3119 20.5119 76.4756C20.5211 76.4756 20.5394 76.4665 20.5486 76.4574C20.5302 76.2937 20.5119 76.1208 20.4935 75.957V75.9752H20.4844Z" fill="#603913"/>
<path d="M20.0428 90.2783C20.0153 91.3429 19.9969 92.3801 19.9694 93.39C19.9419 94.4 20.1254 95.4827 20.7583 96.3106C20.9234 96.3834 21.061 96.4016 21.1619 96.5927C21.2078 96.7565 21.2812 96.902 21.3729 97.0385C21.5839 97.2478 21.7949 97.4479 22.015 97.6299C22.0976 97.6845 22.1893 97.7391 22.2719 97.7937C22.4278 97.8574 22.437 97.7755 22.4003 97.6663C22.3452 97.5662 22.2994 97.457 22.2627 97.357C22.281 97.4206 22.3636 97.5571 22.4003 97.6663C22.4737 97.7937 22.5654 97.9211 22.6938 98.0484C22.9231 98.1849 23.1433 98.3396 23.3543 98.5307C23.0699 98.3851 22.8589 98.2213 22.6938 98.0484C22.5471 97.9666 22.4095 97.8847 22.2719 97.8028L22.1343 97.7482C22.648 98.1667 23.1525 98.5761 23.657 98.9856C23.7854 99.0675 23.9047 99.1403 24.0056 99.2039C24.4184 99.4405 24.8311 99.6771 24.932 100.023L25.2072 100.241C25.2072 100.241 25.1889 100.196 25.1797 100.168C25.2164 100.214 25.2348 100.25 25.2623 100.278C25.6475 100.587 26.0236 100.905 26.4089 101.215C26.7116 101.342 27.0418 101.46 27.3446 101.606C27.3446 101.606 27.4363 101.852 27.473 101.979C27.6473 101.979 27.8399 102.034 28.0417 102.143C27.9133 101.879 27.8032 101.615 27.6748 101.406C27.5464 101.033 26.8125 101.306 26.7575 100.742C26.8217 101.306 27.5464 101.033 27.6748 101.406C27.8032 101.615 27.9041 101.879 28.0417 102.143C28.4637 102.361 28.8948 102.789 29.1516 103.253C28.5554 103.034 28.2619 102.579 28.0417 102.143C27.8399 102.034 27.6381 101.979 27.473 101.979C27.4271 101.852 27.3446 101.606 27.3446 101.606C27.0418 101.451 26.7208 101.342 26.4089 101.215C27.1611 101.824 27.9133 102.452 28.6838 103.08C30.4817 104.572 32.2613 105.991 34.0501 107.402C36.2608 109.121 38.4806 110.85 40.7647 112.633C40.939 110.495 41.1225 108.211 41.3151 105.855C41.6729 102.279 42.0765 98.84 42.5443 95.4736C42.7828 93.7995 42.9387 92.1526 43.0763 90.524L43.1222 89.9144L43.1497 89.6051L43.1772 89.1865C43.1956 88.5223 43.1222 87.8491 42.8562 87.2395C42.5902 86.6299 42.1499 86.1203 41.6178 85.7109C41.4894 85.6108 41.3518 85.5108 41.205 85.4198L40.8565 85.2014L40.3244 84.883C37.5175 83.2179 34.738 81.4801 32.032 79.2874C29.9314 77.6406 25.5558 75.3842 23.3268 74.1559C20.0061 73.0913 20.6299 75.6116 20.7124 75.7845C21.7398 78.2138 23.602 78.2593 26.8217 81.189C24.5743 79.2874 29.1975 81.3619 31.0138 83.6638C32.3072 85.3652 34.3436 86.6299 36.5635 87.8127C37.123 88.1038 37.6826 88.395 38.2513 88.6952L38.6641 88.9136L38.7375 88.95H38.7467H38.7742C38.8109 88.9591 38.8567 88.9773 38.8842 89.0137C38.9209 89.041 38.9393 89.0865 38.9485 89.1228C38.9485 89.141 38.9485 89.1683 38.9485 89.1865V89.3958C38.8842 90.0145 38.82 90.6332 38.7283 91.2337C38.5448 92.4438 38.5357 93.7358 38.4164 95.1824C38.0495 97.821 37.8385 100.405 37.7009 102.989C37.4899 106.683 37.6642 105.391 37.6917 105.982C37.6551 105.982 37.5817 105.955 37.4991 105.91C37.4533 105.882 37.4074 105.855 37.3707 105.819C36.9487 105.491 36.5176 105.163 36.0865 104.827C34.3986 103.553 32.6741 102.752 31.1238 101.861C30.0414 101.133 29.0691 100.132 28.2252 99.4951C26.8951 98.4943 25.6659 97.7573 24.455 97.084C25.7209 97.9484 26.6841 98.5216 28.0876 99.5042C29.0141 100.168 27.1152 99.4678 26.4364 99.113C26.1154 98.9947 26.0145 98.3032 25.6934 98.1849C25.1339 97.7664 24.5009 97.5298 23.8221 97.175C23.501 97.0567 23.8038 96.7292 23.6478 96.6746C22.8131 96.1742 21.9325 96.1378 21.694 95.6191C21.5105 95.2643 21.4371 94.9641 21.4188 94.6638C21.3912 94.4636 21.3637 94.2635 21.327 94.0542C21.272 93.9177 21.2261 93.7631 21.1894 93.5902C21.061 93.7267 20.8959 93.7813 20.7308 93.8359C20.7308 93.5902 20.8409 93.2354 20.8684 92.9715C20.8409 93.2354 20.74 93.5902 20.7308 93.8359C20.8959 93.7813 21.0518 93.7267 21.1894 93.5902C21.0518 92.9988 20.9601 92.2345 20.8592 91.5066C20.7767 90.7606 20.6849 90.0145 20.6024 89.2957L20.5657 89.3139C20.5932 90.1601 20.529 90.9789 20.2354 91.8433C20.3455 91.4702 20.4648 91.5157 20.4739 91.9525L20.2446 92.28C20.1437 91.5248 20.0336 90.7697 20.373 90.0691C20.373 90.0691 20.2813 89.7415 20.2354 89.5869C20.2997 89.3503 20.4373 89.3685 20.5565 89.3139C20.5565 89.1501 20.5382 88.9864 20.5382 88.8135C20.3088 89.1592 19.9969 90.2602 19.9969 90.2602L20.0428 90.2783Z" fill="#603913"/>
<path d="M22.7128 98.0699C22.6119 98.0062 22.4927 97.9334 22.3643 97.8516L23.6393 98.8979C23.5384 98.5521 23.1256 98.3156 22.7128 98.079V98.0699Z" fill="#603913"/>
</g>
<g opacity="0.85">
<path d="M42.251 110.989C42.9023 111.071 43.5535 111.099 44.1957 111.071C43.8746 111.053 43.5444 111.008 43.2233 110.926C42.8105 110.853 42.5812 110.944 42.251 110.989Z" fill="#603913"/>
<path d="M45.9482 110.916C46.0583 110.898 46.1776 110.889 46.2785 110.871C46.3794 110.844 46.4711 110.816 46.5537 110.789C46.3519 110.835 46.15 110.88 45.9482 110.916Z" fill="#603913"/>
<path d="M49.1219 110.254C48.5623 110.327 48.0303 110.445 47.5166 110.572C47.9844 110.518 48.5165 110.418 49.1219 110.254Z" fill="#603913"/>
<path d="M46.5717 110.608C46.7827 110.635 46.8927 110.69 46.5717 110.79C46.5717 110.79 46.5717 110.79 46.5625 110.79C46.8836 110.717 47.1954 110.644 47.5165 110.562C47.1679 110.599 46.8469 110.608 46.5717 110.599V110.608Z" fill="#603913"/>
<path d="M46.572 110.611C46.3702 110.574 46.0583 110.565 45.9482 110.547C46.1317 110.584 46.3427 110.602 46.572 110.611Z" fill="#603913"/>
<path d="M47.1038 108.952C47.4065 108.842 47.4157 109.288 48.0211 109.07C49.4796 108.679 50.718 108.251 52.1123 108.005C52.736 107.805 53.8185 108.124 54.4331 107.933C55.9007 107.55 59.6525 106.468 57.4051 106.795C54.0203 107.341 51.8279 107.832 48.81 108.469C46.3975 109.088 44.1684 109.843 41.8476 109.57C41.3248 109.488 40.8661 109.288 40.4717 109.033C40.7194 109.215 40.9945 109.37 41.3156 109.498C41.4715 109.561 41.6367 109.625 41.8201 109.67C42.0127 109.734 42.2421 109.78 42.4714 109.825C43.7098 110.08 45.1866 109.407 47.1038 108.943V108.952Z" fill="#603913"/>
<path d="M39.4718 99.0069C39.5085 99.3253 39.5819 99.9622 39.5819 99.9622C39.2058 101.363 39.27 102.865 39.3342 104.357C39.4168 104.138 39.4993 103.92 39.5819 103.702C39.591 102.846 39.4718 102.746 39.3434 103.501C39.6828 101.782 39.7929 100.144 39.8112 98.4609C39.6919 98.561 39.5544 98.5337 39.4718 99.0069Z" fill="#603913"/>
<path d="M39.8105 97.4791C39.8105 97.8066 39.8105 98.1433 39.8105 98.4617C39.8197 98.4617 39.8381 98.4435 39.8472 98.4253C39.8472 98.0978 39.8289 97.7611 39.8197 97.4336V97.47L39.8105 97.4791Z" fill="#603913"/>
<path d="M55.7541 108.715C59.9737 108.069 63.964 107.605 67.8717 107.241C68.1652 107.123 68.367 107.004 68.7706 107.014C69.0825 107.059 69.3944 107.077 69.7063 107.077C70.275 107.032 70.8438 106.977 71.4125 106.932C71.6051 106.904 71.8069 106.868 72.0087 106.841C72.0087 106.841 72.0179 106.841 72.0271 106.841C72.339 106.759 72.2381 106.704 72.0362 106.659C71.8069 106.631 71.6051 106.604 71.4217 106.559C71.5317 106.586 71.8344 106.613 72.0362 106.659C72.3114 106.686 72.6142 106.704 72.9627 106.695C73.4764 106.622 74.0268 106.55 74.5864 106.522C73.9626 106.631 73.4306 106.686 72.9627 106.695C72.6325 106.75 72.3206 106.795 72.0087 106.841C71.917 106.859 71.8253 106.886 71.7335 106.904C73.0361 106.804 74.3387 106.704 75.6321 106.604C75.9256 106.568 76.21 106.522 76.4485 106.495C77.3841 106.349 78.3106 106.213 78.916 106.368C79.1454 106.349 79.3839 106.331 79.6132 106.322L79.4756 106.295C79.5765 106.295 79.6682 106.304 79.7416 106.313C80.7231 106.249 81.7046 106.176 82.6953 106.104C83.3283 105.967 83.9704 105.803 84.6217 105.685C84.6217 105.685 85.0803 105.794 85.3005 105.84C85.5573 105.703 85.9334 105.603 86.3737 105.521C85.8325 105.44 85.3372 105.339 84.8785 105.294C84.1997 105.139 83.4383 105.867 82.6219 105.521C83.4383 105.858 84.1997 105.139 84.8785 105.294C85.3372 105.339 85.8325 105.44 86.3737 105.521C87.3002 105.358 88.511 105.33 89.5017 105.44C88.3184 105.74 87.2819 105.658 86.3737 105.521C85.9334 105.594 85.5573 105.703 85.3005 105.84C85.0711 105.785 84.6217 105.685 84.6217 105.685C83.9704 105.803 83.3191 105.967 82.6953 106.104C84.6217 105.967 86.5755 105.831 88.5661 105.685C94.978 105.221 101.133 104.602 107.316 103.693C108.875 103.474 110.389 103.201 111.985 102.947C112.48 102.865 112.985 102.765 113.434 102.537C113.884 102.319 114.251 101.937 114.462 101.482C114.682 101.036 114.792 100.526 114.874 100.026L115.085 98.8613C115.663 95.7587 116.25 92.6016 116.856 89.3534C117.186 87.6065 117.571 85.8323 117.681 83.958C117.7 83.494 117.718 83.0209 117.7 82.5387C117.681 81.9291 117.599 81.3195 117.48 80.7281C117.342 80.1458 117.186 79.5726 117.003 78.9994L116.865 78.5626C116.727 78.5535 116.581 78.5626 116.434 78.5626L115.553 78.5808C111.866 78.8538 108.224 79.1176 104.619 79.3815C91.0795 80.3095 78.8335 82.1929 65.0739 82.5569C59.8086 82.7661 50.1402 84.0854 45.1042 84.7041C38.4446 86.1963 42.1505 87.6611 42.4807 87.7248C46.8104 88.8348 49.9567 87.5883 58.5152 87.5519C52.6995 87.6884 62.6431 86.0325 68.2019 86.5329C76.2558 87.3518 87.3185 84.8406 97.0603 84.231C99.5004 84.0763 102.069 83.7306 104.967 83.4576C106.857 83.3302 108.719 83.1847 110.572 83.0209C111.499 82.939 112.425 82.848 113.342 82.7661L113.691 82.7297C113.774 82.7297 113.719 82.7297 113.746 82.7297H113.774C113.774 82.7297 113.783 82.7297 113.792 82.7388C113.792 82.7388 113.792 82.7479 113.792 82.757L113.81 83.0391C113.81 83.2211 113.819 83.403 113.81 83.5941C113.81 83.9671 113.783 84.3584 113.755 84.7587C113.618 86.3418 113.269 88.1615 112.985 89.9721C112.48 93.1384 111.967 96.3229 111.444 99.5619C111.425 99.5983 111.389 99.6165 111.352 99.6347H111.324L111.214 99.662L110.517 99.7894C109.591 99.9531 108.655 100.117 107.71 100.29C105.821 100.572 103.913 100.881 101.95 101.109C97.8217 101.673 94.2075 102.455 90.7034 103.019C88.1441 103.347 85.3647 103.383 83.2641 103.574C79.9618 103.875 77.1365 104.275 74.4212 104.721C77.4575 104.357 79.6774 104.047 83.0623 103.684C85.3188 103.456 81.5395 104.384 80.0535 104.639C79.4206 104.794 78.3656 104.402 77.7327 104.557C76.3384 104.684 75.0725 104.994 73.5865 105.258C72.9536 105.412 72.9902 104.975 72.6692 105.048C70.6328 105.339 69.1192 106.058 67.7983 106.076C66.7984 106.113 65.8995 106.149 65.0189 106.176C64.4685 106.213 63.9181 106.249 63.331 106.34C62.9733 106.422 62.6064 106.504 62.2303 106.586C59.5701 107.159 56.5155 107.814 53.6902 108.469L53.736 108.506C55.3963 108.187 57.0475 107.987 58.8179 108.014C58.0565 108.023 58.1299 107.887 58.983 107.741C59.2123 107.787 59.4417 107.823 59.671 107.869C58.1941 108.205 56.7264 108.515 55.2679 108.433C55.2679 108.433 54.6442 108.633 54.3414 108.733C53.8644 108.751 53.8553 108.606 53.7452 108.506C53.4241 108.569 53.0939 108.633 52.7637 108.697C53.4975 108.797 55.7357 108.724 55.7357 108.724L55.7541 108.715Z" fill="#603913"/>
<path d="M73.0084 106.695C72.7791 106.722 72.5039 106.768 72.2012 106.804C73.2928 106.722 74.3844 106.64 75.4759 106.558C74.8797 106.404 73.9441 106.549 73.0084 106.695Z" fill="#603913"/>
</g>
<g opacity="0.85">
<path d="M113.719 79.3749L113.581 79.293C113.581 79.293 113.599 79.384 113.599 79.4658C113.609 79.5295 113.664 79.4385 113.719 79.3749Z" fill="#603913"/>
<path d="M113.462 79.2177L113.435 79.1992L113.397 79.227C113.397 79.227 113.444 79.2177 113.462 79.2177Z" fill="#603913"/>
<path d="M113.168 79.22C113.168 79.22 113.251 79.2658 113.306 79.2567C113.278 79.2108 113.241 79.1924 113.168 79.22Z" fill="#603913"/>
<path d="M113.324 79.4021C113.334 79.3384 113.352 79.2656 113.398 79.2383C113.398 79.2383 113.334 79.2565 113.297 79.2656C113.315 79.302 113.324 79.3475 113.324 79.4112V79.4021Z" fill="#603913"/>
<path d="M113.324 79.4023C113.324 79.466 113.314 79.5297 113.314 79.5661C113.314 79.5115 113.324 79.4478 113.324 79.4023Z" fill="#603913"/>
<path d="M112.664 80.8032C112.664 80.8032 112.792 80.4393 112.701 80.503C112.526 80.5666 112.343 80.7031 112.233 80.6485C112.141 80.7122 112.251 80.2391 112.159 80.3028C111.985 80.3665 111.435 80.7577 111.627 80.8123C111.939 80.876 112.168 80.8487 112.444 80.8851C112.719 80.8032 112.994 80.694 113.26 80.6303C113.324 80.6303 113.37 80.6849 113.407 80.7395C113.361 80.6485 113.315 80.5575 113.26 80.4666C113.196 80.3119 112.856 80.7759 112.645 80.8032H112.664Z" fill="#603913"/>
<path d="M114.709 80.0396L114.58 80.1488C114.58 79.8121 114.415 79.8849 114.25 79.9486L114.223 80.1761C114.305 80.1761 114.351 80.0669 114.324 79.9577C114.369 80.258 114.489 80.349 114.645 80.358C114.681 80.2398 114.727 80.1124 114.709 80.0487V80.0396Z" fill="#603913"/>
<path d="M114.737 80.3477C114.737 80.3477 114.672 80.3477 114.645 80.3477V80.3847L114.737 80.3569V80.3477Z" fill="#603913"/>
<path d="M112.471 79.3563C112.122 79.2289 111.82 79.0651 111.535 78.8832C111.471 78.9469 111.416 79.0287 111.407 78.965C111.416 78.8832 111.407 78.8286 111.407 78.7922L111.288 78.7103C111.288 78.7103 111.251 78.7103 111.223 78.7103C111.178 78.7467 111.15 78.8104 111.141 78.8741C111.141 78.9196 111.132 78.9832 111.113 79.0378C111.113 79.0014 111.132 78.9378 111.141 78.8741C111.141 78.8104 111.141 78.7649 111.123 78.7285C111.068 78.7285 111.022 78.7285 110.994 78.683C111.068 78.6648 111.104 78.683 111.123 78.7285C111.15 78.7285 111.187 78.7194 111.223 78.7103L111.26 78.683C111.168 78.6193 111.077 78.5465 110.985 78.4828C110.957 78.4828 110.93 78.4828 110.902 78.4828C110.801 78.501 110.701 78.5101 110.756 78.3009L110.71 78.2645C110.71 78.2645 110.71 78.2918 110.71 78.3009V78.2554L110.508 78.0916C110.425 78.1371 110.324 78.2099 110.242 78.2372C110.242 78.2372 110.279 78.0916 110.297 78.0188C110.224 78.1007 110.159 78.1553 110.114 78.1644C110.095 78.3009 110.058 78.4464 110.049 78.5465C110.049 78.4464 110.086 78.3009 110.114 78.1644C110.003 78.1917 109.948 78.0734 109.985 77.8459C110.169 77.7368 110.15 77.9278 110.114 78.1644C110.169 78.1462 110.224 78.1007 110.297 78.0188C110.279 78.0916 110.242 78.2372 110.242 78.2372C110.324 78.2099 110.416 78.1462 110.508 78.0916C110.38 77.9824 110.251 77.8732 110.123 77.755C109.297 76.9998 108.417 76.5267 107.6 75.7351C107.169 75.2984 106.802 74.8161 106.509 74.2702C105.94 73.2057 104.756 73.0147 104.683 71.4497C104.637 70.8856 103.931 70.5126 103.619 70.2578C102.711 70.3852 101.555 71.8864 101.509 71.9865C100.629 73.3604 101.454 72.951 101.353 74.1429C101.353 73.4059 102.326 73.6515 101.959 74.7798C101.381 76.5176 103.069 76.1809 103.5 77.0453C103.61 77.2727 103.848 77.3455 104.05 77.5366C104.848 78.8286 106.343 78.9741 107.527 79.8112C107.866 80.0023 108.361 79.8203 108.756 79.7748C109.004 79.8203 109.114 80.1297 109.288 80.2206C109.563 80.3571 109.866 80.3389 110.169 80.2752C109.884 80.2206 109.655 80.2388 109.343 80.157C109.15 80.0842 109.737 79.7293 109.912 79.6747C110.003 79.611 109.866 80.0842 109.967 80.0296C110.077 80.0842 110.269 79.9659 110.444 79.9113C110.535 79.8476 110.334 80.2388 110.389 80.2115C110.6 80.2024 110.976 79.7566 111.022 79.9113C111.077 80.0114 111.113 80.1024 111.159 80.1933C111.196 80.2388 111.233 80.2752 111.288 80.2843L111.425 80.2297C111.462 80.0933 111.517 79.9477 111.581 79.793C111.618 79.8385 111.636 79.9568 111.664 79.9932C111.627 79.9568 111.609 79.8385 111.581 79.793C111.517 79.9477 111.462 80.1024 111.425 80.2297C111.755 80.0933 112.095 79.9932 112.407 79.9204V79.884C112.269 79.8658 112.15 79.7748 112.122 79.4655C112.141 79.5837 112.086 79.6838 112.003 79.6838L112.04 79.4655C112.214 79.4109 112.379 79.3472 112.361 79.6838C112.361 79.6838 112.453 79.6201 112.499 79.5837C112.508 79.6565 112.453 79.7839 112.416 79.8931C112.443 79.8931 112.48 79.8931 112.508 79.8931C112.535 79.6656 112.48 79.3381 112.48 79.3381L112.471 79.3563Z" fill="#603913"/>
<path d="M111.123 78.721C111.123 78.721 111.178 78.721 111.206 78.721L110.977 78.5391C110.921 78.7483 111.022 78.7392 111.123 78.721Z" fill="#603913"/>
</g>
<g opacity="0.85">
<path d="M50.4334 56.2109H50.2041C50.2041 56.2109 50.2867 56.2837 50.3325 56.3565C50.3876 56.402 50.4059 56.3019 50.4334 56.2109Z" fill="#603913"/>
<path d="M49.9936 56.2227H49.9565L49.9287 56.269C49.9565 56.2504 49.975 56.2412 50.0028 56.2227H49.9936Z" fill="#603913"/>
<path d="M49.6172 56.3681C49.6906 56.3865 49.7548 56.3681 49.819 56.3314C49.7548 56.3039 49.6906 56.3131 49.6172 56.3681Z" fill="#603913"/>
<path d="M49.938 56.4398C49.9105 56.3761 49.8921 56.3124 49.9196 56.2578C49.9196 56.2578 49.8463 56.3033 49.8096 56.3306C49.8554 56.3488 49.9013 56.3943 49.938 56.4398Z" fill="#603913"/>
<path d="M49.9375 56.4414C49.9742 56.496 50.0109 56.5597 50.0292 56.587C50.0017 56.5324 49.9742 56.4778 49.9375 56.4414Z" fill="#603913"/>
<path d="M50.0023 57.9898C49.9656 58.0444 49.9289 57.6076 49.8647 57.7168C49.6904 57.8624 49.562 58.0717 49.3877 58.0899C49.3235 58.199 49.14 57.7259 49.0758 57.8351C48.9015 57.9807 48.4979 58.6085 48.7731 58.5539C49.1859 58.4447 49.4427 58.2991 49.8096 58.1809C50.094 57.9716 50.3692 57.735 50.6627 57.544C50.7453 57.5167 50.837 57.544 50.9196 57.5622C50.8095 57.5076 50.6903 57.453 50.5618 57.3984C50.3875 57.2983 50.2591 57.8715 50.0114 57.9989L50.0023 57.9898Z" fill="#603913"/>
<path d="M52.1308 56.3021C52.0941 56.3567 52.0299 56.4568 52.0299 56.4568C51.8189 56.1657 51.6538 56.3021 51.4795 56.4477L51.5804 56.657C51.6813 56.6206 51.6813 56.5023 51.5804 56.4113C51.8189 56.657 52.0299 56.6752 52.2317 56.6024C52.2042 56.4841 52.195 56.3476 52.1308 56.293V56.3021Z" fill="#603913"/>
<path d="M52.3507 56.5547C52.3507 56.5547 52.2681 56.5914 52.2314 56.6006V56.6372L52.3507 56.5639V56.5547Z" fill="#603913"/>
<path d="M48.8282 56.8566C48.3053 56.9294 47.8099 56.9567 47.3329 56.9658C47.3054 57.0568 47.2871 57.1568 47.232 57.1113C47.1862 57.0386 47.1403 56.9931 47.1036 56.9658H46.8926C46.8926 56.9658 46.8468 56.9931 46.8193 57.0113C46.7826 57.0659 46.8009 57.1295 46.8376 57.1932C46.8651 57.2387 46.9018 57.2842 46.9293 57.3388C46.911 57.3024 46.8743 57.2478 46.8376 57.1932C46.8009 57.1386 46.755 57.1022 46.7092 57.0841C46.645 57.1204 46.5808 57.1386 46.5074 57.1204C46.5808 57.0659 46.645 57.0568 46.7092 57.0841C46.7459 57.0568 46.7826 57.0386 46.8193 57.0113L46.8468 56.9658H46.3606C46.3606 56.9658 46.2872 56.984 46.2597 57.0022C46.1496 57.075 46.0395 57.1386 45.9478 56.9385H45.8653C45.8653 56.9385 45.8744 56.9567 45.8836 56.9749C45.8653 56.9658 45.8561 56.9476 45.8469 56.9385L45.48 56.9203C45.4066 57.0113 45.3424 57.1204 45.269 57.1932C45.269 57.1932 45.1956 57.0568 45.1681 56.984C45.1498 57.0931 45.1039 57.175 45.058 57.2114C44.948 57.3024 44.792 57.2387 44.6544 57.0386C44.7828 56.8384 44.9296 57.0022 45.058 57.2114C45.1131 57.1659 45.1498 57.0931 45.1681 56.984C45.2048 57.0568 45.269 57.1932 45.269 57.1932C45.3424 57.1204 45.4158 57.0113 45.48 56.9203C45.2415 56.9112 44.9938 56.893 44.7461 56.8839C43.15 56.7747 41.7007 56.9749 40.0495 56.9385C39.1506 56.9021 38.2791 56.8111 37.4077 56.6473C35.6557 56.338 34.2155 57.1204 32.2433 56.3926C31.4819 56.1469 30.2436 56.6655 29.5923 56.9112C28.9226 57.8756 29.9684 59.5133 30.0234 59.6134C30.9774 60.9964 31.0967 60.032 32.2983 60.7143C31.5003 60.3504 32.5735 59.5861 33.4266 60.5415C34.6283 61.9972 35.6923 60.4869 36.9215 60.7689C37.2242 60.8417 37.527 60.7234 37.8755 60.7234C39.7468 61.0874 41.4072 60.2048 43.3702 60.132C43.8839 60.0683 44.2967 59.6225 44.7095 59.3587C45.0213 59.2495 45.3791 59.4315 45.6359 59.4042C46.0395 59.3587 46.3698 59.1676 46.6908 58.9401C46.3239 59.0584 46.0671 59.204 45.6543 59.3132C45.3791 59.3678 45.7919 58.74 45.957 58.5944C46.0212 58.4852 46.2047 58.9583 46.2689 58.8492C46.4432 58.831 46.5808 58.6217 46.7459 58.4761C46.8101 58.3669 46.8559 58.8037 46.8835 58.7582C47.122 58.6308 47.2596 58.0576 47.4338 58.1577C47.5623 58.2123 47.6815 58.2669 47.7916 58.3214C47.865 58.3396 47.9292 58.3487 48.0026 58.3214L48.131 58.1941C48.076 58.0667 48.0484 57.9029 48.0209 57.7391C48.0484 57.9029 48.0851 58.0667 48.131 58.1941C48.4337 57.9029 48.7915 57.6391 49.1217 57.4116V57.3752C48.9107 57.4389 48.7089 57.4207 48.4612 57.1841C48.5621 57.266 48.5621 57.3934 48.4612 57.4298L48.3603 57.2205C48.5346 57.0749 48.6997 56.9385 48.9107 57.2296C48.9107 57.2296 48.9749 57.1204 49.0116 57.0749C49.0758 57.1295 49.085 57.266 49.1125 57.3843C49.1492 57.3752 49.1951 57.357 49.2318 57.3388C49.1217 57.1295 48.819 56.8839 48.819 56.8839L48.8282 56.8566Z" fill="#603913"/>
<path d="M46.7 57.0676C46.7 57.0676 46.7642 57.0403 46.7917 57.0221L46.3789 57.0039C46.4706 57.2041 46.5807 57.1404 46.6908 57.0676H46.7Z" fill="#603913"/>
</g>
<g opacity="0.85">
<path d="M95.3713 34.6792L95.3071 34.4062C95.2887 34.4608 95.2612 34.5154 95.197 34.5882C95.1695 34.661 95.2704 34.661 95.3713 34.6792Z" fill="#603913"/>
<path d="M95.2523 34.1483V34.102L95.1875 34.0742C95.206 34.102 95.2338 34.1298 95.2523 34.1483Z" fill="#603913"/>
<path d="M94.9951 33.7266C94.9951 33.8175 95.041 33.8903 95.0868 33.954C95.096 33.8812 95.0777 33.7994 94.9951 33.7266Z" fill="#603913"/>
<path d="M95.0127 34.1221C95.0677 34.0766 95.1228 34.0402 95.187 34.0675C95.187 34.0675 95.1136 33.9856 95.0861 33.9492C95.0861 34.0038 95.0494 34.0675 95.0127 34.1221Z" fill="#603913"/>
<path d="M95.0132 34.1211C94.9581 34.1666 94.9215 34.2303 94.8848 34.2576C94.9306 34.2121 94.9765 34.1666 95.0132 34.1211Z" fill="#603913"/>
<path d="M93.4902 34.4642C93.426 34.4278 93.8479 34.3096 93.7287 34.2459C93.5452 34.0639 93.2975 33.9365 93.2333 33.7364C93.1141 33.6727 93.5269 33.3815 93.4076 33.3178C93.2241 33.1359 92.4811 32.7628 92.6096 33.0813C92.8297 33.5544 93.0407 33.8364 93.2608 34.255C93.5452 34.5552 93.8571 34.8373 94.1231 35.1557C94.1781 35.2558 94.1781 35.3559 94.1781 35.4651C94.2057 35.3195 94.224 35.1739 94.2424 35.0101C94.2974 34.7827 93.6828 34.7281 93.4993 34.4642H93.4902Z" fill="#603913"/>
<path d="M95.7375 36.707C95.6733 36.6797 95.5541 36.616 95.5541 36.616C95.7926 36.3158 95.5999 36.1338 95.4165 35.9609L95.2422 36.1247C95.3064 36.243 95.4257 36.2157 95.4807 36.0792C95.3064 36.4068 95.3431 36.6615 95.4623 36.889C95.5724 36.8344 95.7008 36.798 95.7375 36.7161V36.707Z" fill="#603913"/>
<path d="M95.545 37.0154C95.5175 36.9699 95.49 36.9244 95.4625 36.8789L95.4258 36.8971L95.5359 37.0245L95.545 37.0154Z" fill="#603913"/>
<path d="M94.2976 32.8582C94.0867 32.2486 93.9215 31.6663 93.7839 31.084C93.6922 31.0658 93.5821 31.0658 93.6097 30.993C93.6647 30.9293 93.7014 30.8657 93.7197 30.8111L93.6647 30.5563L93.6005 30.4835C93.5363 30.4471 93.4812 30.4835 93.4262 30.529C93.3895 30.5745 93.3528 30.62 93.2978 30.6655C93.3253 30.6382 93.3712 30.5745 93.4262 30.529C93.4629 30.4744 93.4996 30.4198 93.4996 30.3561C93.4537 30.2925 93.4078 30.2197 93.4078 30.1287C93.4904 30.2015 93.5088 30.2834 93.4996 30.3561L93.6005 30.4744L93.6555 30.5017L93.5363 29.9194C93.5363 29.9194 93.4904 29.8375 93.4629 29.8102C93.362 29.692 93.2611 29.5737 93.4445 29.4281L93.4262 29.328L93.3987 29.3553C93.3987 29.3553 93.417 29.3189 93.4262 29.3007L93.3436 28.8549C93.2336 28.7912 93.1051 28.7275 93.0134 28.6456C93.0134 28.6456 93.1327 28.5365 93.1969 28.4819C93.0776 28.4819 92.9951 28.4455 92.94 28.3909C92.8391 28.5092 92.7199 28.6183 92.6557 28.7093C92.7199 28.6183 92.8391 28.5001 92.94 28.3909C92.8208 28.2817 92.8391 28.0815 93.0042 27.8814C93.2336 27.9996 93.1143 28.1998 92.94 28.3909C92.9951 28.4455 93.0868 28.4819 93.1969 28.4819C93.1327 28.5365 93.0134 28.6456 93.0134 28.6456C93.1051 28.7184 93.2336 28.7821 93.3436 28.8549C93.2886 28.5637 93.2336 28.2726 93.1785 27.9723C92.8575 26.0435 92.2612 24.3512 91.8484 22.3768C91.6375 21.3032 91.4999 20.2477 91.4356 19.1923C91.3164 17.127 90.2065 15.4983 90.9495 13.4148C91.1971 12.6414 90.8302 11.4222 90.7752 10.7671C90.0322 9.91189 88.1425 10.3395 88.0416 10.4214C86.4455 11.1038 87.3445 11.5951 86.5831 13.0418C87.0051 12.0682 87.6747 13.5513 86.7849 14.5976C86.0786 15.3892 86.1887 16.1807 86.4639 16.945C86.739 17.7093 87.1885 18.4372 87.2069 19.2196C87.2069 19.6109 87.4087 19.9748 87.5096 20.4024C87.6655 22.7589 88.9864 24.5604 89.5919 26.8896C89.7937 27.4992 90.3532 27.9087 90.7293 28.3454C90.922 28.7002 90.8394 29.1551 90.9403 29.4645C91.0962 29.9376 91.3714 30.3016 91.6833 30.6382C91.4632 30.2197 91.2522 29.9376 91.032 29.4645C90.9036 29.146 91.6466 29.5191 91.8301 29.7011C91.9493 29.7647 91.5365 30.0559 91.6558 30.1196C91.72 30.3198 91.9677 30.4471 92.1511 30.6291C92.2704 30.6928 91.8484 30.8111 91.9126 30.8475C92.1053 31.1113 92.7107 31.1659 92.6557 31.3934C92.6373 31.5571 92.619 31.7027 92.5914 31.8483C92.5914 31.9393 92.5914 32.0212 92.6465 32.1031L92.8024 32.2304C93.1693 32.5398 93.5363 32.9219 93.8482 33.2768L93.8848 33.2586C93.7656 33.0311 93.7289 32.7763 93.9032 32.4488C93.8482 32.5853 93.7289 32.6126 93.6555 32.4943L93.839 32.3305C94.0224 32.5125 94.2151 32.6854 93.9766 32.9856C93.9766 32.9856 94.0958 33.0493 94.16 33.0766C94.1233 33.1676 93.9949 33.204 93.8848 33.2495C93.9032 33.2949 93.9307 33.3404 93.9674 33.3859C94.1417 33.2222 94.3068 32.8127 94.3068 32.8127L94.2976 32.8582Z" fill="#603913"/>
<path d="M93.5091 30.3587C93.5091 30.3587 93.555 30.4224 93.5825 30.4679L93.4908 29.9766C93.3165 30.1221 93.4174 30.2404 93.5091 30.3587Z" fill="#603913"/>
</g>
</svg>
