<svg width="36" height="28" viewBox="0 0 36 28" fill="none" xmlns="http://www.w3.org/2000/svg">
<path fill-rule="evenodd" clip-rule="evenodd" d="M0.418885 0.233847C0.119506 0.405993 -0.0604438 0.847742 0.0186373 1.21551C0.127172 1.71879 0.57503 1.91085 1.82782 1.99159C3.26782 2.08442 3.52403 2.22847 3.72456 3.05862C3.85206 3.58644 4.60777 6.73736 5.40382 10.0604L6.85149 16.1026L6.18979 18.724C5.79479 20.29 5.67536 21.4747 5.89405 21.6675C6.10184 21.8507 12.0688 21.9492 19.7502 21.8959L33.2408 21.802L33.3699 21.0017L33.2867 20.2735L24.09 20.1648C18.915 20.1445 13.2603 20.1587 11.5237 20.1964L8.36654 20.2651L8.49767 19.255L8.6288 18.2452L19.7639 18.0674C28.4088 17.9294 31.0495 17.7796 31.5696 17.3984C31.9384 17.1284 33.1557 14.3726 34.2745 11.2743C35.9094 6.74767 36.2229 5.49961 35.8702 4.91879C35.4418 4.21278 35.0948 4.19606 20.9078 4.19606C9.64112 4.19606 6.34957 4.09647 6.22893 3.75147C6.14339 3.50712 5.8311 2.58664 5.53536 1.70634C4.99793 0.106515 4.99672 0.105804 2.98015 0.0133286C1.87059 -0.0375329 0.71786 0.0617003 0.418885 0.233847ZM7.44702 24.6726C6.5969 25.4224 6.64532 26.7153 7.55112 27.4376C8.51906 28.2098 9.75329 28.1845 10.5836 27.3757C11.926 26.0686 10.9964 24.1138 9.03228 24.1138C8.50937 24.1138 7.79603 24.3653 7.44702 24.6726ZM27.8746 24.5407C27.0531 25.2648 27.279 27.2374 28.2349 27.6884C30.3543 28.6882 32.5585 26.7494 31.2714 25.0176C30.5407 24.0345 28.736 23.7813 27.8746 24.5407Z" fill="white"/>
</svg>
