<?xml version="1.0" encoding="UTF-8"?>
<svg id="Layer_1" data-name="Layer 1" xmlns="http://www.w3.org/2000/svg" viewBox="0 0 138.22 123.02">
  <defs>
    <style>
      .cls-1 {
        opacity: .85;
      }

      .cls-2 {
        fill: #4d2b10;
        stroke-width: 0px;
      }
    </style>
  </defs>
  <g class="cls-1">
    <g>
      <path class="cls-2" d="m81.06,55.31c.45-.05.9-.11,1.35-.16-.23,0-.46-.02-.7-.07-.3-.02-.44.11-.65.23Z"/>
      <path class="cls-2" d="m83.66,54.98c.08-.01.16-.02.24-.03.07-.03.14-.05.2-.08l-.44.11Z"/>
      <path class="cls-2" d="m85.97,54.45c-.42.05-.81.14-1.18.24.34-.02.73-.1,1.18-.24Z"/>
      <path class="cls-2" d="m84.1,54.67c.15.05.24.11.01.2h0c.23-.06.46-.12.69-.18-.26.02-.49,0-.69-.02Z"/>
      <path class="cls-2" d="m84.1,54.67c-.15-.04-.38-.07-.46-.1.14.04.29.08.46.1Z"/>
      <path class="cls-2" d="m84.39,52.89c.22-.09.25.39.69.2,1.05-.33,1.91-.73,2.89-.95.42-.2,1.25.14,1.67-.08,1.04-.38,3.35-1.88,1.87-1.34-2.23.79-3.75,1.25-5.9,1.76-1.72.52-3.39,1.02-5.2,1.43-.51.08-.99.11-1.48.12.64,0,1.29,0,2.02-.02.96,0,2.01-.77,3.44-1.13Z"/>
      <path class="cls-2" d="m71.07,55.72c.23-.06.7-.17.7-.17,1.06.32,2.16.15,3.26-.05l-.5-.21c-.63.06-.7.2-.13.27-1.3-.23-2.5-.24-3.74-.18.08.13.06.28.41.34Z"/>
      <path class="cls-2" d="m69.93,55.42c.24-.01.49-.03.73-.04,0-.01-.02-.03-.03-.04-.24.02-.49.05-.73.07h.03Z"/>
      <path class="cls-2" d="m90.76,52.89c3-.88,5.77-2.08,8.06-3.89.12-.21.16-.39.42-.55.23-.08.43-.2.62-.33.32-.29.62-.59.91-.89.09-.12.18-.24.27-.36h0c.12-.23.01-.22-.14-.16-.15.09-.29.16-.42.21.08-.03.28-.15.42-.21.18-.11.35-.25.54-.43.22-.32.46-.64.73-.96-.23.4-.48.71-.73.96-.14.2-.28.39-.41.58-.04.06-.07.12-.11.18.66-.71,1.28-1.45,1.86-2.22.12-.19.23-.37.31-.52.34-.61.65-1.23,1.08-1.47.09-.14.19-.29.28-.43l-.09.06c.05-.05.1-.1.14-.14.39-.61.77-1.23,1.14-1.86.15-.46.28-.94.45-1.4,0,0,.29-.22.44-.32-.02-.23.04-.52.15-.83-.31.28-.61.53-.84.78-.44.31-.09,1.18-.76,1.47.67-.29.32-1.16.76-1.47.24-.25.54-.49.84-.78.24-.65.68-1.41,1.2-1.97-.2.89-.69,1.5-1.2,1.97-.11.31-.17.6-.15.83-.15.11-.44.32-.44.32-.17.46-.3.94-.45,1.4.72-1.23,1.43-2.48,2.09-3.81,2.14-4.23,3.69-8.65,4.1-13.35.1-1.17.12-2.36.04-3.55-.04-.6-.07-1.2-.19-1.79l-.14-.9c-.04-.29-.18-.7-.26-1.05-.19-.73-.38-1.47-.65-2.19l-.38-1.1s-.02-.11-.06-.12l-.14.04-.27.09-.55.17c-.74.23-1.49.47-2.24.7-.61.16-1.23.32-1.86.48-5.04,1.09-10.1,1.23-15.15,1.81-2.52.3-5.03.8-7.45,1.65-2.41.85-4.78,2.02-6.83,3.69-2.09,1.62-3.84,3.65-5.27,5.87-1.44,2.23-2.59,4.66-3.55,7.26-.73,2.01-1.21,5-1.25,7.93-.06,2.93.25,5.77.48,7.68,1.42,4.99,3.15,2.03,3.22,1.82.67-1.63.71-2.98.69-4.7-.01-1.71-.12-3.86.61-6.79-.41,2-.68,1.25-.6-.51.08-1.75.74-4.47,1.92-6.05,1.68-2.27,3.12-4.98,5.22-7.33,2.09-2.28,4.97-4.23,8.21-4.92,1.58-.39,3.31-.83,5.33-1.17,5.29-.59,10.75-.95,16.37-2.59l.5-.15s-.02,0,0,0l.04-.03s.08-.08.09-.04c.02.02.05.05.07.1l.02.04s0,0,.01.03l.04.22.16.88c.42,2.36.25,4.92-.28,7.51-.54,2.75-1,5.3-1.75,7.7-.64,1.71-1.73,3.36-2.45,4.67-1.12,2.08-2.01,3.86-2.95,5.48,1.17-1.73,1.86-3.14,2.97-5.3.74-1.44.02,1.29-.43,2.28-.14.46-.97.78-1.12,1.22-.53.82-.85,1.68-1.39,2.58-.2.41-.53.07-.63.27-.8,1.12-1.16,2.31-1.95,2.79-.57.38-1.11.66-1.65.93-.33.18-.66.35-1,.56-.19.16-.41.31-.62.46.25.04.4.16.54.29-.35.16-.88.29-1.24.42.36-.13.89-.27,1.24-.42-.15-.13-.3-.25-.54-.29-1.53,1.09-3.58,2.05-5.56,2.75l.04.03c1.18-.35,2.32-.64,3.62-.8-.56.09-.53-.06.04-.3l.53.05c-.97.53-1.99,1-3.08.95,0,0-.43.23-.64.34-.35.02-.38-.13-.48-.23-.23.07-.46.14-.69.21.55.13,2.2,0,2.2,0Z"/>
      <path class="cls-2" d="m101.48,46.27c-.1.14-.23.3-.36.48.55-.59,1.06-1.22,1.55-1.86-.44.22-.8.8-1.19,1.38Z"/>
    </g>
  </g>
  <g class="cls-1">
    <g>
      <path class="cls-2" d="m61.3,54.99c-.37.03-.75.02-1.12.02.19.03.38.08.57.16.25.05.37-.07.55-.18Z"/>
      <path class="cls-2" d="m59.14,54.99c-.07,0-.14,0-.2,0-.06.01-.12.03-.17.04l.37-.04Z"/>
      <path class="cls-2" d="m57.18,55.06c.34.04.68.04,1,.02-.28-.05-.61-.06-1-.02Z"/>
      <path class="cls-2" d="m58.74,55.23c-.12-.08-.18-.15.02-.2h0c-.2.01-.39.03-.59.04.21.04.4.09.56.16Z"/>
      <path class="cls-2" d="m58.74,55.23c.12.08.3.14.36.18-.11-.06-.23-.12-.36-.18Z"/>
      <path class="cls-2" d="m58.2,56.91c-.21.05-.14-.43-.55-.34-.96.12-1.8.22-2.7.15-.43.06-.99-.57-1.41-.52-.96.02-3.54.08-2.09.37,2.19.41,3.64.41,5.61.48,1.61-.12,3.13-.33,4.73-.62.45-.06.87-.03,1.3-.05-.56-.03-1.13-.06-1.76-.1-.82-.09-1.8.56-3.12.63Z"/>
      <path class="cls-2" d="m69.54,53.97c-.18.1-.53.31-.53.31-.94-.12-1.8.2-2.69.5l.45.17c.52-.14.55-.28.07-.29,1.11.07,2.13-.11,3.13-.44-.1-.11-.12-.26-.42-.25Z"/>
      <path class="cls-2" d="m70.55,54.02c-.2.07-.39.13-.58.2,0,.01.02.02.03.03.19-.08.39-.15.58-.22h-.02Z"/>
      <path class="cls-2" d="m52.99,55.01c-2.6-.45-4.98-1.22-7.16-2.27-.21.02-.37.05-.57-.11-.13-.16-.28-.29-.43-.41-.31-.17-.62-.33-.92-.51-.11-.05-.22-.11-.34-.16h0c-.2-.06-.18.04-.11.16.09.11.17.23.23.34-.04-.07-.16-.22-.23-.34-.11-.14-.25-.28-.42-.41-.29-.15-.6-.29-.87-.51.35.17.64.33.87.51.18.09.36.17.54.25.06.02.11.03.17.05-.67-.44-1.36-.84-1.98-1.35-.16-.09-.31-.18-.43-.26-.52-.27-1-.6-1.12-1.01l-.32-.29s.02.06.04.09c-.04-.05-.07-.1-.09-.14-.46-.39-.88-.82-1.29-1.27-.34-.21-.72-.41-1.04-.66,0,0-.06-.31-.09-.47-.2-.04-.41-.17-.62-.35.11.34.19.67.3.95.09.49.99.32,1.01.99-.02-.67-.92-.5-1.01-.99-.11-.28-.19-.61-.3-.95-.22-.19-.44-.44-.63-.71-.17-.29-.31-.61-.4-.92.59.48.83,1.07,1.02,1.63.21.18.43.31.62.35.03.16.09.47.09.47.33.25.71.45,1.04.66-.83-.83-1.56-1.78-2.3-2.74-2.28-3.17-3.97-6.54-5.29-10.11-1.34-3.55-2.3-7.3-3.07-11.31-.1-.59-.17-1.07-.24-1.56l-.09-.7-.04-.33-.02-.16c0-.06.11.02.15.03.85.31,1.62.5,2.34.65,1.4.21,2.79.32,4.15.39,4.33.19,8.28-.31,11.99.18,3.7.47,7.39,1.77,10.47,4.21,1.19.9,2.93,2.08,4.51,3.44,1.6,1.34,3.03,2.84,3.9,3.95,1.45,1.26,2.28,1.32,2.8.94.51-.37.63-1.16.62-1.27,0-.78-.14-1.46-.42-2.07-.26-.63-.64-1.21-1.12-1.81-.96-1.23-2.25-2.6-4.14-4.69,1.3,1.42.57,1.17-.72.26-1.3-.92-3.33-2.34-4.68-3.67-1.93-1.98-5.05-3.23-8.41-3.76-1.68-.24-3.46-.36-5.15-.35-1.69,0-3.32.07-4.86.03-1.53-.04-3.12.14-4.84.13-1.31-.07-2.5-.16-3.75-.32-1.28-.11-2.7-.55-4.1-.89-1.42-.4-2.83-.8-4.24-1.19.59,3.08,1.24,6.32,1.9,9.39.4,1.64.81,3.24,1.3,4.88.96,3.26,2.12,6.57,3.62,9.96,1.18,2.52,2.82,4.44,4.36,6.2,1.07,1.33,2.07,2.9,3.07,3.9.4.39.79.76,1.17,1.11.41.33.81.63,1.21.92.78.6,1.63,1.03,2.42,1.48-.85-.56-1.62-.99-2.33-1.56-.36-.27-.74-.55-1.13-.85-.37-.32-.75-.67-1.17-1.06-1.08-1.05,1.16.34,1.99.85.39.19.56,1.02.95,1.21.73.56,1.55.89,2.45,1.3.42.13.12.51.33.57,1.21.64,2.43.49,3.11.99.56.32,1.06.61,1.56.9.32.16.66.28,1.02.39.23.04.48.08.72.12-.14-.2-.14-.4-.15-.59.31.14.74.4,1.07.5-.33-.11-.76-.36-1.07-.5,0,.19.01.38.15.59,1.75.25,3.72.48,5.55.51l-.02-.05c-1.06-.08-2.07-.36-3.07-.87.44.2.35.33-.18.23l-.34-.34c.94.13,1.88.15,2.69.67,0,0,.41-.05.62-.07.28.11.25.26.29.39.21.02.41.04.62.05-.41-.3-1.71-.81-1.71-.81Z"/>
      <path class="cls-2" d="m43.01,51.27c.13.06.28.14.45.23-.56-.37-1.14-.71-1.66-1.14.15.41.67.68,1.21.91Z"/>
    </g>
  </g>
  <g class="cls-1">
    <g>
      <path class="cls-2" d="m91.98,33.27l-.23.19c.06,0,.13,0,.23.02.08,0,.03-.1,0-.21Z"/>
      <path class="cls-2" d="m91.54,33.62l-.04.03v.06s.03-.06.04-.09Z"/>
      <path class="cls-2" d="m91.26,34.07c.08-.04.13-.11.17-.19-.08.02-.14.08-.17.19Z"/>
      <path class="cls-2" d="m91.64,33.87c-.07-.03-.13-.07-.13-.15h0s-.04.1-.07.15c.06-.02.13-.02.2,0Z"/>
      <path class="cls-2" d="m91.64,33.87c.07.03.15.04.19.06-.06-.03-.13-.05-.19-.06Z"/>
      <path class="cls-2" d="m92.71,35.19c0,.08-.32-.28-.32-.13-.08.27-.09.57-.26.72,0,.15-.49-.13-.49.02-.09.26-.12,1.17.13.89.36-.43.55-.77.85-1.18.16-.42.28-.86.46-1.27.07-.1.17-.15.27-.2-.16.05-.31.09-.48.16-.24.05,0,.67-.17.99Z"/>
      <path class="cls-2" d="m93.71,31.93c0,.07.01.22.01.22-.41-.07-.48.19-.55.46l.25.09c.08-.12,0-.22-.17-.21.4,0,.62-.16.78-.39-.11-.08-.21-.18-.32-.17Z"/>
      <path class="cls-2" d="m94.1,31.97s-.06.1-.08.14l.03.02c.02-.06.04-.11.06-.16h-.01Z"/>
      <path class="cls-2" d="m90.76,35.12c-.49.48-.99.89-1.5,1.26.03.1.07.21-.02.21-.09-.03-.16-.04-.22-.03l-.22.16s-.03.06-.05.09h0c0,.08.06.12.13.16.06.02.12.04.19.07-.04-.02-.12-.04-.19-.07-.07-.02-.14-.02-.2,0-.04.08-.1.15-.19.18.04-.11.11-.16.19-.18l.07-.15v-.06s-.52.35-.52.35c-.03.04-.06.08-.07.11-.07.15-.15.29-.37.18l-.1.06s.03.01.04.02c-.02,0-.04,0-.06,0l-.4.26c-.02.14-.03.29-.07.41,0,0-.16-.08-.24-.12.04.12.05.22.02.3.16.06.32.13.44.16.24.12-.13-.52.26-.26-.39-.27-.02.37-.26.26-.12-.03-.28-.1-.44-.16-.06.16-.27.22-.53.14.02-.28.27-.23.53-.14.03-.08.03-.18-.02-.3.08.04.24.12.24.12.04-.12.05-.28.07-.41-.26.17-.53.34-.8.51-1.78,1.08-3.22,2.31-5.01,3.53-.98.65-1.97,1.22-2.98,1.77-2.04,1.1-3.05,2.95-5.48,3.9-.92.41-1.82,1.88-2.28,2.64-.05,1.41,2.01,2.09,2.13,2.13,1.84.5,1.3-.52,2.96-.88-1.02.34-.46-1.26,1.02-1.09,2.14.33,2.27-1.87,3.7-2.58.35-.17.6-.5.96-.78,2.15-1.1,3.35-3.09,5.42-4.61.52-.43.7-1.16.99-1.71.27-.33.77-.43,1.03-.66.41-.35.66-.78.86-1.23-.32.39-.52.72-.89,1.13-.26.26-.2-.64-.1-.9.01-.15.48.15.49,0,.17-.15.19-.45.29-.71.01-.15.31.22.32.15.18-.3-.03-.94.22-.98.17-.05.33-.09.48-.13.09-.04.17-.08.23-.16l.06-.21c-.13-.08-.27-.2-.4-.33.08-.04.25-.04.33-.08-.08.04-.25.04-.33.08.13.12.26.25.4.33.14-.5.34-1.03.55-1.5l-.03-.03c-.17.22-.4.37-.8.34.16,0,.24.11.16.22l-.24-.11c.09-.26.18-.53.58-.43,0,0,0-.15,0-.22.1,0,.2.11.3.19.03-.04.06-.09.09-.14-.25-.1-.72-.09-.72-.09Z"/>
      <path class="cls-2" d="m88.67,36.96s.04-.07.07-.11l-.44.29c.22.12.3-.03.37-.18Z"/>
    </g>
  </g>
  <g class="cls-1">
    <g>
      <path class="cls-2" d="m40.34,32.56l.34.17c-.04-.06-.08-.13-.11-.23-.05-.08-.14,0-.23.06Z"/>
      <path class="cls-2" d="m40.99,32.89l.06.03.07-.02s-.09-.01-.13-.01Z"/>
      <path class="cls-2" d="m41.64,33.05c-.1-.07-.2-.1-.31-.12.07.07.17.12.31.12Z"/>
      <path class="cls-2" d="m41.21,32.73c0,.08,0,.16-.09.18h0s.21.02.21.02c-.05-.05-.09-.12-.12-.2Z"/>
      <path class="cls-2" d="m41.21,32.73c0-.08-.04-.16-.04-.21,0,.07.02.14.04.21Z"/>
      <path class="cls-2" d="m42.05,31.24c.08-.02-.12.41.04.37.34,0,.68-.08.95.04.17-.04.14.53.3.49.34.01,1.36-.22.91-.4-.68-.24-1.16-.33-1.79-.51-.56-.04-1.11-.03-1.67-.07-.15-.04-.26-.13-.38-.21.14.14.28.28.45.43.2.23.75-.21,1.19-.13Z"/>
      <path class="cls-2" d="m37.86,31.26c.08-.03.24-.08.24-.08.15.43.49.41.83.4l-.04-.27c-.18-.04-.24.08-.13.23-.23-.4-.54-.56-.88-.64-.02.13-.08.27-.01.37Z"/>
      <path class="cls-2" d="m37.67,30.86c.07.01.14.02.21.04v-.04c-.07,0-.14,0-.21,0h0Z"/>
      <path class="cls-2" d="m43.1,33.23c.81.36,1.54.75,2.24,1.16.1-.05.19-.13.24-.04.02.1.05.18.09.24l.3.18s.08.02.13.03h0c.08-.02.1-.09.1-.17-.02-.07-.03-.14-.03-.21,0,.05.03.13.03.21.02.08.05.15.1.21.11.02.22.06.31.14-.14-.01-.24-.06-.31-.14l-.21-.04h-.07s.68.45.68.45c.06.02.12.04.17.05.2.03.4.07.4.34l.12.08s0-.03,0-.05c.01.02.02.05.03.07l.5.35c.16-.01.33-.05.49-.04,0,0,0,.18,0,.28.11-.08.22-.11.32-.09-.02-.18-.03-.37-.06-.5,0-.28-.51.27-.42-.21-.08.47.42-.07.42.21.03.13.04.32.06.5.21.02.38.22.44.52-.32.05-.4-.22-.44-.52-.1-.01-.21.02-.32.09,0-.09,0-.28,0-.28-.15,0-.33.02-.49.04.32.23.65.47.99.71,2.12,1.6,4.19,2.86,6.3,4.61,1.13.96,2.15,1.96,3.02,3.03.87,1.06,1.82,1.89,2.65,2.82.82.93,1.53,1.99,1.69,3.33.18.99,1.09,2.31,1.39,3.1.54.4,1.28.37,1.88.19.6-.18,1.07-.51,1.11-.56.71-.66.78-1.14.67-1.67-.1-.55-.34-1.14-.35-2.24.07.72-.31.63-.63.18-.31-.46-.62-1.25-.49-2.1.23-1.27-.44-2.23-1.27-3.03-.85-.79-1.87-1.43-2.53-2.32-.33-.44-.82-.76-1.3-1.19-2.24-2.58-5.14-3.6-7.92-5.53-.76-.47-1.67-.5-2.44-.68-.52-.21-.9-.71-1.3-.93-.62-.34-1.23-.49-1.84-.58.61.23,1.09.35,1.75.64.43.21-.6.37-.94.34-.17.03-.1-.54-.27-.51-.26-.14-.6-.08-.95-.11-.17.03.07-.39-.01-.37-.43-.11-1.01.29-1.2.04-.15-.16-.29-.31-.42-.46-.09-.08-.19-.15-.31-.18h-.26c0,.16-.07.33-.13.51-.09-.07-.19-.24-.28-.31.09.07.19.24.28.31.06-.17.12-.34.13-.5-.63,0-1.33-.05-1.96-.12v.04c.33.11.62.29.82.71-.1-.16-.02-.28.15-.22l.02.28c-.34-.02-.68-.02-.8-.46,0,0-.17.04-.25.06-.06-.1,0-.24.04-.36-.07-.02-.13-.04-.2-.05.03.28.32.75.32.75Z"/>
      <path class="cls-2" d="m46.3,34.85s-.11-.03-.17-.05l.57.38c0-.26-.2-.3-.4-.33Z"/>
    </g>
  </g>
  <g class="cls-1">
    <g>
      <path class="cls-2" d="m69.16,54.97v.42c.04-.07.09-.15.16-.22.05-.1-.06-.14-.16-.2Z"/>
      <path class="cls-2" d="m69.17,55.78v.07s.04.06.04.06c-.02-.05-.03-.09-.04-.14Z"/>
      <path class="cls-2" d="m69.33,56.5c.02-.13,0-.25-.04-.37-.03.11-.03.23.04.37Z"/>
      <path class="cls-2" d="m69.42,55.91c-.07.05-.14.08-.2,0h0s.08.21.08.21c.02-.08.07-.15.13-.22Z"/>
      <path class="cls-2" d="m69.42,55.91c.07-.05.13-.12.17-.15-.06.04-.12.09-.17.15Z"/>
      <path class="cls-2" d="m71.12,56c.06.07-.42.08-.31.23.15.34.39.64.39.97.11.15-.42.4-.3.55.15.35.8,1.25.77.71-.09-.81-.22-1.33-.35-2.05-.22-.58-.48-1.13-.71-1.71-.04-.16-.01-.32,0-.48-.06.21-.11.43-.17.67-.11.31.54.64.67,1.12Z"/>
      <path class="cls-2" d="m69.06,51.88c.07.06.19.19.19.19-.29.38-.09.69.08,1.01l.22-.18c-.06-.19-.19-.19-.27,0,.22-.43.21-.82.1-1.2-.12.05-.27.07-.32.19Z"/>
      <path class="cls-2" d="m69.31,51.48c.03.07.05.15.08.22l.04-.02c-.04-.07-.07-.14-.11-.21h-.01Z"/>
      <path class="cls-2" d="m69.82,58.05c.04.98.01,1.91-.05,2.81.09.07.2.12.14.21-.08.07-.14.14-.17.21l-.03.39s.02.09.03.14h0c.05.08.13.06.2.01.05-.05.11-.1.18-.14-.04.02-.11.09-.18.14-.06.06-.11.13-.14.21.03.12.04.25.01.38-.05-.15-.05-.27-.01-.38l-.06-.22-.04-.06-.09.9c.01.07.02.14.04.19.06.22.12.44-.12.57l-.02.16s.03-.02.04-.03c-.02.02-.03.04-.05.06l-.08.68c.09.15.2.3.26.46,0,0-.16.1-.24.15.12.06.2.15.23.26.15-.12.31-.23.41-.33.24-.15-.47-.35-.02-.52-.46.17.26.37.02.52-.1.1-.26.21-.41.33.08.22-.01.49-.25.72-.2-.28,0-.52.25-.72-.04-.1-.12-.19-.23-.26.08-.05.24-.15.24-.15-.07-.15-.18-.31-.26-.46-.05.45-.1.9-.15,1.36-.34,2.84-.28,5.51-.08,8.53l2.08-.07c.01-.11.03-.24.05-.37.24-1.68.49-3.3.75-4.9.53-3.23-.33-6.08.43-9.47.26-1.31-.38-3.6-.68-4.77-1.12-1.43-2.95-.14-3.05-.06-1.52,1.3-.4,1.83-1.1,3.9.36-1.39,1.29.79.25,2.17-1.59,1.97.1,4.28-.3,6.5-.1.54,0,1.11-.03,1.76-.3,1.7-.3,3.32-.31,4.97l5.9-.21c-.3-1.5-.56-3.09-.52-4.82-.02-.93-.47-1.76-.7-2.57-.08-.59.17-1.22.18-1.7.01-.76-.14-1.42-.34-2.06.07.71.19,1.23.24,2.01.02.52-.61-.37-.74-.72-.1-.15.43-.37.33-.52,0-.32-.2-.62-.33-.97-.1-.15.38-.12.32-.2-.1-.48-.71-.85-.57-1.16.07-.23.15-.44.23-.64.03-.13.05-.26.03-.39l-.12-.26c-.15.07-.33.09-.51.12.03-.13.13-.3.16-.43-.03.13-.13.3-.16.43.18-.02.36-.05.51-.12-.28-.63-.54-1.35-.77-2.02h-.04c.06.4.03.79-.27,1.19.11-.18.24-.16.27.04l-.24.15c-.13-.35-.27-.69.06-1.03,0,0-.11-.15-.17-.22.06-.11.21-.11.34-.14-.01-.08-.03-.15-.04-.23-.23.17-.53.69-.53.69Z"/>
      <path class="cls-2" d="m69.79,62.04c-.01-.05-.02-.12-.03-.19l-.08.75c.24-.13.18-.35.12-.57Z"/>
    </g>
  </g>
  <g class="cls-1">
    <g>
      <path class="cls-2" d="m68.64,50.63l-.02.11s.08-.04.17-.07c.05-.03-.05-.03-.15-.05Z"/>
      <path class="cls-2" d="m68.61,50.85v.02s.04.01.04.01c-.02-.01-.03-.02-.04-.03Z"/>
      <path class="cls-2" d="m68.74,51.04s0-.07-.03-.1c-.03.03-.03.06.03.1Z"/>
      <path class="cls-2" d="m68.85,50.88c-.07.02-.14.03-.2.01h0s.05.04.07.05c.03-.02.07-.04.13-.07Z"/>
      <path class="cls-2" d="m68.85,50.88c.07-.02.13-.04.17-.05-.06.02-.12.03-.17.05Z"/>
      <path class="cls-2" d="m70.55,50.83c.05.02-.42.04-.32.07.14.08.36.15.37.24.11.03-.42.13-.31.16.14.08.8.28.76.14-.08-.2-.22-.33-.32-.52-.2-.14-.44-.27-.62-.42-.03-.04,0-.09.04-.13-.07.06-.14.12-.21.18-.13.09.49.15.61.27Z"/>
      <path class="cls-2" d="m68.88,49.78c.06.02.16.05.16.05-.34.11-.2.19-.06.28l.24-.06c-.03-.05-.16-.05-.27,0,.28-.13.32-.23.27-.33-.13.01-.28.02-.34.06Z"/>
      <path class="cls-2" d="m69.18,49.67s.03.04.04.06h.04s-.07-.06-.07-.06h-.01Z"/>
      <path class="cls-2" d="m69.21,51.43c.04.26.03.51,0,.75.09.01.2.02.15.05-.08.02-.13.05-.17.07l-.02.11.04.03h0c.06.02.13,0,.2,0,.05-.01.11-.03.17-.05-.04.01-.1.03-.17.05-.06.02-.11.04-.13.06.03.03.05.06.03.1-.06-.04-.06-.07-.03-.1-.02-.02-.05-.04-.07-.06h-.04c-.02.07-.04.15-.05.23.01.02.03.03.04.05.07.05.14.11-.1.16v.04s.01,0,.03-.01l-.04.02-.05.19c.09.03.21.07.28.1l-.24.06c.12,0,.2.03.24.05.14-.04.3-.09.39-.11.24-.06-.49-.06-.04-.14-.45.08.27.08.04.14-.1.03-.25.07-.39.11.09.05,0,.13-.22.21-.21-.06-.01-.14.22-.21-.04-.03-.12-.04-.24-.05l.24-.06c-.07-.04-.19-.07-.28-.1l-.1.37c-.26.81-.16,1.53-.33,2.36l-.07.24,2.31-.08c.13-.36.31-.71.54-1.05.56-.84-.09-1.59,1.12-2.44.23-.18.27-.43.24-.68h-6.14c.02.22.08.43.1.57.8.42,2.86.2,2.97.18,1.45-.21,1.03-.39,1.43-.74h-2.88c-.08.08-.2.16-.38.25.58-.36,1.13.26-.07.6-1.83.49-.36,1.18-.83,1.78-.12.15-.03.31-.07.49-.24.36-.27.71-.23,1.05l6.04-.2c-.1-.55-.4-1.1-.35-1.7-.02-.26-.48-.46-.74-.66-.09-.15.13-.34.12-.47-.02-.2-.2-.37-.42-.52.1.18.24.31.32.52.04.14-.62-.06-.76-.14-.11-.03.42-.13.31-.16,0-.09-.23-.15-.37-.24-.11-.03.37-.06.32-.07-.12-.12-.74-.18-.61-.27.07-.07.14-.12.21-.18.02-.04.04-.07.02-.11l-.12-.06c-.15.03-.32.04-.5.06.02-.03.13-.09.15-.12-.02.03-.13.09-.15.12.18-.02.36-.03.5-.06-.29-.15-.56-.32-.77-.49h-.04c.06.11.02.21-.27.34.1-.05.24-.06.27,0l-.24.06c-.14-.08-.28-.17.06-.28,0,0-.11-.03-.16-.05.06-.03.21-.04.34-.06,0-.02-.02-.04-.04-.06-.24.06-.53.21-.53.21Z"/>
      <path class="cls-2" d="m69.26,52.5s-.03-.03-.04-.05l-.05.21c.23-.05.16-.1.09-.16Z"/>
    </g>
  </g>
  <g class="cls-1">
    <g>
      <path class="cls-2" d="m115.44,73.42c-.26-.3-.54-.58-.81-.87.12.17.22.35.3.55.14.22.31.25.51.33Z"/>
      <path class="cls-2" d="m113.85,71.76c-.05-.05-.1-.1-.15-.15-.06-.03-.11-.06-.16-.09l.31.24Z"/>
      <path class="cls-2" d="m112.22,70.48c.27.25.53.47.81.67-.2-.22-.46-.46-.81-.67Z"/>
      <path class="cls-2" d="m113.38,71.65c-.04-.14-.04-.24.15-.13h0c-.17-.12-.34-.24-.51-.36.15.17.27.33.35.5Z"/>
      <path class="cls-2" d="m113.38,71.65c.04.13.14.31.16.39-.04-.12-.09-.25-.16-.39Z"/>
      <path class="cls-2" d="m111.86,72.58c-.18-.09.17-.42-.2-.6-.79-.5-1.55-.82-2.23-1.34-.38-.15-.57-.94-.96-1.09-.85-.44-3.19-1.15-2-.43,1.79,1.07,2.96,1.77,4.46,2.89,1.29.83,2.51,1.66,3.7,2.71.32.31.55.64.79.98-.28-.47-.6-.92-.96-1.43-.46-.69-1.59-.95-2.59-1.69Z"/>
      <path class="cls-2" d="m120.07,80.83c-.12-.17-.41-.49-.41-.49-.08-.98-.67-1.79-1.3-2.52l.02.49c.31.45.45.44.29-.03.32,1.12.76,2.05,1.21,3.03.09-.11.24-.16.18-.47Z"/>
      <path class="cls-2" d="m120.18,81.86c-.09-.19-.19-.38-.28-.57-.01,0-.02.02-.03.04.1.19.21.37.31.55v-.03Z"/>
      <path class="cls-2" d="m108.47,68.23c-2.26-1.48-4.47-2.87-6.97-3.42-.21.05-.36.14-.61.05-.18-.11-.38-.18-.57-.23-.37-.03-.75-.03-1.12-.02-.13.02-.26.05-.39.08h-.01c-.2.08-.13.15,0,.2.15.03.28.07.39.13-.07-.04-.26-.08-.39-.13-.18-.04-.38-.05-.61-.04-.32.1-.66.21-1.01.3.36-.18.71-.27,1.01-.3.21-.06.4-.12.61-.17.06-.02.12-.04.18-.07-.86.07-1.69.28-2.48.58-.18.08-.34.17-.47.24-.53.31-1.02.65-1.47.63-.13.07-.26.14-.4.21.03,0,.06,0,.1,0-.06.02-.12.04-.17.05-.54.31-1.09.62-1.64.93-.3.29-.59.6-.91.88,0,0-.32,0-.48.01-.08.19-.25.38-.47.56.36-.05.71-.07,1.01-.14.48-.02.55-.9,1.21-.78-.66-.12-.72.76-1.21.78-.3.06-.64.09-1.01.14-.46.38-1.17.68-1.82.79.56-.56,1.21-.7,1.82-.79.22-.18.39-.37.47-.56.16,0,.48-.01.48-.01.32-.28.61-.59.91-.88-1.06.61-2.13,1.22-3.24,1.8-3.57,1.87-7.1,3.48-10.83,4.34-3.73.87-7.63.85-11.5-.44-4.2-1.36-7.88-3.66-11.57-5.92-1.84-1.13-3.72-2.18-5.67-3.08-1.95-.91-3.99-1.69-6.14-2.23-4.35-1.13-8.97-1.17-13.77-.21-1.84.39-4.39,1.46-6.6,3.12-2.23,1.62-4.02,3.82-4.99,5.46-.54,1.17-.57,2.04-.5,2.56.09.53.34.77.64.87.61.19,1.37-.15,1.46-.21.34-.2.63-.41.9-.61.29-.19.54-.39.78-.61.44-.44.92-.87,1.39-1.4.99-.98,2.27-2.26,4.66-3.08-.8.29-1.09.34-1.05.17.03-.18.44-.51,1.06-.92,1.24-.8,3.52-1.54,5.21-1.32,2.44.35,5.04.17,7.8.49,2.73.34,5.78,1.17,8.35,2.66,1.29.74,2.74,1.38,4.35,2.28,4.05,2.46,8.33,4.88,13.44,6.08,2.53.59,5.26.84,7.96.62,2.69-.24,5.34-.86,7.92-1.74,2.72-.98,4.76-2.48,6.67-3.81,1.45-.88,3.11-1.6,4.26-2.32,1.82-1.14,3.09-2.14,4.37-2.79-1.49.61-2.5,1.43-4.3,2.64-1.23.8.55-1.07,1.24-1.65.29-.3,1.07-.13,1.34-.4.71-.37,1.27-.85,2.01-1.2.31-.19.38.29.53.21.94-.3,1.85-.85,2.57-.58.53.18,1,.38,1.44.63.29.13.57.27.89.39.21.05.43.11.64.17-.09-.21-.07-.4-.05-.59.29.16.65.47.93.65-.28-.18-.64-.49-.93-.65-.02.19-.04.38.05.59,1.56.46,3.35,1.32,4.94,2.19v-.05c-.89-.58-1.72-1.18-2.51-2.01.35.34.23.42-.25.16l-.23-.42c.88.37,1.77.77,2.31,1.57,0,0,.4.14.59.21.21.23.11.35.08.49.17.11.35.22.53.34-.11-.22-.4-.61-.67-.93-.29-.32-.52-.58-.52-.58Z"/>
      <path class="cls-2" d="m98.18,64.86c.14-.04.32-.09.51-.13-.71.08-1.4.26-2.07.5.43.08.97-.18,1.56-.37Z"/>
    </g>
  </g>
  <g class="cls-1">
    <g>
      <path class="cls-2" d="m118.46,80.46c-.12.45-.25.89-.43,1.32.12-.21.24-.41.39-.61.14-.28.08-.47.04-.71Z"/>
      <path class="cls-2" d="m117.48,82.95c-.04.07-.08.15-.12.22-.02.07-.05.14-.07.2l.19-.42Z"/>
      <path class="cls-2" d="m116.21,85.04c.3-.32.54-.67.74-1.01-.23.27-.47.6-.74,1.01Z"/>
      <path class="cls-2" d="m117.44,83.5c-.14.1-.24.12-.16-.12h0c-.1.21-.21.43-.34.65.17-.2.34-.38.49-.53Z"/>
      <path class="cls-2" d="m117.44,83.5c.14-.09.31-.27.38-.32-.12.09-.24.2-.38.32Z"/>
      <path class="cls-2" d="m118.52,84.97c-.12.27-.47-.06-.71.45-.67,1.11-1.3,2.06-2.19,2.85-.34.45-1.33.58-1.67.98-.88.89-3.05,3.23-1.57,2.12,2.19-1.7,3.65-2.95,5.34-5.04,1.27-1.81,2.06-3.88,2.28-6.08.09-.61.17-1.19.2-1.78-.08.77-.24,1.54-.49,2.35-.39,1.02-.26,2.54-1.18,4.15Z"/>
      <path class="cls-2" d="m114.85,71.74c.25.03.73.19.73.19.76.86,1.62,1.54,2.36,2.47-.03-.19-.06-.38-.09-.57-.44-.53-.58-.5-.31.03-.57-1.26-1.68-2.2-2.97-2.62.03.15-.03.27.28.49Z"/>
      <path class="cls-2" d="m113.8,71.06c.26.05.52.1.77.19,0-.01,0-.03-.01-.05-.26-.08-.53-.11-.78-.16l.03.02Z"/>
      <path class="cls-2" d="m112.52,88.98c-2.73,2.08-5.42,3.88-8.13,5.5-.16.21-.25.39-.55.51-.25.06-.49.15-.72.24-.4.22-.8.45-1.2.67-.13.09-.27.18-.4.28h-.01c-.2.19-.09.21.08.19.18-.05.35-.08.5-.09-.1.01-.34.07-.5.09-.22.06-.45.14-.71.25-.35.23-.73.45-1.14.65.42-.29.8-.5,1.14-.65.22-.15.43-.3.64-.45.06-.05.11-.1.17-.15-.91.52-1.85.99-2.78,1.47-.2.13-.4.25-.56.35-.64.4-1.29.81-1.81.81-.17.08-.34.16-.51.24.04,0,.08,0,.12-.01-.08.03-.15.04-.21.05-.72.32-1.44.65-2.16.98-.43.3-.86.62-1.32.9,0,0-.39,0-.58,0-.15.2-.39.4-.71.58.45-.04.87-.06,1.24-.12.59,0,.89-.93,1.65-.78-.76-.14-1.06.78-1.65.78-.37.06-.79.08-1.24.12-.66.37-1.59.67-2.4.76.82-.56,1.64-.7,2.4-.76.32-.18.56-.38.71-.58.19,0,.58,0,.58,0,.45-.28.89-.6,1.32-.9-1.43.61-2.87,1.22-4.36,1.79-4.8,1.82-9.51,3.32-14.35,4.48-4.83,1.16-9.8,2.07-15.03,1.94-2.83-.07-5.56-.5-8.14-1.27-2.59-.78-5.08-1.86-7.57-2.98-4.04-1.86-8.24-3.31-12.44-4.39-2.1-.55-4.22-1.03-6.36-1.45-1.07-.21-2.15-.42-3.23-.61-.05-.01-.17-.03-.17-.03h-.05s-.11-.05-.11-.05l-.2-.06c-.13-.04-.24-.08-.34-.12.05-.14.11-.28.16-.39.06-.14.11-.28.17-.39,0-.02.01-.02.02-.05l.04-.19.08-.39.17-.78c.11-.52.21-1.04.32-1.57.43-2.16.66-5.3.63-8.41-.02-3.12-.3-6.2-.55-8.3-1.47-5.52-3.17-2.29-3.24-2.06-.66,1.78-.69,3.25-.67,5.17.02,1.9.13,4.25-.47,7.6.33-2.28.61-1.44.62.53.01,1.97-.39,5.05-1.25,7.11l-.18.44c-.06.15-.11.26-.19.56-.15.52-.3,1.06-.45,1.64-.29,1.13-.61,2.46-.89,3.8,1.27.22,2.66.43,4.12.64l1.1.15.8.13c.38.06.75.12,1.13.19,1.52.25,3.1.49,4.68.78,3.16.57,6.37,1.32,9.23,2.47,1.78.71,3.67,1.33,5.86,2.23,2.78,1.25,5.69,2.44,8.84,3.21,3.18.78,6.42,1.01,9.6.9,6.4-.24,12.46-1.78,18.78-3.51,3.35-.98,6.09-2.43,8.71-3.72,1.95-.84,4.13-1.54,5.71-2.27,2.47-1.16,4.49-2.36,6.35-3.63-2.15,1.28-3.73,2.21-6.23,3.47-1.68.8.92-1.09,1.95-1.77.43-.32,1.4-.23,1.82-.56,1.02-.52,1.84-1.21,2.85-1.92.41-.35.59.1.79-.07,1.4-.94,2.2-2.11,3.16-2.57.72-.36,1.38-.69,2.02-1.02.39-.22.78-.45,1.17-.73.23-.19.46-.4.69-.61-.28.02-.45-.08-.62-.19.38-.23.94-.49,1.32-.72-.38.23-.95.49-1.32.72.17.1.34.2.62.19,1.66-1.48,3.56-3.13,5.27-4.77h-.05c-1.04.9-2.15,1.64-3.46,2.24.56-.28.57-.12.03.31l-.57.12c.9-.83,1.81-1.63,2.93-2.06,0,0,.34-.41.51-.61.34-.19.42-.06.57-.01.2-.18.4-.36.6-.55-.59.21-2.18,1.05-2.18,1.05Z"/>
      <path class="cls-2" d="m100.84,96.64c.16-.1.35-.23.55-.36-.77.43-1.56.81-2.34,1.22.52-.02,1.16-.44,1.79-.86Z"/>
    </g>
  </g>
  <g class="cls-1">
    <g>
      <path class="cls-2" d="m73.32,77.8l.7.12c-.11-.05-.22-.12-.33-.22-.15-.08-.24.02-.37.1Z"/>
      <path class="cls-2" d="m74.67,78.04s.08.02.12.03l.11-.03h-.24Z"/>
      <path class="cls-2" d="m75.91,78.13c-.21-.07-.42-.09-.63-.09.17.06.38.1.63.09Z"/>
      <path class="cls-2" d="m74.95,77.85c.06.08.09.16-.04.2h0s.38,0,.38,0c-.13-.05-.24-.12-.33-.19Z"/>
      <path class="cls-2" d="m74.95,77.85c-.06-.08-.17-.16-.2-.21.06.07.12.14.2.21Z"/>
      <path class="cls-2" d="m75.55,76.23c.14-.03.03.44.29.37.61-.02,1.16-.14,1.71-.03.27-.05.55.55.83.5.61,0,2.27-.25,1.38-.44-1.35-.26-2.25-.32-3.48-.46-1.02,0-1.99.09-3.02.13-.28-.02-.54-.08-.8-.14.34.11.68.23,1.06.35.49.2,1.2-.32,2.03-.29Z"/>
      <path class="cls-2" d="m68.11,77.08c.13-.05.38-.15.38-.15.54.36,1.13.27,1.72.17l-.24-.25c-.34,0-.38.14-.09.26-.66-.34-1.31-.41-1.97-.38.04.13.03.28.21.35Z"/>
      <path class="cls-2" d="m67.51,76.75c.13,0,.26-.02.39-.03v-.04c-.14.02-.28.04-.4.06h.01Z"/>
      <path class="cls-2" d="m78.59,78.24c1.63.36,3.13.82,4.56,1.34.14-.05.25-.13.39-.03.09.12.18.21.28.28l.62.25c.08.01.15.03.23.04h0c.14,0,.13-.09.08-.18-.06-.08-.12-.16-.16-.24.03.05.11.15.16.24.08.09.17.18.29.25.2.05.41.11.6.21-.25-.04-.45-.11-.6-.21-.13-.03-.25-.05-.38-.07h-.12c.47.19.93.41,1.4.61.11.03.22.06.31.08.36.08.73.16.85.46l.24.12s-.02-.04-.03-.06c.03.03.06.06.08.08l1.02.52c.26.02.54.03.8.08,0,0,.08.22.12.33.15-.06.31-.07.49-.02-.12-.22-.22-.45-.33-.62-.13-.33-.73.18-.82-.35.09.54.68.02.82.35.12.17.22.39.33.62.36.09.74.4.92.79-.49-.07-.73-.42-.92-.79-.17-.05-.34-.04-.49.02-.04-.11-.12-.33-.12-.33-.26-.05-.54-.06-.8-.08.66.35,1.32.71,1.94,1.13,1,.67,1.88,1.43,2.48,2.33.59.86.86,1.92.76,2.91-.1,1.01-.59,1.79-1.46,2.21-.87.45-2.18.62-3.41.84-2.71.4-5.36.37-7.91.06-5.05-.64-9.82-.84-14.64-3.27-1.84-.88-5.51-1.65-7.42-2.16-2.76.03-2.02,2.39-1.93,2.53,1.08,2.14,2.57,1.57,5.53,3.44-2.04-1.17,1.89-.64,3.73,1.01,1.32,1.25,3.21,1.76,5.23,2.03,2.03.28,4.18.29,6.15.69,1,.17,2.07.18,3.28.21,3.13.35,6.25.05,9.3-.7.78-.2,1.47-.35,2.38-.67.89-.32,2.02-.81,3-1.82.99-1,1.55-2.32,1.73-3.54.19-1.23.07-2.42-.27-3.55-.37-1.2-1.17-2.22-1.92-2.84-.77-.66-1.58-1.09-2.33-1.46-1.03-.61-1.99-1.35-2.79-1.72-1.24-.56-2.37-.86-3.48-1.06,1.18.36,2.06.6,3.36,1.11.86.36-.85.28-1.45.18-.28,0-.44-.65-.73-.65-.52-.22-1.08-.21-1.69-.3-.28,0-.08-.43-.22-.43-.82-.18-1.61.18-2.06-.1-.35-.19-.67-.37-.98-.55-.2-.09-.41-.17-.64-.22-.15,0-.31,0-.46-.01.07.18.06.36.05.54-.2-.09-.46-.27-.66-.35.2.08.46.26.66.35.01-.18.02-.37-.05-.54-1.14-.04-2.38-.09-3.53-.13v.04c.67.09,1.29.3,1.89.74-.26-.18-.19-.3.14-.24l.19.3c-.6-.03-1.21-.02-1.67-.5,0,0-.27.05-.4.07-.17-.1-.13-.25-.14-.38-.13-.02-.26-.03-.39-.05.22.29,1,.78,1,.78Z"/>
      <path class="cls-2" d="m85.06,80.22c-.09-.02-.2-.05-.31-.08l1.17.52c-.13-.3-.49-.37-.86-.44Z"/>
    </g>
  </g>
  <g class="cls-1">
    <g>
      <path class="cls-2" d="m120.48,73.29c-.11-.05-.21-.08-.32-.12.05.05.09.11.12.21.05.07.12-.02.2-.09Z"/>
      <path class="cls-2" d="m119.86,73.07l-.06-.02-.06.03s.08-.01.12-.02Z"/>
      <path class="cls-2" d="m119.26,73.09c.1.04.19.04.29.03-.08-.05-.17-.07-.29-.03Z"/>
      <path class="cls-2" d="m119.69,73.28c-.02-.08-.02-.15.05-.19h0c-.06,0-.13.02-.18.03.06.04.1.1.14.17Z"/>
      <path class="cls-2" d="m119.69,73.28c.03.07.05.15.07.19-.02-.07-.04-.13-.07-.19Z"/>
      <path class="cls-2" d="m119.24,74.92c-.05.04.04-.43-.07-.34-.24.1-.45.29-.65.27-.1.1-.21-.44-.32-.34-.25.12-.81.77-.48.74.49-.07.81-.18,1.24-.2.37-.14.75-.29,1.15-.34.1.01.19.07.26.14-.08-.12-.19-.22-.3-.34-.16-.18-.54.35-.83.4Z"/>
      <path class="cls-2" d="m122.48,74.79c-.08,0-.23,0-.23,0,.04-.42-.28-.51-.58-.53l-.04.26c.14.06.23-.04.18-.2.09.42.26.62.49.79.08-.1.19-.21.18-.31Z"/>
      <path class="cls-2" d="m122.45,75.2c-.05-.03-.1-.06-.15-.09l-.03.03c.06.02.11.05.17.07h0Z"/>
      <path class="cls-2" d="m118.05,73.42c-.72,0-1.4.02-2.06.04-.04.1-.06.21-.14.16-.06-.08-.12-.12-.17-.15h-.29s-.06.05-.1.06h0c-.05.06-.02.14.02.2.04.05.09.1.12.16-.02-.04-.08-.09-.12-.16-.05-.05-.11-.1-.17-.11-.08.04-.17.07-.27.06.1-.07.19-.08.27-.06l.15-.09.04-.05-.66.02s-.09.04-.13.06c-.15.09-.29.18-.43-.04h-.12s.02.03.03.04c-.02-.01-.04-.02-.05-.04l-.5.03c-.09.11-.18.24-.27.33,0,0-.1-.14-.16-.21-.02.13-.07.22-.13.27.12.12.23.26.32.34.15.22.15-.52.36-.1-.21-.42-.21.31-.36.1-.09-.08-.2-.22-.32-.34-.14.12-.35.07-.56-.12.16-.24.37-.08.56.12.07-.05.11-.15.13-.27.05.07.16.21.16.21.1-.09.18-.22.27-.33-.33.02-.66.05-1,.07-2.2.16-4.13.79-6.34,1.41-1.2.33-2.38.63-3.56.92-1.18.29-2.18.87-3.2,1.47-1.02.6-2.05,1.19-3.43,1.66-1.07.37-2.22,2.07-2.72,2.99-.04.82.51,1.3,1.06,1.6.55.3,1.11.43,1.17.44.93.15,1.24.04,1.53-.2.3-.22.59-.59,1.39-.7-.5.12-.62-.18-.4-.5.21-.32.77-.63,1.47-.45,1.04.3,1.6-.03,2.17-.52.55-.48,1.11-1.11,1.87-1.27.38-.08.69-.34,1.11-.51,2.33-.49,4.04-1.99,6.48-2.53.62-.18,1.07-.75,1.57-1.11.38-.17.86-.03,1.18-.09.51-.1.92-.34,1.32-.61-.47.16-.79.34-1.31.51-.35.09.13-.65.35-.83.08-.13.33.38.42.25.22-.03.39-.28.61-.45.09-.12.14.36.19.3.31-.15.48-.8.7-.69.16.05.31.11.45.18.09.02.17.03.26,0l.16-.13c-.05-.14-.08-.32-.11-.5.09.02.21.12.3.14-.09-.03-.21-.12-.3-.14.03.18.05.36.11.5.4-.3.88-.57,1.35-.74v-.04c-.28.03-.53-.02-.83-.31.13.11.11.24-.03.27l-.11-.24c.24-.14.5-.27.73.08,0,0,.11-.1.17-.15.08.07.06.22.07.35.05,0,.11-.02.16-.03-.09-.25-.45-.57-.45-.57Z"/>
      <path class="cls-2" d="m115.13,73.61s.08-.04.13-.06h-.56c.13.23.28.14.43.06Z"/>
    </g>
  </g>
  <g class="cls-1">
    <g>
      <path class="cls-2" d="m108.97,67.73h-.29c.05.02.1.07.15.15.06.05.09-.06.14-.15Z"/>
      <path class="cls-2" d="m108.41,67.72h-.05s-.04.05-.04.05c.03-.02.06-.03.09-.05Z"/>
      <path class="cls-2" d="m107.93,67.91c.09.01.17-.02.24-.06-.08-.03-.16-.01-.24.06Z"/>
      <path class="cls-2" d="m108.33,67.97c-.04-.07-.06-.14-.02-.2h0s-.1.05-.14.08c.06.02.11.06.16.12Z"/>
      <path class="cls-2" d="m108.33,67.97c.04.06.08.13.11.16-.03-.06-.07-.11-.11-.16Z"/>
      <path class="cls-2" d="m108.44,69.66c-.03.06-.09-.42-.15-.3-.16.16-.27.4-.44.44-.05.12-.3-.36-.35-.24-.16.18-.42.94-.16.83.37-.19.6-.38.93-.52.25-.24.5-.5.81-.67.08-.02.17.01.24.05-.1-.08-.21-.15-.33-.22-.18-.12-.33.5-.54.64Z"/>
      <path class="cls-2" d="m111,68.41c-.07.03-.2.09-.2.09-.07-.4-.36-.36-.61-.27l.04.26c.12,0,.18-.12.1-.25.18.35.37.47.6.53.04-.12.11-.26.07-.35Z"/>
      <path class="cls-2" d="m111.08,68.78c-.05,0-.1-.02-.15-.03v.04s.09,0,.15,0h0Z"/>
      <path class="cls-2" d="m107.06,68.56c-.58.19-1.12.36-1.66.53,0,.1,0,.21-.07.18-.07-.06-.13-.09-.19-.11l-.23.07-.06.07h0c-.02.07.02.13.07.19.05.03.1.08.15.13-.03-.03-.09-.08-.15-.13-.06-.04-.12-.07-.17-.07-.06.06-.12.1-.21.11.06-.09.13-.12.21-.11l.1-.11.02-.06-.54.15s-.07.05-.09.08c-.1.11-.19.22-.36.04l-.1.03s.02.02.03.03c-.02,0-.04-.02-.05-.03l-.41.11c-.05.12-.08.26-.14.36,0,0-.12-.12-.18-.18.01.12,0,.22-.04.28.13.1.26.22.36.28.18.18,0-.52.28-.16-.29-.37-.1.34-.28.16-.1-.06-.23-.18-.36-.28-.08.13-.27.13-.5-.03.07-.26.28-.14.5.03.04-.06.06-.16.04-.28.06.06.18.18.18.18.06-.1.1-.24.14-.36-.27.08-.54.15-.81.23-1.79.49-3.27,1.31-5.04,2.04-.97.38-1.93.72-2.91.99-1.98.57-3.08,2.1-5.41,2.32-.88.12-1.88,1.18-2.42,1.7-.27,1.25,1.45,2.51,1.55,2.57,1.56.99,1.3-.06,2.86.04-.99.03-.21-1.27,1.11-.74,1.94.85,2.34-1.21,3.72-1.55.34-.08.59-.34.95-.52,2.06-.54,3.31-2.14,5.32-2.98.51-.26.76-.88,1.1-1.3.29-.23.73-.17.99-.29.41-.19.7-.5.96-.84-.35.24-.58.49-.97.74-.27.15-.06-.65.08-.86.04-.13.38.3.42.16.18-.08.25-.34.39-.55.04-.13.22.31.24.25.21-.21.18-.87.4-.81.15.02.29.04.42.07.08,0,.15,0,.22-.05l.09-.16c-.09-.12-.16-.29-.24-.45.08,0,.21.06.29.07-.08,0-.21-.07-.29-.07.07.17.15.33.24.45.24-.38.55-.76.87-1.05l-.02-.04c-.21.1-.43.12-.75-.08.13.07.16.2.06.26l-.16-.2c.15-.2.33-.39.61-.11l.09-.19c.08.05.12.19.16.32.04-.02.08-.05.12-.07-.14-.21-.53-.43-.53-.43Z"/>
      <path class="cls-2" d="m104.74,69.4s.06-.05.09-.08l-.45.12c.17.18.26.07.36-.04Z"/>
    </g>
  </g>
</svg>