<svg width="84" height="75" viewBox="0 0 84 75" fill="none" xmlns="http://www.w3.org/2000/svg">
<path d="M82.6987 57.8726C84.0879 62.8836 81.3448 65.8834 78.761 68.4316C70.7972 76.272 56.0642 75.9397 47.9235 68.1759C46.9059 67.2044 45.2777 66.48 43.8442 66.301C38.9509 65.6874 34.0311 65.2443 29.1024 64.9801C24.3064 64.7244 21.0413 62.5086 19.5016 58.2731C15.095 46.146 10.9449 33.9337 6.49406 21.8236C5.74193 19.7697 4.34384 17.6648 2.6449 16.2586C-0.859172 13.3525 -1.08924 8.68234 3.21121 7.12277C9.95389 4.66837 16.9797 2.2225 24.0675 1.54924C33.9249 0.611801 44.0212 0.628846 53.8875 1.54924C60.8248 2.19693 67.7179 4.56611 74.2925 7.02051C79.0442 8.7846 78.938 12.5088 75.2216 15.9007C73.4341 17.5369 71.806 19.7016 71.0273 21.9259C69.2664 26.9284 68.0719 32.1184 66.6649 37.2318C65.9659 39.7628 67.8064 40.1378 69.7 40.9048C72.7262 42.132 76.0799 43.3337 78.3009 45.4983C80.0706 47.2198 81.8669 51.4809 80.9555 52.6484C79.0884 55.0261 75.4959 56.3045 72.4165 57.5572C71.3547 57.9919 69.6381 57.1226 68.2754 56.6709C65.6562 55.8102 63.1078 54.7193 60.4709 53.9097C54.8962 52.2053 49.5428 52.8018 44.6052 56.4238L43.5168 55.529C44.0654 53.5603 44.0124 51.0463 45.2866 49.7338C48.2863 46.6488 51.516 42.8308 55.4006 41.7059C60.9752 40.0952 64.8332 38.2544 65.7712 32.3059C66.3995 28.2749 67.6383 24.3291 68.9479 18.9686C48.534 24.3376 29.3855 23.5366 9.28139 19.3862C10.3255 24.0735 10.7945 28.0874 12.1307 31.8201C15.2454 40.5299 18.7937 49.0947 22.1385 57.7192C23.5543 61.3667 26.7398 62.5853 30.2881 62.8921C34.2169 63.2245 38.1899 63.2075 42.1364 63.1563C43.1717 63.1393 44.4548 62.6706 45.1715 61.9803C49.5605 57.7618 55.4537 56.2704 61.0195 58.4862C68.2134 61.3496 75.3278 63.5995 82.7075 57.8811L82.6987 57.8726ZM39.3403 19.7612C49.5074 20.1532 60.1523 19.693 70.1955 15.5853C72.0184 14.8354 73.3633 12.9946 74.9384 11.6566C73.5138 10.4209 72.1953 9.05732 70.638 8.00056C69.5938 7.29322 68.2665 6.9012 67.0012 6.56883C54.0025 3.17699 40.7472 2.34181 27.4211 3.64571C21.0766 4.26783 14.7676 5.70809 8.60004 7.31026C6.30824 7.90682 4.45002 10.0288 2.38828 11.4521C4.30844 12.9434 6.00738 14.9462 8.18415 15.8495C17.9619 19.889 28.3679 19.9572 39.3314 19.7527L39.3403 19.7612Z" fill="#C3B099"/>
<path d="M36.2167 5.42649C44.8972 6.3128 54.4449 7.12241 63.9307 8.39222C65.5854 8.6138 66.9658 10.7444 68.4789 11.9886C66.6915 13.2328 65.0545 15.2356 63.0989 15.5764C57.3827 16.565 51.5426 17.4343 45.7555 17.3491C35.5796 17.2042 25.4125 16.3434 15.2365 15.7384C14.3871 15.6872 13.3606 15.585 12.7412 15.1077C11.3785 14.051 10.2193 12.7385 8.97168 11.5284C10.3875 10.5057 11.6971 8.8439 13.2544 8.57971C20.528 7.36103 27.8813 6.52586 36.2078 5.41797L36.2167 5.42649ZM65.7535 10.804C47.7642 7.79567 30.2881 7.44626 12.405 10.787C17.4044 16.2582 59.1436 16.2582 65.7535 10.804Z" fill="#C3B099"/>
</svg>
