<svg width="16" height="21" viewBox="0 0 16 21" fill="none" xmlns="http://www.w3.org/2000/svg">
<path d="M7.97624 10.1885C8.51771 10.1885 8.9814 9.99301 9.36732 9.60194C9.75324 9.21088 9.94587 8.74133 9.94521 8.19331C9.94521 7.64462 9.75225 7.17475 9.36633 6.78368C8.98041 6.39262 8.51705 6.19742 7.97624 6.19808C7.43477 6.19808 6.97108 6.39362 6.58516 6.78468C6.19924 7.17575 6.00661 7.64529 6.00726 8.19331C6.00726 8.742 6.20022 9.21187 6.58614 9.60294C6.97206 9.994 7.43543 10.1892 7.97624 10.1885ZM7.97624 20.1647C5.33453 17.8868 3.36162 15.7712 2.0575 13.8179C0.753385 11.8645 0.100998 10.0562 0.100342 8.39283C0.100342 5.8988 0.892198 3.91189 2.47591 2.43209C4.05962 0.952299 5.89306 0.212402 7.97624 0.212402C10.0601 0.212402 11.8938 0.952299 13.4776 2.43209C15.0613 3.91189 15.8528 5.8988 15.8521 8.39283C15.8521 10.0555 15.1997 11.8639 13.895 13.8179C12.5902 15.7718 10.6173 17.8875 7.97624 20.1647Z" fill="#FAF6EF"/>
</svg>
