<svg width="149" height="74" viewBox="0 0 149 74" fill="none" xmlns="http://www.w3.org/2000/svg">
<path d="M143.928 35.5474C142.692 35.5474 141.542 35.5744 140.397 35.5181C140.225 35.5091 140 35.1394 139.924 34.9005C139.642 34.0237 139.414 33.1289 139.156 32.2453C139.07 31.9501 138.946 31.6661 138.838 31.3776C138.776 31.3843 138.712 31.3933 138.649 31.4001C138.628 31.5849 138.59 31.7675 138.587 31.9523C138.583 32.9846 138.573 34.0147 138.592 35.047C138.599 35.4347 138.449 35.5857 138.035 35.5744C137.239 35.5519 136.443 35.5429 135.647 35.5654C135.195 35.579 135.073 35.4054 135.075 35.0019C135.087 31.4001 135.087 27.7982 135.075 24.1986C135.075 23.8222 135.185 23.6599 135.613 23.6667C137.186 23.687 138.759 23.6532 140.33 23.6847C142.185 23.7231 143.335 24.681 143.634 26.4098C143.888 27.8771 143.734 29.2498 142.53 30.37C142.422 30.4692 142.427 30.7464 142.479 30.9155C142.903 32.2611 143.352 33.6 143.787 34.9411C143.842 35.1101 143.871 35.2882 143.931 35.5474H143.928ZM138.585 27.9267C138.585 28.1499 138.594 28.3775 138.597 28.5961C138.599 28.8148 138.597 29.1506 138.638 29.1416C138.939 29.0672 139.661 28.9568 139.697 28.781C139.809 28.2513 139.821 27.6743 139.711 27.1446C139.673 26.962 138.932 26.8516 138.638 26.7163C138.544 26.9102 138.59 27.1085 138.594 27.3136C138.599 27.5187 138.585 27.7216 138.585 27.9267Z" fill="white"/>
<path d="M6.48979 30.4063C7.17114 30.4063 7.85249 30.4356 8.52906 30.4018C11.0321 30.2756 13.5304 30.1178 16.0335 29.9893C19.7271 29.8 23.4232 29.6219 27.1168 29.4461C28.4269 29.3852 29.7418 29.3559 31.0519 29.3018C34.3894 29.1643 37.7268 28.9885 41.0666 28.8916C43.1896 28.8308 45.3149 28.8803 47.335 28.8803C35.1018 35.1825 22.7418 41.5499 10.3795 47.9174C10.4225 48.0031 10.4655 48.0865 10.5086 48.1721C23.4327 43.2111 36.3569 38.2501 49.2787 33.2891C49.3145 33.3252 49.3504 33.3612 49.3863 33.3973C39.7637 43.4455 30.0359 53.3991 20.2196 63.285C31.2886 54.7582 42.0372 45.8933 52.6161 36.8436C52.6639 36.8707 52.7117 36.8977 52.762 36.9248C50.8446 40.9323 48.9535 44.9489 47.0051 48.9407C45.0447 52.9595 43.0652 56.9694 41.026 60.9521C38.9867 64.9327 36.8637 68.8771 34.7814 72.8306C35.4652 72.3888 44.055 59.8139 46.2162 56.2887C49.7257 50.5658 53.3285 44.8926 56.9361 39.1292C56.764 40.4928 56.6038 41.8001 56.4341 43.1074C56.0492 46.0646 55.6762 49.0241 55.2698 51.9791C55.0236 53.762 54.7367 55.5426 54.4426 57.3187C53.8545 60.853 53.2497 64.3872 52.6448 67.9192C52.5372 68.548 52.444 69.1837 52.2575 69.7922C52.1691 70.0807 51.9324 70.4211 51.6622 70.5518C47.7367 72.4384 43.5768 73.5564 39.1732 73.8809C36.6844 74.0658 34.1981 74.0522 31.7285 73.7209C28.1233 73.2385 24.6711 72.2784 21.3887 70.7547C18.056 69.2084 15.07 67.2092 12.3733 64.8222C9.6001 62.3699 7.31697 59.5479 5.42353 56.4397C3.81219 53.7913 2.55946 51.0099 1.66534 48.0752C0.828587 45.3253 0.369571 42.5169 0.116156 39.6724C-0.218543 35.9015 0.19744 32.1734 1.01267 28.4949C1.9833 24.1132 3.69983 19.9884 6.32004 16.2265C6.9751 15.2889 7.69231 14.3895 8.35932 13.4587C8.59839 13.1251 8.88288 13.0417 9.27735 13.1454C13.2053 14.1732 17.138 15.1852 21.0612 16.2288C23.6838 16.9253 26.2968 17.651 28.9051 18.3949C31.3795 19.0981 33.8443 19.8352 36.3091 20.5677C39.154 21.4152 41.9942 22.2717 44.8344 23.1282C45.5659 23.3491 46.2927 23.5858 47.0195 23.8991C33.4498 25.824 19.9088 27.8097 6.47783 30.4063H6.48979Z" fill="#F6F500"/>
<path d="M8.84473 12.8886C9.43284 12.2237 9.88947 11.667 10.3891 11.1463C13.8963 7.4994 18.0203 4.65038 22.7969 2.64434C23.2344 2.46177 23.5715 2.44824 23.9994 2.73224C28.2979 5.57225 32.6466 8.34464 36.9188 11.2207C40.2515 13.4634 43.4933 15.8278 46.7781 18.1359C47.2347 18.4582 47.6985 18.7738 48.1241 19.1863C35.1401 16.7452 22.1538 14.3966 8.84473 12.8886Z" fill="#F6F500"/>
<path d="M54.7989 28.2941C55.3129 26.9214 55.8413 25.5532 56.3266 24.1715C56.4605 23.7884 56.6398 23.6261 57.0796 23.6373C58.1292 23.6621 59.1787 23.6464 60.331 23.6464C60.2378 23.9484 60.1876 24.1603 60.1087 24.3586C59.413 26.0919 58.7101 27.823 58.024 29.5585C57.9666 29.7028 57.9714 29.9011 58.0288 30.0454C58.6671 31.6998 59.3174 33.3475 59.97 34.9974C59.9939 35.0605 60.0489 35.1101 60.1876 35.3017C60.3215 34.6277 60.4314 34.089 60.5366 33.5503C60.9956 31.2152 61.4523 28.8778 61.9089 26.5427C62.0667 25.7335 62.2412 24.9266 62.387 24.1129C62.4468 23.7816 62.5926 23.6351 62.9704 23.6396C64.3641 23.6554 65.7555 23.6599 67.1493 23.6373C67.6203 23.6283 67.7637 23.838 67.8354 24.2234C68.2825 26.6194 68.7439 29.0131 69.2053 31.4045C69.4348 32.6014 69.6596 33.7983 69.9154 34.9906C70.0038 35.3986 69.8795 35.5428 69.4492 35.5338C68.6339 35.5203 67.8163 35.518 67.0011 35.5338C66.664 35.5406 66.4727 35.4256 66.4178 35.1123C66.4106 35.0763 66.3986 35.0402 66.3891 35.0041C66.26 34.5804 66.2504 33.8974 65.9779 33.787C65.471 33.5819 64.8112 33.6788 64.2183 33.7194C64.0677 33.7306 63.8549 33.9831 63.8095 34.1544C63.4509 35.5271 63.4628 35.5293 61.9591 35.5293C60.2497 35.5293 58.538 35.518 56.8286 35.5361C56.3768 35.5406 56.1449 35.3941 56.0134 34.9816C55.6309 33.7847 55.2149 32.5969 54.6961 31.4181C54.6961 32.509 54.6961 33.5977 54.6961 34.6886C54.6961 35.2476 54.3981 35.5278 53.802 35.5293C53.1852 35.5293 52.566 35.5 51.9516 35.5383C51.3945 35.5744 51.1937 35.4166 51.1985 34.8554C51.2248 31.3302 51.22 27.8049 51.2009 24.2797C51.1985 23.8041 51.3157 23.599 51.8607 23.6306C52.5756 23.6712 53.2952 23.6644 54.0076 23.6306C54.524 23.608 54.7128 23.7748 54.7033 24.273C54.677 25.6028 54.6937 26.9327 54.6937 28.2625L54.7965 28.2873L54.7989 28.2941ZM65.0694 27.5886C65.0407 27.5953 65.012 27.6021 64.9833 27.6111C64.7801 28.817 64.5769 30.0206 64.3713 31.2468H65.6886C65.4758 29.9823 65.2726 28.7854 65.0694 27.5886Z" fill="white"/>
<path d="M53.5582 69.5534C56.7164 59.7171 59.1764 49.8695 61.5097 39.9678C61.9114 42.1023 62.3393 44.2323 62.7099 46.3736C63.3673 50.1625 63.9889 53.9559 64.6272 57.7494C64.644 57.8418 64.6344 57.9432 64.6679 58.0266C65.2106 59.3046 64.6798 60.2513 63.7976 61.252C61.0149 64.4099 57.8543 67.1372 54.132 69.2762C54.0029 69.3506 53.8619 69.4069 53.5558 69.5534H53.5582Z" fill="#F6F500"/>
<path d="M50.7777 15.4556C42.3385 10.6231 33.873 6.07679 25.1708 1.76494C25.7757 1.57561 26.3758 1.36599 26.9878 1.20145C30.7316 0.189412 34.5592 -0.121637 38.4393 0.0406494C38.9174 0.0609352 39.2378 0.248015 39.5247 0.615413C41.6333 3.31342 43.7897 5.98212 45.8815 8.69366C47.5287 10.8282 49.1042 13.01 50.7108 15.1738C50.7419 15.2144 50.7371 15.2775 50.7777 15.4578V15.4556Z" fill="#F6F500"/>
<path d="M103.299 35.5205C102.063 35.5205 100.913 35.5476 99.7679 35.4912C99.5958 35.4822 99.3711 35.1126 99.2946 34.8737C99.0125 33.9969 98.7853 33.102 98.5271 32.2185C98.4411 31.9232 98.3168 31.6392 98.2092 31.3507C98.147 31.3575 98.0825 31.3665 98.0203 31.3732C97.9988 31.5581 97.9605 31.7406 97.9582 31.9255C97.9534 32.9578 97.9438 33.9878 97.9629 35.0202C97.9701 35.4078 97.8195 35.5589 97.4059 35.5476C96.6098 35.5251 95.8137 35.516 95.0176 35.5386C94.5657 35.5521 94.4438 35.3785 94.4462 34.9751C94.4582 31.3732 94.4582 27.7714 94.4462 24.1718C94.4462 23.7954 94.5562 23.6331 94.9841 23.6399C96.5572 23.6601 98.1303 23.6263 99.701 23.6579C101.556 23.6962 102.706 24.6541 103.005 26.3829C103.258 27.8503 103.105 29.2229 101.9 30.3432C101.793 30.4423 101.798 30.7196 101.85 30.8886C102.273 32.2343 102.723 33.5731 103.158 34.9142C103.213 35.0833 103.242 35.2613 103.301 35.5205H103.299ZM97.9558 27.8999C97.9558 28.123 97.9653 28.3507 97.9677 28.5693C97.9701 28.7879 97.9677 29.1238 98.0084 29.1148C98.3096 29.0404 99.0316 28.9299 99.0674 28.7541C99.1798 28.2244 99.1918 27.6474 99.0818 27.1177C99.0435 26.9352 98.3024 26.8247 98.0084 26.6895C97.9151 26.8833 97.9605 27.0817 97.9653 27.2868C97.9701 27.4919 97.9558 27.6947 97.9558 27.8999Z" fill="white"/>
<path d="M109.878 32.2114C110.722 32.3962 111.43 32.5607 112.145 32.7005C112.415 32.7546 112.709 32.8041 112.97 32.7568C113.209 32.7117 113.565 32.5675 113.61 32.4029C113.67 32.1888 113.553 31.8124 113.371 31.6817C112.855 31.3098 112.281 30.9942 111.7 30.7147C110.435 30.1084 109.577 29.2181 109.353 27.8657C109.008 25.792 110.357 23.4299 113.053 23.5088C114.165 23.5426 115.274 23.6124 116.386 23.671C116.924 23.7003 117.158 23.9122 117.036 24.4735C116.893 25.1316 116.85 25.8078 116.773 26.4795C116.728 26.8672 116.541 26.9821 116.128 26.8852C115.53 26.7432 114.923 26.6463 114.316 26.5449C114.122 26.5133 113.89 26.466 113.73 26.5358C113.5 26.6373 113.202 26.8108 113.151 27.0047C113.104 27.1872 113.28 27.5186 113.465 27.638C113.935 27.9446 114.452 28.197 114.973 28.4269C117.56 29.5765 117.94 32.146 116.847 34.0867C116.147 35.3331 114.897 35.7163 113.534 35.705C112.47 35.696 111.406 35.4976 110.345 35.3602C109.874 35.2993 109.642 35.0784 109.723 34.551C109.835 33.8027 109.831 33.0386 109.881 32.2114H109.878Z" fill="white"/>
<path d="M126.627 29.5723C126.627 27.8097 126.642 26.0471 126.618 24.2845C126.61 23.7976 126.773 23.6286 127.301 23.6354C129.212 23.6602 131.122 23.6647 133.032 23.6331C133.608 23.6241 133.761 23.8202 133.709 24.3183C133.642 24.9517 133.594 25.5873 133.579 26.2252C133.57 26.6061 133.383 26.7075 133.025 26.703C132.308 26.6918 131.593 26.712 130.876 26.6963C130.486 26.6872 130.302 26.7954 130.287 27.2011C130.249 28.2966 130.232 28.2966 131.392 28.2966C133.094 28.2966 133.104 28.2966 133.089 29.8721C133.08 30.9811 133.336 30.9473 131.935 30.9495C131.834 30.9495 131.736 30.9495 131.636 30.9495C130.156 30.9788 130.297 30.6926 130.292 32.3199C130.292 32.667 130.455 32.773 130.804 32.7662C131.6 32.7527 132.396 32.7752 133.192 32.7594C133.572 32.7527 133.742 32.8721 133.709 33.2463C133.651 33.8616 133.606 34.4792 133.575 35.0968C133.56 35.3989 133.426 35.5341 133.101 35.5341C131.091 35.5341 129.082 35.5386 127.072 35.5476C126.63 35.5476 126.622 35.2726 126.622 34.9751C126.622 33.1742 126.622 31.3755 126.622 29.5746L126.627 29.5723Z" fill="white"/>
<path d="M86.334 29.5947C86.334 27.814 86.3484 26.0334 86.3245 24.2505C86.3197 23.7907 86.4631 23.6306 86.9652 23.6374C88.9136 23.66 90.8644 23.6577 92.8152 23.6374C93.2958 23.6329 93.4535 23.7974 93.4081 24.2325C93.3436 24.8839 93.3005 25.5398 93.2742 26.1957C93.2599 26.5473 93.1021 26.7028 92.7268 26.6983C91.9904 26.6893 91.2541 26.7118 90.5178 26.6915C90.085 26.6803 89.8794 26.8245 89.9201 27.2415C89.9249 27.2979 89.9201 27.3542 89.9201 27.4106C89.9153 27.9981 90.2189 28.2926 90.8309 28.2941C91.3091 28.2941 91.7848 28.3009 92.263 28.2986C92.6216 28.2986 92.8176 28.4271 92.8081 28.799C92.7913 29.3422 92.7937 29.8854 92.8081 30.4309C92.8176 30.7893 92.6574 30.947 92.2797 30.9448C91.682 30.9403 91.0867 30.9583 90.4891 30.9448C90.085 30.9358 89.932 31.0913 89.9129 31.4745C89.8531 32.7592 89.8412 32.7592 91.2111 32.7592C91.7681 32.7592 92.3251 32.7705 92.8822 32.757C93.2527 32.748 93.4464 32.8562 93.4081 33.2393C93.3484 33.8547 93.3412 34.4768 93.2408 35.0853C93.2145 35.2521 92.9372 35.5068 92.7722 35.5091C90.7831 35.5384 88.7941 35.5226 86.805 35.5339C86.3747 35.5361 86.334 35.3107 86.334 34.9929C86.3412 33.192 86.3364 31.3933 86.3364 29.5924L86.334 29.5947Z" fill="white"/>
<path d="M70.8525 29.5613C70.8525 27.837 70.8668 26.1105 70.8429 24.3862C70.8357 23.852 70.972 23.6198 71.6056 23.6334C73.5157 23.6717 75.4259 23.6627 77.3361 23.6356C77.8859 23.6289 78.0366 23.8227 77.9792 24.3005C77.8979 24.9519 77.8333 25.6033 77.7975 26.2592C77.7784 26.6154 77.5823 26.701 77.2596 26.6988C76.5424 26.6943 75.8275 26.7123 75.1103 26.692C74.68 26.6785 74.4696 26.8205 74.515 27.2397V27.2961C74.4991 27.9618 74.8394 28.2946 75.5359 28.2946C77.1592 28.2946 77.1663 28.2946 77.1568 29.8047C77.1496 30.9813 77.3576 30.9408 75.928 30.9498C74.319 30.961 74.5342 30.7694 74.5198 32.2526C74.5103 33.1158 74.4911 33.9791 74.527 34.8401C74.5509 35.3901 74.3214 35.5682 73.7596 35.5389C73.0663 35.505 72.3682 35.5321 71.6701 35.5298C70.8597 35.5298 70.8573 35.5276 70.8573 34.7319C70.8573 33.0076 70.8573 31.2811 70.8573 29.5568L70.8525 29.5613Z" fill="white"/>
<path d="M78.5814 29.579C78.5814 27.8164 78.5934 26.056 78.5743 24.2934C78.5695 23.8201 78.7153 23.6285 79.2532 23.6375C81.1825 23.6623 83.1118 23.66 85.0411 23.6375C85.5504 23.633 85.7081 23.8043 85.6579 24.2641C85.5982 24.8028 85.6006 25.3483 85.5551 25.8915C85.4858 26.6984 85.4786 26.6984 84.5917 26.6984C83.9558 26.6984 83.3174 26.7074 82.6815 26.6939C82.3277 26.6871 82.201 26.8156 82.1866 27.156C82.1412 28.2942 82.1269 28.2942 83.3461 28.2942C84.3375 28.2942 84.8332 28.7548 84.8332 29.6759C84.8332 30.9471 84.8331 30.9404 83.4561 30.9494C81.9763 30.9562 82.2105 30.8142 82.1938 32.1485C82.1819 33.0659 82.1675 33.9855 82.201 34.9029C82.2201 35.4078 82.0121 35.5588 81.5029 35.5385C80.7474 35.5092 79.992 35.5092 79.2365 35.5385C78.7392 35.5565 78.5719 35.3717 78.5743 34.9164C78.5886 33.1358 78.5814 31.3551 78.5814 29.5745V29.579Z" fill="white"/>
<path d="M119.912 31.0394C119.912 29.7637 119.9 28.4879 119.919 27.2122C119.924 26.829 119.792 26.6622 119.374 26.6803C118.898 26.7005 118.418 26.6825 117.942 26.678C117.648 26.6735 117.437 26.5878 117.466 26.2498C117.526 25.5397 117.579 24.8297 117.624 24.1175C117.645 23.7659 117.822 23.6396 118.198 23.6396C120.627 23.6509 123.056 23.6509 125.482 23.6396C125.891 23.6396 126.066 23.7636 126.032 24.1603C125.972 24.8523 125.97 25.5488 125.877 26.234C125.855 26.3985 125.587 26.6239 125.399 26.6555C125.014 26.7231 124.605 26.7051 124.208 26.6758C123.692 26.6352 123.515 26.8132 123.519 27.3114C123.543 29.7862 123.531 32.2634 123.529 34.7382C123.529 35.5249 123.527 35.5271 122.709 35.5294C121.973 35.5294 121.236 35.5136 120.5 35.5339C120.062 35.5451 119.902 35.3874 119.907 34.9749C119.924 33.6631 119.914 32.349 119.914 31.0349L119.912 31.0394Z" fill="white"/>
<path d="M104.507 29.516C104.507 27.7714 104.519 26.0269 104.497 24.2823C104.492 23.7999 104.655 23.6106 105.186 23.6331C105.979 23.6692 106.778 23.6534 107.574 23.6399C107.954 23.6331 108.112 23.7684 108.11 24.1313C108.102 27.7692 108.102 31.4093 108.11 35.0473C108.11 35.4259 107.916 35.5319 107.555 35.5274C106.778 35.5183 106.001 35.498 105.226 35.5341C104.674 35.5612 104.492 35.3718 104.497 34.8602C104.519 33.0795 104.507 31.2966 104.504 29.516H104.507Z" fill="white"/>
<path d="M144.874 29.6307C144.874 27.8501 144.888 26.0695 144.864 24.2888C144.857 23.8132 144.986 23.6081 145.529 23.6352C146.303 23.6735 147.08 23.6555 147.855 23.6419C148.214 23.6352 148.41 23.7253 148.407 24.1085C148.4 27.7644 148.4 31.4204 148.405 35.0763C148.405 35.3739 148.292 35.5294 147.955 35.5249C147.08 35.5181 146.205 35.5136 145.33 35.5249C144.893 35.5316 144.869 35.2792 144.871 34.9704C144.876 33.1898 144.871 31.4091 144.871 29.6285L144.874 29.6307Z" fill="white"/>
<path d="M67.1564 56.4984C66.7476 50.7215 66.346 45.0144 65.9443 39.3051C65.9802 39.2938 66.0161 39.2803 66.0519 39.269C66.5085 40.0692 66.9795 40.8626 67.4146 41.6718C68.5311 43.7409 69.6428 45.8146 70.7281 47.8973C70.8429 48.1181 70.8596 48.445 70.7855 48.6861C69.9894 51.2309 68.8682 53.6471 67.5246 55.9732C67.4218 56.1491 67.2879 56.3113 67.1564 56.4984Z" fill="#F6F500"/>
<path d="M54.3995 12.647C50.5242 8.60565 46.7206 4.63866 42.8141 0.563477C43.7154 0.768588 44.502 0.888049 45.2431 1.12922C47.0816 1.72878 48.9033 2.37567 50.7226 3.02932C50.9354 3.10596 51.1745 3.31558 51.2462 3.51393C52.2885 6.42381 53.307 9.3427 54.3278 12.2593C54.3637 12.3608 54.3684 12.4712 54.4019 12.6448L54.3995 12.647Z" fill="#F6F500"/>
<path d="M51.4993 18.3727C51.4993 17.3426 51.5136 16.3126 51.4921 15.2825C51.4826 14.825 51.6619 14.6424 52.1543 14.6582C52.9481 14.6852 53.7466 14.6446 54.5403 14.6784C56.1683 14.7461 57.1748 15.677 57.3565 17.2006C57.5048 18.4629 57.5382 19.7093 56.8497 20.8611C56.4122 21.5914 55.738 22.0399 54.8439 22.0985C53.933 22.1594 53.0174 22.1481 52.1041 22.1864C51.626 22.2067 51.4849 21.9971 51.4921 21.5779C51.5112 20.5095 51.4993 19.4433 51.4993 18.375V18.3727ZM53.7752 18.4854C53.7752 18.8979 53.7513 19.3126 53.7872 19.7206C53.8039 19.9077 53.8063 20.1601 53.8374 20.1533C54.1362 20.0857 54.7817 20.1105 54.8535 19.9234C55.2192 18.9678 55.2073 17.967 54.8582 17.0091C54.7937 16.8332 54.1243 16.7363 53.8374 16.689C53.7776 16.6777 53.8063 17.0136 53.7896 17.1939C53.749 17.6221 53.7752 18.0549 53.7752 18.4854Z" fill="white"/>
<path d="M61.5262 19.8845C61.2465 19.8845 60.9644 19.8598 60.6919 19.8936C60.5867 19.9071 60.4719 19.9386 60.3858 20.0108C60.3261 20.0626 60.2998 20.1595 60.3213 20.2565C60.3572 20.421 60.4934 20.5472 60.6273 20.563C60.9907 20.6036 61.3756 20.563 61.7438 20.4999C62.1382 20.4323 62.5231 20.2294 62.6475 20.8335C62.8459 21.7869 62.7789 22.0078 62.0665 22.1047C61.421 22.1904 60.7612 22.249 60.1109 22.2219C59.0184 22.1768 58.3537 21.5209 58.0549 20.6036C57.7083 19.5464 57.6939 18.4533 58.2151 17.4232C58.6717 16.5216 59.5109 16.2354 60.448 16.2286C61.8657 16.2173 62.9965 17.333 62.9822 18.6697C62.9654 20.0851 63.1734 19.8643 61.5238 19.8868L61.5262 19.8845ZM60.9022 18.7733C60.9668 18.6201 60.8998 18.3857 60.8759 18.2865C60.8664 18.2504 60.8449 18.2166 60.809 18.2008C60.668 18.1445 60.4265 18.1896 60.2496 18.2189C60.0559 18.2504 60.1516 18.6178 60.2328 18.7598C60.2783 18.8364 60.503 18.8229 60.7564 18.8477C60.8162 18.8545 60.8807 18.8274 60.9022 18.7733Z" fill="white"/>
<path d="M65.7147 22.24C65.5162 22.24 65.3154 22.2468 65.117 22.24C64.3472 22.2062 63.924 21.8614 63.8714 21.1423C63.8141 20.3399 63.8165 19.533 63.7949 18.7283C63.7878 18.4331 63.7256 18.095 63.4459 17.9845C63.1255 17.8583 63.2355 17.2114 63.2236 16.8034C63.2212 16.684 63.7543 16.6096 63.8691 16.4721C64.0101 16.3008 63.9479 16.0709 63.9599 15.8793C63.9886 15.4533 64.2061 15.3316 64.6054 15.3451C64.8445 15.3541 65.0835 15.3586 65.3202 15.3429C65.8199 15.3113 66.1426 15.4375 66.0661 15.992C66.0183 16.3301 66.1952 16.4834 66.5514 16.4383C67.1085 16.3684 67.1874 16.666 67.1348 17.0852C67.075 17.5698 67.0487 18.1513 66.1976 18.0927C66.1187 18.0882 66.0805 18.3564 66.0685 18.5052C66.0326 18.9154 66.0685 19.3302 66.0494 19.7404C66.0303 20.1754 66.047 20.5563 66.6925 20.4391C66.7451 20.4301 66.8574 20.4526 66.8574 20.4707C66.9172 20.9169 67.0057 21.3677 66.9913 21.814C66.9865 21.9515 66.7212 22.1499 66.5395 22.1972C66.2813 22.2626 65.9872 22.213 65.7099 22.213V22.2378L65.7147 22.24Z" fill="white"/>
<path d="M78.1296 17.4797C78.1296 18.1897 78.101 18.9042 78.144 19.612C78.1631 19.914 78.4165 20.207 78.4213 20.5068C78.4285 21.0635 78.4883 21.7014 78.2301 22.1567C77.9934 22.5782 76.4083 22.1725 76.1334 21.6586C75.9876 21.3836 75.8848 21.0568 75.88 20.7525C75.8561 18.8433 75.8752 16.9342 75.8609 15.0274C75.8585 14.5946 76.0306 14.4256 76.492 14.4323C78.4739 14.4639 78.089 14.2182 78.1296 15.9109C78.1416 16.4339 78.1296 16.959 78.1296 17.4819V17.4797Z" fill="white"/>
<path d="M78.8183 17.9441C78.8183 16.9523 78.8302 15.9583 78.8111 14.9666C78.8039 14.5857 78.945 14.4234 79.361 14.4279C81.4002 14.4504 81.056 14.2115 81.0823 15.9583C81.0966 17.0447 81.0727 18.1312 81.0895 19.2176C81.0966 19.6864 81.0942 20.1259 81.3453 20.606C81.5461 20.9914 81.3118 21.582 81.264 22.0801C81.2592 22.1229 81.1946 22.1703 81.1468 22.1973C80.2766 22.6842 78.8804 21.9516 78.8231 20.9757C78.8231 20.9374 78.8207 20.9013 78.8207 20.863C78.8207 19.8893 78.8207 18.9155 78.8207 17.9418L78.8183 17.9441Z" fill="white"/>
<path d="M70.0921 17.9938C70.0921 16.9818 70.1065 15.9697 70.0849 14.9577C70.0778 14.5655 70.2379 14.4258 70.642 14.4303C72.5928 14.4528 72.2724 14.2342 72.294 15.9157C72.3107 17.1891 72.2844 18.4649 72.3083 19.7406C72.3131 19.9796 72.5187 20.2117 72.5306 20.4506C72.5617 20.9984 72.5306 21.5483 72.5187 22.0983C72.5187 22.1366 72.447 22.184 72.3968 22.2087C71.4787 22.6708 70.1184 21.9495 70.0969 20.9758C70.0754 19.9818 70.0921 18.9878 70.0921 17.9961H70.0897L70.0921 17.9938Z" fill="white"/>
<path d="M75.2678 19.3213C75.2678 20.0877 75.2534 20.8563 75.2725 21.6226C75.2821 22.0351 75.0932 22.1726 74.6701 22.1906C73.0755 22.2515 73.0755 22.2605 73.0755 20.7954C73.0755 19.5242 73.0898 18.2507 73.0683 16.9794C73.0611 16.5625 73.2046 16.4205 73.6469 16.434C75.5594 16.4858 75.2319 16.159 75.2678 17.9216C75.2773 18.3882 75.2678 18.857 75.2678 19.3236V19.3213Z" fill="white"/>
<path d="M69.9271 36.8232C70.7639 37.5851 71.6054 38.3402 72.4278 39.1155C72.5354 39.217 72.5952 39.4243 72.5808 39.5753C72.4924 40.5153 72.3752 41.4529 72.27 42.3906C72.2174 42.3973 72.1672 42.4041 72.1146 42.4108C71.3472 40.5829 70.5822 38.7526 69.8148 36.9247C69.853 36.8909 69.8913 36.8593 69.9271 36.8255V36.8232Z" fill="#F6F500"/>
<path d="M56.3547 6.12207C57.1077 6.68331 57.8656 7.24004 58.6115 7.8103C58.688 7.8689 58.731 8.0109 58.731 8.11458C58.7406 9.18071 58.7358 10.2468 58.6019 11.3513L56.2136 6.24379C56.2614 6.20321 56.3069 6.16264 56.3547 6.12207Z" fill="#F6F500"/>
<path d="M74.1376 14.396C74.9791 14.396 75.3425 14.6935 75.3281 15.3742C75.3162 15.9986 74.8906 16.3457 74.1471 16.3457C73.3725 16.3457 72.9326 15.9715 72.9518 15.3314C72.9709 14.6732 73.3199 14.3982 74.1376 14.3982V14.396Z" fill="white"/>
<path d="M85.3974 19.9744C85.1177 19.9744 84.8356 19.9496 84.5631 19.9834C84.4579 19.9969 84.3431 20.0285 84.2571 20.1006C84.1973 20.1525 84.171 20.2494 84.1925 20.3463C84.2284 20.5108 84.3646 20.6371 84.4985 20.6528C84.8619 20.6934 85.2468 20.6528 85.615 20.5897C86.0095 20.5221 86.3944 20.3192 86.5187 20.9233C86.7171 21.8767 86.6502 22.0976 85.9377 22.1946C85.2922 22.2802 84.6324 22.3388 83.9821 22.3118C82.8896 22.2667 82.225 21.6108 81.9261 20.6934C81.5795 19.6363 81.5651 18.5431 82.0863 17.513C82.5429 16.6115 83.3821 16.3252 84.3192 16.3184C85.7369 16.3072 86.8677 17.4229 86.8534 18.7595C86.8366 20.175 87.0446 19.9541 85.395 19.9766L85.3974 19.9744ZM84.7735 18.8632C84.838 18.7099 84.7711 18.4755 84.7472 18.3763C84.7376 18.3403 84.7161 18.3064 84.6802 18.2907C84.5392 18.2343 84.2977 18.2794 84.1208 18.3087C83.9271 18.3403 84.0228 18.7077 84.1041 18.8497C84.1495 18.9263 84.3742 18.9128 84.6276 18.9376C84.6874 18.9443 84.7519 18.9173 84.7735 18.8632Z" fill="white"/>
</svg>
