<svg width="130" height="123" viewBox="0 0 130 123" fill="none" xmlns="http://www.w3.org/2000/svg">
<path d="M11.3449 55.1094C12.0309 53.3755 12.5488 51.5549 13.4447 49.951C18.1903 41.3394 22.9918 32.7566 27.8213 24.1883C39.8182 2.87585 56.3645 -3.90078 81.6881 2.08114C82.822 2.34123 83.8999 2.8036 85.0338 3.06368C96.8626 5.72232 96.7506 5.66452 90.8432 16.5736C79.6863 37.1925 61.2361 50.8613 34.9746 44.0269C27.2754 42.0185 20.906 43.1744 17.4623 51.7861C16.7624 53.5489 14.8586 54.7915 13.5147 56.2653C12.8008 55.8752 12.0729 55.485 11.3589 55.0949L11.3449 55.1094ZM30.0331 37.9583C59.6682 46.281 78.9583 34.4038 88.1414 9.34904C60.3542 -1.48778 38.8802 7.67295 31.363 30.0402C44.9277 21.8475 58.5903 14.7386 74.9407 16.039C59.5702 22.1654 42.8979 25.3731 30.0331 37.9583Z" fill="#C6B498"/>
<path d="M103.876 122.298C87.8336 103.875 79.7423 77.0433 97.6326 53.2745C98.6265 51.9596 99.3264 50.3124 100.544 49.2865C108.272 42.7555 107.81 35.5888 102.672 27.6851C101.902 26.5003 102.364 24.4485 102.224 22.2378C103.918 22.8736 104.534 22.9025 104.688 23.1914C111.939 36.6002 120.128 49.59 126.12 63.5767C132.335 78.1125 128.276 92.2148 119.121 104.511C114.543 110.652 109.181 116.171 103.89 122.312L103.876 122.298ZM104.016 114.539C126.036 90.6543 130.865 64.5159 115.187 54.0836C115.523 75.8295 110.623 95.9138 102.784 99.5405C107.46 82.086 112.975 65.5273 108.86 47.7405C87.0776 68.6628 87.2876 92.7205 104.016 114.539Z" fill="#C6B498"/>
<path d="M83.396 119.423C81.2262 119.553 79.0704 119.813 76.9006 119.813C68.4174 119.813 59.9483 119.61 51.4651 119.726C25.9876 120.102 9.77715 107.372 3.39377 81.797C2.93181 79.9475 2.56785 78.0547 1.86792 76.3064C-1.25378 68.5761 -1.0158 68.0415 6.87943 67.6225C21.746 66.8422 36.8085 67.8536 47.5595 79.4274C54.6288 87.0421 59.4863 97.2287 63.8679 106.967C66.5976 113.022 69.8173 115.391 75.8367 115.305C78.4685 115.261 81.1002 116.07 83.7459 116.489C83.6339 117.472 83.508 118.454 83.396 119.437V119.423ZM18.9323 81.8548C31.657 92.6194 42.7019 105.595 59.7523 110.796C52.753 79.2395 28.5073 68.3016 6.33348 73.9367C12.4229 105.45 30.6071 117.53 52.459 113.946C38.8943 105.522 25.9456 96.9975 18.9323 81.8548Z" fill="#C6B498"/>
</svg>
