<svg width="132" height="125" viewBox="0 0 132 125" fill="none" xmlns="http://www.w3.org/2000/svg">
<path d="M11.5947 56.3203C12.2957 54.5483 12.8251 52.6878 13.7407 51.0487C18.5905 42.2478 23.4975 33.4764 28.4332 24.7198C40.6936 2.93904 57.6036 -3.9865 83.4836 2.12688C84.6424 2.39267 85.744 2.86521 86.9028 3.13101C98.9916 5.84806 98.8771 5.789 92.8399 16.9378C81.4378 38.0097 62.5822 51.979 35.7437 44.9943C27.8752 42.9418 21.3659 44.1231 17.8466 52.924C17.1312 54.7255 15.1856 55.9955 13.8122 57.5017C13.0826 57.103 12.3387 56.7043 11.609 56.3056L11.5947 56.3203ZM30.6936 38.7924C60.9799 47.2979 80.6939 35.1598 90.0788 9.55448C61.6809 -1.52048 39.7351 7.84156 32.0527 30.7003C45.9154 22.3276 59.8783 15.0624 76.588 16.3914C60.8797 22.6525 43.841 25.9307 30.6936 38.7924Z" fill="#C6B498"/>
<path d="M106.159 124.985C89.7641 106.158 81.4951 78.7363 99.7785 54.4452C100.794 53.1015 101.51 51.4181 102.754 50.3697C110.651 43.6952 110.179 36.3709 104.929 28.2936C104.142 27.0827 104.614 24.9859 104.471 22.7266C106.202 23.3763 106.831 23.4058 106.989 23.7012C114.399 37.4046 122.769 50.6798 128.892 64.9738C135.244 79.829 131.095 94.2413 121.739 106.808C117.06 113.083 111.581 118.724 106.173 125L106.159 124.985ZM106.302 117.056C128.806 92.6465 133.742 65.9337 117.719 55.2722C118.062 77.4959 113.055 98.0215 105.043 101.728C109.821 83.8899 115.458 66.9673 111.252 48.7896C88.9916 70.1717 89.2062 94.7581 106.302 117.056Z" fill="#C6B498"/>
<path d="M85.2285 122.047C83.0111 122.18 80.8079 122.445 78.5904 122.445C69.9208 122.445 61.2656 122.239 52.596 122.357C26.5586 122.741 9.99199 109.731 3.46834 83.5944C2.99624 81.7042 2.62427 79.7698 1.90896 77.9831C-1.28133 70.0829 -1.03812 69.5365 7.0306 69.1083C22.2238 68.3109 37.6173 69.3446 48.6045 81.1726C55.8292 88.9546 60.7935 99.3651 65.2713 109.318C68.061 115.505 71.3515 117.927 77.5032 117.838C80.1927 117.794 82.8823 118.621 85.5862 119.049C85.4717 120.053 85.343 121.057 85.2285 122.061V122.047ZM19.3483 83.6534C32.3527 94.6546 43.6403 107.915 61.0653 113.231C53.9122 80.9807 29.1337 69.8023 6.47265 75.5613C12.6959 107.767 31.2797 120.112 53.6117 116.45C39.749 107.841 26.5157 99.1288 19.3483 83.6534Z" fill="#C6B498"/>
</svg>
