<?xml version="1.0" encoding="UTF-8"?>
<svg id="Layer_1" data-name="Layer 1" xmlns="http://www.w3.org/2000/svg" viewBox="0 0 133.38 121.78">
  <defs>
    <style>
      .cls-1 {
        opacity: .85;
      }

      .cls-2 {
        fill: #4d2b10;
        stroke-width: 0px;
      }
    </style>
  </defs>
  <g class="cls-1">
    <g>
      <path class="cls-2" d="m41.93,45.36c.52.1,1.05.21,1.58.31-.26-.08-.51-.18-.77-.31-.33-.12-.53-.05-.81,0Z"/>
      <path class="cls-2" d="m44.98,45.92c.1.01.19.03.28.04.09,0,.17,0,.25-.01l-.53-.03Z"/>
      <path class="cls-2" d="m47.79,46.09c-.49-.07-.97-.09-1.43-.1.4.07.87.11,1.43.1Z"/>
      <path class="cls-2" d="m45.58,45.75c.16.09.24.18-.05.2h-.01c.28.01.56.03.85.04-.3-.06-.56-.15-.79-.24Z"/>
      <path class="cls-2" d="m45.58,45.75c-.16-.09-.41-.19-.49-.24.14.08.31.16.49.24Z"/>
      <path class="cls-2" d="m46.46,44.16c.28-.03.16.44.71.38,1.28-.02,2.36-.19,3.54-.19.53-.1,1.39.42,1.93.28,1.29-.14,4.39-1.19,2.52-.94-2.81.34-4.66.5-7.22.42-2.09.06-4.1-.05-6.29-.29-.61-.09-1.17-.24-1.74-.38.73.21,1.48.42,2.31.66,1.09.34,2.52-.04,4.23.06Z"/>
      <path class="cls-2" d="m30.51,44.29c.13-.05.32-.14.47-.21.16-.06.29-.1.29-.1,1.25.15,2.47,0,3.77-.06-.18-.1-.37-.19-.56-.27-.74,0-.82.14-.18.26-1.48-.33-2.95-.27-4.35.15.12.1.14.25.55.23Z"/>
      <path class="cls-2" d="m29.15,44.34c.27-.09.54-.19.81-.28,0-.01-.03-.02-.04-.03-.27.1-.54.21-.8.31h.03Z"/>
      <path class="cls-2" d="m53.73,45.66c3.69-.29,7.13-.96,10.39-1.97.22-.17.36-.32.71-.39.28-.01.55-.05.81-.11.47-.16.94-.33,1.4-.51.15-.08.31-.16.47-.23h.01c.24-.16.13-.2-.06-.2-.2.03-.38.04-.55.04.1,0,.36-.04.55-.04.24-.04.5-.08.79-.19.4-.22.82-.43,1.28-.61-.47.28-.9.48-1.28.61-.25.14-.5.26-.74.39-.07.04-.14.09-.21.13.53-.2,1.06-.42,1.57-.65.52-.22,1.04-.45,1.54-.71.22-.13.44-.26.61-.36.7-.44,1.36-.92,1.92-.97.17-.1.35-.21.52-.31-.04,0-.08.02-.12.03.08-.03.16-.06.22-.08.74-.43,1.46-.9,2.18-1.39.41-.39.79-.84,1.2-1.24,0,0,.41-.11.61-.17.11-.24.31-.52.58-.8-.45.18-.88.35-1.24.5-.6.15-.71,1.18-1.54,1.2.83-.01.94-1.05,1.54-1.2.36-.14.79-.32,1.24-.5.58-.58,1.39-1.23,2.18-1.63-.63.87-1.43,1.33-2.18,1.63-.27.28-.47.56-.58.8-.2.05-.61.17-.61.17-.41.4-.79.86-1.2,1.24,1.39-.95,2.76-1.99,4.06-3.16,2.8-2.43,5.18-5.19,7.19-8.2,1.02-1.49,1.9-3.08,2.72-4.71l.65-1.38.66-1.59c.22-.53.43-1.07.63-1.62l.31-.82c.08-.26.29-.62.08-.66-1.17,0-2.43.01-3.65-.08l-.92-.08c-.16-.02-.3-.02-.47-.05l-.33-.05c-.45-.07-.9-.14-1.35-.24-1.81-.36-3.64-.88-5.52-1.43-2.98-.88-5.96-1.82-9.1-2.26-3.14-.45-6.31-.32-9.36.2-6.13,1.09-11.45,4.03-16.04,7.65-4.63,3.65-8.48,8.11-12.35,12.88-1.47,1.85-3.24,4.7-4.79,7.61-1.56,2.91-2.92,5.84-3.87,7.83-1.85,5.65,1.34,3.79,1.56,3.6,1.58-1.24,2.45-2.6,3.47-4.4,1.02-1.8,2.17-4.06,4.4-6.96-1.45,2.01-1.28,1.08-.28-.79.99-1.87,2.89-4.62,4.71-6.15,1.33-1.1,2.62-2.4,3.95-3.78,1.33-1.39,2.68-2.86,4.16-4.26,2.91-2.84,6.38-5.48,10.04-6.89,1.82-.7,3.73-1.47,5.98-1.94,2.24-.37,4.44-.5,6.6-.37,2.15.11,4.32.56,6.6,1.11,2.27.55,4.64,1.23,7.17,1.77.64.13,1.27.26,1.93.37.33.05.65.12.99.16l.94.12.31-.04c.03.07-.03.21-.09.37-.6,1.35-1.34,2.66-2.12,3.95-1.78,2.89-3.31,5.52-5.2,7.77-1.44,1.59-3.33,2.89-4.71,3.91-2.17,1.62-4.1,2.94-6.03,4.12,2.22-1.2,3.73-2.25,5.95-3.94.72-.58.57-.26.1.31-.48.55-1.28,1.36-1.78,1.74-.39.39-1.39.37-1.8.72-.5.3-.96.61-1.43.93-.47.33-.95.67-1.49.99-.44.32-.59-.14-.81.02-1.51.77-2.54,1.81-3.64,2.03-.82.19-1.56.34-2.29.45-.45.09-.9.2-1.38.31-.29.1-.59.21-.89.32.27.09.4.25.52.4-.45.08-1.11.1-1.57.15.46-.05,1.11-.07,1.57-.15-.12-.16-.25-.31-.52-.4-2.16.74-4.76,1.32-7.22,1.59l.03.04c1.44-.11,2.84-.15,4.38-.08-.66-.02-.6-.16.13-.29l.6.16c-1.26.32-2.55.59-3.8.32,0,0-.55.13-.82.2-.41-.05-.4-.2-.49-.32-.28.03-.57.03-.85.05.3.13.93.25,1.49.32.57.07,1.05.13,1.05.13Z"/>
      <path class="cls-2" d="m68.28,42.05c-.17.1-.39.21-.63.32.88-.36,1.76-.73,2.61-1.15-.55.04-1.26.43-1.98.83Z"/>
    </g>
  </g>
  <g class="cls-1">
    <g>
      <path class="cls-2" d="m65.01,25.03l-.41.02c.07.03.15.07.22.15.09.05.13-.07.19-.17Z"/>
      <path class="cls-2" d="m64.22,25.06h-.07s-.06.06-.06.06c.04-.02.09-.04.13-.06Z"/>
      <path class="cls-2" d="m63.53,25.28c.13,0,.24-.02.36-.07-.11-.02-.22,0-.36.07Z"/>
      <path class="cls-2" d="m64.1,25.32c-.05-.06-.08-.14-.02-.2h0s-.2.09-.2.09c.08.02.15.06.22.11Z"/>
      <path class="cls-2" d="m64.1,25.32c.05.06.12.12.15.15-.05-.06-.1-.11-.15-.15Z"/>
      <path class="cls-2" d="m64.16,27.03c-.06.06-.11-.42-.23-.29-.29.17-.52.44-.81.48-.11.13-.41-.36-.53-.23-.29.2-.92.99-.47.87.66-.22,1.09-.42,1.7-.61.48-.26.94-.55,1.46-.77.15-.04.29-.01.43.01-.19-.07-.38-.12-.6-.17-.29-.1-.56.54-.96.71Z"/>
      <path class="cls-2" d="m68.01,25.2c-.07.05-.21.16-.21.16-.31-.35-.65-.21-.97-.07l.15.24c.19-.03.21-.17.04-.27.39.28.74.34,1.11.29-.02-.13-.01-.28-.11-.35Z"/>
      <path class="cls-2" d="m68.34,25.52c-.07.01-.15.02-.22.04v.04c.08-.02.15-.04.22-.07h0Z"/>
      <path class="cls-2" d="m62.14,25.98c-.91.21-1.75.4-2.59.59-.04.11-.05.23-.15.2-.09-.06-.17-.09-.24-.1l-.36.09s-.07.05-.11.07h0c-.05.08,0,.14.06.19.06.03.12.08.18.13-.04-.03-.12-.07-.18-.13-.07-.04-.15-.06-.23-.07-.1.06-.2.12-.33.13.11-.1.22-.14.33-.13l.18-.13.04-.06-.83.21c-.06.03-.11.06-.16.09-.17.13-.34.26-.54.09l-.15.04s.03.02.04.03c-.03,0-.05-.01-.07-.02l-.63.18c-.1.14-.19.3-.29.41,0,0-.15-.11-.23-.17,0,.13-.05.24-.13.31.16.08.32.19.45.25.22.17.11-.57.44-.21-.33-.36-.22.38-.44.21-.13-.05-.29-.16-.45-.25-.15.16-.43.19-.72.06.16-.29.45-.2.72-.06.07-.08.12-.18.13-.31.08.06.23.17.23.17.11-.12.2-.28.29-.41-.41.12-.82.24-1.24.39-2.71.87-4.97,2.23-7.52,3.67-1.39.78-2.74,1.52-4.1,2.22-1.35.7-2.45,1.63-3.57,2.5-1.12.88-2.3,1.69-3.88,2.4-1.2.54-2.66,2.6-3.29,3.79-.13.98.43,1.49.99,1.77.57.28,1.15.35,1.21.35.98.04,1.34-.15,1.69-.49.36-.33.73-.8,1.68-1.09-.59.24-.68-.1-.38-.52.29-.42.98-.88,1.8-.83,2.38.26,3.25-2.4,5.16-3.34.47-.23.85-.64,1.35-.98,2.86-1.43,4.79-3.71,7.72-5.13.75-.41,1.22-1.13,1.78-1.66.45-.29,1.06-.31,1.46-.46.62-.26,1.1-.62,1.56-.99-.56.28-.94.56-1.56.89-.42.2.07-.7.31-.93.09-.15.47.28.56.13.27-.1.45-.39.7-.62.09-.15.23.32.28.24.36-.24.5-.91.8-.87.22,0,.42.03.61.06.12,0,.23-.01.34-.06l.19-.17c-.1-.13-.16-.3-.23-.47.12,0,.3.06.42.06-.12,0-.3-.06-.42-.06.07.17.13.34.23.47.47-.41,1.06-.8,1.62-1.12l-.02-.04c-.34.12-.69.15-1.13-.06.18.07.19.2.02.27l-.19-.2c.28-.21.58-.4.95-.13,0,0,.11-.13.17-.2.11.04.14.2.18.32.07-.02.14-.05.2-.07-.19-.21-.72-.42-.72-.42Z"/>
      <path class="cls-2" d="m58.49,26.94s.1-.06.16-.09l-.7.17c.2.18.37.05.54-.08Z"/>
    </g>
  </g>
  <g class="cls-1">
    <g>
      <path class="cls-2" d="m101.39,52.41c-.33.43-.67.87-.97,1.33.18-.21.37-.41.6-.59.26-.26.28-.47.36-.74Z"/>
      <path class="cls-2" d="m99.56,55c-.06.08-.11.16-.16.24-.03.08-.06.16-.09.24.08-.16.16-.33.25-.48Z"/>
      <path class="cls-2" d="m98.2,57.52c.26-.43.51-.85.72-1.27-.24.34-.5.74-.72,1.27Z"/>
      <path class="cls-2" d="m99.46,55.62c-.15.11-.26.15-.16-.13,0,0,0,0,0-.01-.13.26-.25.51-.39.78.18-.25.36-.46.54-.64Z"/>
      <path class="cls-2" d="m99.46,55.62c.15-.11.34-.31.42-.36-.14.09-.28.22-.42.36Z"/>
      <path class="cls-2" d="m100.54,57.11c-.1.27-.48-.03-.67.5-.29.58-.46,1.17-.68,1.72-.22.55-.44,1.09-.68,1.64-.12.54-1.01,1.1-1.1,1.66-.42,1.26-.87,4.57-.26,2.73.94-2.73,1.61-4.52,2.78-6.86.89-1.93,1.77-3.82,2.97-5.67.34-.52.73-.95,1.13-1.37-.55.53-1.06,1.11-1.63,1.77-.4.41-.66,1-.92,1.67-.27.67-.55,1.41-.94,2.2Z"/>
      <path class="cls-2" d="m109.89,43.86c-.19.22-.56.66-.56.66-1.17.57-2.1,1.56-2.93,2.61.19-.08.39-.16.59-.24.52-.55.49-.71-.06-.31,1.32-.86,2.43-1.79,3.58-2.75-.15-.04-.23-.17-.6.04Z"/>
      <path class="cls-2" d="m111.16,43.24c-.22.19-.44.39-.66.58.01,0,.03,0,.05.01.22-.2.43-.41.64-.6h-.03Z"/>
      <path class="cls-2" d="m96.01,63.17c-1.38,3.51-2.33,6.95-2.88,10.38.06.28.14.48.04.82-.12.26-.21.52-.28.79-.09.5-.11,1.01-.16,1.51,0,.18,0,.35,0,.54h0c.03.3.11.22.2.05.07-.19.14-.37.21-.51-.05.09-.13.35-.21.51-.08.23-.15.49-.19.8.02.46.03.95-.01,1.44-.04-.56-.03-1.03.01-1.44,0-.29,0-.57,0-.86,0-.08-.02-.16-.02-.25-.14,1.15-.14,2.31-.2,3.46.02.27.04.52.06.73.09.84.16,1.66-.01,2.19.01.2.02.41.04.62l.03-.12c-.01.09-.02.17-.03.24.03.87.13,1.74.23,2.62.15.55.36,1.11.54,1.67,0,0-.09.42-.13.62.16.21.3.53.41.91.05-.49.13-.94.16-1.35.13-.61-.72-1.2-.34-1.96-.37.75.47,1.35.34,1.96-.02.41-.11.86-.16,1.35.28.78.41,1.85.43,2.74-.48-.98-.47-1.93-.43-2.74-.12-.38-.25-.7-.41-.91.04-.21.13-.62.13-.62-.18-.56-.39-1.12-.54-1.67.18,1.71.49,3.42.88,5.16.82,3.75,2.15,7.28,3.83,10.63.41.84.87,1.66,1.35,2.47.47.85.93,1.51,1.63,2.59.67.97,1.4,1.88,2.1,2.84l1.13,1.4.57.71.14.18.07.09s.03,0,.05,0l.18-.09c.31-1.13.54-2.3.95-3.47.19-.59.38-1.19.57-1.78.09-.31.2-.6.32-.88l.34-.76c.19-.41.38-.82.57-1.24.22-.4.44-.81.66-1.22.42-.82.93-1.62,1.42-2.43,3.33-5.29,7.37-9.94,10.31-15.49,1.46-2.76,2.51-5.78,2.85-8.93.34-3.15-.02-6.24-.63-9.16-.62-2.94-1.46-5.72-2.27-8.55-.84-2.82-1.69-5.69-2.58-8.67-.7-2.27-2.01-5.39-3.51-8.4-1.49-3.01-3.16-5.91-4.32-7.87-3.8-4.85-3.94-1.02-3.9-.75.2,2.02.83,3.52,1.75,5.41.91,1.89,2.11,4.17,3.21,7.74-.82-2.39-.15-1.69.81.25.97,1.93,2.16,5.12,2.45,7.56.39,3.52,1.68,7.46,2.94,11.56,1.23,4.04,2.17,8.29,1.18,11.95-.47,1.82-.95,3.8-2.03,5.92-2.18,4.09-5.05,7.92-7.75,12.11-1.34,2.11-2.69,4.27-3.82,6.68-.31.58-.56,1.21-.82,1.82l-.19.45s.02-.03.01,0v.06s-.05.33-.05.33c-.05.07-.17-.12-.26-.21l-.06-.09-.53-.8c-.4-.69-.8-1.39-1.21-2.09-1.67-3.05-3.23-5.76-4.33-8.55-.75-2.06-.95-4.42-1.25-6.15-.43-2.75-.7-5.13-.89-7.44.08,2.58.28,4.46.78,7.27.32,1.89-.83-1.22-1.05-2.5-.14-.54.3-1.44.17-1.97-.04-1.18-.29-2.27-.37-3.56-.09-.55.38-.47.34-.74.01-.87-.11-1.65-.21-2.36-.06-.71-.1-1.34.04-1.89.18-.84.43-1.57.62-2.29.1-.46.26-.91.35-1.4.03-.31.07-.63.1-.96-.2.21-.4.26-.59.3.12-.45.4-1.06.57-1.5-.16.44-.45,1.05-.57,1.5.2-.04.39-.09.59-.3.32-2.3.95-4.94,1.78-7.33h-.05c-.54,1.39-1.11,2.7-1.87,4.07.32-.59.42-.47.2.25-.14.16-.28.32-.41.48.29-1.29.59-2.61,1.4-3.63,0,0,.11-.57.17-.85.22-.36.36-.28.51-.31.11-.27.22-.53.33-.8-.5.44-1.52,2.14-1.52,2.14Z"/>
      <path class="cls-2" d="m92.72,78.09c-.01-.2,0-.45,0-.72-.11.96-.1,1.93-.16,2.9.24-.51.2-1.34.15-2.18Z"/>
    </g>
  </g>
  <g class="cls-1">
    <g>
      <path class="cls-2" d="m105.51,82.74l.2-.39c-.06.05-.14.1-.25.13-.09.06-.01.15.05.26Z"/>
      <path class="cls-2" d="m105.89,82l.03-.07v-.08c-.02.05-.03.1-.03.15Z"/>
      <path class="cls-2" d="m106.07,81.25c-.08.11-.11.24-.13.36.08-.09.12-.2.13-.36Z"/>
      <path class="cls-2" d="m105.73,81.76c.08-.02.16,0,.18.08h0s.03-.23.03-.23c-.06.06-.13.11-.21.15Z"/>
      <path class="cls-2" d="m105.73,81.76c-.08.01-.17.05-.21.06.07-.01.15-.03.21-.06Z"/>
      <path class="cls-2" d="m104.24,80.93c-.02-.09.42.11.37-.07,0-.37-.08-.72.04-1.02-.05-.18.53-.2.48-.37,0-.38-.29-1.42-.45-.93-.21.75-.27,1.27-.46,1.95-.04.6-.03,1.2-.12,1.8-.05.16-.14.28-.24.41.15-.15.3-.31.46-.49.25-.22-.18-.8-.1-1.28Z"/>
      <path class="cls-2" d="m103.9,85.52c-.02-.09-.05-.27-.05-.27.46-.15.49-.53.52-.9l-.28.04c-.06.19.05.27.22.16-.44.24-.65.57-.78.95.13.04.26.11.37.04Z"/>
      <path class="cls-2" d="m103.46,85.71c.02-.08.04-.15.07-.23h-.04c-.01.07-.03.15-.04.23h.01Z"/>
      <path class="cls-2" d="m106.25,79.6c.35-.94.68-1.81,1.03-2.67-.07-.1-.15-.18-.07-.25.1-.04.18-.09.23-.15l.15-.37s0-.1,0-.15h0c-.03-.09-.11-.09-.19-.07-.06.03-.14.06-.21.08.05-.01.13-.06.21-.08.08-.04.14-.09.2-.16,0-.13.03-.25.1-.37,0,.16-.03.28-.1.37v.24s.01.08.01.08l.35-.85c0-.07.02-.14.02-.19,0-.23,0-.46.27-.52l.06-.15s-.03.01-.05.02c.02-.02.04-.03.06-.05l.25-.65c-.05-.17-.11-.35-.13-.52,0,0,.18-.06.27-.09-.1-.09-.15-.2-.16-.31-.17.08-.36.15-.48.22-.27.08.37.46-.12.51.49-.05-.15-.43.12-.51.12-.07.31-.14.48-.22-.03-.23.13-.48.41-.65.12.33-.13.51-.41.65.01.11.06.22.16.31-.09.03-.27.09-.27.09.02.17.09.35.13.52.17-.42.34-.85.49-1.3,1.07-2.85,1.58-5.61,2.23-8.69.37-1.67.74-3.29,1.13-4.89.39-1.6.42-3.15.48-4.73.05-1.59.12-3.19.42-5.09.1-.74-.09-1.74-.28-2.51-.2-.79-.36-1.41-.4-1.78-.42-.46-1.1-.65-1.73-.7-.63-.05-1.18.14-1.24.18-.9.47-1.06,1.02-1.08,1.64-.02.63.12,1.36-.15,2.44.25-1.46,1.38.77.33,2.08-.79.96-.81,1.92-.7,3.01.11,1.08.32,2.28.05,3.37-.13.54-.1,1.13-.17,1.78-.84,3.32-.52,6.52-1.41,10-.21.92.05,1.84.07,2.67-.07.59-.45,1.14-.59,1.59-.21.72-.22,1.39-.21,2.04.14-.69.14-1.21.29-1.97.12-.5.49.51.53.88.06.17-.51.24-.45.41-.09.3.02.65.05,1.02.06.17-.4,0-.37.1-.04.48.44,1.02.21,1.26-.14.19-.28.36-.42.53-.07.11-.13.22-.16.35l.03.28c.16-.01.34.02.52.06-.07.11-.22.24-.29.35.07-.11.22-.24.29-.35-.18-.04-.35-.08-.52-.06.06.68.03,1.43-.01,2.14h.04c.09-.38.27-.72.69-1-.16.13-.28.06-.23-.14l.28-.06c0,.37,0,.75-.44.94,0,0,.05.18.07.27-.1.08-.24.02-.37,0-.02.07-.03.15-.05.23.28-.06.75-.44.75-.44Z"/>
      <path class="cls-2" d="m107.62,75.78c0,.06-.01.12-.02.19l.3-.71c-.26.06-.27.29-.28.52Z"/>
    </g>
  </g>
  <g class="cls-1">
    <g>
      <path class="cls-2" d="m65.28,96.32c-.02-.59-.04-1.18-.07-1.77-.02.3-.05.6-.12.9-.04.39.08.58.19.87Z"/>
      <path class="cls-2" d="m65.11,92.89c0-.11-.02-.22-.03-.32-.03-.09-.05-.18-.07-.27l.1.59Z"/>
      <path class="cls-2" d="m64.48,89.8c.12.55.23,1.07.34,1.58-.04-.45-.13-.98-.34-1.58Z"/>
      <path class="cls-2" d="m64.81,92.29c.05-.2.11-.3.2,0,0,0,0,0,0,.01-.06-.31-.13-.61-.19-.93.02.34.02.65-.01.91Z"/>
      <path class="cls-2" d="m64.81,92.29c-.05.19-.08.49-.11.59.05-.17.08-.37.11-.59Z"/>
      <path class="cls-2" d="m63.03,91.76c-.1-.28.39-.29.18-.84-.4-1.32-.97-2.29-1.53-3.38-.33-.44-.35-1.49-.78-1.9-.84-1.12-3.77-3.08-2.33-1.65,1.06,1.08,1.84,2.02,2.48,3.01.63.99,1.15,1.99,1.51,3.27.72,2.05,1,4.31,1.3,6.74.06.68.06,1.33.09,1.99,0-.86.02-1.73.05-2.68.06-1.25-.58-2.74-.96-4.54Z"/>
      <path class="cls-2" d="m69.29,107.72c-.13-.06-.34-.15-.5-.24-.16-.1-.29-.17-.29-.17-.75-1.12-1.57-2.17-2.26-3.42.01.22.02.44.04.67.4.72.56.72.32.05.46,1.58,1.51,2.93,2.95,3.68-.02-.17.06-.27-.26-.57Z"/>
      <path class="cls-2" d="m70.41,108.66c-.29-.12-.6-.22-.86-.37,0,.02,0,.03,0,.05.28.15.6.23.88.35l-.03-.02Z"/>
      <path class="cls-2" d="m61.1,84.09c-2.61-3.21-5.84-5.41-9-7.44-.3-.07-.52-.08-.83-.33-.21-.22-.43-.43-.67-.6-.48-.27-.96-.53-1.44-.8-.17-.08-.35-.16-.53-.24h-.02c-.3-.1-.25,0-.11.16.16.15.31.29.42.42-.07-.09-.29-.28-.42-.42-.2-.18-.43-.36-.73-.52-.47-.19-.95-.39-1.42-.65.57.21,1.04.43,1.42.65.3.11.58.24.86.36.08.03.17.06.26.09-1.09-.63-2.24-1.13-3.35-1.7-.27-.1-.53-.19-.74-.27-.86-.29-1.71-.58-2.15-1-.21-.08-.42-.16-.63-.25l.11.09c-.09-.05-.16-.09-.22-.13-.88-.34-1.75-.71-2.66-1.01-.61-.1-1.25-.19-1.87-.32,0,0-.36-.28-.54-.41-.28.04-.66.02-1.08-.06.45.28.85.56,1.24.77.53.42,1.49-.02,2.06.64-.57-.66-1.54-.22-2.06-.64-.39-.21-.79-.49-1.24-.77-.88-.17-1.97-.56-2.82-1.01,1.18.08,2.07.54,2.82,1.01.42.08.8.11,1.08.06.18.13.54.41.54.41.62.13,1.26.22,1.87.32-1.75-.63-3.54-1.2-5.38-1.74-4.23-1.23-8.43-2.13-12.64-2.9-1.07-.2-2.06-.37-3.21-.56-1.35-.21-2.71-.43-4.08-.64-1.38-.21-2.77-.42-4.17-.63l-1.06-.16-.13-.02s.02.03.03.04l.06.08.12.16c.03.05.11.1.09.16l-.06.15c-.07.1,0,.21-.29.3.74.66,1.53,1.34,2.15,1.94.32.31.7.65.98.93l.76.82.38.41.23.38.46.76c.15.25.26.52.38.77.11.26.18.39.26.61.62,1.55,1.09,3.23,1.51,4.98.76,3.3,1.5,6.75,2.78,9.94,1.22,3.21,2.82,6.25,4.82,9.04.99,1.39,2.14,2.66,3.35,3.85,1.25,1.15,2.58,2.22,4.01,3.11,2.88,1.83,6.08,2.93,9.23,3.67,3.16.75,6.3,1.18,9.43,1.69,3.14.5,6.33,1.01,9.6,1.58,2.52.42,6.14.7,9.75.83,3.61.13,7.2.1,9.65.08,6.56-.85,3.11-2.89,2.81-2.99-3.99-1.73-7.11-.69-15.13-2.1,5.48.84-4.14,1-9.21-.73-1.83-.63-3.86-1.08-6.02-1.47-2.16-.39-4.48-.67-6.76-1.01-2.28-.34-4.56-.76-6.67-1.46-2.12-.69-4.02-1.69-5.64-3.01-1.6-1.31-3.29-2.78-4.84-4.8-2.75-3.84-4.67-8.17-5.99-12.68-.67-2.28-1.22-4.79-2.08-7.38-.21-.65-.45-1.3-.72-1.96-.14-.33-.27-.66-.42-.99l-.12-.25-.02-.03-.02-.02c-.05-.06-.12-.14-.21-.22l-.12-.1-.07-.05s.03,0,.04,0c.07,0,.15,0,.24.01.09,0,.19.02.29.04.88.15,1.77.3,2.67.45,3.92.66,7.41.9,10.71,1.44,2.38.51,4.82,1.42,6.67,2.04,2.94.93,5.45,1.75,7.83,2.63-2.61-1.1-4.58-1.74-7.62-2.66-2.03-.61,1.6-.17,2.96.23.61.11,1.3.92,1.89,1.07,1.21.49,2.39.76,3.71,1.25.59.16.32.56.61.64,1.73.77,3.34.93,4.31,1.7.38.27.74.53,1.08.78.33.27.65.53.97.79.41.31.82.62,1.28.91.3.16.6.34.9.52-.13-.29-.1-.49-.07-.69.39.32.89.85,1.26,1.19-.37-.34-.86-.87-1.26-1.19-.03.2-.06.4.07.69,2.15,1.29,4.46,3.07,6.07,5.24l.02-.05c-.89-1.3-1.86-2.48-2.86-3.85.45.58.28.61-.32.06l-.3-.6c1.15.85,2.27,1.82,2.81,3.11,0,0,.45.42.67.64.2.41.05.48,0,.63.18.25.34.51.51.78-.05-.34-.29-1.01-.56-1.57-.26-.57-.54-1.03-.54-1.03Z"/>
      <path class="cls-2" d="m47.75,74.3c.21.08.46.18.71.31-.92-.5-1.87-.94-2.81-1.42.41.45,1.25.78,2.1,1.1Z"/>
    </g>
  </g>
  <g class="cls-1">
    <g>
      <path class="cls-2" d="m36.9,85.82l.21.34c-.01-.07,0-.16.03-.26,0-.1-.12-.08-.23-.08Z"/>
      <polygon class="cls-2" points="37.3 86.48 37.33 86.55 37.4 86.57 37.3 86.48"/>
      <path class="cls-2" d="m37.8,86.98c-.05-.12-.13-.2-.22-.28.03.1.1.2.22.28Z"/>
      <path class="cls-2" d="m37.57,86.46c-.03.08-.08.14-.17.11h0s.18.13.18.13c-.02-.08-.02-.16,0-.24Z"/>
      <path class="cls-2" d="m37.57,86.46c.03-.07.05-.16.07-.21-.03.07-.05.14-.07.21Z"/>
      <path class="cls-2" d="m39.06,85.62c.08.02-.32.29-.15.34.29.18.63.26.8.5.16.04-.13.53.04.57.3.17,1.3.37.98.03-.49-.49-.87-.78-1.32-1.24-.46-.3-.94-.58-1.38-.93-.1-.11-.15-.25-.2-.39.04.2.09.39.15.61.05.31.74.23,1.08.51Z"/>
      <path class="cls-2" d="m35.54,83.19c.08.03.25.09.25.09-.13.44.16.65.45.85l.12-.25c-.12-.14-.25-.09-.25.11.04-.47-.11-.8-.34-1.08-.1.09-.23.16-.23.29Z"/>
      <path class="cls-2" d="m35.63,82.75c.05.06.1.11.15.16l.03-.03-.17-.15h0Z"/>
      <path class="cls-2" d="m39.04,87.89c.59.71,1.14,1.38,1.68,2.03.11-.02.22-.06.24.04-.01.1,0,.19.02.26l.24.28s.08.04.12.07h0c.09.01.13-.06.14-.14,0-.07.01-.14.03-.21,0,.05-.02.13-.03.21,0,.08.01.16.05.23.1.06.2.13.27.23-.14-.05-.22-.13-.27-.23l-.2-.1h-.07s.57.63.57.63c.06.03.11.07.16.09.2.09.38.18.33.44l.11.11s0-.03,0-.05c0,.03.01.05.01.07l.46.46c.16.02.35.02.5.05,0,0-.02.18-.03.28.12-.06.23-.07.34-.05,0-.18,0-.37,0-.51.04-.27-.55.18-.4-.28-.16.46.43,0,.4.28.02.14,0,.32,0,.51.21.05.37.28.4.59-.33.01-.4-.29-.4-.59-.1-.03-.22-.01-.34.05.01-.09.03-.28.03-.28-.16-.03-.34-.03-.5-.05.3.31.62.58.95.89,2.12,1.9,4.5,3.07,7.12,4.36,1.42.72,2.79,1.41,4.12,2.13,2.6,1.46,5.66,1.44,7.33,3.6.32.38.8.72,1.2,1.02.41.3.73.57.9.8.53.08,1.23-.08,1.8-.37.56-.28.95-.7.99-.76.56-.82.43-1.37.12-1.89-.33-.53-.82-1.06-1.43-2.09.44.68.04.72-.48.44-.53-.29-1.24-.85-1.6-1.66-.5-1.23-1.62-1.73-2.72-1.98-1.13-.26-2.24-.31-3.16-.84-.45-.26-1-.34-1.57-.56-2.78-1.55-5.71-1.82-8.37-3.49-.71-.4-1.55-.41-2.27-.61-.48-.22-.76-.75-1.08-.99-.5-.41-1.03-.63-1.56-.85.5.35.92.53,1.47.9.36.26-.62.28-.95.19-.17,0,.02-.53-.14-.54-.2-.19-.54-.2-.85-.31-.17-.01.18-.35.09-.35-.37-.21-1.03,0-1.12-.3-.09-.2-.16-.38-.22-.57-.06-.1-.11-.2-.21-.28l-.24-.09c-.07.14-.19.28-.31.41-.06-.1-.08-.29-.13-.4.05.1.07.3.13.4.12-.13.24-.27.31-.41-.57-.24-1.19-.58-1.72-.94l-.03.03c.26.26.44.55.45,1.03-.02-.19.1-.26.23-.14l-.09.26c-.31-.16-.62-.33-.54-.78,0,0-.17-.04-.25-.06-.01-.12.11-.21.2-.3-.05-.05-.1-.1-.16-.14-.1.26-.05.83-.05.83Z"/>
      <path class="cls-2" d="m41.53,90.7s-.1-.06-.15-.09l.47.54c.07-.25-.12-.35-.32-.45Z"/>
    </g>
  </g>
</svg>