<svg width="133" height="122" viewBox="0 0 133 122" fill="none" xmlns="http://www.w3.org/2000/svg">
<g opacity="0.85">
<path d="M35.0105 24.0156C35.0105 24.3556 34.9905 24.6956 34.9805 25.0356C35.0105 24.8656 35.0705 24.6956 35.1505 24.5256C35.2105 24.3056 35.1005 24.1856 35.0005 24.0156H35.0105Z" fill="#603913"/>
<path d="M34.9512 25.9766C34.9512 26.0366 34.9512 26.0966 34.9512 26.1566C34.9612 26.2066 34.9812 26.2666 34.9912 26.3166L34.9512 25.9766Z" fill="#603913"/>
<path d="M35.0713 27.7555C35.1013 27.4455 35.0813 27.1455 35.0513 26.8555C35.0113 27.1155 35.0113 27.4055 35.0713 27.7555Z" fill="#603913"/>
<path d="M35.1912 26.3364C35.1212 26.4464 35.0412 26.4964 34.9912 26.3164C35.0112 26.4864 35.0312 26.6664 35.0512 26.8464C35.0812 26.6564 35.1312 26.4864 35.1912 26.3364Z" fill="#603913"/>
<path d="M35.1904 26.3378C35.2604 26.2378 35.3204 26.0678 35.3604 26.0078C35.3004 26.1078 35.2404 26.2178 35.1904 26.3378Z" fill="#603913"/>
<path d="M36.8908 26.7969C36.9408 26.9769 36.4608 26.9369 36.5708 27.2869C36.7008 28.1169 36.9208 28.8269 36.9208 29.6069C37.0308 29.9569 36.4908 30.5169 36.6008 30.8669C36.7308 31.6969 37.3808 33.8269 37.3508 32.5769C37.2808 30.6969 37.1508 29.4669 37.0708 27.7769C36.8808 26.4069 36.6608 25.0869 36.4908 23.6769C36.4708 23.2869 36.5108 22.9169 36.5408 22.5469C36.4708 23.0369 36.4008 23.5269 36.3208 24.0769C36.1908 24.7969 36.8008 25.6769 36.9008 26.8069L36.8908 26.7969Z" fill="#603913"/>
<path d="M36.9605 16.6156C36.8105 16.7756 36.6306 17.1356 36.6306 17.1356C35.7806 17.5856 35.5705 18.6156 35.5605 19.4556L35.8705 19.1356C35.9605 18.6656 35.8505 18.5656 35.6405 18.9656C36.1705 18.0656 36.6105 17.2356 37.4305 16.7256C37.3205 16.6456 37.2405 16.4856 36.9605 16.6156Z" fill="#603913"/>
<path d="M37.9307 16.4766C37.7607 16.5566 37.5807 16.6266 37.4307 16.7266L37.4707 16.7566C37.6207 16.6366 37.7907 16.5666 37.9607 16.4866H37.9407L37.9307 16.4766Z" fill="#603913"/>
<path d="M35.5008 31.5184C35.5208 33.8784 35.5008 36.0984 35.4508 38.2684C35.5408 38.4384 35.6508 38.5484 35.6008 38.7784C35.5208 38.9484 35.4608 39.1184 35.4308 39.2884C35.4308 39.6084 35.4208 39.9184 35.4108 40.2384C35.4208 40.3484 35.4408 40.4584 35.4508 40.5684C35.5108 40.7584 35.5808 40.6984 35.6508 40.5884C35.7008 40.4684 35.7608 40.3484 35.8208 40.2584C35.7808 40.3184 35.7208 40.4784 35.6508 40.5884C35.5908 40.7384 35.5408 40.9084 35.5208 41.0984C35.5508 41.3884 35.5708 41.6884 35.5408 41.9984C35.4808 41.6484 35.4808 41.3484 35.5208 41.0984C35.5008 40.9184 35.4708 40.7384 35.4508 40.5684L35.4108 40.4184C35.3908 41.1384 35.3708 41.8584 35.3508 42.5784C35.3708 42.7484 35.3808 42.8984 35.3908 43.0284C35.4608 43.5484 35.5208 44.0684 35.2908 44.3884C35.2908 44.5184 35.2908 44.6484 35.2808 44.7784C35.2908 44.7484 35.3108 44.7284 35.3208 44.7084C35.3108 44.7684 35.2908 44.8184 35.2808 44.8584C35.2608 45.3984 35.2508 45.9484 35.2308 46.4984C35.3208 46.8484 35.4408 47.2184 35.5108 47.5784C35.5108 47.5784 35.3508 47.8284 35.2708 47.9484C35.3908 48.0984 35.4708 48.3084 35.5108 48.5584C35.6508 48.2584 35.8108 47.9884 35.9008 47.7384C36.1408 47.3684 35.4108 46.9184 35.8608 46.4884C35.4108 46.9284 36.1408 47.3684 35.9008 47.7384C35.8008 47.9884 35.6508 48.2584 35.5108 48.5584C35.6008 49.0784 35.5208 49.7484 35.3008 50.2884C35.0908 49.6184 35.2808 49.0584 35.5108 48.5584C35.4708 48.3084 35.3908 48.0984 35.2708 47.9484C35.3508 47.8284 35.5108 47.5784 35.5108 47.5784C35.4408 47.2184 35.3208 46.8484 35.2308 46.4984C35.2008 47.5684 35.1708 48.6484 35.1408 49.7484C34.9008 56.8484 35.1608 63.4084 35.1508 70.7684C35.0708 72.7484 34.9808 74.6784 34.8708 76.5784C34.7708 78.4384 34.4208 80.2684 34.1908 82.2084C34.0708 83.1684 33.9908 84.1484 34.0008 85.1584C34.0008 85.6684 34.0308 86.1784 34.0908 86.7084C34.1208 86.9784 34.1608 87.2384 34.2208 87.5184C34.2408 87.6584 34.2908 87.7884 34.2908 87.9384C34.2608 88.0684 34.2808 88.2984 34.2708 88.4784C34.2608 89.2484 34.3008 89.9784 34.4508 90.5784C34.6008 91.1884 34.8308 91.6384 35.2208 92.0584C35.6408 92.5184 36.3108 92.7384 36.9008 92.8284C37.5108 92.9184 38.1308 92.8484 38.7508 92.6884C40.0108 92.3884 41.2808 91.3884 42.3408 90.7584C43.1108 90.2684 43.8908 89.7684 44.6708 89.2684C46.2408 88.2684 47.8508 87.2784 49.5508 86.3084C52.1608 84.8084 56.1808 80.9784 58.1908 78.9384C60.3908 75.6884 57.5008 75.6184 57.3008 75.6584C54.4308 75.9984 53.8308 77.9684 49.6308 80.2284C52.4208 78.5984 48.5908 82.6584 45.4708 83.5284C44.3408 83.8284 43.2508 84.3484 42.1608 84.9884C41.6208 85.3084 41.0708 85.6584 40.5308 86.0284C40.0508 86.3484 39.2308 86.9384 39.3208 86.8984C39.1808 87.0184 39.1608 87.0684 39.0908 87.1384C39.0208 87.2084 38.9108 87.2784 38.8108 87.2584C38.7108 87.2284 38.7308 87.1084 38.7308 87.0184C38.7308 86.9684 38.7408 86.9184 38.7608 86.8684C38.7708 86.8884 38.7608 86.7084 38.7408 86.6084C38.7308 86.4884 38.7108 86.3884 38.7108 86.2584C38.6608 85.2784 38.5708 83.9784 38.6808 82.4684C38.8108 81.4884 38.9508 80.4784 39.0608 79.4284C39.1808 78.3984 39.2508 77.2084 39.2508 76.1984C39.2708 74.0984 39.2508 72.0084 39.2008 69.9084C38.9608 65.8684 38.6608 61.7384 38.6508 57.3584C38.6008 55.0384 38.1208 53.0084 37.8508 51.0484C37.7508 49.6184 37.9708 48.0884 37.9608 46.9284C37.9408 45.0984 37.7608 43.5284 37.5408 42.0184C37.6408 43.6984 37.7708 44.9384 37.8608 46.8084C37.9008 48.0584 37.2408 45.9384 37.1008 45.1084C36.9908 44.7584 37.5208 44.1884 37.4108 43.8384C37.4108 43.0684 37.1808 42.3584 37.0508 41.5284C36.9408 41.1684 37.4208 41.2084 37.3708 41.0384C37.2608 39.9084 36.6408 39.0384 36.7708 38.3184C36.8508 37.7784 36.9208 37.2784 36.9908 36.7884C37.0208 36.4784 37.0408 36.1784 37.0208 35.8584C36.9808 35.6584 36.9408 35.4484 36.9008 35.2384C36.7508 35.3984 36.5708 35.4584 36.3908 35.5184C36.5708 35.4684 36.7508 35.4084 36.9008 35.2384C36.6208 33.7484 36.3708 32.0284 36.1608 30.4284L36.1208 30.4484C36.1708 31.3784 36.1208 32.2984 35.8308 33.2584C35.9408 32.8384 36.0708 32.8884 36.1008 33.3684L35.8608 33.7384C35.7308 32.9084 35.5908 32.0784 35.9408 31.2884C35.9408 31.2884 35.8308 30.9284 35.7808 30.7584C35.8508 30.4984 36.0008 30.5084 36.1308 30.4484C36.1208 30.2684 36.1108 30.0784 36.0908 29.8984C35.8508 30.2884 35.5408 31.5084 35.5408 31.5084L35.5008 31.5184Z" fill="#603913"/>
<path d="M35.5004 41.1258C35.4904 40.9958 35.4704 40.8458 35.4604 40.6758C35.4404 41.2758 35.4204 41.8858 35.4004 42.4958C35.6304 42.1758 35.5704 41.6558 35.5004 41.1258Z" fill="#603913"/>
</g>
<g opacity="0.85">
<path d="M43.751 21.1875L44.401 22.0075C44.311 21.8475 44.251 21.6775 44.201 21.4875C44.101 21.2775 43.941 21.2575 43.761 21.1875H43.751Z" fill="#603913"/>
<path d="M45.001 22.7773C45.041 22.8273 45.081 22.8773 45.121 22.9273C45.171 22.9573 45.221 22.9873 45.261 23.0173L45.001 22.7773Z" fill="#603913"/>
<path d="M46.3307 24.0963C46.1207 23.8363 45.9007 23.6162 45.6807 23.4062C45.8307 23.6363 46.0307 23.8663 46.3307 24.0963Z" fill="#603913"/>
<path d="M45.4305 22.9062C45.4505 23.0362 45.4305 23.1263 45.2705 23.0263C45.4105 23.1463 45.5505 23.2763 45.6905 23.4062C45.5805 23.2362 45.5005 23.0663 45.4405 22.9163L45.4305 22.9062Z" fill="#603913"/>
<path d="M45.4308 22.9052C45.4108 22.7752 45.3408 22.6052 45.3408 22.5352C45.3508 22.6552 45.3908 22.7752 45.4308 22.9052Z" fill="#603913"/>
<path d="M47.0111 22.1473C47.1711 22.2473 46.7811 22.5273 47.0911 22.7273C47.7511 23.2473 48.4011 23.6073 48.9511 24.1373C49.2811 24.2973 49.3311 25.0673 49.6711 25.2273C50.3911 25.6873 52.4511 26.4973 51.4611 25.7373C49.9711 24.6273 49.0011 23.8973 47.7911 22.7473C46.7211 21.8973 45.7311 20.9973 44.6211 19.9573C44.3311 19.6573 44.0911 19.3373 43.8311 19.0273C44.1511 19.4573 44.4411 19.8973 44.7611 20.3873C45.1511 21.0473 46.1811 21.3873 47.0111 22.1473Z" fill="#603913"/>
<path d="M37.8009 17.5158C37.9609 17.4358 38.3109 17.3358 38.3109 17.3358C39.0609 17.6958 39.8009 17.7658 40.6209 18.0058C40.5509 17.8858 40.4709 17.7558 40.3809 17.6358C39.9109 17.4758 39.8309 17.5958 40.1809 17.8458C39.4109 17.2158 38.4009 16.9958 37.4609 17.2158C37.5409 17.3358 37.5509 17.4758 37.8109 17.5158H37.8009Z" fill="#603913"/>
<path d="M36.9109 17.3741C37.0809 17.3041 37.2609 17.2441 37.4409 17.2041C37.4409 17.1941 37.4209 17.1841 37.4109 17.1641C37.2309 17.2141 37.0509 17.2941 36.8809 17.3641H36.9009L36.9109 17.3741Z" fill="#603913"/>
<path d="M49.4711 26.4739C51.3511 28.0439 53.2411 29.3539 55.0311 30.6839C55.2211 30.7039 55.3811 30.6839 55.5411 30.8739C55.6311 31.0439 55.7511 31.1839 55.8711 31.3139L56.6411 31.9139C56.7411 31.9739 56.8411 32.0239 56.9411 32.0839C57.1211 32.1539 57.1211 32.0639 57.0711 31.9339C57.0011 31.8139 56.9411 31.7039 56.9011 31.5939C56.9311 31.6639 57.0311 31.8139 57.0711 31.9339C57.1611 32.0739 57.2611 32.2139 57.4111 32.3639C57.6611 32.5239 57.9311 32.6939 58.1611 32.9139C57.8511 32.7339 57.6011 32.5539 57.4111 32.3639C57.2511 32.2739 57.0911 32.1739 56.9311 32.0839L56.7811 32.0239C57.3611 32.4839 57.9411 32.9539 58.5011 33.4339C58.6411 33.5239 58.7811 33.6139 58.8911 33.6939C59.3411 33.9839 59.8011 34.2739 59.9011 34.6639L60.2011 34.9339C60.2011 34.9339 60.1811 34.8839 60.1711 34.8539C60.2111 34.9039 60.2311 34.9439 60.2611 34.9839C60.6811 35.3539 61.1011 35.7339 61.5211 36.1139C61.8611 36.2739 62.2211 36.4239 62.5611 36.6039C62.5611 36.6039 62.6611 36.8839 62.7111 37.0239C62.9011 37.0239 63.1211 37.1039 63.3511 37.2339C63.2011 36.9339 63.0911 36.6339 62.9511 36.3939C63.0911 36.6339 63.2111 36.9239 63.3511 37.2339C63.8211 37.5039 64.3111 37.9939 64.6011 38.5239C63.9311 38.2539 63.6011 37.7439 63.3511 37.2339C63.1311 37.1039 62.9011 37.0339 62.7111 37.0239C62.6611 36.8839 62.5611 36.6039 62.5611 36.6039C62.2211 36.4239 61.8611 36.2739 61.5211 36.1139C62.3611 36.8339 63.2011 37.5639 64.0611 38.3139C69.6211 43.1139 75.1011 47.0339 80.8011 52.0439C83.9511 54.7839 87.2211 57.1539 90.3511 59.4639C90.7611 59.7639 91.1011 60.0139 91.4411 60.2839C91.7911 60.5739 92.1311 60.8539 92.4811 61.1339L93.5111 62.0239L93.7711 62.2439L93.8711 62.3439L94.0511 62.5239C94.2911 62.7639 94.5311 62.9739 94.7411 63.2139C94.8611 63.3339 94.8011 63.5439 94.6511 63.6239C94.5111 63.7239 94.3511 63.7639 94.2011 63.8239C94.0511 63.8839 93.8911 63.9239 93.7411 63.9739L93.2311 64.0939C92.3911 64.3039 91.5211 64.4739 90.6311 64.6039C88.8511 64.8639 86.9611 64.9839 84.9811 65.0139C81.9511 65.1039 76.5111 66.2739 73.6711 66.8039C69.9911 68.2439 72.3211 69.9339 72.5211 70.0239C75.1611 71.3539 76.8311 70.0739 81.7811 70.2739C78.4311 70.2539 83.9911 68.7439 87.2711 69.4039C88.4611 69.6639 89.7511 69.7039 91.1411 69.5439C91.8311 69.4639 92.5411 69.3439 93.2711 69.1739C94.0511 68.9839 94.5111 68.8739 96.0511 68.3239C97.3111 67.8439 98.6011 67.3139 99.4311 66.5939L99.9611 66.0439C100.101 65.8539 100.231 65.6639 100.341 65.4539C100.561 65.0539 100.731 64.4839 100.721 63.9439C100.711 63.4239 100.581 63.0739 100.401 62.6239C100.201 62.1839 99.9111 61.7039 99.4711 61.2539C99.0311 60.7939 98.5411 60.3539 98.0711 59.9139C97.6011 59.4839 97.1411 59.0539 96.6811 58.6339C96.1611 58.1239 95.5711 57.6339 94.9211 57.1539C94.5911 56.9139 94.2511 56.6639 93.8811 56.4139C93.5211 56.1839 93.1611 55.9339 92.7811 55.6939C89.2911 53.1339 85.9911 50.9939 82.7911 48.4639C79.4411 45.8239 75.9111 43.3239 72.3711 40.5139C70.4611 39.0539 68.5311 38.1239 66.7911 37.0739C65.5811 36.2339 64.5011 35.0739 63.5811 34.3239C62.8511 33.7339 62.1611 33.2139 61.4911 32.7439C60.7911 32.2539 60.0811 31.7839 59.3911 31.3839C60.1211 31.9039 60.7511 32.3639 61.4111 32.8339C62.0311 33.2939 62.6711 33.7639 63.4311 34.3339C64.4411 35.1139 62.3511 34.2539 61.6111 33.8139C61.2611 33.6639 61.1811 32.8939 60.8111 32.7339C60.1811 32.2039 59.4511 31.9039 58.6811 31.4739C58.3211 31.3339 58.6411 30.9739 58.4611 30.9039C57.4411 30.2639 56.3411 30.2439 55.8011 29.6939C55.3911 29.3039 55.0111 28.9539 54.6411 28.6039C54.4011 28.4039 54.1611 28.2039 53.8811 28.0239C53.6911 27.9339 53.5011 27.8439 53.3011 27.7539C53.3511 27.9739 53.3011 28.1539 53.2311 28.3339C53.2911 28.1539 53.3511 27.9739 53.3011 27.7539C51.9011 27.0939 50.3711 26.2439 49.0311 25.3039V25.3539C49.7611 25.9539 50.4411 26.5739 51.0511 27.4139C50.7711 27.0639 50.9011 26.9939 51.3011 27.2739L51.4511 27.6939C50.6911 27.2839 49.9211 26.8539 49.5411 26.0539C49.5411 26.0539 49.1911 25.8939 49.0211 25.8239C48.8611 25.5939 48.9711 25.4839 49.0211 25.3539C48.8811 25.2339 48.7311 25.1239 48.5811 25.0039C48.6511 25.2239 48.8611 25.6039 49.0611 25.9339C49.2811 26.2539 49.4611 26.5139 49.4611 26.5139L49.4711 26.4739Z" fill="#603913"/>
<path d="M57.431 32.3867C57.321 32.3167 57.181 32.2267 57.041 32.1367C57.521 32.5267 58.011 32.9167 58.481 33.3267C58.371 32.9367 57.911 32.6567 57.431 32.3867Z" fill="#603913"/>
</g>
<g opacity="0.85">
<path d="M57.4404 76.6797L57.5804 77.0297C57.5804 76.9597 57.6104 76.8797 57.6604 76.7897C57.6804 76.6897 57.5604 76.6997 57.4504 76.6897L57.4404 76.6797Z" fill="#603913"/>
<path d="M57.6904 77.3477L57.7204 77.4177L57.7804 77.4477L57.6904 77.3477Z" fill="#603913"/>
<path d="M58.0602 77.9194C58.0402 77.7994 57.9802 77.6994 57.9102 77.6094C57.9102 77.7094 57.9502 77.8194 58.0602 77.9194Z" fill="#603913"/>
<path d="M57.9703 77.3789C57.9203 77.4489 57.8603 77.4889 57.7803 77.4489C57.7803 77.4489 57.8703 77.5489 57.9203 77.6089C57.9203 77.5289 57.9403 77.4489 57.9703 77.3789Z" fill="#603913"/>
<path d="M57.9707 77.3792C58.0207 77.3192 58.0507 77.2292 58.0807 77.1992C58.0407 77.2592 58.0007 77.3192 57.9707 77.3792Z" fill="#603913"/>
<path d="M59.6007 76.8892C59.6807 76.9392 59.2307 77.0992 59.3807 77.1892C59.6307 77.4492 59.9307 77.6392 60.0407 77.9192C60.1907 78.0092 59.7607 78.3992 59.9107 78.4892C60.1507 78.7492 61.0307 79.2792 60.8407 78.8392C60.5307 78.1992 60.2407 77.7792 59.9107 77.1792C59.5307 76.7292 59.1007 76.3192 58.6907 75.8892C58.6007 75.7592 58.5607 75.6092 58.5107 75.4492C58.5407 75.6592 58.5707 75.8792 58.6007 76.1092C58.6007 76.4192 59.3107 76.4892 59.5907 76.8792L59.6007 76.8892Z" fill="#603913"/>
<path d="M56.1301 74.2892C56.2201 74.2892 56.3801 74.3092 56.3801 74.3092C56.3301 74.7592 56.6201 74.8792 56.9101 75.0492L57.0201 74.7892C56.8901 74.6592 56.7701 74.7292 56.7801 74.9192C56.7801 74.4592 56.5801 74.1492 56.2801 73.9492C56.2101 74.0592 56.1001 74.1692 56.1301 74.2792V74.2892Z" fill="#603913"/>
<path d="M56.1104 73.8481C56.1704 73.8881 56.2304 73.9281 56.2904 73.9581L56.3103 73.9181C56.2403 73.8881 56.1704 73.8581 56.1104 73.8281V73.8481Z" fill="#603913"/>
<path d="M58.9805 79.1077C59.3105 79.9577 59.6005 80.7677 59.8805 81.5577C59.9905 81.5777 60.1105 81.5777 60.0905 81.6777C60.0405 81.7677 60.0205 81.8477 60.0105 81.9277L60.1305 82.2777L60.2205 82.3777C60.3005 82.4177 60.3605 82.3777 60.4005 82.3077C60.4305 82.2477 60.4705 82.1777 60.5105 82.1177C60.4805 82.1577 60.4505 82.2377 60.4005 82.3077C60.3705 82.3877 60.3505 82.4677 60.3605 82.5377C60.4305 82.6277 60.5005 82.7277 60.5205 82.8477C60.4105 82.7477 60.3705 82.6477 60.3605 82.5377L60.2205 82.3777L60.1605 82.3377L60.4405 83.1277C60.4805 83.1777 60.5105 83.2277 60.5505 83.2677C60.6905 83.4277 60.8305 83.5777 60.6805 83.7877L60.7305 83.9277C60.7305 83.9277 60.7505 83.8977 60.7605 83.8877C60.7605 83.9177 60.7605 83.9377 60.7405 83.9577L60.9605 84.5577C61.1005 84.6377 61.2705 84.7177 61.3905 84.8177C61.3905 84.8177 61.2905 84.9777 61.2405 85.0477C61.3705 85.0477 61.4805 85.0877 61.5605 85.1577C61.6405 84.9877 61.7405 84.8277 61.7805 84.6977C61.7305 84.8277 61.6405 84.9877 61.5605 85.1577C61.7305 85.2977 61.7605 85.5677 61.6505 85.8577C61.3505 85.7177 61.4305 85.4377 61.5605 85.1577C61.4805 85.0877 61.3705 85.0477 61.2405 85.0477C61.2905 84.9677 61.3905 84.8177 61.3905 84.8177C61.2705 84.7177 61.1005 84.6477 60.9605 84.5577C61.1105 84.9477 61.2505 85.3377 61.4005 85.7377C62.3605 88.3377 63.6205 90.5277 64.7405 93.1377C65.3405 94.5577 65.8505 95.9577 66.2805 97.3677C66.7105 98.7777 67.3805 99.9777 67.9705 101.228C68.2705 101.848 68.5305 102.488 68.8505 103.248C69.1705 104.008 69.5205 104.868 70.1305 105.858C70.3905 106.238 70.7405 106.618 71.3205 107.008C71.9205 107.398 72.6205 107.668 73.3405 107.808C74.0605 107.948 74.8205 107.948 75.5405 107.808C76.2905 107.668 76.8805 107.408 77.3405 107.138C77.8705 106.608 78.0105 106.098 77.9605 105.698C77.9205 105.298 77.7105 105.018 77.4905 104.798C77.0205 104.368 76.5205 104.128 76.4705 104.108C75.6305 103.748 75.3705 103.628 75.0305 103.618C74.7605 103.588 74.2305 103.568 73.9605 102.918C74.1605 103.288 74.0205 103.558 73.6405 103.478C73.3205 103.428 72.8705 102.848 73.0705 102.148C73.3905 101.128 73.1405 100.518 72.5705 99.6077C72.0005 98.6977 71.2505 97.8277 70.9705 96.7977C70.8305 96.2877 70.5005 95.8377 70.2405 95.2677C69.2805 92.1377 67.1805 89.8477 65.7405 86.8077C65.3205 86.0277 64.5705 85.5477 64.0205 84.9877C63.7005 84.5377 63.6605 83.9177 63.4705 83.5277C63.1705 82.9077 62.7705 82.4477 62.3405 82.0277C62.6805 82.5677 62.9905 82.9277 63.3605 83.5377C63.5905 83.9477 62.6605 83.5077 62.4105 83.2877C62.2505 83.2077 62.6505 82.7977 62.4905 82.7177C62.3705 82.4577 62.0605 82.2977 61.8105 82.0677C61.6605 81.9877 62.1005 81.8077 62.0305 81.7677C61.7605 81.4277 61.0605 81.3677 61.0805 81.0677C61.0705 80.8477 61.0605 80.6477 61.0605 80.4577C61.0405 80.3377 61.0205 80.2277 60.9605 80.1277L60.7605 79.9577C60.6505 80.0677 60.4905 80.1577 60.3305 80.2377C60.3105 80.1277 60.3505 79.9377 60.3305 79.8177C60.3505 79.9277 60.3005 80.1177 60.3305 80.2377C60.4905 80.1477 60.6505 80.0677 60.7605 79.9577C60.2905 79.5377 59.8305 79.0177 59.4205 78.5077L59.3805 78.5277C59.5505 78.8477 59.6305 79.1877 59.4905 79.6477C59.5305 79.4577 59.6605 79.4277 59.7605 79.5977L59.5905 79.8177C59.3505 79.5677 59.1105 79.3077 59.3305 78.9077C59.3305 78.9077 59.1805 78.8177 59.1105 78.7677C59.1405 78.6477 59.2805 78.5977 59.3905 78.5377C59.3605 78.4777 59.3205 78.4177 59.2805 78.3477C59.1105 78.5677 58.9805 79.1177 58.9805 79.1177V79.1077Z" fill="#603913"/>
<path d="M60.3502 82.558C60.3502 82.558 60.2802 82.468 60.2402 82.418L60.4702 83.088C60.6302 82.878 60.4902 82.718 60.3502 82.568V82.558Z" fill="#603913"/>
</g>
<g opacity="0.85">
<path d="M73.8508 69.7773L74.0608 70.2473C74.0608 70.1573 74.0608 70.0573 74.0908 69.9373C74.0908 69.8073 73.9708 69.8073 73.8408 69.7773H73.8508Z" fill="#603913"/>
<path d="M74.2607 70.6875L74.3007 70.7775L74.3707 70.8275L74.2607 70.6875Z" fill="#603913"/>
<path d="M74.7808 71.4352C74.7308 71.2852 74.6508 71.1552 74.5508 71.0352C74.5808 71.1652 74.6408 71.3052 74.7808 71.4352Z" fill="#603913"/>
<path d="M74.5609 70.7461C74.5209 70.8261 74.4709 70.8861 74.3809 70.8261L74.5609 71.0361C74.5409 70.9361 74.5409 70.8361 74.5609 70.7461Z" fill="#603913"/>
<path d="M74.5605 70.7456C74.6005 70.6656 74.6205 70.5656 74.6405 70.5156C74.6105 70.5856 74.5805 70.6656 74.5605 70.7456Z" fill="#603913"/>
<path d="M76.1713 70.1663C76.2613 70.2263 75.8213 70.4263 76.0013 70.5363C76.3113 70.8563 76.6713 71.0762 76.8513 71.4362C77.0313 71.5462 76.6813 72.0463 76.8613 72.1562C77.1713 72.4762 78.2513 73.1563 77.9313 72.5963C77.4313 71.7663 77.0313 71.2663 76.5613 70.5363C76.0713 69.9963 75.5613 69.4963 75.0813 68.9463C74.9713 68.7763 74.9213 68.5962 74.8613 68.4062C74.9113 68.6562 74.9613 68.9163 75.0213 69.2063C75.0713 69.5963 75.8213 69.7063 76.1813 70.1763L76.1713 70.1663Z" fill="#603913"/>
<path d="M72.1909 66.6356C72.2709 66.6256 72.4709 66.6356 72.4709 66.6356C72.5109 67.1156 72.8008 67.2956 73.1408 67.5856L73.2508 67.3056C73.0908 67.1156 72.9708 67.1756 73.0008 67.4056C73.0008 66.8656 72.7008 66.4256 72.2408 66.2656C72.2108 66.3956 72.1508 66.5356 72.2008 66.6356H72.1909Z" fill="#603913"/>
<path d="M71.9609 66.217C72.0509 66.217 72.1409 66.237 72.2309 66.267V66.227C72.1409 66.207 72.0509 66.207 71.9609 66.207V66.217Z" fill="#603913"/>
<path d="M76.0406 72.9461C76.6006 74.0061 77.0906 75.0261 77.5506 76.0261C77.6706 76.0561 77.8006 76.0661 77.8006 76.1961C77.7606 76.3061 77.7606 76.4061 77.7606 76.4961L77.9606 76.9361L78.0706 77.0761C78.1606 77.1361 78.2106 77.0761 78.2506 76.9961C78.2706 76.9161 78.3006 76.8461 78.3306 76.7761C78.3106 76.8261 78.2906 76.9261 78.2506 76.9961C78.2306 77.0861 78.2206 77.1861 78.2506 77.2861C78.3406 77.4061 78.4306 77.5361 78.4806 77.6861C78.3506 77.5561 78.2806 77.4161 78.2506 77.2861L78.0706 77.0761L78.0006 77.0261L78.4406 78.0361C78.4906 78.1061 78.5406 78.1761 78.5806 78.2261C78.7506 78.4361 78.9106 78.6561 78.7706 78.8961L78.8406 79.0861C78.8406 79.0861 78.8506 79.0561 78.8606 79.0361C78.8606 79.0661 78.8606 79.0961 78.8506 79.1261L79.1306 79.9061C79.2906 80.0361 79.4606 80.1561 79.6006 80.2961C79.6006 80.2961 79.5106 80.4761 79.4606 80.5661C79.6006 80.5861 79.7206 80.6461 79.8006 80.7461C79.8706 80.5461 79.9606 80.3561 80.0006 80.2061C79.9606 80.3661 79.8706 80.5561 79.8006 80.7461C79.9906 80.9461 80.0506 81.2961 79.9406 81.6361C79.6206 81.4061 79.6806 81.0661 79.8006 80.7461C79.7106 80.6461 79.6006 80.5861 79.4606 80.5661C79.5106 80.4761 79.6006 80.2961 79.6006 80.2961C79.4606 80.1561 79.2806 80.0361 79.1306 79.9061C79.3106 80.4161 79.5006 80.9361 79.6906 81.4661C80.8706 84.8761 82.2706 87.9161 83.5306 91.4261C84.1906 93.3361 84.7106 95.1961 85.0206 97.0361C85.1606 97.9361 85.4206 98.9161 85.4306 99.4061C85.4306 99.8561 85.3306 100.086 85.0606 100.336C84.7506 100.626 84.1406 100.926 83.3606 101.116C82.4806 101.346 81.5206 101.536 80.5206 101.616C78.9906 101.786 76.5406 103.026 75.2406 103.616C73.7706 105.076 75.4706 106.606 75.6006 106.686C77.3506 107.866 77.8306 106.616 80.4306 106.676C78.7006 106.746 81.1206 105.176 82.9906 105.706C83.6806 105.916 84.3406 105.916 85.0006 105.796C85.6806 105.656 86.5406 105.296 87.3906 104.676C87.8206 104.356 88.2506 103.966 88.6506 103.476C89.0706 102.966 89.4206 102.356 89.6406 101.726C89.8606 101.096 89.9906 100.436 90.0206 99.7761C90.0406 99.1161 89.9906 98.5861 89.9506 98.0961C89.8506 97.1061 89.5406 96.4961 89.3106 95.6361C88.9006 93.4061 88.0506 91.4161 87.1306 89.5161C86.2006 87.6061 85.2106 85.7661 84.3806 83.6861C83.9006 82.6061 83.0806 81.8361 82.4406 81.0061C82.0606 80.3661 81.9606 79.5561 81.7106 79.0061C81.3106 78.1561 80.8606 77.4661 80.3006 76.8761C80.7906 77.6061 81.1206 78.1461 81.6006 78.9961C81.8906 79.5761 80.8606 78.8461 80.5606 78.5161C80.3906 78.3961 80.7606 77.9061 80.5806 77.7861C80.4306 77.4161 80.0506 77.1961 79.7406 76.8661C79.5606 76.7461 80.0006 76.5661 79.9206 76.5061C79.5606 76.0361 78.8006 75.9061 78.7506 75.5161C78.6906 75.2361 78.6406 74.9761 78.5906 74.7261C78.5406 74.5761 78.4906 74.4261 78.4006 74.2861L78.1506 74.0561C78.0606 74.1961 77.9106 74.3061 77.7606 74.4061C77.7106 74.2561 77.7106 74.0161 77.6706 73.8761C77.7206 74.0261 77.7206 74.2661 77.7606 74.4061C77.9106 74.3061 78.0606 74.1961 78.1506 74.0561C77.5506 73.4961 76.9306 72.8361 76.3706 72.1961L76.3406 72.2261C76.6006 72.6261 76.7706 73.0661 76.7306 73.6361C76.7306 73.3961 76.8606 73.3661 77.0006 73.5661L76.8706 73.8361C76.5606 73.5161 76.2406 73.2061 76.3706 72.6861C76.3706 72.6861 76.1906 72.5761 76.1006 72.5161C76.1006 72.3661 76.2406 72.3061 76.3406 72.2261C76.2906 72.1461 76.2306 72.0761 76.1806 71.9961C76.0606 72.2761 76.0606 72.9761 76.0606 72.9761L76.0406 72.9461Z" fill="#603913"/>
<path d="M78.2406 77.2955C78.2006 77.2455 78.1506 77.1755 78.1006 77.1055L78.4606 77.9555C78.6006 77.7155 78.4206 77.5055 78.2406 77.2955Z" fill="#603913"/>
</g>
<g opacity="0.85">
<path d="M54.3111 28.318L54.0811 28.168C54.0811 28.168 54.1411 28.248 54.1611 28.308C54.2011 28.358 54.2511 28.328 54.3111 28.308V28.318Z" fill="#603913"/>
<path d="M53.8713 28.0261L53.8312 27.9961H53.7812C53.7812 27.9961 53.8413 28.0161 53.8713 28.0261Z" fill="#603913"/>
<path d="M53.4307 27.8281C53.4907 27.8881 53.5707 27.9281 53.6407 27.9581C53.5907 27.9081 53.5307 27.8581 53.4307 27.8281Z" fill="#603913"/>
<path d="M53.7206 28.0792C53.7206 28.0792 53.7206 27.9892 53.7806 27.9992C53.7806 27.9992 53.6906 27.9692 53.6406 27.9492C53.6806 27.9892 53.7006 28.0392 53.7206 28.0792Z" fill="#603913"/>
<path d="M53.7207 28.0781C53.7207 28.0781 53.7507 28.1681 53.7507 28.1981C53.7507 28.1581 53.7307 28.1181 53.7207 28.0781Z" fill="#603913"/>
<path d="M53.1609 28.7281C53.1009 28.7281 53.2409 28.5281 53.1309 28.5181C52.9009 28.4481 52.6609 28.4281 52.4909 28.2981C52.3809 28.2781 52.4009 27.9781 52.2909 27.9581C52.0609 27.8881 51.3909 27.7581 51.6809 27.9581C52.1309 28.2581 52.4509 28.4181 52.8809 28.6381C53.2609 28.7781 53.6509 28.8681 54.0309 28.9981C54.1309 29.0381 54.2209 29.1081 54.3009 29.1681C54.1909 29.0681 54.0909 28.9681 53.9709 28.8681C53.8309 28.7081 53.4609 28.8481 53.1609 28.7181V28.7281Z" fill="#603913"/>
<path d="M56.0705 29.3191C56.0205 29.3191 55.9105 29.3391 55.9105 29.3391C55.7705 29.0991 55.5405 29.0791 55.3105 29.0391L55.3505 29.1891C55.4705 29.2291 55.5105 29.1791 55.4305 29.0791C55.6105 29.3291 55.8405 29.4291 56.0905 29.5091C56.0905 29.4391 56.1305 29.3691 56.0705 29.3191Z" fill="#603913"/>
<path d="M56.2408 29.5478C56.1908 29.5378 56.1408 29.5178 56.0908 29.5078V29.5278L56.2408 29.5478Z" fill="#603913"/>
<path d="M52.471 27.4175C51.951 27.0375 51.481 26.6375 51.061 26.2275C50.991 26.2275 50.931 26.2475 50.911 26.1875C50.911 26.1275 50.891 26.0775 50.861 26.0275L50.681 25.8475L50.601 25.7975C50.551 25.7875 50.531 25.8175 50.531 25.8675C50.531 25.9075 50.531 25.9475 50.531 25.9975C50.531 25.9675 50.531 25.9175 50.531 25.8675C50.531 25.8175 50.501 25.7675 50.471 25.7175C50.401 25.6775 50.341 25.6275 50.281 25.5575C50.371 25.5975 50.431 25.6575 50.471 25.7175L50.601 25.7975H50.651L50.241 25.3775C50.201 25.3475 50.171 25.3275 50.141 25.3075C50.021 25.2275 49.891 25.1475 49.911 25.0075L49.841 24.9275V24.9575L49.831 24.9175L49.541 24.5775C49.441 24.5375 49.331 24.5075 49.241 24.4575C49.241 24.4575 49.251 24.3575 49.261 24.3075C49.191 24.3175 49.121 24.3075 49.061 24.2675C49.061 24.3775 49.061 24.4875 49.061 24.5675C49.051 24.4875 49.061 24.3775 49.061 24.2675C48.931 24.1975 48.841 24.0275 48.821 23.8375C49.021 23.8975 49.051 24.0775 49.061 24.2675C49.121 24.3075 49.191 24.3175 49.261 24.3075C49.261 24.3575 49.241 24.4575 49.241 24.4575C49.331 24.5075 49.441 24.5375 49.541 24.5775C49.351 24.3475 49.171 24.1275 48.971 23.8875C47.761 22.3675 46.641 20.9775 45.281 19.4175C44.551 18.5675 43.801 17.7675 42.971 17.0175C42.141 16.2775 41.141 15.7675 40.071 15.4375C39.521 15.2775 39.011 15.1475 38.371 15.0475C37.751 14.9875 36.971 14.8975 36.021 15.3975C35.921 15.4475 35.831 15.5175 35.721 15.5975C35.411 15.8475 35.111 16.2575 34.941 16.6475C34.771 17.0375 34.691 17.4175 34.651 17.7275C34.571 18.3475 34.551 18.7275 34.501 18.8875C34.621 19.1275 34.881 19.3575 35.141 19.5475C35.391 19.7375 35.701 19.7675 35.741 19.7475C36.891 19.5475 36.451 18.4875 37.161 17.6675C36.981 17.8675 36.881 17.8575 36.861 17.6675C36.841 17.4875 36.971 17.1875 37.201 17.1175C37.331 17.0775 37.461 17.1075 37.591 17.1875C37.991 17.5175 38.341 17.5675 39.011 17.6575C39.611 17.7375 40.301 17.8675 40.811 18.2775C41.061 18.4675 41.371 18.6175 41.691 18.8575C43.161 20.2575 44.751 21.5375 46.301 23.4275C46.731 23.9175 47.281 24.1975 47.741 24.5275C48.041 24.7975 48.251 25.1875 48.481 25.4275C48.841 25.7975 49.221 26.0575 49.601 26.2775C49.231 25.9775 48.931 25.7775 48.541 25.4175C48.281 25.1775 48.931 25.3775 49.141 25.4975C49.251 25.5275 49.171 25.8275 49.281 25.8575C49.431 26.0075 49.651 26.0775 49.871 26.1875C49.981 26.2175 49.811 26.3875 49.871 26.3975C50.141 26.5775 50.531 26.5175 50.641 26.6975C50.731 26.8275 50.811 26.9475 50.891 27.0675C50.951 27.1375 51.011 27.1975 51.081 27.2475L51.251 27.3175C51.261 27.2275 51.311 27.1475 51.351 27.0675C51.301 27.1475 51.261 27.2275 51.251 27.3175C51.701 27.5075 52.151 27.6875 52.541 27.8475V27.8275C52.321 27.6975 52.131 27.5275 52.011 27.2475C52.071 27.3575 52.011 27.4075 51.901 27.3375V27.1775C52.121 27.2675 52.331 27.3575 52.411 27.6175C52.411 27.6175 52.521 27.6275 52.581 27.6375C52.621 27.7075 52.581 27.7675 52.551 27.8275C52.591 27.8475 52.641 27.8775 52.691 27.8975C52.671 27.7375 52.491 27.4175 52.491 27.4175H52.471Z" fill="#603913"/>
<path d="M50.4608 25.7063C50.4608 25.7063 50.5308 25.7563 50.5608 25.7763L50.2208 25.4062C50.2008 25.5463 50.3308 25.6263 50.4608 25.6963V25.7063Z" fill="#603913"/>
</g>
</svg>
