<svg width="69" height="69" viewBox="0 0 69 69" fill="none" xmlns="http://www.w3.org/2000/svg">
<circle cx="34.5" cy="34.5" r="34.5" transform="matrix(1 0 0 -1 0 69)" fill="#24582A"/>
<path d="M23 36C22.4477 36 22 35.5523 22 35C22 34.4477 22.4477 34 23 34V36ZM46.7071 34.2929C47.0976 34.6834 47.0976 35.3166 46.7071 35.7071L40.3431 42.0711C39.9526 42.4616 39.3195 42.4616 38.9289 42.0711C38.5384 41.6805 38.5384 41.0474 38.9289 40.6569L44.5858 35L38.9289 29.3431C38.5384 28.9526 38.5384 28.3195 38.9289 27.9289C39.3195 27.5384 39.9526 27.5384 40.3431 27.9289L46.7071 34.2929ZM23 34H46V36H23V34Z" fill="white"/>
</svg>
