<svg width="112" height="19" viewBox="0 0 112 19" fill="none" xmlns="http://www.w3.org/2000/svg">
<path d="M9.16365 0L11.221 6.33193H17.8788L12.4925 10.2453L14.5499 16.5772L9.16365 12.6639L3.77739 16.5772L5.83476 10.2453L0.448501 6.33193H7.10628L9.16365 0Z" fill="#F6D24F"/>
<path d="M32.5816 0L34.639 6.33193H41.2968L35.9105 10.2453L37.9679 16.5772L32.5816 12.6639L27.1954 16.5772L29.2527 10.2453L23.8665 6.33193H30.5243L32.5816 0Z" fill="#F6D24F"/>
<path d="M56.0001 0L58.0574 6.33193H64.7152L59.329 10.2453L61.3863 16.5772L56.0001 12.6639L50.6138 16.5772L52.6712 10.2453L47.2849 6.33193H53.9427L56.0001 0Z" fill="#F6D24F"/>
<path d="M79.418 0L81.4754 6.33193H88.1332L82.7469 10.2453L84.8043 16.5772L79.418 12.6639L74.0318 16.5772L76.0892 10.2453L70.7029 6.33193H77.3607L79.418 0Z" fill="#F6D24F"/>
<path d="M102.837 1.27288L104.52 6.45347L104.608 6.72527H104.894H110.341L105.934 9.92705L105.703 10.095L105.791 10.3668L107.475 15.5474L103.068 12.3456L102.837 12.1777L102.605 12.3456L98.1984 15.5474L99.8817 10.3668L99.97 10.095L99.7388 9.92705L95.3319 6.72527H100.779H101.065L101.153 6.45347L102.837 1.27288Z" stroke="#462216" stroke-opacity="0.74" stroke-width="0.786681"/>
</svg>
