<svg width="16" height="17" viewBox="0 0 16 17" fill="none" xmlns="http://www.w3.org/2000/svg">
<path d="M1.0192 16.6063C0.756667 16.6063 0.537892 16.5188 0.362872 16.3438C0.187852 16.1687 0.100342 15.95 0.100342 15.6874V12.1433C0.100342 11.9391 0.165974 11.7603 0.297239 11.6068C0.428504 11.4534 0.596232 11.3551 0.800421 11.3119L3.81952 10.6994C4.02371 10.6702 4.23169 10.6886 4.44346 10.7545C4.65524 10.8204 4.82646 10.9187 4.95714 11.0494L7.01363 13.1059C8.12209 12.435 9.13575 11.6401 10.0546 10.7212C10.9735 9.80239 11.7392 8.8179 12.3517 7.76778L10.2515 5.62378C10.1202 5.49252 10.0362 5.34288 9.99947 5.17486C9.96271 5.00684 9.95921 4.82103 9.98897 4.61742L10.5578 1.55457C10.587 1.35038 10.6818 1.18265 10.8422 1.05139C11.0026 0.920125 11.1849 0.854492 11.3891 0.854492H14.9333C15.1958 0.854492 15.4146 0.942002 15.5896 1.11702C15.7646 1.29204 15.8521 1.51082 15.8521 1.77335C15.8521 3.65481 15.4327 5.48902 14.5937 7.27597C13.7548 9.06293 12.6464 10.6454 11.2684 12.0234C9.89037 13.4014 8.3079 14.5098 6.52095 15.3488C4.73399 16.1877 2.90008 16.6069 1.0192 16.6063Z" fill="#FAF6EF"/>
</svg>
