<svg width="32" height="22" viewBox="0 0 32 22" fill="none" xmlns="http://www.w3.org/2000/svg">
<path d="M32 0.76123H0.985229V21.4384H32V0.76123Z" fill="#94C11C"/>
<path d="M13.063 5.53693C13.3933 5.56327 13.5574 5.57948 13.8816 5.62C13.987 5.63419 14.0862 5.58758 14.1045 5.51667C14.1612 5.29784 14.1896 5.18843 14.2443 4.9696C14.2625 4.89868 14.3152 4.90476 14.3598 4.98581C14.5016 5.23098 14.5725 5.35457 14.7083 5.60379C14.7529 5.68484 14.8744 5.76386 14.9757 5.78412C15.2797 5.84491 15.3891 5.87327 15.7558 5.97053C15.8571 5.99687 15.8733 6.04347 15.8004 6.06981C15.5755 6.14884 15.458 6.1691 15.225 6.26433C15.15 6.29472 15.1236 6.3859 15.1642 6.46897C15.2898 6.72022 15.3485 6.85395 15.464 7.1214C15.5025 7.20853 15.4661 7.21866 15.383 7.14572C15.1277 6.92081 14.996 6.83774 14.7285 6.6493C14.6394 6.58649 14.5057 6.5642 14.4307 6.59662C14.2017 6.6959 14.0883 6.76479 13.8573 6.87016C13.7803 6.9046 13.7357 6.87623 13.756 6.80734C13.8168 6.5946 13.8451 6.46897 13.9039 6.25825C13.9221 6.18936 13.8634 6.08602 13.7702 6.03132C13.4824 5.86112 13.3366 5.77804 13.0428 5.62C12.9475 5.56732 12.9556 5.53288 13.063 5.54098" fill="white"/>
<path d="M9.83755 7.89726C10.2327 7.81419 10.3542 7.79596 10.727 7.74125C10.8385 7.72504 10.952 7.65817 10.9783 7.58523C11.0593 7.3583 11.0978 7.24483 11.1769 7.01993C11.2032 6.94698 11.2579 6.94496 11.2984 7.01182C11.4281 7.22255 11.4909 7.32993 11.6145 7.54471C11.655 7.6136 11.7766 7.67641 11.882 7.67033C12.2325 7.65007 12.3135 7.62778 12.6702 7.61157C12.7735 7.60549 12.7856 7.64602 12.7127 7.69465C12.4392 7.87295 12.3561 7.94387 12.113 8.08975C12.036 8.13635 11.9975 8.22348 12.036 8.29642C12.1535 8.51525 12.2122 8.62669 12.3257 8.85565C12.3642 8.93062 12.3237 8.95088 12.2345 8.90225C11.9691 8.75231 11.8333 8.68342 11.5578 8.5578C11.4666 8.51525 11.3227 8.52133 11.2376 8.57198C10.9823 8.72395 10.8952 8.78068 10.5528 8.99545C10.4576 9.05421 10.411 9.04611 10.4454 8.95493C10.5568 8.66924 10.5953 8.60035 10.6865 8.37139C10.7169 8.29642 10.6582 8.2093 10.5629 8.1789C10.2651 8.08773 10.1131 8.04923 9.80108 7.98439C9.69977 7.96413 9.71396 7.9236 9.8335 7.89726" fill="white"/>
<path d="M8.13332 10.8901C8.49398 10.8597 8.66823 10.8536 9.00255 10.8536C9.11197 10.8536 9.24367 10.7949 9.29838 10.7199C9.46858 10.491 9.55165 10.3775 9.71577 10.1526C9.76845 10.0796 9.82113 10.0837 9.83126 10.1587C9.86165 10.3937 9.87786 10.5133 9.90218 10.7523C9.91028 10.8293 9.99944 10.9003 10.0967 10.9124C10.4371 10.959 10.4898 10.9691 10.8322 11.032C10.9254 11.0502 10.9274 11.0907 10.8383 11.1211C10.5647 11.2123 10.4249 11.2629 10.1372 11.3744C10.044 11.4108 9.96094 11.5061 9.96296 11.5851C9.96296 11.8282 9.96296 11.9498 9.96296 12.197C9.96296 12.2781 9.91231 12.2963 9.85355 12.2396C9.67322 12.0653 9.58002 11.9802 9.38348 11.8161C9.31864 11.7634 9.18086 11.7573 9.07955 11.7999C8.76549 11.9356 8.60542 12.0086 8.28326 12.1605C8.1779 12.2112 8.1394 12.1889 8.20424 12.1099C8.3947 11.8708 8.48993 11.7533 8.67634 11.5182C8.73915 11.4412 8.72902 11.3399 8.6581 11.2954C8.43117 11.1576 8.31568 11.0927 8.06646 10.9752C7.98541 10.9387 8.01783 10.8982 8.13332 10.8901Z" fill="white"/>
<path d="M13.9224 14.8796C13.6854 15.0154 13.5557 15.1025 13.3044 15.2808C13.2234 15.3375 13.1727 15.4611 13.193 15.5543C13.2558 15.838 13.2862 15.9839 13.347 16.2858C13.3673 16.3851 13.3247 16.4175 13.2538 16.3567C13.037 16.1703 12.9296 16.0832 12.7128 15.913C12.6419 15.8562 12.5142 15.8623 12.4291 15.9292C12.1738 16.1257 12.0442 16.229 11.7848 16.4377C11.6997 16.5066 11.6632 16.4783 11.7038 16.377C11.8274 16.0669 11.8881 15.915 12.0057 15.6212C12.0442 15.5239 12.0178 15.4044 11.9428 15.3558C11.7159 15.2038 11.6024 15.1308 11.3715 14.9931C11.2965 14.9485 11.3168 14.9019 11.414 14.8897C11.7179 14.8512 11.8699 14.8371 12.1678 14.8127C12.265 14.8046 12.3744 14.7256 12.4109 14.6365C12.5244 14.3568 12.5811 14.2211 12.6905 13.9577C12.727 13.8726 12.7736 13.8706 12.7959 13.9536C12.8648 14.2089 12.8992 14.3386 12.9681 14.6061C12.9904 14.6932 13.0856 14.7621 13.1788 14.7601C13.4706 14.754 13.6165 14.7479 13.9001 14.7803C13.9933 14.7905 14.0014 14.8371 13.9245 14.8816" fill="white"/>
<path d="M17.8147 15.3195C17.606 15.3883 17.5026 15.4248 17.2919 15.4998C17.223 15.5241 17.1906 15.6133 17.221 15.6984C17.3142 15.9557 17.3608 16.0833 17.458 16.3407C17.4905 16.4258 17.456 16.4399 17.379 16.3731C17.1501 16.1705 17.0386 16.0671 16.8178 15.8584C16.7448 15.7895 16.6273 15.7571 16.5564 15.7875C16.3416 15.8787 16.2342 15.9253 16.0134 16.0286C15.9404 16.0631 15.904 16.0286 15.9303 15.9496C16.0154 15.7166 16.0559 15.6031 16.137 15.3843C16.1633 15.3114 16.1268 15.1959 16.0559 15.127C15.8391 14.9122 15.7317 14.8028 15.521 14.588C15.4521 14.5171 15.4663 14.4826 15.5514 14.509C15.8168 14.5921 15.9485 14.6346 16.2119 14.7197C16.297 14.7481 16.3862 14.7136 16.4125 14.6468C16.4895 14.4381 16.528 14.3368 16.601 14.1362C16.6253 14.0734 16.6658 14.0875 16.6942 14.1706C16.7793 14.4239 16.8218 14.5536 16.909 14.8109C16.9373 14.894 17.0305 14.9851 17.1156 15.0135C17.3811 15.1006 17.5128 15.1432 17.7802 15.2303C17.8653 15.2587 17.8815 15.2992 17.8147 15.3215" fill="white"/>
<path d="M21.3056 14.288C21.0726 14.3771 20.9652 14.4237 20.7383 14.5109C20.6653 14.5392 20.6369 14.6284 20.6775 14.7094C20.797 14.9566 20.8578 15.0802 20.9854 15.3234C21.026 15.4024 20.9895 15.4206 20.9024 15.3578C20.639 15.1694 20.5093 15.0762 20.258 14.8513C20.175 14.7763 20.0514 14.7337 19.9805 14.756C19.7657 14.8249 19.6583 14.8573 19.4455 14.9283C19.3746 14.9505 19.3341 14.912 19.3544 14.8432C19.4192 14.6324 19.4516 14.5291 19.5144 14.3224C19.5367 14.2535 19.4881 14.138 19.4111 14.0611C19.17 13.826 19.0504 13.7044 18.8174 13.4674C18.7425 13.3904 18.7526 13.358 18.8438 13.3924C19.1214 13.5059 19.2591 13.5626 19.5408 13.67C19.632 13.7044 19.7252 13.6801 19.7474 13.6133C19.8143 13.4066 19.8488 13.3053 19.9197 13.1006C19.942 13.0338 19.9865 13.052 20.021 13.1371C20.1243 13.4046 20.177 13.5383 20.2864 13.8058C20.3229 13.8929 20.4262 13.9881 20.5215 14.0205C20.8112 14.1178 20.9632 14.136 21.2671 14.1968C21.3643 14.215 21.3826 14.2535 21.3096 14.2839" fill="white"/>
<path d="M23.585 11.968C23.3622 12.1219 23.2548 12.1949 23.038 12.3246C22.9691 12.3671 22.9387 12.4542 22.9691 12.5191C23.0663 12.7156 23.115 12.8109 23.2142 13.0013C23.2487 13.0641 23.2142 13.0824 23.1373 13.0418C22.9103 12.9203 22.7989 12.8534 22.578 12.7116C22.5051 12.665 22.3936 12.6508 22.3268 12.6791C22.1262 12.7703 22.0289 12.8129 21.8344 12.896C21.7696 12.9243 21.7351 12.896 21.7554 12.8372C21.8182 12.6569 21.8486 12.5657 21.9155 12.3833C21.9357 12.3225 21.8972 12.2314 21.8283 12.1767C21.6156 12.0085 21.5123 11.9112 21.3076 11.7309C21.2407 11.6721 21.2509 11.6417 21.3319 11.66C21.5791 11.7208 21.7047 11.7491 21.9621 11.7917C22.0451 11.8059 22.1323 11.7593 22.1546 11.6924C22.2255 11.4796 22.2619 11.3723 22.3369 11.1494C22.3612 11.0785 22.4038 11.0825 22.4301 11.1575C22.5152 11.3925 22.5618 11.508 22.6489 11.741C22.6773 11.816 22.7725 11.8829 22.8597 11.8869C23.1291 11.8991 23.2669 11.9011 23.5486 11.8849C23.6397 11.8808 23.6539 11.9173 23.583 11.968" fill="white"/>
<path d="M25.433 8.45255C25.2202 8.67543 25.1128 8.78485 24.9001 8.9976C24.8312 9.06446 24.7947 9.17185 24.817 9.23466C24.89 9.42107 24.9264 9.51427 25.0034 9.69258C25.0277 9.75133 24.9933 9.78578 24.9264 9.76957C24.7198 9.71892 24.6184 9.68852 24.4219 9.61761C24.3571 9.59329 24.2497 9.62571 24.1828 9.68852C23.9782 9.87696 23.8708 9.96814 23.6823 10.1363C23.6216 10.191 23.5891 10.1748 23.6114 10.1019C23.6803 9.88101 23.733 9.76147 23.8161 9.52845C23.8444 9.45146 23.8161 9.36433 23.7533 9.33597C23.5648 9.24276 23.4716 9.19211 23.2893 9.08472C23.2305 9.05028 23.2447 9.01178 23.3197 9.00165C23.5547 8.96315 23.6742 8.94086 23.9174 8.8821C23.9964 8.86184 24.0835 8.78079 24.1119 8.69975C24.199 8.45053 24.2416 8.3249 24.3307 8.0696C24.3591 7.98653 24.3996 7.97437 24.4199 8.04326C24.4807 8.25601 24.5131 8.35935 24.5799 8.56197C24.6022 8.6268 24.6873 8.65922 24.7684 8.63086C25.0217 8.54373 25.1493 8.4951 25.4087 8.38569C25.4938 8.35124 25.5059 8.38164 25.435 8.45255" fill="white"/>
<path d="M21.4132 6.13861C21.632 6.15685 21.7171 6.1528 21.9724 6.14267C22.0474 6.14064 22.1244 6.0758 22.1446 5.99678C22.2074 5.75566 22.2399 5.63004 22.3067 5.37069C22.329 5.28762 22.3655 5.28154 22.3898 5.36056C22.4648 5.60167 22.5033 5.71514 22.5803 5.94207C22.6046 6.01502 22.6856 6.05959 22.7606 6.05959C22.9652 6.05959 23.0949 6.05351 23.3502 6.03933C23.4272 6.03528 23.4434 6.06567 23.3786 6.11835C23.1901 6.26626 23.0929 6.31692 22.9085 6.46483C22.8457 6.51548 22.8214 6.61882 22.8457 6.68771C22.9227 6.89438 22.9612 6.99569 23.0402 7.19425C23.0665 7.25909 23.0361 7.28543 22.9754 7.25099C22.7869 7.14968 22.6937 7.097 22.5053 6.98556C22.4445 6.94909 22.3452 6.95922 22.2885 7.00784C22.1142 7.15373 22.0271 7.22465 21.8569 7.35635C21.8022 7.3989 21.7698 7.37458 21.788 7.30772C21.8427 7.10915 21.8711 7.00379 21.9299 6.78699C21.9501 6.71607 21.9136 6.62692 21.8529 6.58437C21.6624 6.44659 21.5712 6.3696 21.3889 6.21561C21.3281 6.16495 21.3382 6.13051 21.4111 6.13659" fill="white"/>
<path d="M17.3569 5.35654C17.6142 5.42948 17.7419 5.46798 17.9972 5.54092C18.0803 5.56524 18.1674 5.53079 18.1877 5.46595C18.2565 5.26131 18.291 5.15797 18.3639 4.9432C18.3862 4.87431 18.4308 4.88444 18.4592 4.96549C18.5463 5.22079 18.5888 5.34844 18.6719 5.60171C18.6983 5.68276 18.7874 5.76988 18.8684 5.7942C19.1237 5.86916 19.2514 5.90361 19.5047 5.97655C19.5877 6.00087 19.5999 6.04139 19.531 6.06976C19.3223 6.15486 19.221 6.19538 19.0184 6.27237C18.9535 6.29669 18.9211 6.38179 18.9454 6.46284C19.0224 6.708 19.0589 6.82755 19.1359 7.06664C19.1602 7.14566 19.1278 7.15579 19.063 7.09095C18.8684 6.89239 18.7712 6.7931 18.5726 6.59454C18.5078 6.5297 18.4024 6.49323 18.3376 6.51552C18.1451 6.58035 18.0519 6.61075 17.8614 6.66951C17.8007 6.68977 17.7662 6.65735 17.7865 6.59656C17.8493 6.41623 17.8817 6.32506 17.9465 6.13865C17.9688 6.07786 17.9303 5.97453 17.8635 5.91171C17.6527 5.71517 17.5454 5.61792 17.3286 5.42948C17.2576 5.36667 17.2678 5.33628 17.3508 5.36059" fill="white"/>
<path d="M27.4387 5.20245C27.2523 5.37265 27.153 5.4618 26.9524 5.64416C26.8876 5.70494 26.8511 5.79612 26.8734 5.84475C26.9423 5.99671 26.9788 6.07168 27.0537 6.21149C27.078 6.25809 27.0456 6.29051 26.9788 6.2824C26.7782 6.26012 26.6789 6.24391 26.4844 6.20541C26.4195 6.19325 26.3121 6.23378 26.2433 6.29659C26.0346 6.48907 25.9292 6.58633 25.7144 6.77882C25.6435 6.84163 25.6111 6.83353 25.6415 6.76058C25.7347 6.53973 25.7833 6.42626 25.8745 6.20541C25.9049 6.13247 25.8806 6.0575 25.8178 6.03724C25.6293 5.97848 25.5361 5.94606 25.3538 5.87312C25.295 5.8488 25.3112 5.81233 25.3902 5.78802C25.6334 5.71913 25.757 5.68063 26.0001 5.60566C26.0791 5.58135 26.1683 5.5003 26.1987 5.42736C26.2919 5.1984 26.3385 5.08493 26.4276 4.85597C26.458 4.78303 26.4945 4.7729 26.5127 4.83368C26.5634 5.01807 26.5918 5.10924 26.6505 5.28147C26.6688 5.3382 26.7478 5.36049 26.8268 5.33618C27.0659 5.25716 27.1834 5.21866 27.4124 5.14369C27.4873 5.11938 27.4975 5.14369 27.4367 5.1984" fill="white"/>
<path d="M19.1662 9.25905C19.302 9.22257 19.3222 9.15368 19.1601 9.16179C18.8826 9.17597 15.6528 9.91958 12.8547 11.5527C9.80931 13.3296 8.8874 14.2151 8.237 14.7196C8.06477 14.8533 7.93712 14.8554 7.90673 14.7743C7.80339 14.4967 7.73856 14.3387 7.65346 14.0793C7.62712 14.0003 7.55215 14.0084 7.51973 14.1199C7.40626 14.4967 7.35156 14.7257 7.24012 15.0641C7.20567 15.1735 7.16717 15.293 6.96456 15.4328C6.5654 15.7104 6.48232 15.7651 6.2331 15.9353C6.14193 15.9961 6.09532 16.065 6.27565 16.0974C6.44991 16.1298 6.48435 16.1359 6.71736 16.1785C6.90377 16.2129 6.84298 16.3385 6.81664 16.45C6.73965 16.764 6.70723 16.8917 6.60592 17.2159C6.57148 17.3212 6.61605 17.3354 6.70318 17.2463C6.96861 16.9687 7.05573 16.8755 7.33737 16.5817C7.44273 16.4723 7.54202 16.3446 7.65346 16.3649C7.92902 16.4135 7.96144 16.4236 8.34641 16.4945C8.51661 16.527 8.51661 16.4479 8.47001 16.3365C8.33831 16.0103 8.36262 16.0528 8.26334 15.7773C8.23092 15.6881 8.22484 15.524 8.32615 15.4267C9.93088 13.8646 10.5955 13.356 12.8 11.9174C14.5283 10.7908 16.824 9.89527 19.1662 9.2631V9.25905Z" fill="white"/>
</svg>
