<svg width="24" height="24" viewBox="0 0 24 24" fill="none" xmlns="http://www.w3.org/2000/svg">
<path d="M7.0393 16.8184C5.75398 15.5965 4.95207 13.8694 4.95207 11.9558C4.95207 8.24995 7.95577 5.24625 11.6616 5.24625C12.3081 5.24625 12.933 5.33737 13.5266 5.50834C13.8243 5.59426 14.2539 5.5283 14.4934 5.11346C14.733 4.69949 16.0504 2.37794 16.27 1.98479C16.5729 1.44064 16.2569 0.880859 15.567 0.880859H11.0723C4.95728 0.880859 0 5.84074 0 11.9558C0 14.4543 0.827948 16.7585 2.22348 18.6114C1.76525 19.4125 0.501629 21.6568 0.104144 22.3494C-0.106748 22.7173 0 23.0341 0.459971 23.0341H3.83078C4.23521 23.0341 4.41225 22.8501 4.59971 22.5255C4.80887 22.1428 6.62098 18.9508 7.16948 18.0039C7.34652 17.6984 7.5444 17.2984 7.0393 16.8184Z" fill="#E30613"/>
<path d="M16.2863 7.09752C17.5716 8.31948 18.3735 10.0465 18.3735 11.9602C18.3735 15.666 15.3698 18.6697 11.664 18.6697C11.0174 18.6697 10.3926 18.5777 9.79893 18.4076C9.50125 18.3217 9.07165 18.3876 8.83212 18.8025C8.59259 19.2165 7.27516 21.538 7.05559 21.9312C6.7527 22.4753 7.06861 23.0351 7.75857 23.0351H12.2533C18.3683 23.0351 23.3247 18.0743 23.3247 11.9602C23.3247 9.4616 22.4967 7.15741 21.1012 5.3045C21.5594 4.50346 22.8231 2.25915 23.2205 1.56659C23.4314 1.19861 23.3247 0.881836 22.8647 0.881836H19.4948C19.0903 0.881836 18.9133 1.06582 18.725 1.39041C18.5158 1.77314 16.7037 4.96517 16.1552 5.91201C15.9782 6.2175 15.7803 6.61759 16.2854 7.09752" fill="#E30613"/>
<path d="M12.2983 8.15459C12.2983 8.50695 12.0128 8.79161 11.6613 8.79161C11.3098 8.79161 11.0243 8.50608 11.0243 8.15459C11.0243 7.80311 11.3098 7.51758 11.6613 7.51758C12.0128 7.51758 12.2983 7.80311 12.2983 8.15459Z" fill="#E30613"/>
<path d="M15.4152 14.5249H7.91245V15.4362H15.4152V14.5249Z" fill="#E30613"/>
<path d="M6.76292 12.7822C7.02328 13.1632 7.23591 13.3758 7.48152 13.6379L7.91892 14.11H15.4243L15.853 13.6379C16.0986 13.3758 16.3546 13.1059 16.5716 12.7822C17.5974 11.2521 16.3815 9.63961 14.9773 9.74636C14.9513 9.7481 14.9261 9.74897 14.9001 9.74983C14.8567 9.67867 14.8072 9.60664 14.7525 9.53287C14.303 8.93404 13.5514 8.6676 12.7903 8.8377C12.332 8.94011 11.9432 9.18225 11.6673 9.51725C11.3904 9.18225 11.0016 8.94011 10.5442 8.8377C9.78311 8.6676 9.03066 8.93317 8.58198 9.53287C8.5273 9.60664 8.47783 9.67867 8.43444 9.74983C8.40927 9.7481 8.3572 9.74636 8.3572 9.74636C7.07709 9.61011 5.67461 11.1905 6.76292 12.7822ZM11.1908 10.57C10.3325 10.5023 9.78571 10.2515 9.33268 10.0423L9.32834 10.0406C9.56788 9.7481 9.9454 9.62746 10.3472 9.71685C10.6866 9.79323 11.0849 10.0484 11.1873 10.5379C11.1882 10.5465 11.1891 10.557 11.1899 10.5691M14.0053 10.0397L14.001 10.0414C13.5488 10.2497 13.0012 10.5005 12.1437 10.5691C12.1446 10.557 12.1455 10.5465 12.1463 10.5379C12.2496 10.0484 12.6471 9.79236 12.9864 9.71685C13.3882 9.6266 13.7658 9.7481 14.0053 10.0406M13.6434 13.21C14.0253 12.8056 14.4783 12.2554 14.5928 12.1113C14.6987 11.9777 15.2307 11.4049 15.1995 10.6602C15.846 10.7444 16.0535 11.279 16.0535 11.555C16.0535 11.7503 15.9884 12.0375 15.827 12.2762C15.6482 12.54 15.4286 12.7744 15.1969 13.0217C15.1969 13.0217 15.1101 13.1163 15.025 13.2092H13.6451L13.6434 13.21ZM12.1203 11.4743C13.1227 11.4083 13.7987 11.1245 14.2752 10.9067C14.224 11.1072 14.0148 11.391 13.9315 11.4925C13.62 11.8752 12.7773 12.8169 12.398 13.2092H12.1194C12.1194 13.2092 12.1168 11.8414 12.1194 11.4734M10.9322 13.2092C10.5538 12.8169 9.62429 11.7763 9.46026 11.5698C9.29623 11.3632 9.10704 11.1063 9.05583 10.9058C9.53229 11.1237 10.2084 11.4066 11.2108 11.4734C11.2134 11.8414 11.2108 13.2092 11.2108 13.2092H10.9322ZM7.2793 11.555C7.2793 11.1558 7.60215 10.7288 8.13329 10.6602C8.10551 11.3172 8.44572 11.7338 8.69653 12.0532C8.93433 12.3569 9.30665 12.8047 9.68938 13.2092H8.30946C8.22441 13.1163 8.13763 13.0217 8.13763 13.0217C7.9059 12.7744 7.68633 12.54 7.50755 12.2762C7.34526 12.0375 7.28104 11.7546 7.28104 11.555" fill="#E30613"/>
</svg>
