<svg width="112" height="21" viewBox="0 0 112 21" fill="none" xmlns="http://www.w3.org/2000/svg">
<path d="M0 0H20.8987V20.8987H0V0ZM22.6402 0H43.5389V20.8987H22.6402V0ZM45.2805 0H66.1792V20.8987H45.2805V0ZM67.9207 0H88.8194V20.8987H67.9207V0ZM90.561 0H111.46V20.8987H90.561V0Z" fill="#00B67A"/>
<rect x="100.314" y="-0.00012207" width="11.146" height="20.9108" fill="#DBDDE4"/>
<path d="M10.4493 14.0848L13.6276 13.2793L14.9556 17.372L10.4493 14.0848ZM17.7638 8.79484H12.1691L10.4493 3.52663L8.72952 8.79484H3.13477L7.66281 12.0603L5.94303 17.3285L10.4711 14.063L13.2576 12.0603L17.7638 8.79484ZM33.0895 14.0848L36.2679 13.2793L37.5958 17.372L33.0895 14.0848ZM40.4041 8.79484H34.8093L33.0895 3.52663L31.3698 8.79484H25.775L30.3031 12.0603L28.5833 17.3285L33.1113 14.063L35.8978 12.0603L40.4041 8.79484ZM55.7298 14.0848L58.9081 13.2793L60.2361 17.372L55.7298 14.0848ZM63.0443 8.79484H57.4496L55.7298 3.52663L54.01 8.79484H48.4152L52.9433 12.0603L51.2235 17.3285L55.7516 14.063L58.538 12.0603L63.0443 8.79484ZM78.37 14.0848L81.5484 13.2793L82.8763 17.372L78.37 14.0848ZM85.6846 8.79484H80.0898L78.37 3.52663L76.6502 8.79484H71.0555L75.5835 12.0603L73.8637 17.3285L78.3918 14.063L81.1783 12.0603L85.6846 8.79484ZM101.01 14.0848L104.189 13.2793L105.517 17.372L101.01 14.0848ZM108.325 8.79484H102.73L101.01 3.52663L99.2905 8.79484H93.6957L98.2238 12.0603L96.504 17.3285L101.032 14.063L103.819 12.0603L108.325 8.79484Z" fill="white"/>
</svg>
